<svg version="1.1" xmlns="http://www.w3.org/2000/svg" viewBox="0 0 657.9731010286712 882.520484046549" width="657.9731010286712" height="882.520484046549">
  <!-- svg-source:excalidraw -->
  
  <defs>
    <style class="style-fonts">
      @font-face {
        font-family: "Virgil";
        src: url("https://excalidraw.com/Virgil.woff2");
      }
      @font-face {
        font-family: "Cascadia";
        src: url("https://excalidraw.com/Cascadia.woff2");
      }
    </style>
  </defs>
  <g transform="translate(10 10) rotate(0 32.28997039794922 12)"><text x="0" y="0" font-family="Virgil, Segoe UI Emoji" font-size="20px" fill="#000000" text-anchor="start" style="white-space: pre;" direction="ltr" dominant-baseline="text-before-edge">Adjust</text></g><g transform="translate(48.23366256417512 44.05362822578127) rotate(0 162.96791076660156 9.600000000000023)"><text x="0" y="0" font-family="Virgil, Segoe UI Emoji" font-size="16px" fill="#000000" text-anchor="start" style="white-space: pre;" direction="ltr" dominant-baseline="text-before-edge">Current Strategic Direction (0째 Baseline)</text></g><g stroke-linecap="round"><g transform="translate(46.11035714071022 91.98703276679726) rotate(0 300.8433739091754 -0.3307003906849104)"><path d="M-0.18 0.49 C237.33 -1.45, 472.92 -2.2, 601.86 0.58 M0.26 -0.04 C121.22 -0.17, 242.42 -0.07, 601.32 0.14" stroke="#000000" stroke-width="1" fill="none"></path></g></g><mask></mask><g stroke-linecap="round"><g transform="translate(47.776191799303206 128.3881064191487) rotate(0 299.42509938608714 -0.34865981287623526)"><path d="M0.49 0.54 C175.21 -0.14, 349.73 0.96, 598.89 -0.79 M-0.04 0.01 C132.93 -1.58, 266.31 -1.68, 598.44 -0.14" stroke="#000000" stroke-width="1" fill="none"></path></g></g><mask></mask><g stroke-linecap="round"><g transform="translate(47.764884766896785 164.47094051235172) rotate(0 299.09230070728665 -0.5923375128928683)"><path d="M0.54 -0.06 C213.59 -2.28, 428.94 -0.9, 597.53 -0.62 M0.01 -0.35 C174.89 -0.04, 349.67 0.35, 598.17 -0.08" stroke="#000000" stroke-width="1" fill="none"></path></g></g><mask></mask><g stroke-linecap="round"><g transform="translate(47.754767777358666 199.92268378487597) rotate(0 298.2200833270748 -0.6734024400767566)"><path d="M-0.06 -0.66 C165.13 -1.19, 332.44 -2.41, 596.25 -0.06 M-0.35 0 C218.19 -0.18, 437.03 -0.21, 596.79 0.11" stroke="#000000" stroke-width="1" fill="none"></path></g></g><mask></mask><g transform="translate(48.214603192226605 220.74627868398807) rotate(0 163.67990112304688 9.600000000000023)"><text x="0" y="0" font-family="Virgil, Segoe UI Emoji" font-size="16px" fill="#000000" text-anchor="start" style="white-space: pre;" direction="ltr" dominant-baseline="text-before-edge">Feasible Strategic Option (45째 Deviation)</text></g><g stroke-linecap="round"><g transform="translate(46.091297768761706 268.67968322500406) rotate(0 300.8624332811238 0.43863750646880817)"><path d="M0.17 -0.46 C158.38 -0.8, 315.85 -1.21, 601.56 -0.03 M0.28 -0.07 C200.67 2.28, 401.72 2.37, 601.49 -0.29" stroke="#000000" stroke-width="1" fill="none"></path></g></g><mask></mask><g stroke-linecap="round"><g transform="translate(47.75713242735446 305.0807568773555) rotate(0 298.9044885562719 -0.261831327931759)"><path d="M-0.46 0.54 C160.93 -0.33, 320.69 -0.37, 598.27 0.27 M-0.07 -0.03 C135.51 -1.33, 270.89 -1.59, 598.01 0.23" stroke="#000000" stroke-width="1" fill="none"></path></g></g><mask></mask><g stroke-linecap="round"><g transform="translate(47.7458253949485 341.1635909705585) rotate(0 299.27787863891433 0.3498114362862452)"><path d="M0.54 0.78 C218.97 1.76, 437.74 1.36, 598.58 -0.59 M-0.03 0.23 C128.9 0.75, 257.22 0.13, 598.55 0.12" stroke="#000000" stroke-width="1" fill="none"></path></g></g><mask></mask><g stroke-linecap="round"><g transform="translate(47.73570840541015 376.61533424308277) rotate(0 298.6084399173458 -0.413704040464836)"><path d="M0.78 0.17 C191.95 -1.49, 383.12 -1.35, 596.28 -0.68 M0.23 0.33 C220.6 0.24, 440.26 0.4, 596.99 -0.3" stroke="#000000" stroke-width="1" fill="none"></path></g></g><mask></mask><g transform="translate(48.75945236781399 393.46147026794324) rotate(0 176.63990783691406 9.600000000000023)"><text x="0" y="0" font-family="Virgil, Segoe UI Emoji" font-size="16px" fill="#000000" text-anchor="start" style="white-space: pre;" direction="ltr" dominant-baseline="text-before-edge">Alternative Strategic Option (90째 Deviation)</text></g><g stroke-linecap="round"><g transform="translate(46.63614694434909 441.39487480895923) rotate(0 300.3175841055364 -0.1882890341669281)"><path d="M-0.41 0.75 C226.16 -1.91, 451.8 -1.28, 600.71 -0.14 M-0.33 0.34 C155.24 -0.05, 310.68 0.18, 601.05 0.33" stroke="#000000" stroke-width="1" fill="none"></path></g></g><mask></mask><g stroke-linecap="round"><g transform="translate(48.30198160294185 477.7959484613107) rotate(0 299.4880618477225 0.5876011888639141)"><path d="M0.75 0.39 C123 1.5, 247.07 0.52, 598.16 -0.34 M0.34 0.07 C145.5 2.34, 291.31 1.61, 598.63 0.07" stroke="#000000" stroke-width="1" fill="none"></path></g></g><mask></mask><g stroke-linecap="round"><g transform="translate(48.290674570535884 513.8787825545137) rotate(0 299.2306936399998 -0.6946734648615802)"><path d="M0.39 -0.43 C216.42 -2.04, 431.6 -2.37, 597.98 -0.45 M0.07 -0.08 C179.15 -1.9, 357.22 -1.72, 598.39 0.38" stroke="#000000" stroke-width="1" fill="none"></path></g></g><mask></mask><g stroke-linecap="round"><g transform="translate(48.28055758099754 549.330525827038) rotate(0 298.40717667550325 -0.44722128369835445)"><path d="M-0.43 0.26 C148.49 -1.89, 296.46 -1.51, 596.41 -0.01 M-0.08 0.35 C129.56 -0.81, 259.16 -0.35, 597.25 -0.19" stroke="#000000" stroke-width="1" fill="none"></path></g></g><mask></mask><g transform="translate(48.13334986926793 568.3628963177207) rotate(0 172.60789489746094 9.600000000000023)"><text x="0" y="0" font-family="Virgil, Segoe UI Emoji" font-size="16px" fill="#000000" text-anchor="start" style="white-space: pre;" direction="ltr" dominant-baseline="text-before-edge">Wild-Card Strategic Option (180째 Deviation)</text></g><g stroke-linecap="round"><g transform="translate(46.01004444580303 616.2963008587367) rotate(0 300.9436866040827 -0.14040878377466015)"><path d="M0.01 -0.42 C236.37 -1.2, 472.28 -2.21, 601.88 -0.52 M0.33 0.01 C130.18 1.26, 259.57 1.65, 601.18 0.34" stroke="#000000" stroke-width="1" fill="none"></path></g></g><mask></mask><g stroke-linecap="round"><g transform="translate(47.675879104396245 652.6973745110886) rotate(0 299.1135186841698 -0.6039059614452071)"><path d="M-0.42 0.43 C140.69 0.38, 279.92 0.42, 597.79 -0.67 M0.01 0.33 C234.36 -2.13, 469.18 -2.25, 598.65 -0.23" stroke="#000000" stroke-width="1" fill="none"></path></g></g><mask></mask><g stroke-linecap="round"><g transform="translate(47.66457207198937 688.7802086042916) rotate(0 299.2068520920337 0.3274260627501917)"><path d="M0.43 0.44 C220.71 0.69, 441.04 0.74, 597.64 0.73 M0.33 -0.08 C145.95 0.26, 291.91 0.29, 598.08 0.27" stroke="#000000" stroke-width="1" fill="none"></path></g></g><mask></mask><g stroke-linecap="round"><g transform="translate(47.65445508245148 724.2319518768159) rotate(0 298.7611961266448 -0.6129231538272961)"><path d="M0.44 0.41 C179.25 -0.84, 359.12 -1.96, 597.6 -0.45 M-0.08 -0.13 C229.25 -2.22, 458.21 -2.2, 597.14 0.34" stroke="#000000" stroke-width="1" fill="none"></path></g></g><mask></mask><g stroke-linecap="round"><g transform="translate(21.310807689794046 53.8714534455994) rotate(0 0.6789516860673075 89.93324434345129)"><path d="M1.87 0.41 C1.31 44.13, 0.79 86.8, 0.39 180.26 M0.28 -0.48 C0.03 42.17, -1.23 85.15, 0.07 180.34" stroke="#000000" stroke-width="1" fill="none"></path></g><g transform="translate(21.310807689794046 53.8714534455994) rotate(0 0.6789516860673075 89.93324434345129)"><path d="M2.42 -6.99 C3.93 -7.36, 6.08 -7.59, 7.24 -6.55 C8.4 -5.51, 9.02 -2.64, 9.37 -0.75 C9.72 1.14, 10.27 3.36, 9.34 4.8 C8.41 6.24, 5.43 7.41, 3.79 7.9 C2.14 8.39, 1.01 8.31, -0.54 7.75 C-2.09 7.2, -4.51 6.13, -5.51 4.57 C-6.51 3.01, -6.9 -0.03, -6.54 -1.59 C-6.17 -3.16, -4.9 -3.81, -3.33 -4.82 C-1.76 -5.83, 1.87 -7.28, 2.87 -7.65 C3.87 -8.03, 2.81 -7.03, 2.67 -7.05 M0.15 -7.15 C1.68 -7.78, 2.94 -9.08, 4.57 -8.27 C6.21 -7.46, 9.21 -3.91, 9.96 -2.29 C10.71 -0.67, 9.79 0.02, 9.06 1.46 C8.33 2.91, 7 5.11, 5.56 6.38 C4.13 7.64, 2.1 9.01, 0.45 9.04 C-1.2 9.07, -3.3 8.03, -4.34 6.57 C-5.38 5.1, -5.57 2.11, -5.82 0.27 C-6.06 -1.57, -6.56 -3.09, -5.79 -4.48 C-5.03 -5.86, -2.19 -7.4, -1.24 -8.05 C-0.29 -8.7, -0.48 -8.43, -0.09 -8.38" stroke="none" stroke-width="0" fill="#000000"></path></g><g transform="translate(21.310807689794046 53.8714534455994) rotate(0 0.6789516860673075 89.93324434345129)"><path d="M-0.55 178.76 L-5.29 166.92 L6.21 165.21 L1.81 182" stroke="none" stroke-width="0" fill="#000000" fill-rule="evenodd"></path><path d="M1.47 180.65 C-0.85 177.57, -2.79 173.74, -6.08 166.44 M0.28 179.99 C-1.11 177.14, -3.56 174.58, -6.33 166.51 M-6.45 166.61 C-3.29 166.38, 2.39 165.6, 5.11 167.13 M-6.94 167 C-1.54 166.96, 3.67 166.91, 6.47 166.38 M5.65 165.41 C3.71 170.91, 2.17 173.35, -1.21 180.82 M6.24 166.43 C4.53 171.39, 3.27 175.29, 0.59 180.68 M0.07 180.34 C0.07 180.34, 0.07 180.34, 0.07 180.34 M0.07 180.34 C0.07 180.34, 0.07 180.34, 0.07 180.34" stroke="#000000" stroke-width="1" fill="none"></path></g></g><mask></mask><g stroke-linecap="round"><g transform="translate(19.903998764670177 231.02723121917938) rotate(0 0.5966860621133492 89.12568018055254)"><path d="M0.77 1.78 C-0.73 44.82, 1.04 86.5, 1.2 178.64 M0.1 -0.39 C-0.06 67.14, 0.01 136.55, -0.01 177.21" stroke="#000000" stroke-width="1" fill="none"></path></g><g transform="translate(19.903998764670177 231.02723121917938) rotate(0 0.5966860621133492 89.12568018055254)"><path d="M-9.5 150.79 C-8.17 157.68, -3.91 163.14, 1.19 178.83 M-10.17 148.63 C-6.9 159.01, -2.88 171.21, -0.02 177.4" stroke="#000000" stroke-width="1" fill="none"></path></g><g transform="translate(19.903998764670177 231.02723121917938) rotate(0 0.5966860621133492 89.12568018055254)"><path d="M11.02 150.79 C7.35 157.59, 6.63 163.05, 1.19 178.83 M10.35 148.63 C5.73 158.89, 1.86 171.09, -0.02 177.4" stroke="#000000" stroke-width="1" fill="none"></path></g></g><mask></mask><g stroke-linecap="round"><g transform="translate(22.09026659029314 409.936803829331) rotate(0 -0.6404743939228865 83.8078443586578)"><path d="M-1.81 -1.2 C0.27 52.26, -0.27 103.1, -1.17 168.81 M0.28 0.45 C0.74 63.98, 0.43 127.05, 0.42 168.75" stroke="#000000" stroke-width="1" fill="none"></path></g><g transform="translate(22.09026659029314 409.936803829331) rotate(0 -0.6404743939228865 83.8078443586578)"><path d="M-15.93 167.84 C-9.23 168.83, -4.99 167.75, -0.46 168.88 M-14.36 169.07 C-8.61 169.42, -3.21 169.3, 0.74 168.84" stroke="#000000" stroke-width="1" fill="none"></path></g><g transform="translate(22.09026659029314 409.936803829331) rotate(0 -0.6404743939228865 83.8078443586578)"><path d="M14.07 167.88 C11.46 168.65, 6.41 167.57, -0.46 168.88 M15.64 169.11 C10.14 169.18, 4.28 169.04, 0.74 168.84" stroke="#000000" stroke-width="1" fill="none"></path></g></g><mask></mask><g stroke-linecap="round"><g transform="translate(94.18649083666719 790.3218782592107) rotate(0 -0.4296724595997148 35.19816761033394)"><path d="M0.2 0.07 C-0.32 25.39, -1.45 50.75, -0.92 68.7 M-0.91 0 C-0.78 28.18, 0.43 53.76, -0.99 70.39" stroke="#000000" stroke-width="1" fill="none"></path></g><g transform="translate(94.18649083666719 790.3218782592107) rotate(0 -0.4296724595997148 35.19816761033394)"><path d="M2.52 63.38 C4.03 63.9, 5.46 64.73, 6.36 66.09 C7.25 67.45, 8.4 69.68, 7.89 71.56 C7.37 73.44, 4.84 76.16, 3.28 77.36 C1.71 78.57, 0.13 79.02, -1.52 78.8 C-3.18 78.58, -5.46 77.4, -6.66 76.03 C-7.87 74.66, -8.67 72.41, -8.77 70.59 C-8.87 68.76, -8.05 66.44, -7.26 65.06 C-6.47 63.67, -5.61 62.35, -4.04 62.27 C-2.47 62.19, 0.84 64.43, 2.14 64.58 C3.44 64.73, 3.66 63.28, 3.76 63.15 M1.81 61.88 C3.38 62.32, 5.88 63.77, 6.74 65.29 C7.61 66.81, 7.35 69.4, 6.98 71.01 C6.6 72.62, 5.72 73.71, 4.5 74.94 C3.29 76.17, 1.45 78.33, -0.31 78.4 C-2.06 78.46, -4.74 76.4, -6.02 75.32 C-7.31 74.23, -7.63 73.38, -8.02 71.88 C-8.41 70.38, -9.01 67.61, -8.37 66.33 C-7.73 65.05, -5.73 64.69, -4.18 64.21 C-2.63 63.73, -0.21 63.55, 0.93 63.44 C2.06 63.33, 2.5 63.59, 2.63 63.55" stroke="none" stroke-width="0" fill="#000000"></path></g></g><mask></mask><g stroke-linecap="round"><g transform="translate(227.55321849915094 790.3485120750506) rotate(0 -0.34736346919089556 38.598543175495706)"><path d="M0.04 -1.41 C-1.05 14.89, -0.4 31.86, -1.37 78.6 M-0.5 -0.68 C0.57 26.02, -0.01 52.71, 0.67 75.86" stroke="#000000" stroke-width="1" fill="none"></path></g><g transform="translate(227.55321849915094 790.3485120750506) rotate(0 -0.34736346919089556 38.598543175495706)"><path d="M-0.46 76.24 L-4.68 62.71 L7.05 61.29 L0.84 74.31" stroke="none" stroke-width="0" fill="#000000" fill-rule="evenodd"></path><path d="M0.7 74.81 C-1.74 72.72, -2.56 71.17, -6.91 63.71 M0.3 75.35 C-0.95 70.81, -3.65 66.28, -5.38 61.66 M-5.29 62.48 C-3.2 63.28, -0.02 62.48, 7.9 60.93 M-5.49 62.79 C-3.37 62.07, 0.28 62.5, 6.33 62.25 M8.2 61.05 C4.19 67.28, 3.26 71.42, 0.77 76.07 M6.05 61.54 C4.11 66.24, 3.29 71.76, 0 76.04 M0.67 75.86 C0.67 75.86, 0.67 75.86, 0.67 75.86 M0.67 75.86 C0.67 75.86, 0.67 75.86, 0.67 75.86" stroke="#000000" stroke-width="1" fill="none"></path></g></g><mask></mask><g stroke-linecap="round"><g transform="translate(362.106101069204 790.7793363920887) rotate(0 0.1912485845386982 39.409829703619835)"><path d="M-1.41 -1.38 C-1.09 26.48, 0.47 53.04, 1.79 80.2 M-0.68 0.8 C-0.7 21.64, -0.53 43.52, -0.95 78.89" stroke="#000000" stroke-width="1" fill="none"></path></g><g transform="translate(362.106101069204 790.7793363920887) rotate(0 0.1912485845386982 39.409829703619835)"><path d="M-12.38 49.23 C-8.26 59.58, -3.27 68.65, 0.84 79.8 M-11.66 51.42 C-8.84 58.52, -5.96 66.62, -1.91 78.48" stroke="#000000" stroke-width="1" fill="none"></path></g><g transform="translate(362.106101069204 790.7793363920887) rotate(0 0.1912485845386982 39.409829703619835)"><path d="M8.14 49.4 C5.22 59.7, 3.17 68.7, 0.84 79.8 M8.86 51.59 C6.14 58.55, 3.47 66.6, -1.91 78.48" stroke="#000000" stroke-width="1" fill="none"></path></g></g><mask></mask><g stroke-linecap="round"><g transform="translate(497.2613125506807 791.0379444343516) rotate(0 -0.23957573249936104 40.47940728410754)"><path d="M-1.38 -0.52 C-0.72 19.81, -1.35 39.36, 0.91 81.36 M0.8 -0.5 C-0.19 22.2, 0.27 44.11, -0.41 81.48" stroke="#000000" stroke-width="1" fill="none"></path></g><g transform="translate(497.2613125506807 791.0379444343516) rotate(0 -0.23957573249936104 40.47940728410754)"><path d="M-16.44 80.9 C-12.52 82.22, -9.56 82.83, 0.27 81.04 M-14.8 80.92 C-11.12 81.2, -6.65 80.79, -0.71 81.13" stroke="#000000" stroke-width="1" fill="none"></path></g><g transform="translate(497.2613125506807 791.0379444343516) rotate(0 -0.23957573249936104 40.47940728410754)"><path d="M13.55 81.28 C10.61 82.29, 6.69 82.82, 0.27 81.04 M15.19 81.29 C10.63 81.27, 6.85 80.75, -0.71 81.13" stroke="#000000" stroke-width="1" fill="none"></path></g></g><mask></mask><g stroke-linecap="round"><g transform="translate(92.72893447318597 825.5937957861543) rotate(0 53.388906557099176 -0.09323060287761109)"><path d="M0.44 0.58 C38.95 1.34, 75.65 -1.15, 105.47 -0.56 M-0.21 -0.07 C29.64 0.64, 60.37 0.85, 106.98 -0.91" stroke="#000000" stroke-width="1" fill="none"></path></g></g><mask></mask><g stroke-linecap="round"><g transform="translate(226.81998329828298 826.1337706169625) rotate(0 53.668922267697894 -0.5715956401718358)"><path d="M1.6 -1.42 C38.48 2.41, 79.42 -0.2, 105.05 -1.71 M-0.07 -0.79 C37.63 0.21, 76.63 -0.78, 107.41 -0.9" stroke="#000000" stroke-width="1" fill="none"></path></g></g><mask></mask><g stroke-linecap="round"><g transform="translate(362.3685884868603 824.8225963153991) rotate(0 53.390304580820725 0.7572692747505698)"><path d="M-0.26 1.55 C42.46 2.23, 85.85 2.32, 106.49 1.81 M0.58 -0.19 C30.06 -1.01, 62.21 -0.37, 107.04 -0.54" stroke="#000000" stroke-width="1" fill="none"></path></g></g><mask></mask><g stroke-linecap="round"><g transform="translate(496.45963731195684 825.1120278877515) rotate(0 53.57438658305739 0.41828122268543666)"><path d="M-1.1 1.08 C31 -0.27, 57.73 -0.75, 108.25 0.41 M-0.77 0.26 C33.63 0.53, 66.09 0.1, 108.2 -0.03" stroke="#000000" stroke-width="1" fill="none"></path></g></g><mask></mask><g transform="translate(173.70462739618984 794.8025475169529) rotate(0 9.389999389648438 12)"><text x="9.389999389648438" y="0" font-family="Virgil, Segoe UI Emoji" font-size="20px" fill="#000000" text-anchor="middle" style="white-space: pre;" direction="ltr" dominant-baseline="text-before-edge">%</text></g><g transform="translate(308.8888101340974 793.9476021395421) rotate(0 9.389999389648438 12)"><text x="9.389999389648438" y="0" font-family="Virgil, Segoe UI Emoji" font-size="20px" fill="#000000" text-anchor="middle" style="white-space: pre;" direction="ltr" dominant-baseline="text-before-edge">%</text></g><g transform="translate(442.97985895919396 797.5913596090463) rotate(0 9.389999389648438 12)"><text x="9.389999389648438" y="0" font-family="Virgil, Segoe UI Emoji" font-size="20px" fill="#000000" text-anchor="middle" style="white-space: pre;" direction="ltr" dominant-baseline="text-before-edge">%</text></g><g transform="translate(578.5284641477717 799.0488492529289) rotate(0 9.389999389648438 12)"><text x="9.389999389648438" y="0" font-family="Virgil, Segoe UI Emoji" font-size="20px" fill="#000000" text-anchor="middle" style="white-space: pre;" direction="ltr" dominant-baseline="text-before-edge">%</text></g><g transform="translate(49.6083779101989 748.9784214379952) rotate(0 64.19995880126953 9.599999999999909)"><text x="0" y="0" font-family="Virgil, Segoe UI Emoji" font-size="16px" fill="#000000" text-anchor="start" style="white-space: pre;" direction="ltr" dominant-baseline="text-before-edge">Option Weighting:</text></g></svg>