<svg version="1.1" xmlns="http://www.w3.org/2000/svg" viewBox="0 0 670.6841707468034 1033.34836772859" width="670.6841707468034" height="1033.34836772859">
  <!-- svg-source:excalidraw -->
  
  <defs>
    <style class="style-fonts">
      @font-face {
        font-family: "Virgil";
        src: url("https://excalidraw.com/Virgil.woff2");
      }
      @font-face {
        font-family: "Cascadia";
        src: url("https://excalidraw.com/Cascadia.woff2");
      }
    </style>
  </defs>
  <g transform="translate(10 10) rotate(0 32.28997039794922 12)"><text x="0" y="0" font-family="Virgil, Segoe UI Emoji" font-size="20px" fill="#000000" text-anchor="start" style="white-space: pre;" direction="ltr" dominant-baseline="text-before-edge">Adjust</text></g><g transform="translate(10 41.83332824707031) rotate(0 104.33592224121094 9.600000000000023)"><text x="0" y="0" font-family="Virgil, Segoe UI Emoji" font-size="16px" fill="#000000" text-anchor="start" style="white-space: pre;" direction="ltr" dominant-baseline="text-before-edge">Retrospective Assessment:</text></g><g stroke-linecap="round" transform="translate(10 66.53046265176135) rotate(0 323.84004092257123 186.68424212845002)"><path d="M-0.53 0.78 C161.27 -0.98, 322.41 -0.87, 648.25 -0.49 M-0.05 -0.36 C209.11 -1.2, 418.66 -1.41, 647.38 -0.17 M647.26 0.24 C644.45 144.38, 645.46 287.77, 648.21 373.44 M647.75 -0.28 C645.33 93.79, 645.33 188.22, 647.38 372.82 M646.9 373.44 C425.56 371.99, 201.7 370.53, -0.38 373.11 M647.64 373.1 C453.49 375.83, 259.26 375.81, 0.3 373.39 M-0.7 374.55 C1.4 292.66, -0.72 213.49, 0.8 -0.66 M-0.23 373.85 C-0.75 256.76, -0.84 138.97, -0.22 -0.43" stroke="#000000" stroke-width="1" fill="none"></path></g><g transform="translate(103.92320748303564 84.5520671211425) rotate(0 17.759986877441406 9.600000000000023)"><text x="0" y="0" font-family="Virgil, Segoe UI Emoji" font-size="16px" fill="#000000" text-anchor="start" style="white-space: pre;" direction="ltr" dominant-baseline="text-before-edge">Stop</text></g><g transform="translate(312.9500597355802 84.55206712114227) rotate(0 22.67998504638672 9.600000000000023)"><text x="0" y="0" font-family="Virgil, Segoe UI Emoji" font-size="16px" fill="#000000" text-anchor="start" style="white-space: pre;" direction="ltr" dominant-baseline="text-before-edge">Start</text></g><g transform="translate(501.9689225515193 84.5520671211425) rotate(0 32.24798583984381 9.600000000000023)"><text x="0" y="0" font-family="Virgil, Segoe UI Emoji" font-size="16px" fill="#000000" text-anchor="start" style="white-space: pre;" direction="ltr" dominant-baseline="text-before-edge">Continue</text></g><g stroke-linecap="round"><g transform="translate(225.06676462034852 81.76999262143067) rotate(0 -0.22911168767319623 168.06845346459852)"><path d="M0.61 -0.67 C-0.63 128.36, -2.3 253.31, 0.33 336.74 M-0.32 -0.61 C-0.77 131.53, -1.03 263.87, 0.4 336.81" stroke="#000000" stroke-width="1" fill="none"></path></g></g><mask></mask><g stroke-linecap="round"><g transform="translate(443.41159086472135 78.47895695388229) rotate(0 0.2946355490254291 169.07871147904427)"><path d="M-0.72 1.04 C-0.53 93.12, -1.14 185.44, 0.02 337.71 M0.17 0.45 C1.87 93.87, 1.52 188.27, 0.05 336.17" stroke="#000000" stroke-width="1" fill="none"></path></g></g><mask></mask><g stroke-linecap="round" transform="translate(49.812111834957136 118.59884702576619) rotate(0 67.9429141371416 67.94291413714154)"><path d="M1.49 1.07 C44.05 2.9, 85.35 1.39, 136.47 1.63 M-0.28 -0.28 C48.39 -1.15, 99 -0.75, 135.28 -0.37 M133.99 -0.05 C135.17 34.29, 135.34 72.12, 135.8 137.71 M135.18 -0.12 C135.47 30.84, 135.25 60.32, 136.47 135.06 M137.35 134.28 C88.77 135.34, 37.25 135.36, 1.88 136.53 M135.13 135.59 C108.63 135.36, 80.68 136.01, -0.44 135.48 M1.45 134.8 C0.19 106.52, 2.59 76.91, -0.8 0.95 M-0.41 135.8 C0.81 89.59, -0.58 42.12, -0.07 0.91" stroke="#000000" stroke-width="1" fill="none"></path></g><g stroke-linecap="round"><g transform="translate(61.01370196034986 218.7078099579885) rotate(0 55.53141129251992 0.01821866984244025)"><path d="M1.93 0.58 C23.27 1.37, 44.16 -0.34, 109.39 0.08 M0.88 -0.76 C32.93 1.2, 67.81 0.28, 110.18 -0.73" stroke="#000000" stroke-width="1" fill="none"></path></g></g><mask></mask><g stroke-linecap="round"><g transform="translate(61.92954443385679 185.06462645657393) rotate(0 54.61556881901299 0.25591878965497017)"><path d="M1.91 -1.12 C36.62 -0.26, 76.64 -1.42, 108.86 1.63 M-0.7 -0.47 C31 -0.42, 62.56 1.42, 109.93 -0.28" stroke="#000000" stroke-width="1" fill="none"></path></g></g><mask></mask><g stroke-linecap="round"><g transform="translate(61.53497916264314 152.83232271241468) rotate(0 55.01013409022664 -0.7699358938261867)"><path d="M-1.78 -1.4 C27.23 0.56, 50.08 -0.48, 111.8 -1.24 M-0.08 -0.14 C30.36 -0.42, 58.54 0.08, 110.07 -0.95" stroke="#000000" stroke-width="1" fill="none"></path></g></g><mask></mask><g stroke-linecap="round" transform="translate(51.515346682736435 277.5391806821938) rotate(0 67.9429141371416 67.94291413714166)"><path d="M1.47 1.82 C51.14 -0.43, 99.06 -1.15, 137.73 1.97 M-0.34 -0.1 C32.19 0.6, 64.76 0.85, 135.4 -0.45 M134.76 -0.86 C136.27 50.97, 136.22 105.23, 135.03 133.95 M135.55 0.2 C134.18 37.82, 133.89 76.71, 135.25 135.75 M135.2 135.17 C85.31 135.03, 35.69 138.04, 0.58 137.12 M136.84 135.29 C102.53 136.52, 69.16 135.8, -0.66 136.52 M-0.58 137.28 C-1.47 96.24, -2.88 58.37, -0.62 1.17 M-0.29 135.26 C-0.22 86.79, 0.04 38.91, 0.37 -0.11" stroke="#000000" stroke-width="1" fill="none"></path></g><g stroke-linecap="round"><g transform="translate(62.71693680812905 377.6481436144161) rotate(0 55.93043099858289 -0.20189343765377998)"><path d="M1.82 0.85 C30.58 -2.33, 60.5 1.03, 111.97 -1.25 M-0.1 -0.08 C37.64 0.6, 75.65 -0.11, 109.55 0.85" stroke="#000000" stroke-width="1" fill="none"></path></g></g><mask></mask><g stroke-linecap="round"><g transform="translate(63.632779281635976 344.0049601130015) rotate(0 55.37955445286309 0.11927449097436238)"><path d="M0.85 -0.06 C34.47 -1.78, 73.83 0.97, 108.74 0.86 M-0.08 -0.11 C27.48 0.26, 54.03 -0.33, 110.84 0.05" stroke="#000000" stroke-width="1" fill="none"></path></g></g><mask></mask><g stroke-linecap="round"><g transform="translate(63.238214010422325 311.77265636884226) rotate(0 55.37552758075719 -0.6491334112361073)"><path d="M-0.06 -1.52 C40.32 1.37, 84.17 -1.72, 110.86 -1.04 M-0.11 0.23 C29.36 -0.39, 57.98 0.93, 110.05 -0.42" stroke="#000000" stroke-width="1" fill="none"></path></g></g><mask></mask><g stroke-linecap="round" transform="translate(268.3968312688786 119.09331665073591) rotate(0 67.9429141371416 67.94291413714166)"><path d="M-0.92 1.12 C50.36 2.27, 100.34 -1.37, 134.58 1.91 M-0.31 0.43 C51.04 -0.83, 103.12 -1.06, 136.32 -0.23 M133.93 0.14 C134.22 39.89, 134.84 78.78, 136.91 136.91 M135.06 0.39 C136.4 43.89, 136.09 86.48, 135.08 135.6 M137.63 136.44 C92.39 135.24, 50.95 136.4, 0.9 134.39 M135.13 135.09 C105.22 136.68, 74.64 135.28, 0.49 136.72 M1.08 134.93 C-0.33 90.8, 0.99 40.26, -0.96 0.99 M-0.95 136.11 C-0.78 106.78, -1.23 78.1, 0.05 -0.47" stroke="#000000" stroke-width="1" fill="none"></path></g><g stroke-linecap="round"><g transform="translate(279.5984213942712 219.20227958295823) rotate(0 56.16815386295741 0.4542798222973943)"><path d="M1.12 0 C31.15 0.12, 56.81 -0.8, 111.91 1.62 M0.43 -0.71 C40.35 -0.03, 80.77 0.77, 109.77 -0.14" stroke="#000000" stroke-width="1" fill="none"></path></g></g><mask></mask><g stroke-linecap="round"><g transform="translate(280.51426386777814 185.55909608154366) rotate(0 55.45184566595083 0.5543869412985032)"><path d="M0 1.84 C29.15 -2.41, 57.76 1.3, 111.61 1.39 M-0.71 -0.31 C36.8 -1.01, 74.79 -0.7, 109.85 -0.4" stroke="#000000" stroke-width="1" fill="none"></path></g></g><mask></mask><g stroke-linecap="round"><g transform="translate(280.1196985965645 153.3267923373844) rotate(0 55.538867961172514 0.09281849620015237)"><path d="M1.84 -0.39 C26.16 -1.31, 57.83 1.62, 111.39 0.76 M-0.31 -0.37 C29.08 1.21, 59.01 0.64, 109.59 -0.73" stroke="#000000" stroke-width="1" fill="none"></path></g></g><mask></mask><g stroke-linecap="round" transform="translate(270.1000661166578 278.0336503071637) rotate(0 67.9429141371416 67.94291413714166)"><path d="M-0.39 -1.8 C47.04 0.66, 98.3 0.14, 136.65 -0.61 M-0.37 -0.54 C47.02 0.19, 93.03 0.02, 135.15 -0.98 M135.39 1.07 C136.15 42.72, 135.46 83.65, 134.31 134.24 M135.91 0.44 C135.53 45.76, 136.49 92.37, 135.25 136.76 M136.67 137.26 C92.25 134.54, 45.26 134.57, 0.41 134.36 M134.98 135 C106.39 137.42, 76.38 137.19, 0.87 136.43 M1.8 134.11 C-1.29 102.63, -2.13 68.64, 1.63 -1.9 M-0.37 135.15 C-0.06 91.63, 0.77 47.45, -0.28 0.25" stroke="#000000" stroke-width="1" fill="none"></path></g><g stroke-linecap="round"><g transform="translate(281.3016562420504 378.14261323938604) rotate(0 53.791951168817036 -0.1297636838381777)"><path d="M-1.8 -1.31 C34.92 1.83, 67.41 0.97, 109.38 0.86 M-0.54 0.44 C24.99 0.27, 50.03 -0.33, 109.02 0.07" stroke="#000000" stroke-width="1" fill="none"></path></g></g><mask></mask><g stroke-linecap="round"><g transform="translate(282.2174987155573 344.49942973797147) rotate(0 54.77159681592559 0.2834225827506316)"><path d="M-1.31 1.91 C44.76 2.38, 87.04 0.37, 110.85 -1.41 M0.44 -0.23 C29.45 0.19, 58.45 -0.38, 110.06 -0.56" stroke="#000000" stroke-width="1" fill="none"></path></g></g><mask></mask><g stroke-linecap="round"><g transform="translate(281.8229334443437 312.2671259938122) rotate(0 54.60505664583718 0.4812512672729099)"><path d="M1.91 1.62 C32.27 1.48, 61.14 1.58, 108.58 -0.62 M-0.23 -0.14 C28.52 -1.21, 56.87 -0.41, 109.44 0.52" stroke="#000000" stroke-width="1" fill="none"></path></g></g><mask></mask><g stroke-linecap="round" transform="translate(477.7324781687885 118.49350104357313) rotate(0 67.94291413714154 67.94291413714166)"><path d="M1.97 -1.46 C47.33 1.51, 89.63 -0.47, 137.85 1.13 M0.31 -0.29 C28.27 -0.22, 57.17 0.44, 136.68 0.78 M137.01 1.32 C133.86 48.63, 136.56 102.46, 135.78 136.49 M134.94 0.32 C136.39 36.38, 135.91 72.51, 136.15 135.5 M137.59 134.61 C104.65 136.33, 75.77 136.43, 0.85 137.77 M136.86 135.6 C99.94 134.25, 62.12 134.91, -0.07 135.3 M0.01 136.05 C-0.26 94.48, -0.12 57.2, -0.89 1.59 M0.6 136.83 C0.22 101.36, 0.52 65.97, -0.64 0.1" stroke="#000000" stroke-width="1" fill="none"></path></g><g stroke-linecap="round"><g transform="translate(488.9340682941811 218.60246397579544) rotate(0 54.83067431722259 -0.020872343331575394)"><path d="M-1.46 1.82 C36.84 -2.46, 70.85 0.88, 111.12 -1.86 M-0.29 0.16 C33.1 0.62, 67.24 0.46, 110.78 0.71" stroke="#000000" stroke-width="1" fill="none"></path></g></g><mask></mask><g stroke-linecap="round"><g transform="translate(489.849910767688 184.95928047438088) rotate(0 55.43471288916146 0.1418601693585515)"><path d="M1.82 0.86 C26.33 -0.31, 57.39 1.93, 108.13 0.09 M0.16 -0.38 C32.69 0.6, 64.25 1.1, 110.7 -0.57" stroke="#000000" stroke-width="1" fill="none"></path></g></g><mask></mask><g stroke-linecap="round"><g transform="translate(489.45534549647437 152.72697673022162) rotate(0 54.851854433794074 -0.20969974715262651)"><path d="M0.86 -1.38 C42.71 0.96, 88.79 -2.87, 110.08 -0.23 M-0.38 0.96 C36.7 0.62, 73.62 0.53, 109.42 0.84" stroke="#000000" stroke-width="1" fill="none"></path></g></g><mask></mask><g stroke-linecap="round" transform="translate(479.43571301656766 277.4338347000005) rotate(0 67.94291413714154 67.94291413714166)"><path d="M-1.38 -1.12 C32.8 0.55, 59.82 -0.49, 135.65 0.62 M0.96 0.29 C37.65 1.3, 74.4 -0.06, 136.73 0.56 M137.34 1.65 C134.93 50.35, 134.35 99.71, 137.03 133.98 M135.75 0.28 C136.63 44.76, 135.56 89.96, 135.38 136.74 M135.39 137.12 C104.64 138.55, 71.12 134.87, -1.91 137.83 M135.79 136.21 C98.99 134.84, 62.15 135.16, 0.09 135.89 M-0.48 136.63 C-0.47 95.57, -0.43 51.4, 0.56 1.21 M0.07 135.85 C-0.32 82.39, 0.92 28.03, 0.06 -0.94" stroke="#000000" stroke-width="1" fill="none"></path></g><g stroke-linecap="round"><g transform="translate(490.6373031419603 377.5427976322228) rotate(0 54.749315169197075 0.6916933171451092)"><path d="M-1.12 1.96 C44.14 -1.1, 86.12 0.53, 110.62 -0.58 M0.29 0.8 C35.6 -0.35, 69.05 -0.21, 110.56 0.66" stroke="#000000" stroke-width="1" fill="none"></path></g></g><mask></mask><g stroke-linecap="round"><g transform="translate(491.5531456154672 343.89961413080823) rotate(0 55.72709453341042 0.250287395901978)"><path d="M1.96 1.13 C35.84 0.7, 75.17 1.24, 109.42 0.33 M0.8 0.78 C29.55 -0.89, 58.52 0.25, 110.66 -0.63" stroke="#000000" stroke-width="1" fill="none"></path></g></g><mask></mask><g stroke-linecap="round"><g transform="translate(491.15858034425355 311.667310386649) rotate(0 55.554773618955664 -0.5768731208518147)"><path d="M1.13 -1.86 C25.5 -1.31, 51.44 -1.65, 110.32 -0.76 M0.78 0.71 C42.99 -0.03, 87.69 -0.22, 109.37 -0.89" stroke="#000000" stroke-width="1" fill="none"></path></g></g><mask></mask><g stroke-linecap="round" transform="translate(10 477.698992404366) rotate(0 323.84004092257123 186.68424212845002)"><path d="M0.23 0.14 C211.31 -2.61, 422.05 -1.45, 648.33 0.09 M0.06 -0.26 C256.55 0.16, 512.42 0.18, 647.86 0.18 M646.52 -0.8 C646.87 134.09, 648.36 265.85, 648.8 372.41 M647.74 0.51 C648.75 107.6, 648.91 213.72, 647.62 372.99 M647.61 373.1 C395.26 374.45, 143.07 375.24, -0.46 372.78 M647.82 373.24 C474.21 372, 301.14 371.77, -0.18 373.26 M0.15 373.02 C-1.57 245.6, -1.26 118.57, -0.94 0.95 M0.28 373 C0.41 259, -0.44 145.97, 0.22 0.34" stroke="#000000" stroke-width="1" fill="none"></path></g><g transform="translate(10 452.6473779632074) rotate(0 52.30396270751953 9.600000000000023)"><text x="0" y="0" font-family="Virgil, Segoe UI Emoji" font-size="16px" fill="#000000" text-anchor="start" style="white-space: pre;" direction="ltr" dominant-baseline="text-before-edge">Action Items:</text></g><g transform="translate(70.11356702342664 499.2871328135109) rotate(0 31.231979370117188 9.600000000000023)"><text x="0" y="0" font-family="Virgil, Segoe UI Emoji" font-size="16px" fill="#000000" text-anchor="start" style="white-space: pre;" direction="ltr" dominant-baseline="text-before-edge">Context</text></g><g transform="translate(269.5859744244734 499.2871328135109) rotate(0 23.70398712158203 9.600000000000023)"><text x="0" y="0" font-family="Virgil, Segoe UI Emoji" font-size="16px" fill="#000000" text-anchor="start" style="white-space: pre;" direction="ltr" dominant-baseline="text-before-edge">Action</text></g><g transform="translate(514.7372759154052 487.3441177522893) rotate(0 50.75996398925781 19.200000000000045)"><text x="50.75996398925781" y="0" font-family="Virgil, Segoe UI Emoji" font-size="16px" fill="#000000" text-anchor="middle" style="white-space: pre;" direction="ltr" dominant-baseline="text-before-edge">Review</text><text x="50.75996398925781" y="19.2" font-family="Virgil, Segoe UI Emoji" font-size="16px" fill="#000000" text-anchor="middle" style="white-space: pre;" direction="ltr" dominant-baseline="text-before-edge">(Next Retro)</text></g><g stroke-linecap="round" transform="translate(31.528451092890577 533.3339127181346) rotate(0 67.9429141371416 67.94291413714166)"><path d="M-1.3 0.05 C38.41 0.42, 77.72 -2.05, 135.84 0.68 M-0.87 -0.81 C39.98 0.23, 78.85 0.46, 135.14 -0.74 M136.13 -0.88 C136.4 26.85, 133.45 56.15, 137.1 136.28 M134.91 0.82 C135.56 54.1, 135.01 107.77, 136.36 135.99 M135.12 135.41 C88.08 136.62, 34.89 133.8, -1.7 137.74 M135.89 136.12 C87.5 136.47, 40.13 135.94, -0.54 135.73 M1.64 135.77 C-1.23 91, -1.02 43.12, 0.99 -0.36 M-0.79 136.18 C0.56 106.68, 0.3 77.7, 0.9 -0.62" stroke="#000000" stroke-width="1" fill="none"></path></g><g stroke-linecap="round"><g transform="translate(42.73004121828342 633.4428756503567) rotate(0 54.933082203869276 0.0781218759799458)"><path d="M0.05 -0.31 C29.05 1, 54.67 0.67, 110.68 -0.24 M-0.81 0.86 C22.78 1.56, 46.39 0.21, 109.25 -0.9" stroke="#000000" stroke-width="1" fill="none"></path></g></g><mask></mask><g stroke-linecap="round"><g transform="translate(43.645883691790345 599.7996921489423) rotate(0 54.72173991475677 -0.3934137709438801)"><path d="M-0.31 0.96 C37.67 -1.53, 74.72 0.65, 109.75 -1.75 M0.86 -0.61 C26.78 0.51, 51.6 0.15, 109.1 -0.39" stroke="#000000" stroke-width="1" fill="none"></path></g></g><mask></mask><g stroke-linecap="round"><g transform="translate(43.251318420576695 567.5673884047831) rotate(0 54.4990811371473 -0.2784240422770381)"><path d="M0.96 0.29 C24.36 0.12, 52.41 -0.07, 108.25 -1.24 M-0.61 0.61 C23.08 -1.7, 46.17 -1.85, 109.61 0.68" stroke="#000000" stroke-width="1" fill="none"></path></g></g><mask></mask><g stroke-linecap="round" transform="translate(33.23168594066999 692.2742463745626) rotate(0 67.9429141371416 67.94291413714154)"><path d="M0.29 -1.51 C41.05 0.03, 81.94 -2.4, 134.65 -1.73 M0.61 -0.38 C29.02 0.08, 58.63 0.44, 136.57 0.12 M133.98 -0.99 C137.81 35.16, 138.57 67.66, 133.96 133.94 M136.28 -0.68 C137.65 52.08, 137.83 103.11, 135.44 135.5 M134.27 134.41 C96.63 138.65, 61.84 137.38, 0.36 135.9 M136.07 135.7 C91.39 136.2, 48.32 136.03, -0.14 136.7 M-1.44 133.98 C2.12 95.53, -0.56 56.52, 1.59 -1.59 M0.72 136.32 C-0.43 90.52, -1.08 45.61, 0.51 0.48" stroke="#000000" stroke-width="1" fill="none"></path></g><g stroke-linecap="round"><g transform="translate(44.433276066062604 792.3832093067858) rotate(0 54.30519891858523 -0.8326489441096783)"><path d="M-1.51 -0.05 C31.98 -0.4, 60.84 -1.4, 108.26 -1.62 M-0.38 -0.75 C41.74 -1.56, 84.58 0.02, 110.12 -0.44" stroke="#000000" stroke-width="1" fill="none"></path></g></g><mask></mask><g stroke-linecap="round"><g transform="translate(45.34911853956953 758.7400258053713) rotate(0 54.40283791583454 0.49006530921906233)"><path d="M-0.05 0.68 C38.04 -0.92, 75.33 -0.91, 108.38 1.73 M-0.75 -0.74 C25.41 0.03, 53.29 0.54, 109.55 0.52" stroke="#000000" stroke-width="1" fill="none"></path></g></g><mask></mask><g stroke-linecap="round"><g transform="translate(44.95455326835588 726.507722061212) rotate(0 55.487631152872495 -0.4216531016479621)"><path d="M0.68 -0.24 C32.84 -1.22, 67.43 -1.59, 111.72 -1.22 M-0.74 -0.9 C39.27 1.51, 79.45 0.38, 110.52 -0.86" stroke="#000000" stroke-width="1" fill="none"></path></g></g><mask></mask><g stroke-linecap="round" transform="translate(225.0327459577719 533.8283823431045) rotate(0 67.9429141371416 67.94291413714166)"><path d="M-0.24 -1.75 C29.29 -2.2, 59.45 1.26, 134.67 1.21 M-0.9 -0.39 C36.27 1.13, 70.74 1.53, 135.03 -0.95 M137.87 -1.88 C134.78 32.08, 138.36 69.94, 135.64 136.68 M136.54 -0.83 C136.09 31.19, 136.3 64.09, 136.56 135.08 M136.95 136.47 C105.51 137.16, 74.89 136.31, 0.68 136.26 M136.23 135.57 C97.5 136.5, 59.34 134.85, 0.27 135.16 M-1.69 136.51 C0.92 106.47, -0.08 82.2, 0.22 1.44 M0.25 135.1 C-0.72 89.76, -1.94 42.88, 0.83 0.15" stroke="#000000" stroke-width="1" fill="none"></path></g><g stroke-linecap="round"><g transform="translate(236.23433608316452 633.9373452753271) rotate(0 54.729475249093525 -0.31633136599782574)"><path d="M-1.75 -1.24 C31.01 -1.49, 67.21 -1.08, 111.21 -0.76 M-0.39 0.68 C24.89 0.55, 50.06 0.13, 109.04 -0.5" stroke="#000000" stroke-width="1" fill="none"></path></g></g><mask></mask><g stroke-linecap="round"><g transform="translate(237.15017855667145 600.2941617739123) rotate(0 54.12920670725828 -0.15780957183972077)"><path d="M-1.24 -1.73 C35.12 2.69, 72.27 2.17, 109.23 -1.5 M0.68 0.12 C24.36 0.95, 48.75 -0.53, 109.5 0.61" stroke="#000000" stroke-width="1" fill="none"></path></g></g><mask></mask><g stroke-linecap="round"><g transform="translate(236.7556132854578 568.061858029753) rotate(0 54.433692913059645 -0.7102326927706599)"><path d="M-1.73 -1.62 C33.39 -0.54, 64.55 -0.08, 108.5 -1.49 M0.12 -0.44 C23.65 -1.61, 45.3 -1.25, 110.6 0.2" stroke="#000000" stroke-width="1" fill="none"></path></g></g><mask></mask><g stroke-linecap="round" transform="translate(226.7359808055511 692.768715999533) rotate(0 67.9429141371416 67.94291413714154)"><path d="M-1.62 1.73 C27.67 2.39, 57.02 -0.32, 134.4 -1.79 M-0.44 0.52 C34.63 -1.12, 70.48 0.44, 136.08 0.99 M137.54 1.9 C134.33 28.81, 133.22 56.99, 136.1 137.2 M135.65 0.94 C135.95 28.65, 134.54 58.05, 136.81 136.42 M136.36 135.05 C91.86 136.27, 46.1 134.82, -0.31 136.57 M135.83 135.05 C99.67 136.28, 61.96 137.49, -0.18 135.04 M0.59 137.85 C-0.86 92.33, -0.22 47.71, -1.23 0.5 M-0.72 136.1 C0.14 105.9, 0.2 76.5, -0.51 0.05" stroke="#000000" stroke-width="1" fill="none"></path></g><g stroke-linecap="round"><g transform="translate(237.9375709309437 792.8776789317553) rotate(0 55.75338405605828 -0.5878608468433413)"><path d="M1.73 -1.22 C27.39 0.13, 50.86 -0.6, 108.2 -0.78 M0.52 -0.86 C39.56 -0.01, 81.64 0.68, 110.99 -0.94" stroke="#000000" stroke-width="1" fill="none"></path></g></g><mask></mask><g stroke-linecap="round"><g transform="translate(238.85341340445063 759.2344954303408) rotate(0 54.00059643064117 -0.12817572360791019)"><path d="M-1.22 1.21 C22.7 -2.44, 45.42 -2.74, 109.22 1.37 M-0.86 -0.95 C33.83 0.03, 68.86 0.42, 109.06 -0.97" stroke="#000000" stroke-width="1" fill="none"></path></g></g><mask></mask><g stroke-linecap="round"><g transform="translate(238.45884813323698 727.0021916861815) rotate(0 55.203815411333494 -0.31905043949677747)"><path d="M1.21 -0.76 C22.6 -0.82, 46.39 -0.11, 111.36 0.24 M-0.95 -0.5 C28.75 1.14, 57.28 0.01, 109.03 -0.97" stroke="#000000" stroke-width="1" fill="none"></path></g></g><mask></mask><g stroke-linecap="round" transform="translate(495.2779719521217 533.2285667359417) rotate(0 67.9429141371416 67.94291413714166)"><path d="M-0.76 -1.5 C51 -2.62, 104.2 0.54, 136.13 -0.88 M-0.5 0.61 C48.05 2.29, 94.76 0.33, 134.91 0.82 M134.53 0.96 C135.93 54.98, 134.05 106.44, 135.12 135.41 M135.15 -0.85 C137.73 54.13, 137.09 107.38, 135.89 136.12 M135.51 134.81 C100.5 136.83, 65.09 135.85, 1.64 135.77 M134.93 136.38 C106.24 134.06, 77.26 135.7, -0.79 136.18 M0.86 137.69 C-1.38 82.28, -1.71 28.69, 0.96 -1.43 M0.89 136.76 C-1.64 92.3, -1.38 49.18, 0.71 0.77" stroke="#000000" stroke-width="1" fill="none"></path></g><g stroke-linecap="round"><g transform="translate(506.4795620775143 633.3375296681643) rotate(0 54.66191358447492 -0.22360749170184135)"><path d="M-1.5 -1.49 C24.51 -0.36, 53.97 0.66, 109.11 1.04 M0.61 0.2 C24.53 -0.39, 46.12 -0.43, 110.82 0.95" stroke="#000000" stroke-width="1" fill="none"></path></g></g><mask></mask><g stroke-linecap="round"><g transform="translate(507.3954045510212 599.6943461667495) rotate(0 54.773958351951535 -0.40232971031218767)"><path d="M-1.49 -1.79 C38.89 2.19, 79.57 -0.06, 111.04 -1.72 M0.2 0.99 C21.56 -1.63, 44.02 0.16, 110.94 -0.12" stroke="#000000" stroke-width="1" fill="none"></path></g></g><mask></mask><g stroke-linecap="round"><g transform="translate(507.00083927980756 567.4620424225902) rotate(0 54.03804169178426 -0.5734914496823649)"><path d="M-1.79 -0.78 C30.18 1.06, 56.74 1.86, 108.28 -1.91 M0.99 -0.94 C26.57 -1.19, 55.9 0.73, 109.87 0.4" stroke="#000000" stroke-width="1" fill="none"></path></g></g><mask></mask><g stroke-linecap="round" transform="translate(496.98120679990086 692.1689003923693) rotate(0 67.9429141371416 67.94291413714154)"><path d="M-0.78 1.37 C30.84 0.34, 62.25 -0.5, 133.98 -0.99 M-0.94 -0.97 C48.05 -0.52, 98.98 -1.47, 136.28 -0.68 M134.22 -0.89 C135.27 46.79, 137.92 95.88, 134.27 134.41 M136.18 0.18 C137.15 29.42, 136.73 58.71, 136.07 135.7 M135.26 135.6 C104.04 136.24, 67.27 136.9, -1.44 133.98 M136.2 136.68 C87.62 135.03, 41.93 134.85, 0.72 136.32 M-1.57 136.9 C1.79 81.42, 1.26 31.49, 0.29 1.79 M-0.25 136.46 C1.4 84, 0.82 31.17, -0.7 -0.22" stroke="#000000" stroke-width="1" fill="none"></path></g><g stroke-linecap="round"><g transform="translate(508.1827969252935 792.2778633245925) rotate(0 54.176633062329586 0.13301963905291814)"><path d="M1.37 0.24 C23.92 1.47, 47.89 -1.48, 109 1.21 M-0.97 -0.97 C36.01 1.98, 70.24 1.43, 109.32 0.48" stroke="#000000" stroke-width="1" fill="none"></path></g></g><mask></mask><g stroke-linecap="round"><g transform="translate(509.0986393988004 758.634679823178) rotate(0 55.11926647045135 -0.45055935464870345)"><path d="M0.24 -0.88 C24.17 -2.47, 44.34 -1.74, 111.21 0.4 M-0.97 0.82 C44.84 0.94, 88.18 0.39, 110.47 0.11" stroke="#000000" stroke-width="1" fill="none"></path></g></g><mask></mask><g stroke-linecap="round"><g transform="translate(508.70407412758675 726.4023760790187) rotate(0 54.754718412202294 0.8462018106877167)"><path d="M-0.88 1.04 C27.01 -2.04, 56.46 1.08, 110.39 1.98 M0.82 0.95 C22.55 1.46, 44.68 1.55, 110.1 0.66" stroke="#000000" stroke-width="1" fill="none"></path></g></g><mask></mask><g stroke-linecap="round"><g transform="translate(173.65394889179845 601.383752178886) rotate(0 25.08203354930498 0.15397899119716385)"><path d="M-0.12 -0.55 C9.48 -0.19, 23.36 1.68, 49.73 0.42 M0.59 0.61 C14.24 1.16, 29.08 0.39, 50.28 -0.2" stroke="#000000" stroke-width="1" fill="none"></path></g><g transform="translate(173.65394889179845 601.383752178886) rotate(0 25.08203354930498 0.15397899119716385)"><path d="M26.87 8.55 C30.54 6.99, 38.42 6.78, 49.85 0.22 M27.58 9.71 C33.62 7.38, 40.83 3.97, 50.4 -0.41" stroke="#000000" stroke-width="1" fill="none"></path></g><g transform="translate(173.65394889179845 601.383752178886) rotate(0 25.08203354930498 0.15397899119716385)"><path d="M26.34 -8.6 C29.99 -6.33, 37.98 -2.71, 49.85 0.22 M27.05 -7.44 C33.21 -4.9, 40.58 -3.44, 50.4 -0.41" stroke="#000000" stroke-width="1" fill="none"></path></g></g><mask></mask><g stroke-linecap="round"><g transform="translate(171.86080291250562 759.735906190589) rotate(0 24.84244672195979 1.0547113528498357)"><path d="M1.1 0.81 C16.01 0.44, 31.46 -0.72, 49.28 1.92 M-0.15 0.26 C18.15 0.43, 36.92 -0.26, 49.83 0.8" stroke="#000000" stroke-width="1" fill="none"></path></g><g transform="translate(171.86080291250562 759.735906190589) rotate(0 24.84244672195979 1.0547113528498357)"><path d="M27.02 9.18 C33.89 6.74, 41.27 3.25, 48.95 2.72 M25.77 8.63 C34.16 6.13, 43.05 2.59, 49.5 1.61" stroke="#000000" stroke-width="1" fill="none"></path></g><g transform="translate(171.86080291250562 759.735906190589) rotate(0 24.84244672195979 1.0547113528498357)"><path d="M27.75 -7.96 C34.35 -5.13, 41.51 -3.35, 48.95 2.72 M26.5 -8.51 C34.67 -4.55, 43.29 -1.63, 49.5 1.61" stroke="#000000" stroke-width="1" fill="none"></path></g></g><mask></mask><g stroke-linecap="round"><g transform="translate(363.84504474275184 601.7893092221491) rotate(0 36.10803530690316 -0.6677554827914491)"><path d="M-1.06 -1.68 C24.09 -0.56, 52.67 -2.64, 71.86 0.01 M0.18 -0.87 C23.43 1.19, 46.57 -0.03, 73.27 0.12" stroke="#000000" stroke-width="1" fill="none"></path></g><g transform="translate(363.84504474275184 601.7893092221491) rotate(0 36.10803530690316 -0.6677554827914491)"><path d="M44.07 8.84 C53.35 6.77, 66.06 1.06, 71.39 0.14 M45.31 9.64 C54.17 8, 62.88 3.5, 72.8 0.25" stroke="#000000" stroke-width="1" fill="none"></path></g><g transform="translate(363.84504474275184 601.7893092221491) rotate(0 36.10803530690316 -0.6677554827914491)"><path d="M43.98 -11.68 C53.28 -6.61, 66.01 -5.17, 71.39 0.14 M45.22 -10.88 C54.06 -6.03, 62.81 -4.04, 72.8 0.25" stroke="#000000" stroke-width="1" fill="none"></path></g></g><mask></mask><g stroke-linecap="round"><g transform="translate(364.1436570221182 758.5416210857275) rotate(0 37.683484545539386 0.6009238979590918)"><path d="M-0.18 0.39 C27.3 1.64, 55.26 1.79, 74.09 0.4 M-0.78 0.99 C24.27 -0.37, 49.95 -0.38, 76.15 0.11" stroke="#000000" stroke-width="1" fill="none"></path></g><g transform="translate(364.1436570221182 758.5416210857275) rotate(0 37.683484545539386 0.6009238979590918)"><path d="M47.66 10.42 C57.93 7.71, 68.62 4.27, 74.4 0.51 M47.05 11.02 C56.22 6.62, 66.09 3.32, 76.45 0.23" stroke="#000000" stroke-width="1" fill="none"></path></g><g transform="translate(364.1436570221182 758.5416210857275) rotate(0 37.683484545539386 0.6009238979590918)"><path d="M47.91 -10.1 C57.98 -5.36, 68.58 -1.35, 74.4 0.51 M47.3 -9.49 C56.53 -7.07, 66.31 -3.55, 76.45 0.23" stroke="#000000" stroke-width="1" fill="none"></path></g></g><mask></mask><g transform="translate(11.754977736528986 866.1518072188333) rotate(0 58.08795166015625 9.599999999999909)"><text x="0" y="0" font-family="Virgil, Segoe UI Emoji" font-size="16px" fill="#000000" text-anchor="start" style="white-space: pre;" direction="ltr" dominant-baseline="text-before-edge">Sprint remarks:</text></g><g stroke-linecap="round"><g transform="translate(9.631672313064314 914.0852117598492) rotate(0 325.7104130603374 0.21246129994619878)"><path d="M0.46 0.75 C217.39 -1.33, 433.97 -1.46, 650.18 0.18 M0.37 0.35 C201.91 1.64, 404.59 1.78, 651.05 0.3" stroke="#000000" stroke-width="1" fill="none"></path></g></g><mask></mask><g stroke-linecap="round"><g transform="translate(11.297506971657185 950.4862854122007) rotate(0 323.6577771924436 -0.7459665445890096)"><path d="M0.75 0.09 C196.35 -2.11, 393.02 -1.96, 646.84 0.09 M0.35 -0.24 C223.77 -2.1, 447.57 -2, 646.97 -0.13" stroke="#000000" stroke-width="1" fill="none"></path></g></g><mask></mask><g stroke-linecap="round"><g transform="translate(11.286199939250764 986.5691195054037) rotate(0 323.25443006865675 -0.8284543913355265)"><path d="M0.09 -0.44 C215.54 -3, 431.87 -2.26, 646.75 0.37 M-0.24 0.12 C156.37 -1.98, 312.56 -1.93, 646.53 0.08" stroke="#000000" stroke-width="1" fill="none"></path></g></g><mask></mask><g stroke-linecap="round"><g transform="translate(11.276082949712759 1022.020862777928) rotate(0 323.29627720862624 0.33285348776348656)"><path d="M-0.44 -0.64 C230.31 -0.78, 461.92 -0.21, 647.03 -0.47 M0.12 0.28 C253.8 1.96, 507.4 1.44, 646.75 -0.02" stroke="#000000" stroke-width="1" fill="none"></path></g></g><mask></mask><g stroke-linecap="round" transform="translate(441.17802203766416 572.7204722952599) rotate(0 26.871824890899234 26.871824890899234)"><path d="M-0.41 -0.94 C13.27 0.77, 23.19 1.39, 52.66 0.05 M-0.82 0.9 C20.2 0.46, 38.17 0.97, 54.48 0.45 M53.78 1.02 C54.6 12.94, 52.82 23.82, 55.7 52.13 M53.74 0.85 C54.01 18.4, 54.48 35.54, 52.83 54.09 M55.15 55.57 C38.58 54.13, 26.5 53.96, -1.64 53.2 M53.4 52.94 C41.25 53.61, 27.23 54.77, -0.97 54.14 M-1.94 52.46 C1.34 35.8, 0.33 15.3, -1.06 1.88 M0.44 53.37 C0.32 33.3, -1.19 13.82, -0.93 0.66" stroke="#000000" stroke-width="1" fill="none"></path></g><g stroke-opacity="0.3" fill-opacity="0.3" transform="translate(450.08186749741105 589.9922971861592) rotate(0 17.967979431152344 9.600000000000023)"><text x="17.967979431152344" y="0" font-family="Virgil, Segoe UI Emoji" font-size="16px" fill="#000000" text-anchor="middle" style="white-space: pre;" direction="ltr" dominant-baseline="text-before-edge">pass</text></g><g stroke-linecap="round" transform="translate(441.47641563355944 730.9656815430662) rotate(0 26.871824890899234 26.871824890899234)"><path d="M1.13 -0.63 C15.93 0.39, 31.44 -1.8, 52.69 0.29 M0.2 0.52 C16.6 -0.53, 31.65 0.59, 52.82 0.83 M54.15 0.29 C55.72 15.35, 52.31 31.05, 54.73 52.98 M54.68 0.74 C52.76 14.47, 53.46 27.98, 54.64 54.56 M52.88 55.11 C43.36 55.4, 30.41 54.09, -0.4 53.18 M54.06 54.42 C43.01 53, 30.62 54.28, -0.94 53.12 M-0.81 53 C1.38 39.73, 2.29 26.93, 1.85 -1.86 M-0.34 54.26 C0.18 40.6, 0.86 25.78, 0.78 -0.57" stroke="#000000" stroke-width="1" fill="none"></path></g><g stroke-opacity="0.3" fill-opacity="0.3" transform="translate(450.38026109330633 748.2375064339653) rotate(0 17.967979431152344 9.599999999999909)"><text x="17.967979431152344" y="0" font-family="Virgil, Segoe UI Emoji" font-size="16px" fill="#000000" text-anchor="middle" style="white-space: pre;" direction="ltr" dominant-baseline="text-before-edge">pass</text></g></svg>