<svg version="1.1" xmlns="http://www.w3.org/2000/svg" viewBox="0 0 872.7135838502038 1085.89429082701" width="872.7135838502038" height="1085.89429082701">
  <!-- svg-source:excalidraw -->
  
  <defs>
    <style class="style-fonts">
      @font-face {
        font-family: "Virgil";
        src: url("https://excalidraw.com/Virgil.woff2");
      }
      @font-face {
        font-family: "Cascadia";
        src: url("https://excalidraw.com/Cascadia.woff2");
      }
    </style>
  </defs>
  <g transform="translate(12.273525877110728 155.3413806268709) rotate(0 33.16797637939453 9.599999999999909)"><text x="0" y="0" font-family="Virgil, Segoe UI Emoji" font-size="16px" fill="#000000" text-anchor="start" style="white-space: pre;" direction="ltr">Context:</text></g><g stroke-linecap="round"><g transform="translate(12.081007834710249 212.41338868155344) rotate(0 336.6924102855847 0.47322680207662415)"><path d="M-0.23 0.32 C226.36 2.82, 453.66 2.99, 673.74 -0.78 M-0.36 0.16 C264.1 -1.44, 527.59 -1.86, 673.65 0.27" stroke="#000000" stroke-width="1" fill="none"></path></g></g><mask></mask><g stroke-linecap="round"><g transform="translate(12.33438192624601 311.0531325328793) rotate(0 336.877351429686 0.878965636448811)"><path d="M0.32 -0.08 C154.08 1.55, 307.72 1.19, 672.55 0.74 M0.16 0.11 C226.68 2.01, 452.69 2.73, 673.6 0.26" stroke="#000000" stroke-width="1" fill="none"></path></g></g><mask></mask><g stroke-linecap="round"><g transform="translate(12.633642184920632 357.1269249530851) rotate(0 336.99467790648345 -0.09835833706597441)"><path d="M-0.08 0.61 C147.44 -0.32, 293.74 -1.87, 674.07 0.29 M0.11 0.24 C243.59 -1.23, 488.3 -0.78, 673.59 0.36" stroke="#000000" stroke-width="1" fill="none"></path></g></g><mask></mask><g transform="translate(12.273525877110615 70.45651207271294) rotate(0 47.95996856689453 9.599999999999909)"><text x="0" y="0" font-family="Virgil, Segoe UI Emoji" font-size="16px" fill="#000000" text-anchor="start" style="white-space: pre;" direction="ltr">Action Item:</text></g><g stroke-linecap="round"><g transform="translate(12.590670726262033 141.83732602572036) rotate(0 336.71757366191594 -0.4668014006110752)"><path d="M0.77 0.78 C229.74 -2.82, 459.4 -1.75, 673.83 -0.72 M-0.4 -0.18 C228.48 -1.35, 456.58 -1.26, 673.08 -0.04" stroke="#000000" stroke-width="1" fill="none"></path></g></g><mask></mask><g transform="translate(12.273525877110615 390.7832350396325) rotate(0 32.103973388671875 9.599999999999909)"><text x="0" y="0" font-family="Virgil, Segoe UI Emoji" font-size="16px" fill="#000000" text-anchor="start" style="white-space: pre;" direction="ltr">Check-in:</text></g><g stroke-linecap="round"><g transform="translate(12.546682974137411 453.04992205135113) rotate(0 279.7964921990409 -0.4504067721845786)"><path d="M0.41 -0.78 C210.81 -1.88, 420.64 -2.89, 559.27 0.22 M0.31 0.27 C201.46 1.39, 402.16 0.99, 559.28 0.14" stroke="#000000" stroke-width="1" fill="none"></path></g></g><mask></mask><g stroke-linecap="round"><g transform="translate(13.724527478031973 540.2936277033496) rotate(0 336.38621650412676 -0.39920631564223186)"><path d="M-0.78 0.74 C267.24 -0.88, 533.18 -1.07, 673.55 0.48 M0.27 0.26 C135.51 -2.36, 270.26 -1.8, 673.48 -0.04" stroke="#000000" stroke-width="1" fill="none"></path></g></g><mask></mask><g stroke-linecap="round" transform="translate(577.1758442139253 385.3899166137285) rotate(0 55 34)"><path d="M1.84 0.73 C44.94 -0.72, 88.16 1.62, 111.2 -1.99 M0.64 0.9 C27.29 -0.83, 56.63 -0.37, 109.9 -0.74 M111.07 0.6 C109.99 21.84, 108.9 44.27, 109.25 69.31 M110.41 -0.2 C109.35 23.25, 110.09 46.6, 109.41 68.3 M109.07 69.34 C81.82 68.53, 56.46 69.82, -1.71 69.36 M110.71 68.01 C81.11 68.09, 53.82 66.81, -0.71 68 M0.35 69.76 C-0.55 47.02, 1.3 23.15, 0.92 -1.44 M0.36 68.97 C1.19 45.53, 0.67 23.5, -0.49 0.08" stroke="#000000" stroke-width="1" fill="none"></path></g><g stroke-linecap="round"><g transform="translate(14.151863788254786 583.1706695315802) rotate(0 336.5719637785107 -0.6221271681417875)"><path d="M0.5 -0.72 C136.73 -0.76, 273.33 -1.77, 672.96 0.63 M-0.25 -0.04 C247.08 -2.28, 493.48 -2.72, 673.39 0.07" stroke="#000000" stroke-width="1" fill="none"></path></g></g><mask></mask><g transform="translate(15.234023748989557 837.0907351966016) rotate(0 40.18397521972656 9.599999999999909)"><text x="0" y="0" font-family="Virgil, Segoe UI Emoji" font-size="16px" fill="#000000" text-anchor="start" style="white-space: pre;" direction="ltr">Conclusion:</text></g><g stroke-linecap="round"><g transform="translate(15.507180846016126 893.6740700023456) rotate(0 279.9025964675471 0.8403023261589624)"><path d="M0.31 0.22 C188.46 1.21, 375.58 2.63, 559.49 0.51 M0.32 0.14 C217.92 -0.08, 435.98 0.28, 558.82 0.21" stroke="#000000" stroke-width="1" fill="none"></path></g></g><mask></mask><g stroke-linecap="round"><g transform="translate(16.68502534991103 984.0687200095463) rotate(0 280.1825466287319 -0.3158397755057649)"><path d="M0.22 0.48 C202.02 -1.24, 406.26 -0.34, 560.22 0.72 M0.14 -0.04 C132.55 -1.71, 265.75 -1.92, 559.92 0.12" stroke="#000000" stroke-width="1" fill="none"></path></g></g><mask></mask><g stroke-linecap="round" transform="translate(580.1363420858042 835.6974167706985) rotate(0 55 74.5)"><path d="M1.2 -1.99 C22.23 1.27, 47.63 0.98, 111.8 -1.25 M-0.1 -0.74 C32.09 -0.23, 63.51 0.14, 110.3 -0.06 M109.25 1.31 C109.8 47.11, 110.23 96.25, 109.6 148.12 M109.41 0.3 C109.96 52.24, 110.73 102.07, 110.67 148.76 M108.29 150.36 C74.99 150.09, 41.25 151.24, 0.01 148.18 M109.29 149 C74.1 148.76, 37.22 148.1, 0.88 149.01 M0.92 147.56 C-0.88 88.55, -0.45 30.72, 1.95 1.74 M-0.49 149.08 C0.23 109.34, -1.24 68.25, -0.55 -0.26" stroke="#000000" stroke-width="1" fill="none"></path></g><g stroke-linecap="round"><g transform="translate(17.1123616601335 1029.4781696885493) rotate(0 336.5224304689095 0.9730281648178334)"><path d="M-0.37 0.63 C220.9 3.18, 441.45 2.17, 673.26 0.63 M0.06 0.07 C226.14 2.21, 452.7 1.97, 673.41 -0.24" stroke="#000000" stroke-width="1" fill="none"></path></g></g><mask></mask><g stroke-linecap="round"><g stroke-opacity="0.5" fill-opacity="0.5" transform="translate(588.3955334332763 910.7158519462537) rotate(0 48.876720522064716 0.6015460801907011)"><path d="M1.57 1.33 C35.83 2.24, 67.86 0.25, 97.58 0.72 M0.17 -0.37 C28.41 0.15, 55.69 0.06, 95.39 0.69" stroke="#000000" stroke-width="1" fill="none"></path></g></g><mask></mask><g transform="translate(10 10.823233416706898) rotate(0 74.06993103027344 12)"><text x="0" y="0" font-family="Virgil, Segoe UI Emoji" font-size="20px" fill="#000000" text-anchor="start" style="white-space: pre;" direction="ltr">Implementation:</text></g><g transform="translate(12.756607055664062 44.87321434322075) rotate(0 47.51197052001953 9.599999999999909)"><text x="0" y="0" font-family="Virgil, Segoe UI Emoji" font-size="16px" fill="#000000" text-anchor="start" style="white-space: pre;" direction="ltr">Task sheet:</text></g><g stroke-linecap="round"><g transform="translate(11.988719858221316 262.5174895087962) rotate(0 336.5732010159641 -0.31319047415945533)"><path d="M0.68 -0.28 C205.1 -2.41, 412.29 -1.4, 673.09 0.62 M-0.39 0.25 C136.68 0.86, 273.55 1.29, 673.53 0.03" stroke="#000000" stroke-width="1" fill="none"></path></g></g><mask></mask><g stroke-linecap="round"><g transform="translate(15.68259359286003 496.5127360400056) rotate(0 336.8359317608178 0.07392409715475878)"><path d="M-0.28 -0.8 C250.83 -1.78, 503.32 -2.52, 673.96 -0.77 M0.25 -0.2 C191.59 2.41, 383.94 2.82, 673.36 0.22" stroke="#000000" stroke-width="1" fill="none"></path></g></g><mask></mask><g stroke-linecap="round"><g transform="translate(16.897914364990356 940.7799751299253) rotate(0 279.7213178825562 0.37753416148916585)"><path d="M-0.12 -0.35 C150.15 2.66, 301.45 1.53, 559.3 0.23 M0.12 0.15 C195.88 -1.02, 391.89 -1.27, 559.56 0.28" stroke="#000000" stroke-width="1" fill="none"></path></g></g><mask></mask><g stroke-linecap="round"><g transform="translate(21.09712269385375 1072.6478820191542) rotate(0 336.6343498183414 -0.20979176442028802)"><path d="M-0.35 -0.78 C254.88 0, 508.14 -0.01, 673.56 0.4 M0.15 -0.21 C206.93 -1.08, 413.39 -0.94, 673.62 -0.32" stroke="#000000" stroke-width="1" fill="none"></path></g></g><mask></mask><g transform="translate(714.0233905307989 19.567273307588493) rotate(0 50.36796569824219 489.5999999999999)"><text x="0" y="-959.9999999999999" font-family="Virgil, Segoe UI Emoji" font-size="16px" fill="#000000" text-anchor="start" style="white-space: pre;" direction="ltr">Follow-ups:</text><text x="0" y="-940.8" font-family="Virgil, Segoe UI Emoji" font-size="16px" fill="#000000" text-anchor="start" style="white-space: pre;" direction="ltr"></text><text x="0" y="-921.5999999999999" font-family="Virgil, Segoe UI Emoji" font-size="16px" fill="#000000" text-anchor="start" style="white-space: pre;" direction="ltr">-</text><text x="0" y="-902.4" font-family="Virgil, Segoe UI Emoji" font-size="16px" fill="#000000" text-anchor="start" style="white-space: pre;" direction="ltr"></text><text x="0" y="-883.1999999999999" font-family="Virgil, Segoe UI Emoji" font-size="16px" fill="#000000" text-anchor="start" style="white-space: pre;" direction="ltr"></text><text x="0" y="-864" font-family="Virgil, Segoe UI Emoji" font-size="16px" fill="#000000" text-anchor="start" style="white-space: pre;" direction="ltr">-</text><text x="0" y="-844.8" font-family="Virgil, Segoe UI Emoji" font-size="16px" fill="#000000" text-anchor="start" style="white-space: pre;" direction="ltr"></text><text x="0" y="-825.5999999999999" font-family="Virgil, Segoe UI Emoji" font-size="16px" fill="#000000" text-anchor="start" style="white-space: pre;" direction="ltr"></text><text x="0" y="-806.4" font-family="Virgil, Segoe UI Emoji" font-size="16px" fill="#000000" text-anchor="start" style="white-space: pre;" direction="ltr">-</text><text x="0" y="-787.1999999999999" font-family="Virgil, Segoe UI Emoji" font-size="16px" fill="#000000" text-anchor="start" style="white-space: pre;" direction="ltr"></text><text x="0" y="-768" font-family="Virgil, Segoe UI Emoji" font-size="16px" fill="#000000" text-anchor="start" style="white-space: pre;" direction="ltr"></text><text x="0" y="-748.8" font-family="Virgil, Segoe UI Emoji" font-size="16px" fill="#000000" text-anchor="start" style="white-space: pre;" direction="ltr">-</text><text x="0" y="-729.5999999999999" font-family="Virgil, Segoe UI Emoji" font-size="16px" fill="#000000" text-anchor="start" style="white-space: pre;" direction="ltr"></text><text x="0" y="-710.3999999999999" font-family="Virgil, Segoe UI Emoji" font-size="16px" fill="#000000" text-anchor="start" style="white-space: pre;" direction="ltr"></text><text x="0" y="-691.1999999999999" font-family="Virgil, Segoe UI Emoji" font-size="16px" fill="#000000" text-anchor="start" style="white-space: pre;" direction="ltr">-</text><text x="0" y="-672" font-family="Virgil, Segoe UI Emoji" font-size="16px" fill="#000000" text-anchor="start" style="white-space: pre;" direction="ltr"></text><text x="0" y="-652.8" font-family="Virgil, Segoe UI Emoji" font-size="16px" fill="#000000" text-anchor="start" style="white-space: pre;" direction="ltr"></text><text x="0" y="-633.5999999999999" font-family="Virgil, Segoe UI Emoji" font-size="16px" fill="#000000" text-anchor="start" style="white-space: pre;" direction="ltr"></text><text x="0" y="-614.3999999999999" font-family="Virgil, Segoe UI Emoji" font-size="16px" fill="#000000" text-anchor="start" style="white-space: pre;" direction="ltr">Distractions:</text><text x="0" y="-595.1999999999999" font-family="Virgil, Segoe UI Emoji" font-size="16px" fill="#000000" text-anchor="start" style="white-space: pre;" direction="ltr"></text><text x="0" y="-576" font-family="Virgil, Segoe UI Emoji" font-size="16px" fill="#000000" text-anchor="start" style="white-space: pre;" direction="ltr">-</text><text x="0" y="-556.8" font-family="Virgil, Segoe UI Emoji" font-size="16px" fill="#000000" text-anchor="start" style="white-space: pre;" direction="ltr"></text><text x="0" y="-537.5999999999999" font-family="Virgil, Segoe UI Emoji" font-size="16px" fill="#000000" text-anchor="start" style="white-space: pre;" direction="ltr"></text><text x="0" y="-518.4" font-family="Virgil, Segoe UI Emoji" font-size="16px" fill="#000000" text-anchor="start" style="white-space: pre;" direction="ltr">-</text><text x="0" y="-499.19999999999993" font-family="Virgil, Segoe UI Emoji" font-size="16px" fill="#000000" text-anchor="start" style="white-space: pre;" direction="ltr"></text><text x="0" y="-479.99999999999994" font-family="Virgil, Segoe UI Emoji" font-size="16px" fill="#000000" text-anchor="start" style="white-space: pre;" direction="ltr"></text><text x="0" y="-460.79999999999995" font-family="Virgil, Segoe UI Emoji" font-size="16px" fill="#000000" text-anchor="start" style="white-space: pre;" direction="ltr">-</text><text x="0" y="-441.5999999999999" font-family="Virgil, Segoe UI Emoji" font-size="16px" fill="#000000" text-anchor="start" style="white-space: pre;" direction="ltr"></text><text x="0" y="-422.4" font-family="Virgil, Segoe UI Emoji" font-size="16px" fill="#000000" text-anchor="start" style="white-space: pre;" direction="ltr"></text><text x="0" y="-403.19999999999993" font-family="Virgil, Segoe UI Emoji" font-size="16px" fill="#000000" text-anchor="start" style="white-space: pre;" direction="ltr">-</text><text x="0" y="-384" font-family="Virgil, Segoe UI Emoji" font-size="16px" fill="#000000" text-anchor="start" style="white-space: pre;" direction="ltr"></text><text x="0" y="-364.79999999999995" font-family="Virgil, Segoe UI Emoji" font-size="16px" fill="#000000" text-anchor="start" style="white-space: pre;" direction="ltr"></text><text x="0" y="-345.5999999999999" font-family="Virgil, Segoe UI Emoji" font-size="16px" fill="#000000" text-anchor="start" style="white-space: pre;" direction="ltr">-</text><text x="0" y="-326.4" font-family="Virgil, Segoe UI Emoji" font-size="16px" fill="#000000" text-anchor="start" style="white-space: pre;" direction="ltr"></text><text x="0" y="-307.19999999999993" font-family="Virgil, Segoe UI Emoji" font-size="16px" fill="#000000" text-anchor="start" style="white-space: pre;" direction="ltr"></text><text x="0" y="-288" font-family="Virgil, Segoe UI Emoji" font-size="16px" fill="#000000" text-anchor="start" style="white-space: pre;" direction="ltr"></text><text x="0" y="-268.79999999999995" font-family="Virgil, Segoe UI Emoji" font-size="16px" fill="#000000" text-anchor="start" style="white-space: pre;" direction="ltr">Disruptions:</text><text x="0" y="-249.5999999999999" font-family="Virgil, Segoe UI Emoji" font-size="16px" fill="#000000" text-anchor="start" style="white-space: pre;" direction="ltr"></text><text x="0" y="-230.39999999999998" font-family="Virgil, Segoe UI Emoji" font-size="16px" fill="#000000" text-anchor="start" style="white-space: pre;" direction="ltr">-</text><text x="0" y="-211.19999999999993" font-family="Virgil, Segoe UI Emoji" font-size="16px" fill="#000000" text-anchor="start" style="white-space: pre;" direction="ltr"></text><text x="0" y="-192" font-family="Virgil, Segoe UI Emoji" font-size="16px" fill="#000000" text-anchor="start" style="white-space: pre;" direction="ltr"></text><text x="0" y="-172.79999999999995" font-family="Virgil, Segoe UI Emoji" font-size="16px" fill="#000000" text-anchor="start" style="white-space: pre;" direction="ltr">-</text><text x="0" y="-153.5999999999999" font-family="Virgil, Segoe UI Emoji" font-size="16px" fill="#000000" text-anchor="start" style="white-space: pre;" direction="ltr"></text><text x="0" y="-134.39999999999998" font-family="Virgil, Segoe UI Emoji" font-size="16px" fill="#000000" text-anchor="start" style="white-space: pre;" direction="ltr"></text><text x="0" y="-115.19999999999993" font-family="Virgil, Segoe UI Emoji" font-size="16px" fill="#000000" text-anchor="start" style="white-space: pre;" direction="ltr">-</text><text x="0" y="-96" font-family="Virgil, Segoe UI Emoji" font-size="16px" fill="#000000" text-anchor="start" style="white-space: pre;" direction="ltr"></text><text x="0" y="-76.79999999999995" font-family="Virgil, Segoe UI Emoji" font-size="16px" fill="#000000" text-anchor="start" style="white-space: pre;" direction="ltr"></text><text x="0" y="-57.60000000000002" font-family="Virgil, Segoe UI Emoji" font-size="16px" fill="#000000" text-anchor="start" style="white-space: pre;" direction="ltr">-</text><text x="0" y="-38.39999999999998" font-family="Virgil, Segoe UI Emoji" font-size="16px" fill="#000000" text-anchor="start" style="white-space: pre;" direction="ltr"></text><text x="0" y="-19.199999999999932" font-family="Virgil, Segoe UI Emoji" font-size="16px" fill="#000000" text-anchor="start" style="white-space: pre;" direction="ltr"></text><text x="0" y="0" font-family="Virgil, Segoe UI Emoji" font-size="16px" fill="#000000" text-anchor="start" style="white-space: pre;" direction="ltr">-</text></g><g stroke-opacity="0.3" fill-opacity="0.3" transform="translate(581.3464514298498 389.12037054756274) rotate(0 38.007972717285156 9.599999999999909)"><text x="0" y="0" font-family="Virgil, Segoe UI Emoji" font-size="16px" fill="#000000" text-anchor="start" style="white-space: pre;" direction="ltr">Pomodoro:</text></g><g transform="translate(10.981376220139168 609.0798893026672) rotate(0 32.103973388671875 9.599999999999909)"><text x="0" y="0" font-family="Virgil, Segoe UI Emoji" font-size="16px" fill="#000000" text-anchor="start" style="white-space: pre;" direction="ltr">Check-in:</text></g><g stroke-linecap="round"><g transform="translate(11.254533317165965 671.3465763143854) rotate(0 279.00350294336675 0.1885529808071169)"><path d="M-0.59 0.5 C144.43 -1.11, 289.04 -0.13, 558.5 -0.35 M-0.11 -0.05 C204.21 1.02, 408.51 1.22, 558.6 -0.06" stroke="#000000" stroke-width="1" fill="none"></path></g></g><mask></mask><g stroke-linecap="round"><g transform="translate(12.432377821060527 758.5902819663838) rotate(0 336.6125858101994 0.7104947320294741)"><path d="M0.5 0.15 C251.62 2.46, 504.56 1.52, 672.98 0.52 M-0.05 -0.16 C137.82 0.49, 275.81 0.35, 673.28 0.32" stroke="#000000" stroke-width="1" fill="none"></path></g></g><mask></mask><g stroke-linecap="round" transform="translate(575.883694556954 603.6865708767632) rotate(0 55 34)"><path d="M0.37 -0.83 C38.03 0.93, 72.53 -1.57, 111.31 -1.91 M-0.4 0.07 C27.53 0.69, 55.3 0, 110.81 -0.1 M112 -1.69 C109.51 16.26, 109.8 33.38, 108.93 69.62 M110.94 -0.88 C109.14 22.31, 109.17 45.74, 109.85 67.67 M109.56 66.8 C65.94 67.62, 23.05 67.25, 1.23 68.66 M109.52 67.33 C81.78 68.85, 54.75 67.81, 0.09 68.56 M1.49 66.56 C-0.83 52.1, -1.99 36.73, 1.09 -1.58 M-0.24 67.81 C0.25 41.65, 0.22 16.84, -0.24 -0.29" stroke="#000000" stroke-width="1" fill="none"></path></g><g stroke-linecap="round"><g transform="translate(12.85971413128334 801.4673237946149) rotate(0 336.4485466387123 0.22712962934429015)"><path d="M0.47 0.65 C243.51 0.77, 488.48 0.36, 672.98 -0.21 M-0.23 0.22 C193.06 -0.25, 387.17 -0.24, 673.13 0.07" stroke="#000000" stroke-width="1" fill="none"></path></g></g><mask></mask><g stroke-linecap="round"><g transform="translate(14.390443935888584 714.8093903030399) rotate(0 336.8127416167408 -0.02689161041371335)"><path d="M0.65 -0.46 C214.06 -1.07, 428.05 -1.95, 673.12 -0.1 M0.22 -0.37 C174.73 1.88, 349.53 1.35, 673.4 -0.03" stroke="#000000" stroke-width="1" fill="none"></path></g></g><mask></mask><g stroke-opacity="0.3" fill-opacity="0.3" transform="translate(580.0543017728785 607.417024810597) rotate(0 38.007972717285156 9.599999999999909)"><text x="0" y="0" font-family="Virgil, Segoe UI Emoji" font-size="16px" fill="#000000" text-anchor="start" style="white-space: pre;" direction="ltr">Pomodoro:</text></g><g stroke-opacity="0.3" fill-opacity="0.3" transform="translate(585.7212952283068 841.2014086009867) rotate(0 38.00797271728521 9.599999999999909)"><text x="0" y="0" font-family="Virgil, Segoe UI Emoji" font-size="16px" fill="#000000" text-anchor="start" style="white-space: pre;" direction="ltr">Pomodoro:</text></g><g stroke-opacity="0.3" fill-opacity="0.3" transform="translate(585.7212952283068 918.977482614152) rotate(0 24.759986877441406 9.599999999999909)"><text x="0" y="0" font-family="Virgil, Segoe UI Emoji" font-size="16px" fill="#000000" text-anchor="start" style="white-space: pre;" direction="ltr">Total:</text></g><g stroke-opacity="0.3" fill-opacity="0.3" stroke-linecap="round" transform="translate(708.5257212410327 12.79815616361293) rotate(0 77.09393130458557 531.5480673316986)"><path d="M-0.98 1.41 C47.44 1.56, 91.28 2.19, 155.5 1.61 M-0.6 -0.97 C37.68 -0.61, 76.5 -1.03, 153.8 -0.45 M154.68 0.54 C151.92 305.13, 152.45 610.95, 154.53 1063.69 M154.55 -0.31 C158.04 231.78, 158.18 464.34, 154.08 1063.44 M153.56 1064.26 C96.77 1063.2, 39.28 1063.57, 2 1064 M153.58 1063.8 C106.19 1064.06, 59.03 1063.8, -0.74 1063.33 M0.19 1063.55 C-2.09 793.09, -2.06 522.26, -0.15 0.03 M0.26 1062.79 C1.32 833.11, 0.99 602.79, -0.37 -0.32" stroke="#000000" stroke-width="1" fill="none"></path></g><g stroke-linecap="round"><g stroke-opacity="0.3" fill-opacity="0.3" transform="translate(9.710160668868639 10.433931966968885) rotate(0 4.163150935869396 -0.11221113988926845)"><path d="M0.79 -0.15 C2.57 -0.7, 5.83 -0.27, 7.27 -0.31 M0.31 0.21 C2.49 -0.12, 5.99 -0.57, 8.02 -0.37" stroke="#000000" stroke-width="1" fill="none"></path></g></g><mask></mask></svg>