<svg version="1.1" xmlns="http://www.w3.org/2000/svg" viewBox="0 0 698.8426949813293 728.3319677966388" width="698.8426949813293" height="728.3319677966388">
  <!-- svg-source:excalidraw -->
  
  <defs>
    <style class="style-fonts">
      @font-face {
        font-family: "Virgil";
        src: url("https://excalidraw.com/Virgil.woff2");
      }
      @font-face {
        font-family: "Cascadia";
        src: url("https://excalidraw.com/Cascadia.woff2");
      }
    </style>
  </defs>
  <g transform="translate(10 79.09209544884015) rotate(0 47.95996856689453 9.599999999999909)"><text x="0" y="0" font-family="Virgil, Segoe UI Emoji" font-size="16px" fill="#000000" text-anchor="start" style="white-space: pre;" direction="ltr">Action Item:</text></g><g stroke-linecap="round"><g transform="translate(10.317144849151418 150.47290940184803) rotate(0 336.6583636190742 0.05580368223036203)"><path d="M0.63 0.29 C262.48 -0.33, 525.23 0.4, 673.04 0.43 M-0.24 0.28 C221.96 -0.28, 444.35 -0.67, 673.56 0.17" stroke="#000000" stroke-width="1" fill="none"></path></g></g><mask></mask><g transform="translate(10 10) rotate(0 74.06993103027344 12)"><text x="0" y="0" font-family="Virgil, Segoe UI Emoji" font-size="20px" fill="#000000" text-anchor="start" style="white-space: pre;" direction="ltr">Implementation:</text></g><g transform="translate(10 50.23328437805185) rotate(0 67.29595947265625 9.599999999999909)"><text x="0" y="0" font-family="Virgil, Segoe UI Emoji" font-size="16px" fill="#000000" text-anchor="start" style="white-space: pre;" direction="ltr">Action Validation:</text></g><g transform="translate(10.541132674460187 210.9685311070898) rotate(0 22.295989990234375 9.599999999999909)"><text x="0" y="0" font-family="Virgil, Segoe UI Emoji" font-size="16px" fill="#000000" text-anchor="start" style="white-space: pre;" direction="ltr">Given:</text></g><g transform="translate(10 246.44727698836004) rotate(0 19.967987060546875 9.599999999999909)"><text x="0" y="0" font-family="Virgil, Segoe UI Emoji" font-size="16px" fill="#000000" text-anchor="start" style="white-space: pre;" direction="ltr">When:</text></g><g transform="translate(10 286.6606189078325) rotate(0 20.431991577148438 9.599999999999909)"><text x="0" y="0" font-family="Virgil, Segoe UI Emoji" font-size="16px" fill="#000000" text-anchor="start" style="white-space: pre;" direction="ltr">Then:</text></g><g stroke-linecap="round"><g transform="translate(59.19028661139782 228.13641216948008) rotate(0 314.1487282914683 -0.49759501732819444)"><path d="M0.24 -0.05 C199.24 -1.83, 398.7 -1.64, 628.38 0.28 M-0.08 -0.18 C169.62 -0.92, 339.28 -1.27, 627.97 -0.19" stroke="#000000" stroke-width="1" fill="none"></path></g></g><mask></mask><g stroke-linecap="round"><g transform="translate(54.861150901319434 265.13158659535975) rotate(0 316.4629450250445 0.19832058866631996)"><path d="M-0.05 0.16 C166.02 -0.2, 332.72 -0.23, 633.1 -0.24 M-0.18 0.18 C225.77 0.89, 451.06 0.62, 632.63 0.39" stroke="#000000" stroke-width="1" fill="none"></path></g></g><mask></mask><g stroke-linecap="round"><g transform="translate(55.402283575780075 304.3034129316957) rotate(0 282.1331382724553 0.06493139324061303)"><path d="M0.16 -0.49 C199.81 -0.16, 399.03 0.43, 563.47 0.45 M0.18 0.12 C192.77 0.76, 384.88 0.8, 564.1 0.12" stroke="#000000" stroke-width="1" fill="none"></path></g></g><mask></mask><g stroke-linecap="round"><g transform="translate(16.981293945401603 341.99953870237414) rotate(0 300.14210271319837 -0.013235147156592575)"><path d="M-0.49 0.56 C197.72 0.04, 396.33 -0.73, 600.77 0.33 M0.12 0.39 C167.97 -0.94, 336.22 -0.67, 600.43 -0.19" stroke="#000000" stroke-width="1" fill="none"></path></g></g><mask></mask><g stroke-linecap="round" transform="translate(624.5239651612292 305.0958929132644) rotate(0 30.2328301082282 18.689385885086494)"><path d="M1.39 -0.75 C19.07 1.08, 34.91 1.5, 61.29 -0.4 M0.97 -0.59 C15.77 -0.66, 31.91 0.11, 60 0.67 M61.96 -1.71 C61.87 9.48, 60.77 20.23, 61.88 37.39 M59.49 -0.71 C60.58 10.06, 61.41 19.14, 60.64 38.26 M61.55 38.29 C40.85 38.46, 23.16 38.88, 0.72 39.33 M60.25 36.89 C37.16 38.33, 13.93 36.86, -0.96 36.82 M-0.51 38.52 C-0.08 28.84, -1.32 18.62, -0.13 0.42 M-0.85 38.33 C-0.21 28.25, 0.97 19.99, 0.68 -0.05" stroke="#000000" stroke-width="1" fill="none"></path></g><g transform="translate(10.640109163322222 177.2387403509142) rotate(0 69.19196319580078 9.599999999999909)"><text x="0" y="0" font-family="Virgil, Segoe UI Emoji" font-size="16px" fill="#000000" text-anchor="start" style="white-space: pre;" direction="ltr">Acceptance Test:</text></g><g stroke-linecap="round"><g transform="translate(152.21597794640684 194.40662141330404) rotate(0 267.5433116670199 -0.3349213313870223)"><path d="M0.28 -0.24 C198.1 -1.07, 395.13 -1.75, 535.28 0.24 M-0.19 0.39 C212.75 -0.82, 425.53 -0.73, 534.97 0.37" stroke="#000000" stroke-width="1" fill="none"></path></g></g><mask></mask><g transform="translate(10.541132674459732 393.9450511113778) rotate(0 22.295989990234375 9.599999999999909)"><text x="0" y="0" font-family="Virgil, Segoe UI Emoji" font-size="16px" fill="#000000" text-anchor="start" style="white-space: pre;" direction="ltr">Given:</text></g><g transform="translate(10 429.423796992648) rotate(0 19.967987060546875 9.599999999999909)"><text x="0" y="0" font-family="Virgil, Segoe UI Emoji" font-size="16px" fill="#000000" text-anchor="start" style="white-space: pre;" direction="ltr">When:</text></g><g transform="translate(10 469.63713891212) rotate(0 20.431991577148438 9.599999999999909)"><text x="0" y="0" font-family="Virgil, Segoe UI Emoji" font-size="16px" fill="#000000" text-anchor="start" style="white-space: pre;" direction="ltr">Then:</text></g><g stroke-linecap="round"><g transform="translate(59.19028661139782 411.1129321737676) rotate(0 313.9837117710724 -0.05778137421407337)"><path d="M-0.16 -0.35 C169.8 -0.8, 339.67 -1.51, 628.09 -0.39 M0.27 -0.1 C249.52 1.53, 499.25 0.82, 628.13 -0.16" stroke="#000000" stroke-width="1" fill="none"></path></g></g><mask></mask><g stroke-linecap="round"><g transform="translate(54.86115090131898 448.1081065996473) rotate(0 316.15048899576357 -0.07427799972879257)"><path d="M-0.35 0.35 C225.89 1.28, 450.83 0.74, 632.43 0.78 M-0.1 0.04 C208.47 -1.4, 415.86 -1.43, 632.65 0.05" stroke="#000000" stroke-width="1" fill="none"></path></g></g><mask></mask><g stroke-linecap="round"><g transform="translate(55.40228357577962 487.27993293598365) rotate(0 282.2684842555881 0.20486707154736905)"><path d="M0.35 0.24 C193.16 0.53, 385 0.61, 564.49 0.23 M0.04 0.37 C143.3 0.21, 286.27 0.38, 563.77 -0.08" stroke="#000000" stroke-width="1" fill="none"></path></g></g><mask></mask><g stroke-linecap="round"><g transform="translate(16.981293945401376 524.9760587066617) rotate(0 300.39327964416236 0.1956671054938397)"><path d="M0.24 0.78 C167.74 -0.82, 336.03 -0.28, 600.55 -0.37 M0.37 0.3 C220.07 0.01, 440.66 -0.21, 600.24 0.28" stroke="#000000" stroke-width="1" fill="none"></path></g></g><mask></mask><g stroke-linecap="round" transform="translate(624.5239651612283 488.0724129175519) rotate(0 30.2328301082282 18.689385885086494)"><path d="M1.95 -1.18 C16.06 -1.14, 32.89 0.4, 59.54 1.34 M0.75 -0.86 C17.35 -0.97, 33.47 -0.75, 61.17 0.01 M58.51 -1.43 C60.58 10.44, 62.24 18.91, 60.81 39.13 M61.01 0.46 C60.12 11.49, 60.36 22.94, 60.82 38.35 M60.03 36.4 C37.24 39.07, 14.16 36.14, -1.92 36.27 M60.21 37.95 C43.84 38.39, 26.65 38.41, -0.06 37.59 M-1.7 39.27 C-0.57 27.46, 1.79 19.3, 1.37 -0.11 M-0.48 38.16 C0.5 28.07, 1.05 17.07, 0.64 0.84" stroke="#000000" stroke-width="1" fill="none"></path></g><g transform="translate(10.640109163321995 360.21526035520174) rotate(0 69.19196319580078 9.599999999999909)"><text x="0" y="0" font-family="Virgil, Segoe UI Emoji" font-size="16px" fill="#000000" text-anchor="start" style="white-space: pre;" direction="ltr">Acceptance Test:</text></g><g stroke-linecap="round"><g transform="translate(152.21597794640638 377.38314141759156) rotate(0 267.3301947056748 -0.11180790990010792)"><path d="M-0.39 0.78 C212.86 -1, 425.8 -0.83, 535.01 0.74 M-0.16 0.05 C200.5 -1.17, 401.14 -1.62, 535.05 0.31" stroke="#000000" stroke-width="1" fill="none"></path></g></g><mask></mask><g stroke-linecap="round"><g transform="translate(17.274867392495253 603.5143089796502) rotate(0 335.563218507428 0.457998276950093)"><path d="M0.78 0.23 C161.3 1.83, 323.16 1.38, 671.07 0.6 M0.05 -0.08 C143.95 1.11, 287.18 1.22, 670.64 -0.39" stroke="#000000" stroke-width="1" fill="none"></path></g></g><mask></mask><g stroke-linecap="round"><g transform="translate(18.401110975265738 640.5094834055299) rotate(0 335.1830331264622 -0.8052018035518813)"><path d="M0.23 -0.37 C221.32 -2.8, 441.65 -1.87, 670.44 -0.69 M-0.08 0.28 C246.51 -0.52, 493.13 -0.04, 669.45 -0.29" stroke="#000000" stroke-width="1" fill="none"></path></g></g><mask></mask><g stroke-linecap="round"><g transform="translate(223.38058796315954 679.6813097418662) rotate(0 231.06800746670365 0.29984240635076276)"><path d="M-0.43 0.62 C116.32 -0.52, 233.94 0.08, 462.1 0.63 M0.33 0 C119.64 0.54, 240.03 -0.05, 462.56 0" stroke="#000000" stroke-width="1" fill="none"></path></g></g><mask></mask><g stroke-linecap="round"><g transform="translate(17.274841614432034 717.3774355125447) rotate(0 335.33586072898606 -0.22965448310355896)"><path d="M0.54 -0.19 C266.36 1.98, 533.14 0.56, 670.67 -0.33 M0 -0.16 C210.01 -1.58, 419.39 -2.18, 670.13 0.15" stroke="#000000" stroke-width="1" fill="none"></path></g></g><mask></mask><g transform="translate(11.203256732769887 552.6166371610843) rotate(0 95.13593292236328 9.599999999999909)"><text x="0" y="0" font-family="Virgil, Segoe UI Emoji" font-size="16px" fill="#000000" text-anchor="start" style="white-space: pre;" direction="ltr">Implementation Remarks:</text></g><g stroke-linecap="round"><g transform="translate(205.0901337695093 569.7845182234746) rotate(0 241.53302979970476 0.31642377411458256)"><path d="M0.09 0.79 C123.07 -0.23, 245.44 0.15, 482.73 -0.16 M0.13 0.33 C178.45 0.54, 357.75 1.01, 482.97 -0.1" stroke="#000000" stroke-width="1" fill="none"></path></g></g><mask></mask><g transform="translate(12.098987547707338 661.957176295542) rotate(0 104.5439224243164 9.599999999999909)"><text x="0" y="0" font-family="Virgil, Segoe UI Emoji" font-size="16px" fill="#000000" text-anchor="start" style="white-space: pre;" direction="ltr">Improvement Opportunities:</text></g><g stroke-opacity="0.3" fill-opacity="0.3" transform="translate(627.6895146884449 307.61448874952384) rotate(0 16.839027404785156 7.2000000000000455)"><text x="0" y="0" font-family="Virgil, Segoe UI Emoji" font-size="12.689426987415366px" fill="#000000" text-anchor="start" style="white-space: pre;" direction="ltr">Pass:</text></g><g stroke-opacity="0.3" fill-opacity="0.3" transform="translate(629.5227586715946 490.1463506345094) rotate(0 16.839027404785156 7.2000000000000455)"><text x="0" y="0" font-family="Virgil, Segoe UI Emoji" font-size="12.689426987415366px" fill="#000000" text-anchor="start" style="white-space: pre;" direction="ltr">Pass:</text></g></svg>