<svg version="1.1" xmlns="http://www.w3.org/2000/svg" viewBox="0 0 709.181164621313 1015.4303233421699" width="709.181164621313" height="1015.4303233421699">
  <!-- svg-source:excalidraw -->
  
  <defs>
    <style class="style-fonts">
      @font-face {
        font-family: "Virgil";
        src: url("https://excalidraw.com/Virgil.woff2");
      }
      @font-face {
        font-family: "Cascadia";
        src: url("https://excalidraw.com/Cascadia.woff2");
      }
    </style>
  </defs>
  <g transform="translate(16.780007654036353 10) rotate(0 47.02996063232422 12)"><text x="0" y="0" font-family="Virgil, Segoe UI Emoji" font-size="20px" fill="#000000" text-anchor="start" style="white-space: pre;" direction="ltr" dominant-baseline="text-before-edge">Increment</text></g><g transform="translate(17.446548375142584 42.0508172655866) rotate(0 44.27996826171875 9.600000000000023)"><text x="0" y="0" font-family="Virgil, Segoe UI Emoji" font-size="16px" fill="#000000" text-anchor="start" style="white-space: pre;" direction="ltr" dominant-baseline="text-before-edge">Prospection</text></g><g stroke-linecap="round" transform="translate(31.2016984784932 72.16750221401298) rotate(0 333.2865432591642 68.20424577122492)"><path d="M0.67 -0.37 C160.01 -3.28, 321.96 -2.44, 667.1 0.25 M-0.06 0.08 C165.02 2.59, 329.97 2.46, 666.5 -0.04 M667.39 -1.02 C665.06 31.28, 666.52 66.31, 667.59 134.68 M666.43 0.47 C665.64 36.8, 666.67 74.68, 666.49 135.76 M666.71 136.44 C416.73 137.92, 167.89 138.32, 0.13 137.03 M666.67 136.69 C503.03 135.57, 340.3 135.46, -0.07 136.29 M0.7 134.72 C1.38 90.46, -0.66 44.72, 1.6 1.65 M-0.92 135.7 C0.21 103.95, 1.49 73.75, -0.48 0.82" stroke="#000000" stroke-width="1" fill="none"></path></g><g stroke-linecap="round" transform="translate(29.79544760207955 215.43994043879206) rotate(0 333.9897652584292 94.92341476083197)"><path d="M-0.22 -0.39 C201.76 2.2, 405.44 2.1, 667.65 0.62 M0.3 -0.17 C217.09 1.8, 433.69 1.59, 667.9 0.2 M666.88 1.07 C667.39 63.17, 669.66 123.64, 669.69 190.36 M668.27 0.07 C667.4 68.28, 666.79 136.61, 667.45 189.56 M667.43 189.49 C530.12 191.31, 393.14 191.73, -0.74 190.55 M668.07 189.88 C439.33 191.67, 211.68 192.18, -0.35 189.49 M1.83 190.35 C-0.13 125.15, -1.44 57.33, 0.13 1.41 M-0.38 189.81 C-0.83 117.82, -2.24 45.59, 0.53 -0.31" stroke="#000000" stroke-width="1" fill="none"></path></g><g stroke-linecap="round" transform="translate(31.2016984784932 413.5569675191989) rotate(0 333.9897008843906 127.97082534886943)"><path d="M-0.39 -0.77 C234.11 1.1, 468.24 0.39, 668.6 0.2 M-0.17 0.25 C195.17 -1.97, 390.06 -2.07, 668.18 0.12 M668.84 -0.72 C669.95 81.91, 668.15 162.96, 668.4 256.87 M668.03 -0.19 C667.63 71.41, 667.94 143.75, 667.75 255.18 M667.62 255.22 C413.29 253.53, 159.76 253.36, 0.7 256.28 M668.02 255.54 C499.58 256.71, 332.07 256.17, -0.36 256.12 M0.41 255.52 C0.05 182.97, -1.71 113.06, 1.14 1.33 M-0.03 256.41 C1.92 159.56, 2.22 64.96, -0.25 0.53" stroke="#000000" stroke-width="1" fill="none"></path></g><g stroke-linecap="round" transform="translate(31.201634104454115 676.3625327122475) rotate(0 333.98976525842943 164.53389531496123)"><path d="M-0.77 -0.11 C142.95 1.1, 284.82 1.93, 668.18 -0.06 M0.25 0.07 C157.07 0.96, 314.02 1.31, 668.1 0.06 M667.37 0.32 C667.68 122.96, 667.91 248.7, 668.77 328.82 M667.82 0.24 C668.06 89.14, 668.28 177.08, 667.33 329.62 M667.26 328.33 C411.94 327.54, 156.3 328.57, 0.33 328.68 M667.58 328.69 C412.72 329.45, 156.72 328.95, 0.18 328.99 M-0.36 329.71 C-3.31 218.12, -1.97 109.83, 1.13 1.01 M0.39 329.47 C0.28 254.1, 1.22 177.59, 0.45 0.61" stroke="#000000" stroke-width="1" fill="none"></path></g><g transform="translate(-43.682190675169295 131.23094025994078) rotate(270 63.359962463378906 9.600000000000023)"><text x="0" y="0" font-family="Virgil, Segoe UI Emoji" font-size="16px" fill="#000000" text-anchor="start" style="white-space: pre;" direction="ltr" dominant-baseline="text-before-edge">Strategic Goals</text></g><g transform="translate(-42.03996124267587 329.7214119222888) rotate(270 61.63996124267578 9.600000000000023)"><text x="0" y="0" font-family="Virgil, Segoe UI Emoji" font-size="16px" fill="#000000" text-anchor="start" style="white-space: pre;" direction="ltr" dominant-baseline="text-before-edge">Strategic Plans</text></g><g transform="translate(-38.55287140945666 602.5096645272572) rotate(270 58.85596466064453 9.600000000000023)"><text x="0" y="0" font-family="Virgil, Segoe UI Emoji" font-size="16px" fill="#000000" text-anchor="start" style="white-space: pre;" direction="ltr" dominant-baseline="text-before-edge">Concrete Plans</text></g><g transform="translate(-45.792804899187104 926.7984124206434) rotate(270 66.09596252441406 9.599999999999909)"><text x="0" y="0" font-family="Virgil, Segoe UI Emoji" font-size="16px" fill="#000000" text-anchor="start" style="white-space: pre;" direction="ltr" dominant-baseline="text-before-edge">Concrete Actions</text></g><g stroke-linecap="round"><g stroke-opacity="0.2" fill-opacity="0.2" transform="translate(43.22275744780222 702.9778218671918) rotate(0 321.9686419150811 -0.1927497268843581)"><path d="M-0.19 -0.05 C205.82 -1.67, 412.62 -1.63, 643.54 0.78 M0.03 0.35 C217.07 -1.44, 434.59 -0.71, 644.13 0.2" stroke="#000000" stroke-width="1" fill="none"></path></g></g><mask></mask><g stroke-linecap="round"><g stroke-opacity="0.2" fill-opacity="0.2" transform="translate(43.633383545449306 749.2263718328838) rotate(0 321.5580158174339 -0.19839556813235504)"><path d="M-0.05 -0.69 C165.32 0.21, 330.64 -0.05, 643.17 0.3 M0.35 -0.09 C196.6 0.04, 394.32 -0.3, 642.58 0.22" stroke="#000000" stroke-width="1" fill="none"></path></g></g><mask></mask><g stroke-linecap="round"><g stroke-opacity="0.2" fill-opacity="0.2" transform="translate(43.85290587340046 795.8808387318661) rotate(0 321.3384934894825 -0.5404299755273314)"><path d="M-0.69 0.04 C235.33 0.26, 470.83 0.95, 643.37 0.05 M-0.09 -0.39 C219.27 -1.94, 437.93 -2.08, 643.3 -0.23" stroke="#000000" stroke-width="1" fill="none"></path></g></g><mask></mask><g stroke-linecap="round"><g stroke-opacity="0.2" fill-opacity="0.2" transform="translate(43.825339760822544 841.5751280742986) rotate(0 321.36605960206043 0.5828734221502145)"><path d="M0.04 -0.42 C177.41 1.56, 355.42 2.53, 643.13 0.32 M-0.39 0.26 C198.6 0.52, 396.72 0.83, 642.85 -0.26" stroke="#000000" stroke-width="1" fill="none"></path></g></g><mask></mask><g stroke-linecap="round"><g stroke-opacity="0.2" fill-opacity="0.2" transform="translate(43.70101282988276 888.0459084719139) rotate(0 321.4903865330007 0.910911807170578)"><path d="M-0.42 0.09 C187.94 0.65, 377.52 -0.08, 643.4 0.07 M0.26 0.34 C249.65 2.73, 499.69 2.31, 642.81 -0.11" stroke="#000000" stroke-width="1" fill="none"></path></g></g><mask></mask><g stroke-linecap="round"><g stroke-opacity="0.2" fill-opacity="0.2" transform="translate(43.88435036186638 935.335649016645) rotate(0 321.3070490010167 0.07233770592370092)"><path d="M0.38 -0.58 C177.93 0, 356.4 -0.34, 642.88 -0.03 M-0.26 -0.39 C246.32 1.25, 493.22 0.87, 642.82 -0.16" stroke="#000000" stroke-width="1" fill="none"></path></g></g><mask></mask><g stroke-linecap="round"><g stroke-opacity="0.2" fill-opacity="0.2" transform="translate(43.958189419848395 981.5912102956429) rotate(0 321.2332099430348 0.22313191601801918)"><path d="M-0.58 -0.06 C177.91 -0.8, 354.8 -1.42, 643.05 0.67 M-0.39 -0.26 C148.08 1.74, 295.65 1.44, 642.91 0.33" stroke="#000000" stroke-width="1" fill="none"></path></g></g><mask></mask><g stroke-linecap="round"><g stroke-opacity="0.2" fill-opacity="0.2" transform="translate(43.65964152012566 448.1441722528889) rotate(0 321.55365816430105 0.7947386665798604)"><path d="M-0.15 0.17 C213.25 1.71, 427.81 2.76, 642.58 -0.11 M0.08 0.24 C249.88 0.67, 499.51 0.94, 643.26 0.35" stroke="#000000" stroke-width="1" fill="none"></path></g></g><mask></mask><g stroke-linecap="round"><g stroke-opacity="0.2" fill-opacity="0.2" transform="translate(43.632075407547745 493.8384615953214) rotate(0 321.79843790308496 0.12195132774616013)"><path d="M0.17 -0.42 C152.73 0.96, 307.02 -0.01, 642.97 0.71 M0.24 -0.04 C160.43 -0.8, 321.31 -0.3, 643.42 -0.34" stroke="#000000" stroke-width="1" fill="none"></path></g></g><mask></mask><g stroke-linecap="round"><g stroke-opacity="0.2" fill-opacity="0.2" transform="translate(43.50774847660796 540.3092419929367) rotate(0 321.6836508862759 -0.295279736266707)"><path d="M-0.42 -0.52 C137.77 -0.02, 274.11 -0.66, 643.78 -0.4 M-0.04 -0.18 C171.48 -1.44, 343.79 -1.18, 642.74 0.39" stroke="#000000" stroke-width="1" fill="none"></path></g></g><mask></mask><g stroke-linecap="round"><g stroke-opacity="0.2" fill-opacity="0.2" transform="translate(43.69108600859181 587.5989825376678) rotate(0 321.47216403261666 0.38016607117788226)"><path d="M-0.52 0.47 C181.38 0.84, 361.58 2.04, 642.67 -0.26 M-0.18 -0.32 C205.09 0.43, 410.33 -0.09, 643.46 -0.36" stroke="#000000" stroke-width="1" fill="none"></path></g></g><mask></mask><g stroke-linecap="round"><g stroke-opacity="0.2" fill-opacity="0.2" transform="translate(43.764925066573596 633.8545438166657) rotate(0 321.2452548153784 0.5978012630371268)"><path d="M0.47 0.53 C206.35 1.56, 414.4 1.26, 642.81 0.15 M-0.32 0.1 C231.45 1.49, 462.21 1.53, 642.72 0.03" stroke="#000000" stroke-width="1" fill="none"></path></g></g><mask></mask><g stroke-linecap="round"><g stroke-opacity="0.2" fill-opacity="0.2" transform="translate(42.27266466492938 240.47519588061846) rotate(0 321.45071364716557 0.42728160864294296)"><path d="M-0.24 0.13 C141.29 -1.13, 281.89 -0.31, 643.25 0.17 M-0.35 0.28 C207.87 1.95, 415.64 1.55, 642.95 0.33" stroke="#000000" stroke-width="1" fill="none"></path></g></g><mask></mask><g stroke-linecap="round"><g stroke-opacity="0.2" fill-opacity="0.2" transform="translate(42.14833773398959 286.94597627823373) rotate(0 321.7657288767483 0.5404165838187964)"><path d="M0.13 0.24 C147.77 0.55, 296.99 0.93, 643.24 0.19 M0.28 -0.11 C163.44 1.93, 326.33 2.14, 643.4 -0.38" stroke="#000000" stroke-width="1" fill="none"></path></g></g><mask></mask><g stroke-linecap="round"><g stroke-opacity="0.2" fill-opacity="0.2" transform="translate(42.331675265973445 334.23571682296483) rotate(0 321.5746567376043 -0.4888481481201552)"><path d="M0.24 -0.64 C204.79 -0.24, 410.17 -0.24, 643.26 -0.37 M-0.11 0.14 C147.12 -2.1, 294.78 -1.5, 642.69 0.33" stroke="#000000" stroke-width="1" fill="none"></path></g></g><mask></mask><g stroke-linecap="round"><g stroke-opacity="0.2" fill-opacity="0.2" transform="translate(42.40551432395523 380.4912781019632) rotate(0 321.3796985365535 -0.13569437732451206)"><path d="M-0.64 -0.21 C174.2 -0.59, 348.23 -0.58, 642.71 -0.57 M0.14 -0.33 C136.15 0.6, 273.18 0.33, 643.4 -0.08" stroke="#000000" stroke-width="1" fill="none"></path></g></g><mask></mask><g stroke-linecap="round"><g stroke-opacity="0.2" fill-opacity="0.2" transform="translate(42.86342751415077 93.4242945078322) rotate(0 321.5528606854465 -0.038179366576287066)"><path d="M0.62 -0.37 C196.07 -0.54, 390.45 -0.29, 642.37 -0.37 M0.09 0.16 C171.28 0.31, 341.92 0.5, 643.01 0.17" stroke="#000000" stroke-width="1" fill="none"></path></g></g><mask></mask><g stroke-linecap="round"><g stroke-opacity="0.2" fill-opacity="0.2" transform="translate(43.046765046134624 140.7140350525633) rotate(0 321.4414766915228 -0.6395367863257206)"><path d="M-0.37 0.62 C158.82 -2.43, 317.99 -2.7, 642.7 -0.27 M0.16 0.25 C177.14 -0.73, 354.66 -0.66, 643.25 0.08" stroke="#000000" stroke-width="1" fill="none"></path></g></g><mask></mask><g stroke-linecap="round"><g stroke-opacity="0.2" fill-opacity="0.2" transform="translate(43.12060410411641 186.96959633156166) rotate(0 321.70255350694913 0.03593792588060296)"><path d="M0.62 -0.1 C203.55 1.33, 407.27 0.8, 642.8 -0.19 M0.25 -0.18 C180.78 -1, 361.76 -0.84, 643.15 0.15" stroke="#000000" stroke-width="1" fill="none"></path></g></g><mask></mask><g stroke-linecap="round"><g stroke-opacity="0.2" fill-opacity="0.2" transform="translate(71.63211928981946 82.93605136240126) rotate(0 -0.8978268353946532 455.52301191129095)"><path d="M0.59 0.57 C-2.86 203.5, -3.43 406.1, -0.5 911.19 M-0.21 -0.15 C0.01 336.13, -0.63 672.97, -0.11 910.93" stroke="#000000" stroke-width="1" fill="none"></path></g></g><mask></mask><g stroke-linecap="round"><g stroke-opacity="0.2" fill-opacity="0.2" transform="translate(120.00356016462456 82.86145327950135) rotate(0 -1.0047558897598492 455.5976099941911)"><path d="M0.68 0.1 C-3.86 269.82, -3.55 538.88, 0.07 910.95 M0.16 0.36 C-0.09 282.7, -0.17 564.93, 0.19 911.1" stroke="#000000" stroke-width="1" fill="none"></path></g></g><mask></mask><g stroke-linecap="round"><g stroke-opacity="0.2" fill-opacity="0.2" transform="translate(168.34187835237208 83.05081888253085) rotate(0 -0.18613591180587719 455.4082443911615)"><path d="M-0.37 -0.04 C-3.54 341.88, -2.95 682.78, -0.7 910.64 M0.23 -0.31 C2.63 313.48, 3.17 627.22, -0.06 911.12" stroke="#000000" stroke-width="1" fill="none"></path></g></g><mask></mask><g stroke-linecap="round"><g stroke-opacity="0.2" fill-opacity="0.2" transform="translate(216.2571353602757 82.877154822296) rotate(0 0.9462757371238695 455.58190845139654)"><path d="M-0.04 -0.45 C3.63 196.36, 3.28 391.75, -0.63 911.62 M-0.31 -0.23 C-0.79 345.14, -0.65 689.61, -0.14 910.88" stroke="#000000" stroke-width="1" fill="none"></path></g></g><mask></mask><g stroke-linecap="round"><g stroke-opacity="0.2" fill-opacity="0.2" transform="translate(265.3639918105853 82.57080429459234) rotate(0 0.049771583837809885 455.8882589791001)"><path d="M-0.45 0.64 C-1.56 348.55, -2.4 695.9, 0.35 911.89 M-0.23 -0.12 C2.4 256.61, 2.04 513.02, -0.38 910.9" stroke="#000000" stroke-width="1" fill="none"></path></g></g><mask></mask><g stroke-linecap="round"><g stroke-opacity="0.2" fill-opacity="0.2" transform="translate(314.25453285583444 82.83077210897818) rotate(0 -0.7831208221409725 455.62829116471437)"><path d="M0.64 0.14 C0.11 230.28, -0.8 462.32, 0.63 911.12 M-0.12 0.31 C-2.77 325.7, -2.94 651.13, -0.36 910.88" stroke="#000000" stroke-width="1" fill="none"></path></g></g><mask></mask><g stroke-linecap="round"><g stroke-opacity="0.2" fill-opacity="0.2" transform="translate(361.74702005459653 82.58345816994324) rotate(0 -0.7276591733865416 455.8756051037493)"><path d="M0.14 0.29 C-2.77 268.45, -1.71 538.79, -0.15 911.72 M0.31 0.03 C-2.15 203.23, -2.47 406.38, -0.39 910.9" stroke="#000000" stroke-width="1" fill="none"></path></g></g><mask></mask><g stroke-linecap="round"><g stroke-opacity="0.2" fill-opacity="0.2" transform="translate(408.17910576162103 83.16450604761258) rotate(0 0.6400203569008909 455.29455722608)"><path d="M0.29 -0.7 C2.28 222.05, 3.54 443.25, 0.46 910.65 M0.03 -0.06 C-1.19 220.77, -1.41 441.9, -0.37 911.29" stroke="#000000" stroke-width="1" fill="none"></path></g></g><mask></mask><g stroke-linecap="round"><g stroke-opacity="0.2" fill-opacity="0.2" transform="translate(456.28384476787323 83.32444213295571) rotate(0 0.5528657346080763 455.1346211407366)"><path d="M-0.7 -0.63 C0.99 346.85, 0.49 692.9, -0.61 910.81 M-0.06 -0.14 C2.42 246.76, 2.41 493.88, 0.02 910.9" stroke="#000000" stroke-width="1" fill="none"></path></g></g><mask></mask><g stroke-linecap="round"><g stroke-opacity="0.2" fill-opacity="0.2" transform="translate(503.808906417275 83.13191871011873) rotate(0 0.3114457751404416 455.3271445635738)"><path d="M-0.63 0.35 C1.93 289.13, 1.77 577.94, -0.46 911.03 M-0.14 -0.38 C-0.12 342.9, -0.12 686.61, -0.37 910.97" stroke="#000000" stroke-width="1" fill="none"></path></g></g><mask></mask><g stroke-linecap="round"><g stroke-opacity="0.2" fill-opacity="0.2" transform="translate(552.8266708761919 82.70107396507865) rotate(0 -1.1609933993950108 455.7579893086139)"><path d="M0.35 0.63 C-3.33 306.51, -3.8 611.65, -0.23 911.88 M-0.38 -0.36 C-0.9 279.14, -0.49 558.65, -0.3 911.31" stroke="#000000" stroke-width="1" fill="none"></path></g></g><mask></mask><g stroke-linecap="round"><g stroke-opacity="0.2" fill-opacity="0.2" transform="translate(600.275988634229 82.99438614214091) rotate(0 -0.6890754959263177 455.46467713155187)"><path d="M0.63 -0.15 C-2.41 193.09, -3.32 387.17, 0.61 911.32 M-0.36 -0.39 C-1.65 260.55, -1.65 520.75, 0.04 911.19" stroke="#000000" stroke-width="1" fill="none"></path></g></g><mask></mask><g stroke-linecap="round"><g stroke-opacity="0.2" fill-opacity="0.2" transform="translate(648.7500136986043 83.06648510361333) rotate(0 -0.9326210156741581 455.3925781700792)"><path d="M-0.15 0.46 C0.99 201.27, 1.38 404.07, 0.05 911.15 M-0.39 -0.37 C-3.44 240.96, -3.76 482.69, -0.08 911.04" stroke="#000000" stroke-width="1" fill="none"></path></g></g><mask></mask></svg>