<svg version="1.1" xmlns="http://www.w3.org/2000/svg" viewBox="0 0 699.6992289334207 1000.9219443380724" width="699.6992289334207" height="1000.9219443380724">
  <!-- svg-source:excalidraw -->
  
  <defs>
    <style class="style-fonts">
      @font-face {
        font-family: "Virgil";
        src: url("https://excalidraw.com/Virgil.woff2");
      }
      @font-face {
        font-family: "Cascadia";
        src: url("https://excalidraw.com/Cascadia.woff2");
      }
    </style>
  </defs>
  <g transform="translate(17.863678222137878 10) rotate(0 47.02996063232422 12)"><text x="0" y="0" font-family="Virgil, Segoe UI Emoji" font-size="20px" fill="#000000" text-anchor="start" style="white-space: pre;" direction="ltr" dominant-baseline="text-before-edge">Increment</text></g><g transform="translate(18.53021894324411 42.05081726558649) rotate(0 29.69598388671875 9.599999999999994)"><text x="0" y="0" font-family="Virgil, Segoe UI Emoji" font-size="16px" fill="#000000" text-anchor="start" style="white-space: pre;" direction="ltr" dominant-baseline="text-before-edge">Planning</text></g><g transform="translate(17.494134646686234 307.902556164059) rotate(0 74.05595397949219 9.599999999999994)"><text x="0" y="0" font-family="Virgil, Segoe UI Emoji" font-size="16px" fill="#000000" text-anchor="start" style="white-space: pre;" direction="ltr" dominant-baseline="text-before-edge">Concrete Action(s):</text></g><g stroke-linecap="round"><g transform="translate(162.55446493016734 324.458885098662) rotate(0 260.56836669620543 0.4637662160317859)"><path d="M-0.23 -0.1 C158.4 -0.88, 315.82 -0.84, 521.24 0.22 M0.24 -0.28 C195 2.23, 389.33 2.07, 521.37 -0.12" stroke="#000000" stroke-width="1" fill="none"></path></g></g><mask></mask><g stroke-linecap="round"><g transform="translate(25.50371238134221 365.84885405254545) rotate(0 329.06903025755514 0.06273802389819139)"><path d="M-0.15 0.32 C194.78 -1.22, 389.1 -2.5, 657.95 0.31 M-0.28 -0.31 C213.73 2.17, 427.27 1.99, 658.42 -0.36" stroke="#000000" stroke-width="1" fill="none"></path></g></g><mask></mask><g transform="translate(19.009207786461957 390.143657971249) rotate(0 48.63196563720703 9.600000000000023)"><text x="0" y="0" font-family="Virgil, Segoe UI Emoji" font-size="16px" fill="#000000" text-anchor="start" style="white-space: pre;" direction="ltr" dominant-baseline="text-before-edge">Deliverables:</text></g><g stroke-linecap="round"><g transform="translate(18.879831004697735 529.3548919869826) rotate(0 255.09519206963728 0.06830238469814276)"><path d="M-0.02 0.28 C164.09 -0.43, 325.98 -1.38, 510.21 -0.65 M0.14 0 C143.65 1.18, 287.19 1.58, 509.06 0.09" stroke="#000000" stroke-width="1" fill="none"></path></g></g><mask></mask><g stroke-linecap="round"><g transform="translate(18.777498751092025 569.0830621221234) rotate(0 254.1070360420481 -0.01682107328406346)"><path d="M0.8 0.78 C182.04 -0.89, 366.1 -1.37, 508.36 -0.05 M-0.14 -0.12 C119.61 0.26, 239.65 0.08, 508.12 -0.25" stroke="#000000" stroke-width="1" fill="none"></path></g></g><mask></mask><g stroke-linecap="round"><g transform="translate(20.349214787604524 609.4534437953006) rotate(0 254.90946573749466 -0.6110393302037664)"><path d="M0.78 -0.61 C151.59 -1.24, 302.89 -2.17, 509.94 -0.51 M-0.12 -0.39 C171.68 0.38, 342.91 0.35, 509.74 -0.05" stroke="#000000" stroke-width="1" fill="none"></path></g></g><mask></mask><g stroke-opacity="0.3" fill-opacity="0.3" transform="translate(22.10119321649745 497.618178468932) rotate(0 30.35997772216797 9.600000000000023)"><text x="0" y="0" font-family="Virgil, Segoe UI Emoji" font-size="16px" fill="#000000" text-anchor="start" style="white-space: pre;" direction="ltr" dominant-baseline="text-before-edge">Sprint 1:</text></g><g stroke-opacity="0.3" fill-opacity="0.3" transform="translate(25.85218620916021 621.3576800154023) rotate(0 33.887977600097656 9.600000000000023)"><text x="0" y="0" font-family="Virgil, Segoe UI Emoji" font-size="16px" fill="#000000" text-anchor="start" style="white-space: pre;" direction="ltr" dominant-baseline="text-before-edge">Sprint 2:</text></g><g stroke-opacity="0.3" fill-opacity="0.3" transform="translate(27.70399284978521 745.8021244598466) rotate(0 33.639976501464844 9.600000000000023)"><text x="0" y="0" font-family="Virgil, Segoe UI Emoji" font-size="16px" fill="#000000" text-anchor="start" style="white-space: pre;" direction="ltr" dominant-baseline="text-before-edge">Sprint 3:</text></g><g stroke-opacity="0.3" fill-opacity="0.3" transform="translate(28.07440843138238 869.5058733747771) rotate(0 33.311973571777344 9.599999999999966)"><text x="0" y="0" font-family="Virgil, Segoe UI Emoji" font-size="16px" fill="#000000" text-anchor="start" style="white-space: pre;" direction="ltr" dominant-baseline="text-before-edge">Sprint 4:</text></g><g stroke-opacity="0.5" fill-opacity="0.5" stroke-linecap="round" transform="translate(10.00006437403863 495.36633791988686) rotate(0 339.84958227969105 60.00001695421008)"><path d="M0.6 0.08 C203.8 -0.67, 407.3 -0.28, 679.5 0.38 M-0.23 0.23 C189.89 -2.45, 379.8 -2.11, 679.55 -0.36 M679.77 1.14 C680.21 36.6, 680.56 70.46, 679.61 121.21 M680.31 -0.4 C679.89 27.87, 680.31 54.11, 679.1 119.37 M679.99 119.98 C521.15 120.46, 362.02 121.2, 0.49 119.41 M679.84 120.03 C465.61 121.16, 251.93 121.12, -0.31 119.77 M1.52 118.89 C0.5 94.45, 0.23 72.53, 1.8 1.59 M-0.28 119.07 C1.91 79.36, 1.34 37.79, -0.86 -0.05" stroke="#000000" stroke-width="1" fill="none"></path></g><g stroke-opacity="0.5" fill-opacity="0.5" stroke-linecap="round" transform="translate(10.000032187019315 620.5515287564752) rotate(0 339.8495983732005 60.00001695421008)"><path d="M0.08 0.37 C241.02 -1.58, 482.36 -2.23, 680.08 -0.16 M0.23 -0.11 C204.57 1.37, 409.67 1.42, 679.34 -0.02 M680.84 0.3 C681.12 38.76, 679.58 76.14, 680.9 118.56 M679.3 -0.78 C680.93 45.33, 679.8 90.78, 679.07 119.34 M679.68 120.29 C474.87 120.99, 271.17 121.49, -0.59 120.12 M679.73 119.84 C457.13 121.05, 234.32 120.64, -0.23 119.62 M-1.11 119.52 C-1.64 93.03, 0.96 69.36, 1.59 0.91 M-0.93 120.73 C-0.09 95.95, -0.23 70.74, -0.05 0.62" stroke="#000000" stroke-width="1" fill="none"></path></g><g stroke-opacity="0.5" fill-opacity="0.5" stroke-linecap="round" transform="translate(10 745.7367195930639) rotate(0 339.84961446671014 60.00001695421008)"><path d="M0.37 0.06 C222.65 0.17, 444.2 0.1, 679.54 0.01 M-0.11 -0.18 C260.41 -1.39, 521.06 -1.92, 679.68 0.07 M680 1.19 C680.39 37.95, 679.66 77.8, 678.26 121.61 M678.92 0.5 C680.07 42.7, 679.83 86.05, 679.04 120.01 M679.99 119.62 C454.78 120.29, 230.36 119.34, 0.12 120.22 M679.54 120.2 C452.03 120.38, 223.85 119.97, -0.38 119.67 M-0.48 118.96 C-1.66 79.51, 0.89 37.48, 0.91 -1.97 M0.73 120.8 C0.49 75.74, -0.53 30.1, 0.62 -0.19" stroke="#000000" stroke-width="1" fill="none"></path></g><g stroke-opacity="0.5" fill-opacity="0.5" stroke-linecap="round" transform="translate(11.65865356219274 870.9219104296524) rotate(0 339.02028768561377 60.000016954210025)"><path d="M0.06 0.45 C254.53 -1.47, 508.54 -1.43, 678.05 0.67 M-0.18 -0.19 C164.48 0.57, 328.27 0.7, 678.11 0.08 M679.23 0.65 C678.37 36.35, 679.93 71.44, 679.66 121.22 M678.54 -0.36 C676.93 42.73, 676.93 85.99, 678.05 120.31 M677.66 120 C450.2 121.47, 221.06 121.09, 0.22 120.28 M678.24 120.1 C451.18 118.64, 223.75 118.57, -0.33 120.2 M-1.04 119.25 C2.23 76.66, 2.26 30.63, -1.97 1.49 M0.8 120.16 C1.78 86.46, 1.07 55.26, -0.19 0.08" stroke="#000000" stroke-width="1" fill="none"></path></g><g transform="translate(563.8765902531127 504.97689574932167) rotate(0 41.343971252441406 9.600000000000023)"><text x="0" y="0" font-family="Virgil, Segoe UI Emoji" font-size="16px" fill="#000000" text-anchor="start" style="white-space: pre;" direction="ltr" dominant-baseline="text-before-edge">Achievable:</text></g><g transform="translate(554.5965914738158 546.3083233080046) rotate(0 45.983970642089844 9.600000000000023)"><text x="0" y="0" font-family="Virgil, Segoe UI Emoji" font-size="16px" fill="#000000" text-anchor="start" style="white-space: pre;" direction="ltr" dominant-baseline="text-before-edge">Measurable:</text></g><g transform="translate(564.2926058781127 584.0002104556763) rotate(0 41.135963439941406 9.600000000000023)"><text x="0" y="0" font-family="Virgil, Segoe UI Emoji" font-size="16px" fill="#000000" text-anchor="start" style="white-space: pre;" direction="ltr" dominant-baseline="text-before-edge">Profitable:</text></g><g stroke-linecap="round" transform="translate(653.5183539300974 500.40806163796776) rotate(0 14.24441415415231 14.24441415415231)"><path d="M-0.96 1.91 C7.39 1.17, 10.35 -1.52, 28.35 -0.12 M0.66 -0.22 C9.62 0.61, 22.13 0.3, 27.86 0.4 M27.36 1.01 C27.81 9.65, 29.22 18.77, 28.08 29.92 M28.21 0.23 C28.54 10.21, 28.34 20.85, 27.97 28.66 M29.51 30.06 C17.54 26.47, 5.93 29.56, -0.93 26.62 M27.99 27.81 C23.33 28.66, 16.56 27.55, -0.12 28.12 M-0.63 30.02 C-1.35 15.57, 0.01 4.97, 1.16 0.22 M0.62 27.68 C0.86 23.2, 0.85 17.12, -0.4 -0.09" stroke="#000000" stroke-width="1" fill="none"></path></g><g stroke-linecap="round" transform="translate(653.5183539300974 540.4450376548936) rotate(0 14.24441415415231 14.600000000000023)"><path d="M1.92 0.81 C6.68 0.6, 16.97 -1.63, 27.22 -1.13 M0.47 -0.73 C9.78 0.78, 20.74 0.72, 28.45 -0.28 M27.81 -1.24 C27.42 9.78, 30.06 17.6, 27.37 30.22 M28.06 0.61 C28.01 10.12, 27.53 22.79, 27.63 28.7 M28.12 27.81 C21.65 28.58, 16.95 30.52, 1.37 28.57 M28.58 28.37 C18.34 29.03, 6.03 27.92, -0.44 29.82 M1.12 29.31 C-0.97 22.61, -1.56 15.6, -1.73 -1.35 M0.64 28.84 C-0.14 22.47, 0.29 14.76, 0.02 0.19" stroke="#000000" stroke-width="1" fill="none"></path></g><g stroke-linecap="round" transform="translate(653.5183539300974 581.1931853635147) rotate(0 14.24441415415231 14.24441415415231)"><path d="M-1.13 1.01 C9.65 -0.29, 21.18 -1.29, 28.08 1.43 M-0.28 0.23 C10.6 -0.51, 21.13 -0.61, 27.97 0.17 M29.51 1.57 C28.21 8.99, 27.44 22.92, 27.56 26.62 M27.99 -0.68 C29.39 6.29, 28.49 11.04, 28.37 28.12 M27.86 30.02 C16.38 26.7, 6.81 27.03, 1.16 28.71 M29.11 27.68 C23.35 28.79, 17.62 28.42, -0.4 28.4 M-1.35 27.73 C1.12 21.19, 1.39 14.62, 0.01 1.84 M0.19 28.41 C-0.06 17.77, -0.24 9.86, -0.13 0.28" stroke="#000000" stroke-width="1" fill="none"></path></g><g transform="translate(563.7714261518249 631.3555685713217) rotate(0 41.343971252441406 9.600000000000023)"><text x="0" y="0" font-family="Virgil, Segoe UI Emoji" font-size="16px" fill="#000000" text-anchor="start" style="white-space: pre;" direction="ltr" dominant-baseline="text-before-edge">Achievable:</text></g><g transform="translate(554.491427372528 672.6869961300047) rotate(0 45.983970642089844 9.600000000000023)"><text x="0" y="0" font-family="Virgil, Segoe UI Emoji" font-size="16px" fill="#000000" text-anchor="start" style="white-space: pre;" direction="ltr" dominant-baseline="text-before-edge">Measurable:</text></g><g transform="translate(564.1874417768249 710.3788832776763) rotate(0 41.135963439941406 9.600000000000023)"><text x="0" y="0" font-family="Virgil, Segoe UI Emoji" font-size="16px" fill="#000000" text-anchor="start" style="white-space: pre;" direction="ltr" dominant-baseline="text-before-edge">Profitable:</text></g><g stroke-linecap="round" transform="translate(653.4131898288097 626.7867344599679) rotate(0 14.24441415415231 14.24441415415231)"><path d="M-0.95 0.84 C7.81 -0.79, 18.49 -1.29, 29.44 -0.99 M-0.52 0.91 C9.62 0.26, 20.78 0.55, 27.96 -0.94 M27.65 -1.5 C27.48 8.13, 29.06 19.33, 28.84 28.58 M27.63 0.14 C29.41 6.61, 29.51 13.22, 28.38 28.21 M30.1 29.93 C18.31 27.05, 10.4 30.25, -1.87 28.4 M29.29 28.15 C20.98 28.78, 14.38 27.79, 0.43 29.11 M0.94 27.42 C0 16.9, -0.52 5.63, 0.12 -0.8 M0.54 28.28 C0.74 21.83, -0.25 16.39, 0.65 -0.79" stroke="#000000" stroke-width="1" fill="none"></path></g><g stroke-linecap="round" transform="translate(653.4131898288097 666.8237104768937) rotate(0 14.24441415415231 14.600000000000023)"><path d="M0.84 -1.59 C5.48 -0.18, 11.03 1.09, 27.5 1.44 M0.91 -0.97 C7.26 -0.25, 14.54 -0.38, 27.55 0.46 M26.99 -0.77 C26.97 7.12, 28.32 12.97, 28.58 28.17 M28.63 0.74 C28.16 11.42, 27.69 21.05, 28.21 29.35 M29.93 27.99 C17.45 29.28, 11.15 27.56, -0.09 28.36 M28.15 29.04 C22.19 30.02, 14.48 29.85, 0.62 29.98 M-1.06 29.06 C-0.77 21.2, -1.26 14.64, -0.8 -1.41 M-0.21 29.87 C-0.32 20.81, 0.78 13.7, -0.79 0.93" stroke="#000000" stroke-width="1" fill="none"></path></g><g stroke-linecap="round" transform="translate(653.4131898288097 707.5718581855147) rotate(0 14.24441415415231 14.24441415415231)"><path d="M-0.57 -0.31 C6.13 1.18, 13.4 1.66, 27.4 0.03 M0.27 -0.4 C7.62 -0.25, 13.18 0.73, 27.65 0.67 M26.78 0.81 C27.92 7.7, 28.37 13.67, 29.74 29.45 M28.02 0.84 C27.59 6, 28.25 12.37, 28.82 28.89 M26.94 28.33 C19.29 26.45, 6.71 27.47, -1.29 27.59 M28.91 29.08 C17.09 28.87, 7.46 29.23, -0.49 28.37 M-0.81 27.83 C-1.15 18.72, -0.64 7.31, -0.47 1.33 M-0.12 28.18 C1.03 19.05, -0.73 9.24, 0.05 0.92" stroke="#000000" stroke-width="1" fill="none"></path></g><g transform="translate(564.7929986090535 757.0166505542006) rotate(0 41.343971252441406 9.600000000000023)"><text x="0" y="0" font-family="Virgil, Segoe UI Emoji" font-size="16px" fill="#000000" text-anchor="start" style="white-space: pre;" direction="ltr" dominant-baseline="text-before-edge">Achievable:</text></g><g transform="translate(555.5129998297566 798.3480781128835) rotate(0 45.983970642089844 9.600000000000023)"><text x="0" y="0" font-family="Virgil, Segoe UI Emoji" font-size="16px" fill="#000000" text-anchor="start" style="white-space: pre;" direction="ltr" dominant-baseline="text-before-edge">Measurable:</text></g><g transform="translate(565.2090142340535 836.0399652605554) rotate(0 41.135963439941406 9.600000000000023)"><text x="0" y="0" font-family="Virgil, Segoe UI Emoji" font-size="16px" fill="#000000" text-anchor="start" style="white-space: pre;" direction="ltr" dominant-baseline="text-before-edge">Profitable:</text></g><g stroke-linecap="round" transform="translate(654.4347622860382 752.4478164428469) rotate(0 14.24441415415231 14.24441415415231)"><path d="M-0.54 1.51 C5.81 1.59, 15.15 0.65, 29.84 -0.34 M-0.06 -0.9 C9.7 -0.82, 17.78 -0.79, 27.94 0.49 M28.56 -0.76 C29.25 6.33, 29.19 14.27, 27.4 26.89 M28.59 0.28 C29.07 5.69, 29.36 12.97, 29.34 28.11 M28.45 29.2 C22.28 28.47, 11.55 27.22, 0.02 29.73 M28.64 29.42 C17.66 28.02, 8.5 28.79, 0.56 28.16 M-1.89 28.75 C-0.17 19.45, -1.74 8.69, -0.36 -0.21 M0.45 29.22 C0.27 19.73, 0.22 12.19, -0.2 0.84" stroke="#000000" stroke-width="1" fill="none"></path></g><g stroke-linecap="round" transform="translate(654.4347622860382 792.4847924597725) rotate(0 14.24441415415231 14.600000000000023)"><path d="M1.51 -1.46 C7.75 0.69, 12.94 1.43, 28.15 0.47 M-0.9 0.48 C5.91 -0.65, 12.76 -0.54, 28.98 -0.42 M27.73 1.02 C27.34 7.07, 27.94 11.12, 26.89 27.65 M28.77 0.64 C28.03 9.02, 28.98 17.02, 28.11 29.05 M29.2 31.12 C18.24 28.52, 6.82 29.22, 1.24 30.18 M29.42 28.31 C21.96 29.14, 16.93 29.81, -0.33 29.73 M0.26 28.91 C1.08 19.78, 0.37 13.71, -0.21 0 M0.73 29.3 C0.06 22.22, 1.06 14.94, 0.84 -0.04" stroke="#000000" stroke-width="1" fill="none"></path></g><g stroke-linecap="round" transform="translate(654.4347622860382 833.2329401683937) rotate(0 14.24441415415231 14.24441415415231)"><path d="M1.6 0.62 C8.44 1.56, 15.23 0.68, 27.28 -0.71 M-0.92 -0.66 C7.49 -0.69, 17.27 -0.56, 27.58 -0.43 M27.47 0.96 C27.95 7.56, 26.79 15.75, 28.03 29.74 M27.85 0.94 C28.88 9.68, 28.19 17.51, 29.06 28.72 M28.4 27.81 C18.66 28.79, 12.74 29.74, -1.92 30.21 M27.77 28.38 C19.56 28.8, 10.18 28.76, -0.41 28.26 M1.01 26.63 C0.26 22.27, -0.25 16.78, -1.18 -1.88 M-0.21 28.54 C0.58 18.47, 0.63 8.81, 0.32 -0.54" stroke="#000000" stroke-width="1" fill="none"></path></g><g transform="translate(563.2605463897503 881.9115064274278) rotate(0 41.343971252441406 9.600000000000023)"><text x="0" y="0" font-family="Virgil, Segoe UI Emoji" font-size="16px" fill="#000000" text-anchor="start" style="white-space: pre;" direction="ltr" dominant-baseline="text-before-edge">Achievable:</text></g><g transform="translate(553.9805476104534 923.2429339861109) rotate(0 45.983970642089844 9.600000000000023)"><text x="0" y="0" font-family="Virgil, Segoe UI Emoji" font-size="16px" fill="#000000" text-anchor="start" style="white-space: pre;" direction="ltr" dominant-baseline="text-before-edge">Measurable:</text></g><g transform="translate(563.6765620147503 960.9348211337827) rotate(0 41.135963439941406 9.600000000000023)"><text x="0" y="0" font-family="Virgil, Segoe UI Emoji" font-size="16px" fill="#000000" text-anchor="start" style="white-space: pre;" direction="ltr" dominant-baseline="text-before-edge">Profitable:</text></g><g stroke-linecap="round" transform="translate(652.902310066735 877.3426723160741) rotate(0 14.24441415415231 14.24441415415231)"><path d="M0.32 0.63 C9.07 -2.03, 20.55 1.71, 27.88 0.33 M0.41 -0.97 C11.83 0.71, 20.97 -0.78, 29.06 0.93 M29.61 -1.62 C27.57 6.5, 30.06 16.48, 29.72 29.41 M29.13 -0.37 C27.98 10.11, 28.24 19.72, 28.79 27.89 M27.24 30.33 C23.79 27.52, 15.17 28.21, -0.01 30.1 M29.35 29.32 C18.7 28.09, 10.4 28.28, -0.4 28.92 M1.29 28.22 C0.44 19.3, 1.39 9.8, 1.05 0.58 M-0.12 28.2 C0.66 18.17, -0.53 7.2, -0.22 -0.72" stroke="#000000" stroke-width="1" fill="none"></path></g><g stroke-linecap="round" transform="translate(652.902310066735 917.3796483329996) rotate(0 14.24441415415231 14.600000000000023)"><path d="M0.63 -1.47 C8.48 -0.58, 22.59 -0.65, 28.82 1.71 M-0.97 0.84 C8.63 -1.11, 15.11 0.46, 29.42 -0.22 M26.87 -0.77 C27.12 8.92, 29.18 15.62, 29.41 30.25 M28.12 -0.76 C28.79 10.88, 28.35 23.07, 27.89 28.49 M30.33 31.03 C21.02 28.76, 15.11 29.01, 1.61 29.48 M29.32 28.37 C18.55 29.26, 9.06 29.05, 0.44 29.57 M-0.27 29.88 C0.49 19.57, 0.59 7.74, 0.58 1.54 M-0.29 29.9 C0.15 19.56, -0.07 10.7, -0.72 0.3" stroke="#000000" stroke-width="1" fill="none"></path></g><g stroke-linecap="round" transform="translate(652.902310066735 958.1277960416209) rotate(0 14.24441415415231 14.24441415415231)"><path d="M-1.89 -0.53 C10.86 -0.4, 18.34 1.92, 28.09 -0.49 M0.64 -1 C8.86 0.33, 20.36 -0.46, 27.95 0.13 M27.08 1.72 C28.91 11.37, 29.18 21.35, 30.29 30.17 M28.55 -0.5 C28 10.68, 27.78 20.06, 27.8 28.16 M27.61 28.23 C21.54 28.74, 16.57 29.03, 0.8 27.48 M28.23 28.3 C17.42 27.85, 6.92 28.62, 0.85 28.22 M0.42 30.12 C0.55 19.16, 0.62 9.27, 0.26 1.85 M0.42 27.99 C0.29 20.06, -0.64 12.36, 0.2 -0.14" stroke="#000000" stroke-width="1" fill="none"></path></g><g stroke-linecap="round"><g transform="translate(18.84266917882678 653.9794992922135) rotate(0 254.88993366293857 0.33239769960084686)"><path d="M0.07 -0.49 C150.74 1.61, 299.91 2.12, 508.68 0.64 M0.3 0.39 C155.14 -0.97, 310.82 -1.33, 509.71 0.06" stroke="#000000" stroke-width="1" fill="none"></path></g></g><mask></mask><g stroke-linecap="round"><g transform="translate(18.740336925221072 693.7076694273541) rotate(0 254.32432601286314 -0.154748831740676)"><path d="M-0.49 0.6 C141.45 -0.54, 283.54 -0.91, 509.14 0.04 M0.39 -0.07 C183.58 -1.11, 366.78 -1.21, 508.56 -0.19" stroke="#000000" stroke-width="1" fill="none"></path></g></g><mask></mask><g stroke-linecap="round"><g transform="translate(20.312052961734025 734.0780511005313) rotate(0 254.97848233714967 -0.1032706715412246)"><path d="M0.6 -0.13 C109.18 1.63, 218.35 1.89, 510.03 0.49 M-0.07 0.01 C177.78 -2.36, 355.06 -1.95, 509.8 0.23" stroke="#000000" stroke-width="1" fill="none"></path></g></g><mask></mask><g stroke-linecap="round"><g transform="translate(18.331882950213185 779.3851881607856) rotate(0 255.03920248084023 -0.566305100073464)"><path d="M0.56 0.05 C190.97 -1.99, 381.76 -0.99, 510.18 0.13 M-0.1 -0.25 C170.19 -1.77, 339.55 -1.45, 509.63 -0.12" stroke="#000000" stroke-width="1" fill="none"></path></g></g><mask></mask><g stroke-linecap="round"><g transform="translate(18.229550696607475 819.1133582959263) rotate(0 254.1896270988716 -0.2530013901937309)"><path d="M0.05 -0.06 C197.85 -1.71, 397.24 -0.66, 508.63 0.27 M-0.25 0.26 C126.67 0.2, 253.72 0.72, 508.38 0.15" stroke="#000000" stroke-width="1" fill="none"></path></g></g><mask></mask><g stroke-linecap="round"><g transform="translate(19.80126673311952 859.4837399691035) rotate(0 255.1026081769196 0.2302137567373279)"><path d="M-0.06 -0.54 C189.05 0.33, 379.44 0.01, 510.26 -0.41 M0.26 -0.05 C195.92 1.56, 392.67 1.16, 510.14 -0.15" stroke="#000000" stroke-width="1" fill="none"></path></g></g><mask></mask><g stroke-linecap="round"><g transform="translate(22.418359846048133 903.5138179243608) rotate(0 255.02198565535514 0.24818455859156074)"><path d="M0.68 -0.2 C160.58 1.56, 322.06 0.42, 509.97 0.42 M0.07 -0.29 C137.07 1.12, 274.2 0.39, 509.37 0.18" stroke="#000000" stroke-width="1" fill="none"></path></g></g><mask></mask><g stroke-linecap="round"><g transform="translate(22.316027592442424 943.2419880595015) rotate(0 254.31624410135896 -0.5632597920456419)"><path d="M-0.2 -0.5 C170.15 -1.82, 338.63 -1.17, 508.92 -0.24 M-0.29 -0.17 C172.02 -0.63, 342.98 -0.4, 508.68 0.12" stroke="#000000" stroke-width="1" fill="none"></path></g></g><mask></mask><g stroke-linecap="round"><g transform="translate(23.887743628955377 983.6123697326788) rotate(0 254.80563654437924 0.7002631328980442)"><path d="M-0.5 0.52 C127 -0.1, 254.74 0.93, 509.75 0.3 M-0.17 0.34 C133.3 1.07, 267.1 1.64, 510.11 0.29" stroke="#000000" stroke-width="1" fill="none"></path></g></g><mask></mask><g stroke-linecap="round"><g transform="translate(112.49432792176958 406.6521196042987) rotate(0 285.8976054962984 -0.040414125486563535)"><path d="M0.75 0.78 C177.46 1.44, 353.68 0.48, 571.43 -0.05 M0.37 0 C204.65 -1.43, 408.31 -1.56, 570.57 0.31" stroke="#000000" stroke-width="1" fill="none"></path></g></g><mask></mask><g stroke-linecap="round"><g transform="translate(25.290743632534486 447.8416836564518) rotate(0 329.3141058827364 -0.689927150786275)"><path d="M0.78 0.56 C253.44 -2.57, 505.47 -1.71, 658.28 0.46 M0 0.36 C142.82 -2.7, 285.22 -2.54, 658.63 -0.15" stroke="#000000" stroke-width="1" fill="none"></path></g></g><mask></mask><g stroke-linecap="round"><g transform="translate(25.429375933030315 486.9813260140729) rotate(0 329.094945179912 0.011169740809350515)"><path d="M-0.3 -0.33 C168.52 0.15, 337.49 -0.24, 658.49 -0.07 M-0.03 0.35 C145 0.34, 289.7 0.46, 657.98 -0.13" stroke="#000000" stroke-width="1" fill="none"></path></g></g><mask></mask><g transform="translate(17.446166933396853 65.99946188184197) rotate(0 60.95196533203125 9.599999999999994)"><text x="0" y="0" font-family="Virgil, Segoe UI Emoji" font-size="16px" fill="#000000" text-anchor="start" style="white-space: pre;" direction="ltr" dominant-baseline="text-before-edge">Strategic Goal:</text></g><g stroke-linecap="round"><g transform="translate(135.99194420666527 82.38253694120124) rotate(0 273.93091997479087 0.317478993378117)"><path d="M0.63 -0.6 C147.95 -0.68, 295.55 -1.14, 547.53 0.39 M-0.07 0.08 C179.87 1.66, 360.82 1.99, 547.93 -0.15" stroke="#000000" stroke-width="1" fill="none"></path></g></g><mask></mask><g stroke-linecap="round"><g transform="translate(25.20782056889857 123.51734253727204) rotate(0 329.0582625145637 -0.4809145453051258)"><path d="M-0.6 0.35 C232.39 -1.71, 464.49 -2.22, 658.71 0.23 M0.08 -0.4 C157.98 0.72, 316.34 0.68, 658.18 -0.24" stroke="#000000" stroke-width="1" fill="none"></path></g></g><mask></mask><g stroke-linecap="round"><g transform="translate(132.92703976805842 162.78500381484105) rotate(0 275.1560417928524 0.2295000240560796)"><path d="M-0.68 0.19 C160.83 -0.3, 322.92 -0.77, 550.99 -0.14 M-0.12 -0.13 C147.23 1.07, 294.33 1.41, 549.99 -0.12" stroke="#000000" stroke-width="1" fill="none"></path></g></g><mask></mask><g transform="translate(17.28418168811004 146.57359999059304) rotate(0 59.231964111328125 9.599999999999994)"><text x="0" y="0" font-family="Virgil, Segoe UI Emoji" font-size="16px" fill="#000000" text-anchor="start" style="white-space: pre;" direction="ltr" dominant-baseline="text-before-edge">Strategic Plan:</text></g><g stroke-linecap="round"><g transform="translate(25.297308433115177 202.46965392068284) rotate(0 329.5237320313777 0.4119379807932262)"><path d="M0.65 0.62 C258.34 1.24, 518.07 1.15, 658.74 0.22 M0.31 0.12 C180.76 0.48, 361.59 0.8, 658.12 -0.19" stroke="#000000" stroke-width="1" fill="none"></path></g></g><mask></mask><g stroke-linecap="round"><g transform="translate(126.79723089084473 244.43487561926054) rotate(0 277.93006523672693 -0.3666279390758973)"><path d="M0.22 0.58 C143.57 -1.6, 287.83 -1.99, 556.12 -0.12 M-0.29 -0.11 C158.25 -1.51, 316.17 -1.44, 556.15 0.13" stroke="#000000" stroke-width="1" fill="none"></path></g></g><mask></mask><g transform="translate(16.9029048983366 228.22347179501253) rotate(0 56.447967529296875 9.599999999999994)"><text x="0" y="0" font-family="Virgil, Segoe UI Emoji" font-size="16px" fill="#000000" text-anchor="start" style="white-space: pre;" direction="ltr" dominant-baseline="text-before-edge">Concrete Plan:</text></g><g stroke-linecap="round"><g transform="translate(24.91603164334174 284.11952572510233) rotate(0 329.2079029450738 -0.3355575549403511)"><path d="M0.04 0.49 C260.05 -1.81, 518.65 -2.03, 658.19 0.59 M0.35 -0.07 C240.61 0.72, 480.57 0.85, 658.38 0.28" stroke="#000000" stroke-width="1" fill="none"></path></g></g><mask></mask></svg>