<svg version="1.1" xmlns="http://www.w3.org/2000/svg" viewBox="0 0 714.8571910746459 1016.6326608314205" width="714.8571910746459" height="1016.6326608314205">
  <!-- svg-source:excalidraw -->
  
  <defs>
    <style class="style-fonts">
      @font-face {
        font-family: "Virgil";
        src: url("https://excalidraw.com/Virgil.woff2");
      }
      @font-face {
        font-family: "Cascadia";
        src: url("https://excalidraw.com/Cascadia.woff2");
      }
    </style>
  </defs>
  <g transform="translate(10 10) rotate(0 47.02996063232422 12)"><text x="0" y="0" font-family="Virgil, Segoe UI Emoji" font-size="20px" fill="#000000" text-anchor="start" style="white-space: pre;" direction="ltr" dominant-baseline="text-before-edge">Increment</text></g><g transform="translate(10 42.05081726558643) rotate(0 53.70396423339844 9.599999999999994)"><text x="0" y="0" font-family="Virgil, Segoe UI Emoji" font-size="16px" fill="#000000" text-anchor="start" style="white-space: pre;" direction="ltr" dominant-baseline="text-before-edge">Retrospective</text></g><g transform="translate(26.643825955061857 71.22959638571584) rotate(0 37.62397766113281 9.599999999999994)"><text x="0" y="0" font-family="Virgil, Segoe UI Emoji" font-size="16px" fill="#000000" text-anchor="start" style="white-space: pre;" direction="ltr" dominant-baseline="text-before-edge">Increment</text></g><g stroke-linecap="round"><g transform="translate(164.019295657258 121.25993672949431) rotate(0 268.8984731192488 -0.1822308798081167)"><path d="M-0.66 -0.58 C149.45 -0.7, 296.98 -1.78, 538.46 0.49 M0.24 0.2 C144.82 0.25, 289.72 0.9, 538.25 0.38" stroke="#000000" stroke-width="1" fill="none"></path></g></g><mask></mask><g stroke-linecap="round"><g transform="translate(26.469768247871343 163.51072374435722) rotate(0 337.7469321036001 -0.5629588115746458)"><path d="M0.54 0.64 C148.6 -1.3, 296.67 -0.91, 674.73 0.15 M0.17 0.34 C185.46 -2.55, 371.13 -2.26, 675.32 -0.02" stroke="#000000" stroke-width="1" fill="none"></path></g></g><mask></mask><g stroke-linecap="round"><g transform="translate(141.5188953904028 206.44972009756657) rotate(0 279.8969825788482 -0.25555051984559896)"><path d="M0.66 -0.27 C124.71 0.14, 249.52 -0.22, 560.04 -0.63 M-0.25 0.06 C167.27 -1.27, 334.34 -1.17, 560.01 0.36" stroke="#000000" stroke-width="1" fill="none"></path></g></g><mask></mask><g stroke-linecap="round"><g transform="translate(147.14402764413603 295.13609634027586) rotate(0 103.34403888105442 -0.35827959065622395)"><path d="M1.07 0.91 C63.28 1.08, 131 0.81, 207.18 -1.03 M-0.49 0.86 C74.23 -2.32, 146.89 -2.05, 207.07 -0.78" stroke="#000000" stroke-width="1" fill="none"></path></g></g><mask></mask><g stroke-linecap="round"><g transform="translate(27.382064641385114 338.1039841735493) rotate(0 161.84095029330774 -0.6993244035665782)"><path d="M-1.28 -0.55 C67.84 -2.18, 135.49 -0.77, 324 -0.33 M0.38 -0.57 C92.22 -1.22, 183.85 -1.59, 324.96 -0.08" stroke="#000000" stroke-width="1" fill="none"></path></g></g><mask></mask><g transform="translate(26.961168224363746 103.22230272293325) rotate(0 68.0319595336914 9.599999999999994)"><text x="0" y="0" font-family="Virgil, Segoe UI Emoji" font-size="16px" fill="#000000" text-anchor="start" style="white-space: pre;" direction="ltr" dominant-baseline="text-before-edge">Concrete Actions:</text></g><g transform="translate(29.42728200853844 189.70803519667516) rotate(0 56.447967529296875 9.599999999999994)"><text x="0" y="0" font-family="Virgil, Segoe UI Emoji" font-size="16px" fill="#000000" text-anchor="start" style="white-space: pre;" direction="ltr" dominant-baseline="text-before-edge">Concrete Plan:</text></g><g transform="translate(30.11268487913776 279.0056459181403) rotate(0 59.231964111328125 9.599999999999994)"><text x="0" y="0" font-family="Virgil, Segoe UI Emoji" font-size="16px" fill="#000000" text-anchor="start" style="white-space: pre;" direction="ltr" dominant-baseline="text-before-edge">Strategic Plan:</text></g><g transform="translate(378.8967504458069 280.4118967945542) rotate(0 60.95196533203125 9.599999999999994)"><text x="0" y="0" font-family="Virgil, Segoe UI Emoji" font-size="16px" fill="#000000" text-anchor="start" style="white-space: pre;" direction="ltr" dominant-baseline="text-before-edge">Strategic Goal:</text></g><g transform="translate(28.519660366135213 351.78106691062624) rotate(0 31.295982360839844 9.600000000000023)"><text x="0" y="0" font-family="Virgil, Segoe UI Emoji" font-size="16px" fill="#000000" text-anchor="start" style="white-space: pre;" direction="ltr" dominant-baseline="text-before-edge">Quarter</text></g><g stroke-linecap="round"><g transform="translate(149.5145899679801 400.40514028448104) rotate(0 277.1317972106908 -0.6117479450754217)"><path d="M0.39 -0.74 C210.27 -2.47, 420.86 -1.68, 553.96 0.16 M-0.35 0.15 C176.35 0.69, 351.73 0.43, 554.61 0.29" stroke="#000000" stroke-width="1" fill="none"></path></g></g><mask></mask><g stroke-linecap="round"><g transform="translate(28.3456026589447 444.0621942692676) rotate(0 337.28123114195046 0.3257284755720775)"><path d="M-0.74 0.21 C243.25 -0.57, 488.05 -2.04, 675.17 0.14 M0.15 0.36 C150.73 2.1, 301.29 2.3, 675.3 -0.4" stroke="#000000" stroke-width="1" fill="none"></path></g></g><mask></mask><g stroke-linecap="round"><g transform="translate(157.9522239745413 487.001190622477) rotate(0 96.06773108204504 -0.4199253036781556)"><path d="M0.54 -1.91 C73.96 1.83, 142.34 2.16, 191.6 -1.53 M0.89 -0.24 C49.94 -1.6, 101.02 0.02, 190.26 -0.68" stroke="#000000" stroke-width="1" fill="none"></path></g></g><mask></mask><g transform="translate(28.837002635436875 383.7737732478437) rotate(0 60.791961669921875 9.600000000000023)"><text x="0" y="0" font-family="Virgil, Segoe UI Emoji" font-size="16px" fill="#000000" text-anchor="start" style="white-space: pre;" direction="ltr" dominant-baseline="text-before-edge">Concrete Plans:</text></g><g transform="translate(31.303116419611797 466.040688718305) rotate(0 63.575958251953125 9.600000000000023)"><text x="0" y="0" font-family="Virgil, Segoe UI Emoji" font-size="16px" fill="#000000" text-anchor="start" style="white-space: pre;" direction="ltr" dominant-baseline="text-before-edge">Strategic Plans:</text></g><g transform="translate(383.585086609708 469.55641247039785) rotate(0 65.29595947265625 9.600000000000023)"><text x="0" y="0" font-family="Virgil, Segoe UI Emoji" font-size="16px" fill="#000000" text-anchor="start" style="white-space: pre;" direction="ltr" dominant-baseline="text-before-edge">Strategic Goals:</text></g><g transform="translate(27.43684545860333 588.9613627960963) rotate(0 35.35997772216797 9.600000000000023)"><text x="0" y="0" font-family="Virgil, Segoe UI Emoji" font-size="16px" fill="#000000" text-anchor="start" style="white-space: pre;" direction="ltr" dominant-baseline="text-before-edge">Semester</text></g><g stroke-linecap="round"><g transform="translate(153.1563924062889 637.5854361699512) rotate(0 97.80964690703809 -0.022866314990722003)"><path d="M0.36 1.65 C73.03 0.88, 147.48 -0.09, 195.39 -1.4 M-0.78 0.44 C42.57 -2.21, 84.02 -2.18, 196.4 -0.6" stroke="#000000" stroke-width="1" fill="none"></path></g></g><mask></mask><g transform="translate(27.754187727905446 620.7352521300331) rotate(0 63.575958251953125 9.600000000000023)"><text x="0" y="0" font-family="Virgil, Segoe UI Emoji" font-size="16px" fill="#000000" text-anchor="start" style="white-space: pre;" direction="ltr" dominant-baseline="text-before-edge">Strategic Plans:</text></g><g transform="translate(381.09595645172385 620.7352360365234) rotate(0 65.29595947265625 9.600000000000023)"><text x="0" y="0" font-family="Virgil, Segoe UI Emoji" font-size="16px" fill="#000000" text-anchor="start" style="white-space: pre;" direction="ltr" dominant-baseline="text-before-edge">Strategic Goals:</text></g><g transform="translate(27.26699989150461 825.2814254467052) rotate(0 17.279991149902344 9.600000000000023)"><text x="0" y="0" font-family="Virgil, Segoe UI Emoji" font-size="16px" fill="#000000" text-anchor="start" style="white-space: pre;" direction="ltr" dominant-baseline="text-before-edge">Year</text></g><g stroke-linecap="round"><g transform="translate(154.25106132143696 873.9054988205598) rotate(0 274.2030556145794 -0.7462462569824311)"><path d="M0.39 0.17 C192.92 -2.87, 384.93 -1.52, 548.23 -0.14 M-0.17 0.16 C156.98 0.1, 313.18 -0.55, 548.58 -0.11" stroke="#000000" stroke-width="1" fill="none"></path></g></g><mask></mask><g stroke-linecap="round"><g transform="translate(27.092942184314097 917.562552805347) rotate(0 337.5289046072621 -0.2757153042097116)"><path d="M0.17 0.25 C179.21 -1.71, 360.54 -1.76, 674.87 -0.11 M0.16 0.23 C268.53 0.83, 536.04 1.04, 674.9 0.08" stroke="#000000" stroke-width="1" fill="none"></path></g></g><mask></mask><g stroke-linecap="round"><g transform="translate(27.512628597125286 960.5015491585568) rotate(0 337.66076150771585 -0.05859025547829333)"><path d="M0.25 -0.77 C266.55 -0.01, 533.45 -0.72, 674.9 0.78 M0.23 0.37 C210.61 -1.35, 421.76 -1.18, 675.09 0.07" stroke="#000000" stroke-width="1" fill="none"></path></g></g><mask></mask><g transform="translate(27.584342160806273 857.0553147806421) rotate(0 65.29595947265625 9.599999999999966)"><text x="0" y="0" font-family="Virgil, Segoe UI Emoji" font-size="16px" fill="#000000" text-anchor="start" style="white-space: pre;" direction="ltr" dominant-baseline="text-before-edge">Strategic Goals:</text></g><g stroke-linecap="round"><g transform="translate(500.118340669251 295.5244654655239) rotate(0 101.12641643490292 0.13745863558784777)"><path d="M-0.23 -1.47 C77.75 1.07, 153.83 2.81, 200.86 1.01 M0.84 0.56 C58.12 0.7, 117.62 -0.43, 202.49 -0.85" stroke="#000000" stroke-width="1" fill="none"></path></g></g><mask></mask><g stroke-linecap="round"><g transform="translate(377.4133242546379 339.47043300033744) rotate(0 163.288386576712 -1.2321619198205838)"><path d="M-0.79 -1.21 C128.06 -0.86, 257.32 -2.72, 325.63 -0.79 M-0.17 -0.64 C113.72 -2.55, 226.82 -2.46, 327.37 -0.45" stroke="#000000" stroke-width="1" fill="none"></path></g></g><mask></mask><g stroke-linecap="round"><g transform="translate(510.92660137369444 487.12387947620107) rotate(0 96.2163970742489 0.5156372599303722)"><path d="M-0.78 1.45 C77.24 -1.18, 152.39 -1.18, 193.21 1.57 M0.46 0.88 C58.01 1.07, 118.03 1.13, 191.53 -0.54" stroke="#000000" stroke-width="1" fill="none"></path></g></g><mask></mask><g stroke-linecap="round"><g transform="translate(29.768019596690465 531.4443035368869) rotate(0 160.36197677607095 -0.15894681456200033)"><path d="M0.18 0.72 C124.3 1.13, 252.53 1.21, 321.3 -0.74 M-0.58 -0.57 C104.43 -1.64, 210.2 -1.61, 320.8 0.39" stroke="#000000" stroke-width="1" fill="none"></path></g></g><mask></mask><g stroke-linecap="round"><g transform="translate(26.95545346982385 575.0387244461065) rotate(0 160.71559695177132 -0.1297301196067906)"><path d="M0.55 -0.97 C77.24 -0.07, 152 0.62, 321.64 0.32 M-0.21 0.02 C118.31 1.07, 235.16 0.99, 320.57 -0.63" stroke="#000000" stroke-width="1" fill="none"></path></g></g><mask></mask><g stroke-linecap="round"><g transform="translate(382.90884537341526 530.9181928582042) rotate(0 160.0303830849291 -0.3324420677688522)"><path d="M1.04 -1.14 C102.56 0.32, 203.07 0.82, 319.96 -0.27 M-0.65 0.13 C121.17 -1.51, 243.61 -1.96, 320.71 0.55" stroke="#000000" stroke-width="1" fill="none"></path></g></g><mask></mask><g stroke-linecap="round"><g transform="translate(382.9088453734157 574.5126137674235) rotate(0 159.77617331717022 0.3110595964146228)"><path d="M-0.17 0.75 C127.05 -0.72, 253.58 -1.82, 319.25 -0.42 M-0.22 0.52 C105.82 2.14, 212.21 2.28, 319.77 -0.37" stroke="#000000" stroke-width="1" fill="none"></path></g></g><mask></mask><g stroke-linecap="round"><g transform="translate(30.244647830061695 680.9869139481233) rotate(0 160.5862845046596 -0.47237864986936984)"><path d="M-0.93 -0.84 C66.49 0.06, 133.77 -1.01, 321.64 -0.3 M0.52 -0.61 C103.2 -1.52, 205.36 -1.26, 322.1 0.2" stroke="#000000" stroke-width="1" fill="none"></path></g></g><mask></mask><g stroke-linecap="round"><g transform="translate(26.025766452742573 723.8782416061555) rotate(0 161.04650501556034 0.6156301179039474)"><path d="M0.07 -0.64 C77.91 2.01, 154.73 1.3, 320.8 0.77 M0 -0.6 C115.27 2.81, 232.01 2.37, 322.09 0.04" stroke="#000000" stroke-width="1" fill="none"></path></g></g><mask></mask><g stroke-linecap="round"><g transform="translate(29.1899435792418 766.7695692641869) rotate(0 160.4800332703595 -0.3445218774402292)"><path d="M-1.36 0.01 C113.2 -1.92, 230.04 0.06, 322.32 0.3 M0.45 0.29 C99 -1.81, 196.68 -0.94, 321.71 0.1" stroke="#000000" stroke-width="1" fill="none"></path></g></g><mask></mask><g stroke-linecap="round"><g transform="translate(26.377377452374958 810.3639901734069) rotate(0 160.7362503701836 -0.12306218855565021)"><path d="M0.9 0.59 C99.47 -2.33, 196.32 -0.59, 321.48 0.2 M-0.21 0.55 C127.63 0.77, 255.94 1.11, 321.68 0.14" stroke="#000000" stroke-width="1" fill="none"></path></g></g><mask></mask><g stroke-linecap="round"><g transform="translate(510.3495868087232 637.7440396644973) rotate(0 95.22206736496435 -0.373380458722238)"><path d="M-0.17 -0.56 C64.35 0.72, 127.39 -2.46, 190.67 0.37 M-0.23 -0.76 C50.99 -1.54, 103.4 -0.92, 190.62 0.13" stroke="#000000" stroke-width="1" fill="none"></path></g></g><mask></mask><g stroke-linecap="round"><g transform="translate(379.35175485152854 681.3384605737173) rotate(0 160.94921230369857 -0.05254586439104969)"><path d="M0.78 0.02 C105.24 1.6, 212.8 1.05, 321.91 -0.52 M-0.29 -0.13 C128.41 -1.66, 257.16 -1.13, 322.19 0.07" stroke="#000000" stroke-width="1" fill="none"></path></g></g><mask></mask><g stroke-linecap="round"><g transform="translate(383.21896085517665 724.9329458569755) rotate(0 160.51043497692365 -0.3624051469535061)"><path d="M-0.62 -0.03 C73.52 0.78, 148.87 0.29, 321.36 -0.27 M0.3 0.25 C97.65 -0.83, 194.6 -1.7, 321.64 -0.64" stroke="#000000" stroke-width="1" fill="none"></path></g></g><mask></mask><g stroke-linecap="round"><g transform="translate(382.1643853524338 767.472662515375) rotate(0 160.66360171058295 -0.17094680445700305)"><path d="M-1.11 -0.98 C107.5 -2.53, 214.9 -1.26, 322.44 1.31 M0.23 -0.64 C84.6 1.5, 169.72 1.61, 322.31 0.49" stroke="#000000" stroke-width="1" fill="none"></path></g></g><mask></mask><g stroke-linecap="round"><g transform="translate(381.8126456047237 811.7702410498209) rotate(0 160.8919370128002 -0.2741401739081084)"><path d="M0.85 -1.3 C113.62 1.81, 227.7 0.96, 320.92 -1.05 M-0.44 0.55 C91.95 -0.93, 183.42 -0.76, 322.23 0.57" stroke="#000000" stroke-width="1" fill="none"></path></g></g><mask></mask><g stroke-linecap="round"><g transform="translate(28.234243228936748 1005.1607696397996) rotate(0 337.54739950683313 0.6386486113167393)"><path d="M-0.06 0.74 C237.27 0.07, 475.11 -0.08, 675.4 0.43 M-0.31 -0.19 C184.42 1.79, 368.26 2.25, 675.29 -0.19" stroke="#000000" stroke-width="1" fill="none"></path></g></g><mask></mask><g stroke-linecap="round"><g transform="translate(28.423968711492535 252.6062065492568) rotate(0 337.42972303267914 -0.28536501244775536)"><path d="M0.01 -0.04 C207.71 -2.38, 415.55 -1.33, 674.82 -0.07 M-0.39 -0.34 C199.89 1.24, 399.52 1.2, 675.25 -0.13" stroke="#000000" stroke-width="1" fill="none"></path></g></g><mask></mask><g stroke-linecap="round"><g transform="translate(16.592142600498846 79.07176669668866) rotate(0 0.6489869031146327 146.95268511967745)"><path d="M-0.77 -0.65 C0.63 86.33, 3.34 170.53, 1.38 294.55 M-0.68 -0.5 C0.22 106.57, -0.03 213.71, -0.3 293.5" stroke="#000000" stroke-width="1" fill="none"></path></g><g transform="translate(16.592142600498846 79.07176669668866) rotate(0 0.6489869031146327 146.95268511967745)"><path d="M-4.33 -9.3 C-2.86 -10.23, -0.26 -9.82, 1.4 -8.98 C3.06 -8.13, 4.73 -5.76, 5.63 -4.25 C6.52 -2.73, 6.9 -1.59, 6.76 0.12 C6.62 1.83, 5.88 4.62, 4.77 6.01 C3.67 7.39, 1.94 8.45, 0.14 8.44 C-1.65 8.43, -4.6 7.32, -5.99 5.94 C-7.38 4.56, -8.01 2.03, -8.18 0.17 C-8.36 -1.68, -8.11 -3.71, -7.06 -5.19 C-6.01 -6.66, -2.92 -7.96, -1.89 -8.67 C-0.87 -9.39, -0.75 -9.53, -0.89 -9.46 M-0.22 -9.88 C1.47 -9.97, 3.45 -7.27, 4.66 -6.1 C5.87 -4.94, 7.09 -4.77, 7.05 -2.9 C7.02 -1.03, 5.32 3.13, 4.43 5.1 C3.55 7.06, 3.32 8.33, 1.75 8.87 C0.18 9.42, -3.56 9.47, -4.97 8.39 C-6.39 7.31, -6.25 4.05, -6.73 2.41 C-7.21 0.77, -8.31 0.2, -7.85 -1.43 C-7.4 -3.07, -5.07 -6.35, -3.98 -7.41 C-2.89 -8.47, -1.8 -7.54, -1.31 -7.8 C-0.82 -8.06, -1.28 -8.87, -1.04 -8.97" stroke="none" stroke-width="0" fill="#000000"></path></g><g transform="translate(16.592142600498846 79.07176669668866) rotate(0 0.6489869031146327 146.95268511967745)"><path d="M-11.53 264.4 C-9.1 275.08, -2.49 282.09, 1.56 294.36 M-11.4 264.6 C-6.56 275.31, -3.2 286.12, -0.7 292.94" stroke="#000000" stroke-width="1" fill="none"></path></g><g transform="translate(16.592142600498846 79.07176669668866) rotate(0 0.6489869031146327 146.95268511967745)"><path d="M9 264.46 C5.48 275.25, 6.15 282.24, 1.56 294.36 M9.12 264.65 C6.51 275.31, 2.41 286.09, -0.7 292.94" stroke="#000000" stroke-width="1" fill="none"></path></g></g><mask></mask><g stroke-linecap="round"><g transform="translate(16.651537152397395 377.20150695968493) rotate(0 0.39122996412584143 116.59401717451931)"><path d="M0.14 -1.04 C-0.21 60.1, 1.01 120.29, 1.32 233.43 M-0.05 -0.78 C-0.92 56.71, 0.05 113.06, -0.54 234.23" stroke="#000000" stroke-width="1" fill="none"></path></g><g transform="translate(16.651537152397395 377.20150695968493) rotate(0 0.39122996412584143 116.59401717451931)"><path d="M-10.57 204.78 C-9.15 212.91, -5.06 219.92, 1.03 234.21 M-10.79 205.09 C-9.23 213.47, -5.62 220.53, -1.17 235.17" stroke="#000000" stroke-width="1" fill="none"></path></g><g transform="translate(16.651537152397395 377.20150695968493) rotate(0 0.39122996412584143 116.59401717451931)"><path d="M9.95 204.83 C6.06 212.98, 4.84 219.98, 1.03 234.21 M9.73 205.14 C6.36 213.58, 5.03 220.63, -1.17 235.17" stroke="#000000" stroke-width="1" fill="none"></path></g></g><mask></mask><g stroke-linecap="round"><g transform="translate(15.855273721807635 614.86154220683) rotate(0 0.5239832076883886 116.55309249012151)"><path d="M-0.22 -1.65 C0.53 59.6, 1.56 120.16, 0.01 234.76 M0.54 0.59 C1.97 66.7, 1.84 132.31, -0.42 234.06" stroke="#000000" stroke-width="1" fill="none"></path></g><g transform="translate(15.855273721807635 614.86154220683) rotate(0 0.5239832076883886 116.55309249012151)"><path d="M-10.44 203.73 C-8.12 213.21, -4.44 221.89, -0.42 233.96 M-9.54 206.4 C-6.44 214.3, -3.85 221.65, -0.93 233.13" stroke="#000000" stroke-width="1" fill="none"></path></g><g transform="translate(15.855273721807635 614.86154220683) rotate(0 0.5239832076883886 116.55309249012151)"><path d="M10.08 204.1 C7.22 213.56, 5.72 222.15, -0.42 233.96 M10.97 206.76 C8.3 214.64, 5.11 221.89, -0.93 233.13" stroke="#000000" stroke-width="1" fill="none"></path></g></g><mask></mask><g stroke-linecap="round"><g transform="translate(15.185827350046338 90.32195073660671) rotate(0 45.47391756333445 -0.3225052296762385)"><path d="M1.08 -0.96 C30.97 1.45, 60.45 -0.06, 88.13 -0.86 M0.7 -0.53 C25.77 -0.43, 51.35 -1.65, 90.24 -0.49" stroke="#000000" stroke-width="1" fill="none"></path></g></g><mask></mask><g stroke-linecap="round"><g transform="translate(17.525212073250486 370.14108243362034) rotate(0 39.37894371462892 0.35738126933574677)"><path d="M0.95 1.25 C27.9 -0.28, 56.65 0.15, 78.21 -0.54 M-0.83 -0.19 C17.34 0.9, 33.75 0, 79.58 0.58" stroke="#000000" stroke-width="1" fill="none"></path></g></g><mask></mask><g stroke-linecap="round"><g transform="translate(17.52521207325094 612.0198703100069) rotate(0 45.77137430466746 -0.6427311298239147)"><path d="M1.53 -0.84 C32.82 -1.64, 65.64 -1.88, 88.83 -1.04 M0.59 -0.22 C23.1 -0.51, 48.07 -1.27, 90.95 0.28" stroke="#000000" stroke-width="1" fill="none"></path></g></g><mask></mask><g stroke-linecap="round"><g transform="translate(13.306330695931365 846.8674359913433) rotate(0 26.724095787120746 0.6952684940868039)"><path d="M0.67 1.18 C12.93 -0.77, 26.33 1.84, 51.98 1.9 M0.08 -0.3 C18.01 -0.73, 35.02 -0.49, 53.37 0.35" stroke="#000000" stroke-width="1" fill="none"></path></g></g><mask></mask></svg>