<svg version="1.1" xmlns="http://www.w3.org/2000/svg" viewBox="0 0 701.1054798098346 1044.0426853100198" width="701.1054798098346" height="1044.0426853100198">
  <!-- svg-source:excalidraw -->
  
  <defs>
    <style class="style-fonts">
      @font-face {
        font-family: "Virgil";
        src: url("https://excalidraw.com/Virgil.woff2");
      }
      @font-face {
        font-family: "Cascadia";
        src: url("https://excalidraw.com/Cascadia.woff2");
      }
    </style>
  </defs>
  <g transform="translate(20.415458662876176 10) rotate(0 47.02996063232422 12)"><text x="0" y="0" font-family="Virgil, Segoe UI Emoji" font-size="20px" fill="#000000" text-anchor="start" style="white-space: pre;" direction="ltr" dominant-baseline="text-before-edge">Increment</text></g><g transform="translate(20.415458662876176 42.05081726558646) rotate(0 24.983985900878906 9.599999999999994)"><text x="0" y="0" font-family="Virgil, Segoe UI Emoji" font-size="16px" fill="#000000" text-anchor="start" style="white-space: pre;" direction="ltr" dominant-baseline="text-before-edge">Review</text></g><g transform="translate(20.415458662876176 71.16191989959253) rotate(0 90.07994842529297 9.599999999999994)"><text x="0" y="0" font-family="Virgil, Segoe UI Emoji" font-size="16px" fill="#000000" text-anchor="start" style="white-space: pre;" direction="ltr" dominant-baseline="text-before-edge">Increment Expectation:</text></g><g stroke-linecap="round"><g transform="translate(20.27168900228412 124.0952701871359) rotate(0 324.0131281937161 -0.49597263533453884)"><path d="M0.38 -0.66 C237.47 -1.53, 473.55 -1.62, 647.88 0.26 M0.14 -0.09 C254.75 0.01, 509.68 -0.35, 647.49 -0.14" stroke="#000000" stroke-width="1" fill="none"></path></g></g><mask></mask><g stroke-linecap="round"><g transform="translate(20.511232675680162 164.22086114929334) rotate(0 323.7332887987296 -0.5885855496833869)"><path d="M-0.1 -0.71 C243.06 -1.97, 485.48 -1.54, 647.56 -0.18 M0.13 0.12 C219.66 0.25, 439.59 0.06, 647.21 0.29" stroke="#000000" stroke-width="1" fill="none"></path></g></g><mask></mask><g stroke-linecap="round"><g transform="translate(20.819200660356614 203.85047947611628) rotate(0 323.4021561140815 0.4216983343546872)"><path d="M-0.4 0.57 C194.66 1.18, 389.55 0.86, 646.72 0.7 M0.35 0.38 C246.86 0.16, 492.95 -0.17, 647.21 -0.07" stroke="#000000" stroke-width="1" fill="none"></path></g></g><mask></mask><g transform="translate(20.415458662876176 218.93968072316022) rotate(0 79.05594635009766 9.599999999999994)"><text x="0" y="0" font-family="Virgil, Segoe UI Emoji" font-size="16px" fill="#000000" text-anchor="start" style="white-space: pre;" direction="ltr" dominant-baseline="text-before-edge">Sprint Expectations:</text></g><g stroke-linecap="round"><g transform="translate(20.286081881112068 282.5282686986761) rotate(0 152.50565265274201 -0.013043104146191808)"><path d="M0.23 -0.01 C84.55 -2.18, 172.01 -1.1, 303.46 -1.34 M0.13 -0.2 C70.8 2.3, 141.17 1.51, 304.88 -0.36" stroke="#000000" stroke-width="1" fill="none"></path></g></g><mask></mask><g transform="translate(364.24820743926625 218.19895128522614) rotate(0 65.29595947265625 9.599999999999994)"><text x="0" y="0" font-family="Virgil, Segoe UI Emoji" font-size="16px" fill="#000000" text-anchor="start" style="white-space: pre;" direction="ltr" dominant-baseline="text-before-edge">Sprint Outcomes:</text></g><g stroke-linecap="round"><g transform="translate(20.18374962750613 322.25643883381684) rotate(0 152.4251304433215 -0.0012406549825243474)"><path d="M0.26 0.27 C89.27 -1.36, 174.72 -1.5, 304.17 0.92 M0.23 -0.16 C70.43 -1.38, 140.27 -0.34, 304.62 0.56" stroke="#000000" stroke-width="1" fill="none"></path></g></g><mask></mask><g stroke-linecap="round"><g transform="translate(21.755465664018516 362.626820506994) rotate(0 151.95395023326284 0.14617764845638703)"><path d="M-1.34 0.93 C93.58 1.31, 186.36 0.91, 305.25 -1.27 M-0.12 0.13 C65.07 2.21, 132.02 1.9, 303.75 -0.01" stroke="#000000" stroke-width="1" fill="none"></path></g></g><mask></mask><g stroke-linecap="round"><g transform="translate(363.95484863604156 283.9677453203892) rotate(0 152.51464170024417 0.27230291563387254)"><path d="M0.09 -0.18 C93.96 -1.11, 190.66 1.37, 305.48 -0.15 M-0.45 0.32 C109.91 1.61, 218.71 1.31, 304.64 -0.56" stroke="#000000" stroke-width="1" fill="none"></path></g></g><mask></mask><g stroke-linecap="round"><g transform="translate(363.8525163824354 323.69591545553) rotate(0 151.96216228337272 -0.13100675305841492)"><path d="M-0.18 -1.41 C60.6 -0.24, 125.04 1.08, 304.1 0.86 M0.32 0.52 C96.76 1.3, 192.56 1.75, 303.69 -0.55" stroke="#000000" stroke-width="1" fill="none"></path></g></g><mask></mask><g stroke-linecap="round"><g transform="translate(365.4242324189481 364.0662971287071) rotate(0 151.85200197264408 -0.3417029338074826)"><path d="M-1.41 -1.35 C87.83 1.4, 177.08 0.12, 305.12 0.23 M0.52 0.67 C78.18 -0.62, 156.88 -1.54, 303.7 0.3" stroke="#000000" stroke-width="1" fill="none"></path></g></g><mask></mask><g stroke-opacity="0.3" fill-opacity="0.3" transform="translate(23.50744409291167 250.7915551806255) rotate(0 30.35997772216797 9.599999999999994)"><text x="0" y="0" font-family="Virgil, Segoe UI Emoji" font-size="16px" fill="#000000" text-anchor="start" style="white-space: pre;" direction="ltr" dominant-baseline="text-before-edge">Sprint 1:</text></g><g stroke-linecap="round"><g transform="translate(24.037074873774714 406.26777024514615) rotate(0 152.19304970252335 -0.478557480094878)"><path d="M0.61 -1.09 C106.73 -1.75, 210.79 -0.71, 302.95 -0.55 M-0.08 -0.18 C69.37 0.47, 137.54 0.56, 304.46 -0.13" stroke="#000000" stroke-width="1" fill="none"></path></g></g><mask></mask><g stroke-linecap="round"><g transform="translate(23.934742620168777 445.9959403802869) rotate(0 151.5181374681526 -0.4024802620103287)"><path d="M-1.09 0.88 C98.21 -1.85, 198.56 -2.24, 303.71 -1.06 M-0.18 0.29 C83.46 -0.39, 167.24 0.45, 304.12 -0.68" stroke="#000000" stroke-width="1" fill="none"></path></g></g><mask></mask><g stroke-linecap="round"><g transform="translate(25.506458656681048 486.36632205346416) rotate(0 151.9296842517399 -0.13263632009795856)"><path d="M0.88 -1.1 C99.36 1.6, 199.23 1.11, 303.19 -0.36 M0.29 -0.22 C81.22 0.42, 163.9 0.41, 303.57 -0.08" stroke="#000000" stroke-width="1" fill="none"></path></g></g><mask></mask><g stroke-linecap="round"><g transform="translate(367.7058416287041 407.70724686685924) rotate(0 151.53955242754267 -0.8737600256695828)"><path d="M-1.1 -0.91 C104.09 -2.65, 207.75 -2.4, 303.89 -0.45 M-0.22 -0.63 C87.9 -0.66, 175.92 -1.55, 304.18 0.33" stroke="#000000" stroke-width="1" fill="none"></path></g></g><mask></mask><g stroke-linecap="round"><g transform="translate(367.60350937509793 447.43541700200024) rotate(0 151.83572099191844 0.36492552567790426)"><path d="M-0.91 -0.06 C67.2 1.12, 135.95 1.31, 303.8 -0.16 M-0.63 -0.12 C84.03 0.54, 166.96 0.59, 304.58 0.09" stroke="#000000" stroke-width="1" fill="none"></path></g></g><mask></mask><g stroke-linecap="round"><g transform="translate(369.1752254116109 487.80579867517724) rotate(0 152.1142831369594 0.01940397404888472)"><path d="M-0.06 -1.31 C109.23 0.33, 219.2 0.94, 304.1 -0.36 M-0.12 0.21 C103.15 1.23, 206.48 2.24, 304.35 0" stroke="#000000" stroke-width="1" fill="none"></path></g></g><mask></mask><g stroke-opacity="0.3" fill-opacity="0.3" transform="translate(27.25843708557443 374.5310567270957) rotate(0 33.887977600097656 9.600000000000023)"><text x="0" y="0" font-family="Virgil, Segoe UI Emoji" font-size="16px" fill="#000000" text-anchor="start" style="white-space: pre;" direction="ltr" dominant-baseline="text-before-edge">Sprint 2:</text></g><g stroke-linecap="round"><g transform="translate(25.888881514399714 530.7122146895905) rotate(0 152.09622588431932 -0.2267280258499227)"><path d="M-1.14 0.62 C81.97 -2.58, 161.98 -1.34, 305.33 0.65 M0.6 0.2 C83.33 1, 167.34 1.3, 304.18 -0.01" stroke="#000000" stroke-width="1" fill="none"></path></g></g><mask></mask><g stroke-linecap="round"><g transform="translate(25.786549260793777 570.4403848247313) rotate(0 152.55225725180412 -0.10258459312092327)"><path d="M0.62 0.52 C75.49 0.81, 152.72 2.8, 304.91 -0.36 M0.2 -0.46 C83.29 -2.06, 167.58 -1.9, 304.25 -0.54" stroke="#000000" stroke-width="1" fill="none"></path></g></g><mask></mask><g stroke-linecap="round"><g transform="translate(27.358265297306275 610.8107664979085) rotate(0 151.71797302412932 -0.24842801752959076)"><path d="M0.52 -0.5 C119.09 -0.2, 241.09 -0.29, 303.9 -0.35 M-0.46 -0.7 C67.58 -1.01, 135.56 -0.61, 303.72 0.31" stroke="#000000" stroke-width="1" fill="none"></path></g></g><mask></mask><g stroke-linecap="round"><g transform="translate(369.5576482693291 532.1516913113038) rotate(0 151.92898770783108 -0.18636416871470374)"><path d="M-0.5 -0.92 C68.23 0.29, 135.61 -1.15, 303.91 -1.12 M-0.7 -0.23 C116.05 1.33, 232.9 0.86, 304.56 -0.5" stroke="#000000" stroke-width="1" fill="none"></path></g></g><mask></mask><g stroke-linecap="round"><g transform="translate(369.45531601572293 571.8798614464446) rotate(0 151.418629167257 0.6681937239295053)"><path d="M-0.92 0.75 C105.31 1.41, 208.11 0.41, 303.13 1.2 M-0.23 -0.4 C99.51 2.13, 198.63 2.44, 303.76 0.4" stroke="#000000" stroke-width="1" fill="none"></path></g></g><mask></mask><g stroke-linecap="round"><g transform="translate(371.0270320522359 612.2502431196216) rotate(0 152.52697961621902 0.2499450473775937)"><path d="M0.75 1.07 C102.8 1.04, 203.95 0.28, 305.46 0.4 M-0.4 -0.07 C71.98 0.17, 144.27 0.21, 304.65 -0.57" stroke="#000000" stroke-width="1" fill="none"></path></g></g><mask></mask><g stroke-opacity="0.3" fill-opacity="0.3" transform="translate(29.1102437261992 498.97550117154003) rotate(0 33.639976501464844 9.600000000000023)"><text x="0" y="0" font-family="Virgil, Segoe UI Emoji" font-size="16px" fill="#000000" text-anchor="start" style="white-space: pre;" direction="ltr" dominant-baseline="text-before-edge">Sprint 3:</text></g><g stroke-linecap="round"><g transform="translate(26.259297095996885 654.4159636045212) rotate(0 152.02180468338753 0.1609007096113828)"><path d="M0.75 -0.29 C94.2 2.27, 186.58 0.91, 302.93 1.08 M0.48 -0.58 C76.64 -1.54, 151.56 -0.57, 303.56 0.68" stroke="#000000" stroke-width="1" fill="none"></path></g></g><mask></mask><g stroke-linecap="round"><g transform="translate(26.15696484239095 694.1441337396619) rotate(0 152.37895304119206 -0.6976668700513642)"><path d="M-0.29 0.29 C74.26 -2.37, 146.98 -2.47, 305.34 -0.72 M-0.58 0.5 C101.17 -2.18, 203.9 -2.15, 304.94 0.23" stroke="#000000" stroke-width="1" fill="none"></path></g></g><mask></mask><g stroke-linecap="round"><g transform="translate(27.728680878903447 734.5145154128389) rotate(0 152.38628682029076 0.5581265837312799)"><path d="M0.29 0.19 C61.48 -0.73, 124.09 1.52, 303.53 0.5 M0.5 -0.59 C103.7 2.14, 208.14 2.44, 304.48 0.28" stroke="#000000" stroke-width="1" fill="none"></path></g></g><mask></mask><g stroke-linecap="round"><g transform="translate(369.92806385092626 655.8554402262342) rotate(0 152.08194978308444 -0.4370134888456505)"><path d="M0.19 -1.23 C105.89 -1.77, 215.18 -1.17, 304.75 0.63 M-0.59 -0.72 C111.73 -2.21, 223.38 -1.29, 304.53 -0.27" stroke="#000000" stroke-width="1" fill="none"></path></g></g><mask></mask><g stroke-linecap="round"><g transform="translate(369.8257315973201 695.583610361375) rotate(0 151.82760960402544 0.3001448843735375)"><path d="M-1.23 -1.16 C83.98 0.79, 169.88 0.21, 304.88 0.96 M-0.72 0.39 C66.39 2.48, 134.39 2.08, 303.99 -0.07" stroke="#000000" stroke-width="1" fill="none"></path></g></g><mask></mask><g stroke-linecap="round"><g transform="translate(371.39744763383305 735.9539920345522) rotate(0 152.02421511725845 0.12952591482854814)"><path d="M-1.16 -1.32 C98.5 1.14, 195.35 2.49, 305.21 -1.16 M0.39 -0.69 C112.88 2.41, 224.68 1.92, 304.18 0.32" stroke="#000000" stroke-width="1" fill="none"></path></g></g><mask></mask><g stroke-opacity="0.3" fill-opacity="0.3" transform="translate(29.480659307796373 622.6792500864705) rotate(0 33.311973571777344 9.600000000000023)"><text x="0" y="0" font-family="Virgil, Segoe UI Emoji" font-size="16px" fill="#000000" text-anchor="start" style="white-space: pre;" direction="ltr" dominant-baseline="text-before-edge">Sprint 4:</text></g><g transform="translate(28.69403190988544 755.8045844768532) rotate(0 76.31996154785156 9.600000000000023)"><text x="0" y="0" font-family="Virgil, Segoe UI Emoji" font-size="16px" fill="#000000" text-anchor="start" style="white-space: pre;" direction="ltr" dominant-baseline="text-before-edge">Increment Outcome:</text></g><g stroke-linecap="round"><g transform="translate(28.55026224929327 805.7750170126603) rotate(0 323.96928663204113 0.18806513708244665)"><path d="M0.05 -0.33 C145.23 2.82, 291.83 2.59, 648.19 0.78 M-0.25 -0.37 C142.82 -2.33, 285.31 -2.24, 647.69 0.38" stroke="#000000" stroke-width="1" fill="none"></path></g></g><mask></mask><g stroke-linecap="round"><g transform="translate(28.789805922689197 845.9006079748169) rotate(0 323.91165099988376 0.3201306448337391)"><path d="M-0.33 -0.39 C210.06 0.43, 419.23 0.61, 648.19 -0.64 M-0.37 -0.01 C207.19 1.29, 414.3 1.93, 647.78 0.31" stroke="#000000" stroke-width="1" fill="none"></path></g></g><mask></mask><g stroke-linecap="round"><g transform="translate(29.09777390736565 885.5302263016397) rotate(0 323.6637923235694 1.1226404012464855)"><path d="M-0.39 0.67 C141.07 1.5, 281.71 1.84, 646.77 0.16 M-0.01 0.17 C256.23 2.64, 513.44 2.76, 647.71 0.32" stroke="#000000" stroke-width="1" fill="none"></path></g></g><mask></mask><g transform="translate(27.13710417113282 899.6703120712057) rotate(0 101.82392883300781 9.600000000000023)"><text x="0" y="0" font-family="Virgil, Segoe UI Emoji" font-size="16px" fill="#000000" text-anchor="start" style="white-space: pre;" direction="ltr" dominant-baseline="text-before-edge">Remarks on Improvements:</text></g><g stroke-linecap="round"><g transform="translate(26.99333451054065 951.1222034828811) rotate(0 323.5525356764594 0.7098708509849985)"><path d="M-0.55 0.48 C188.04 1.83, 376.35 2.2, 647.51 -0.39 M-0.24 0.16 C240.94 2.29, 481.48 2.34, 647.66 0.37" stroke="#000000" stroke-width="1" fill="none"></path></g></g><mask></mask><g stroke-linecap="round"><g transform="translate(27.232878183936577 991.2477944450379) rotate(0 323.9671961138645 0.8936791536136752)"><path d="M0.48 0.18 C155.16 2.42, 310.52 1.89, 647.02 0.58 M0.16 0.07 C233.12 1.31, 466.46 1.82, 647.78 0.12" stroke="#000000" stroke-width="1" fill="none"></path></g></g><mask></mask><g stroke-opacity="0.5" fill-opacity="0.5" stroke-linecap="round" transform="translate(19.67564850370809 215.947110736181) rotate(0 159.96237818536235 267.2569783842916)"><path d="M-1.38 -1.29 C83.65 0.04, 166.7 -0.66, 321.03 -0.76 M319.68 0.62 C319.62 191.23, 318.71 383.64, 319.2 533.86 M318.65 535.15 C194.8 536.39, 68.31 535.22, 0.9 534.87 M0.52 535.23 C-1.59 390.05, -0.23 246.64, 0.2 -0.32" stroke="#000000" stroke-width="1.5" fill="none" stroke-dasharray="8 9"></path></g><g stroke-opacity="0.5" fill-opacity="0.5" stroke-linecap="round" transform="translate(361.08189765872123 213.72485460553867) rotate(0 160.7407294379339 269.44162879380616)"><path d="M-0.06 0.24 C85.73 2.11, 173.3 2.11, 322.5 0.27 M320.96 -0.22 C320.8 211.74, 321.53 421.35, 320.95 539.51 M321.02 538.03 C242.22 535.87, 162.42 536.98, 0.75 538.86 M-0.6 538.13 C-2.56 391.5, -1.71 244.08, -0.74 -0.53" stroke="#000000" stroke-width="1.5" fill="none" stroke-dasharray="8 9"></path></g><g stroke-opacity="0.5" fill-opacity="0.5" stroke-linecap="round" transform="translate(11.406315250452508 248.5397146315803) rotate(0 339.84958227969105 60.00001695421008)"><path d="M0.35 0.17 C206.82 1.78, 415.17 2.13, 680.35 -0.32 M0.32 -0.18 C177.97 -2.23, 355.21 -1.97, 679.79 0.25 M677.8 -0.01 C680.95 39.64, 678.56 77.76, 679.75 118.53 M679.25 0.71 C679.46 34.52, 678.69 70.23, 680.4 120.92 M680.14 120.59 C481.54 122.21, 285.36 122.98, -0.71 119.88 M679.83 120.21 C422.77 119.59, 166.4 119.65, -0.15 120.28 M-1.53 120.91 C1.06 87.39, -1.8 54.6, 1.22 -0.52 M0.55 120 C0.3 85.89, 0.62 51.7, -0.92 -0.3" stroke="#000000" stroke-width="1" fill="none"></path></g><g stroke-opacity="0.5" fill-opacity="0.5" stroke-linecap="round" transform="translate(11.406283063433307 373.7249054681688) rotate(0 339.84959837320054 60.00001695421008)"><path d="M0.16 0.48 C249.09 -1.6, 498.97 -1.87, 680.24 -0.26 M0.17 0.16 C164.33 -2.2, 328.76 -2.06, 679.44 0.01 M678.24 -0.63 C679.04 40.13, 678.52 81.16, 678.73 118.73 M679.08 0.77 C680.24 44.07, 679.93 89.07, 679.63 120.52 M679.49 119.59 C420.76 121.46, 161.36 121.01, 0.72 120.05 M679.31 119.85 C478.63 119.75, 277.61 119.98, 0.38 120.19 M-0.4 121.22 C0.62 93.95, 2.16 68.59, 0.51 -0.45 M0.4 119.85 C-0.8 75.23, -1.77 31.66, -0.89 0.52" stroke="#000000" stroke-width="1" fill="none"></path></g><g stroke-opacity="0.5" fill-opacity="0.5" stroke-linecap="round" transform="translate(11.406250876413992 498.9100963047573) rotate(0 339.8496144667102 60.00001695421008)"><path d="M0.14 0.12 C190.14 -1.62, 381.59 -1.19, 680.36 0.15 M0 -0.17 C262.12 -2.63, 523.98 -2.44, 679.61 -0.03 M680.01 1.72 C681.48 47.17, 679.02 92.41, 680.83 118.86 M679.26 -0.21 C680.14 32.41, 678.75 62.33, 678.87 119.94 M680.14 120.68 C530.42 117.7, 380.78 118.29, 0.32 119.29 M679.59 120.13 C418.38 118.22, 156.29 118.61, -0.19 119.71 M-1.69 119.04 C0.91 91.41, 1.06 63.14, -1.81 0.5 M0.04 119.14 C0.03 75.5, -0.36 29.29, 0.28 -0.63" stroke="#000000" stroke-width="1" fill="none"></path></g><g stroke-opacity="0.5" fill-opacity="0.5" stroke-linecap="round" transform="translate(10 624.0952871413458) rotate(0 340.5527399049172 60.00001695421008)"><path d="M-0.64 -0.07 C149.79 0.62, 301.32 0.62, 680.61 0.53 M0.34 0.2 C211.76 2.32, 424.16 2.78, 681.08 -0.08 M679.71 -1.86 C680.64 45.18, 679.57 93.55, 680.12 119.95 M681.86 0.32 C681.01 26.09, 679.16 52.51, 681.66 120.02 M681.67 120.35 C517.51 117.99, 353.69 118.1, -0.41 120.16 M681.31 120.25 C540.98 118.24, 400.68 118.51, 0.05 119.68 M-0.1 119.76 C-2.37 91.84, 0.7 64.8, 1.04 -0.18 M0.41 119.03 C0.62 92.6, 0.97 63.75, -0.57 -0.94" stroke="#000000" stroke-width="1" fill="none"></path></g><g stroke-linecap="round"><g transform="translate(28.17093996627227 1032.097265796381) rotate(0 323.5893387148777 0.46712670671900014)"><path d="M0.21 -0.74 C179.13 -0.92, 356.01 -1.6, 647.01 0.26 M0.01 -0.36 C207.75 2.69, 416.12 2.67, 647.17 -0.15" stroke="#000000" stroke-width="1" fill="none"></path></g></g><mask></mask></svg>