<svg version="1.1" xmlns="http://www.w3.org/2000/svg" viewBox="0 0 703.5623444408125 1001.6978147285594" width="703.5623444408125" height="1001.6978147285594">
  <!-- svg-source:excalidraw -->
  
  <defs>
    <style class="style-fonts">
      @font-face {
        font-family: "Virgil";
        src: url("https://excalidraw.com/Virgil.woff2");
      }
      @font-face {
        font-family: "Cascadia";
        src: url("https://excalidraw.com/Cascadia.woff2");
      }
    </style>
  </defs>
  <g transform="translate(10 10) rotate(0 47.02996063232422 12)"><text x="0" y="0" font-family="Virgil, Segoe UI Emoji" font-size="20px" fill="#000000" text-anchor="start" style="white-space: pre;" direction="ltr" dominant-baseline="text-before-edge">Increment</text></g><g transform="translate(10 42.05081726558643) rotate(0 71.90396118164062 9.599999999999994)"><text x="0" y="0" font-family="Virgil, Segoe UI Emoji" font-size="16px" fill="#000000" text-anchor="start" style="white-space: pre;" direction="ltr" dominant-baseline="text-before-edge">Strategic Steering</text></g><g transform="translate(10 68.75946247207301) rotate(0 66.09596252441406 9.599999999999994)"><text x="0" y="0" font-family="Virgil, Segoe UI Emoji" font-size="16px" fill="#000000" text-anchor="start" style="white-space: pre;" direction="ltr" dominant-baseline="text-before-edge">Concrete Actions</text></g><g stroke-linecap="round" transform="translate(10.678264035433585 638.9789052533547) rotate(0 92.92788612042477 176.35945473760233)"><path d="M1.45 1.97 C42.08 0.49, 83.18 -0.99, 187.83 1.21 M-0.94 -0.48 C56.69 -0.94, 116.21 -2.6, 185.47 0.23 M186.55 -0.46 C185.9 91.78, 186.51 184.6, 185.61 353.49 M185.44 0.21 C184.63 70.91, 184.57 142.99, 185.57 352.9 M186.3 351.36 C124.8 352.38, 63.38 351.48, -0.91 354.55 M185.58 353.17 C145.77 352.88, 105.45 352.5, 0.56 351.83 M0.65 352.46 C-1.37 270.36, -1.87 187.23, 1.09 1.08 M-0.19 352.82 C-1.44 270.06, -1.42 188.17, -0.42 0.28" stroke="#000000" stroke-width="1" fill="none"></path></g><g stroke-linecap="round"><g transform="translate(21.852939092460474 685.1036541951325) rotate(0 59.36906957758356 -0.8324084587907237)"><path d="M-0.82 -0.09 C42.62 0.16, 86.25 1.31, 119.56 -1.98 M-0.04 -0.47 C39.47 0.22, 79.21 -1.11, 118.92 -0.21" stroke="#000000" stroke-width="1" fill="none"></path></g></g><mask></mask><g stroke-linecap="round"><g transform="translate(21.98403819361647 726.995778632712) rotate(0 59.23797047642756 -0.8459050220945983)"><path d="M-1.72 -1.66 C27.95 0.67, 56.68 0.29, 118.79 -1.53 M-0.45 -0.93 C28.6 0.96, 57.28 -0.91, 120.2 -0.97" stroke="#000000" stroke-width="1" fill="none"></path></g></g><mask></mask><g stroke-linecap="round"><g transform="translate(22.84679120490273 768.0508504856664) rotate(0 58.375217465141304 0.1831988321840754)"><path d="M-1.66 0.56 C42.41 2.92, 83.71 0.44, 117.86 -1.17 M-0.93 -0.26 C30.89 0.1, 58.99 1.36, 118.41 0.91" stroke="#000000" stroke-width="1" fill="none"></path></g></g><mask></mask><g stroke-linecap="round"><g transform="translate(21.20642097378095 810.4875458034036) rotate(0 60.01558769626308 -0.02416028454899788)"><path d="M0.56 0.73 C38.31 1.34, 72.25 -0.54, 118.22 -0.98 M-0.26 0.93 C35.12 0.17, 71.93 0.13, 120.29 -0.84" stroke="#000000" stroke-width="1" fill="none"></path></g></g><mask></mask><g stroke-linecap="round"><g transform="translate(21.586464223358234 852.1604130885779) rotate(0 59.6355444466858 0.5376235546817156)"><path d="M0.73 1.89 C25.88 -0.92, 49.52 -1.5, 118.4 -0.04 M0.93 -0.44 C29.49 1.13, 59.87 1.22, 118.54 0.06" stroke="#000000" stroke-width="1" fill="none"></path></g></g><mask></mask><g stroke-linecap="round"><g transform="translate(21.718878582957586 895.6975266911483) rotate(0 59.50313008708645 -0.6832873824831722)"><path d="M1.89 0.35 C25.33 -1.96, 50.68 -1.42, 119.34 -0.9 M-0.44 -0.94 C25.59 -2.09, 50.45 -1.95, 119.45 -0.66" stroke="#000000" stroke-width="1" fill="none"></path></g></g><mask></mask><g stroke-linecap="round"><g transform="translate(22.327225089910826 937.8268847690839) rotate(0 58.89478358013321 -0.40382232444505917)"><path d="M0.35 -0.59 C37.62 -2.29, 77.32 -1.17, 118.48 -1.85 M-0.94 0.82 C31.75 1.43, 64.6 0.59, 118.72 0.6" stroke="#000000" stroke-width="1" fill="none"></path></g></g><mask></mask><g stroke-linecap="round"><g transform="translate(21.524954517278275 980.3206011394992) rotate(0 59.69705415276576 -0.6820418627845584)"><path d="M-0.59 -1.53 C39.01 -1.19, 80.32 -1.11, 117.53 -0.52 M0.82 -0.97 C47.85 0.27, 93.95 0.46, 119.98 -0.25" stroke="#000000" stroke-width="1" fill="none"></path></g></g><mask></mask><g stroke-linecap="round" transform="translate(146.50894310199465 645.7619803127138) rotate(0 19.670867991568002 19.670867991568002)"><path d="M1.72 0.38 C14.11 2.13, 25.03 -1.28, 38.22 1.44 M0.28 0.84 C15.2 0.02, 30.28 -0.16, 39.85 0.04 M40.92 -0.6 C39.08 11.94, 40.49 26.91, 37.5 38.51 M40.2 -0.57 C39.16 8.7, 38.78 17.11, 39.32 39.69 M40.88 39.82 C29.62 40.83, 19.79 40.5, -0.46 41.3 M40.28 40.01 C27.08 39.04, 14.76 40.09, -0.67 38.56 M-0.65 40.53 C1.32 27.58, 0.35 18.79, -0.92 -0.18 M0.24 38.8 C-0.6 30.74, 0.13 20.15, 0.29 0.23" stroke="#000000" stroke-width="1" fill="none"></path></g><g stroke-linecap="round" transform="translate(146.50894310199465 687.7200062125804) rotate(0 19.670867991568002 19.670867991568002)"><path d="M1.72 -1.13 C8.9 -0.17, 16.89 -0.86, 39.3 0.69 M0.77 0.24 C9.77 0.88, 19.49 0.71, 39.11 0.98 M41.21 1.33 C39.22 11.2, 39.03 25.53, 38.01 37.78 M39.02 0.59 C40 9.44, 39.51 20.37, 38.88 39.25 M39.83 38.26 C28.14 40.71, 20.11 38.5, 0.58 39.8 M38.93 40.05 C31.09 39.08, 24 39.83, -0.64 40.14 M-1.12 38.23 C1.49 30.75, -0.84 20.52, -0.55 -1.21 M-0.45 39.28 C-0.51 26.83, -1.2 15.25, 0.93 -0.27" stroke="#000000" stroke-width="1" fill="none"></path></g><g stroke-linecap="round" transform="translate(146.50894310199465 729.678032112447) rotate(0 19.670867991568002 19.670867991568002)"><path d="M-1.13 0.15 C9.12 -0.95, 17.64 -0.38, 40.04 -1.04 M0.24 0.02 C10.41 -0.33, 19.86 -0.53, 40.32 0.11 M40.68 -0.08 C38.53 11.12, 40.64 21.45, 37.78 38.53 M39.94 0.66 C38.24 11.95, 38.95 23.1, 39.25 38.75 M38.26 37.62 C31.87 39.17, 20.43 40.01, 0.46 37.46 M40.05 39.18 C30.42 40.02, 22.64 38.54, 0.8 38.59 M-1.11 40.88 C0 26.33, -1.39 14.37, -1.21 -0.02 M-0.06 39.08 C-0.36 24.15, -0.19 11.81, -0.27 -0.3" stroke="#000000" stroke-width="1" fill="none"></path></g><g stroke-linecap="round" transform="translate(146.50894310199465 771.6360580123136) rotate(0 19.670867991568002 19.670867991568002)"><path d="M0.15 -0.1 C11.97 -0.56, 25.13 0.92, 38.3 -1.11 M0.02 0.79 C10.89 0.53, 21.6 0.89, 39.45 -0.1 M39.26 -1.02 C39.44 14.97, 38.38 26.2, 38.53 39.33 M40 -0.77 C39.39 8.46, 38.75 16.95, 38.75 38.69 M37.62 41.1 C31.11 38.67, 23.98 39.59, -1.88 37.67 M39.18 38.94 C26.93 39.96, 12.19 40.42, -0.75 39.45 M1.53 39.61 C-0.58 23.72, -0.32 9.12, -0.02 1.24 M-0.26 38.59 C-0.78 30.87, 1.11 23.29, -0.3 -1" stroke="#000000" stroke-width="1" fill="none"></path></g><g stroke-linecap="round" transform="translate(146.50894310199465 813.5940839121802) rotate(0 19.670867991568002 19.670867991568002)"><path d="M-0.1 -0.61 C14.41 -0.07, 31.08 -1.07, 38.23 -0.45 M0.79 -0.02 C15.45 -0.24, 30.63 0.1, 39.24 0.53 M38.32 -0.27 C40.69 14.15, 38.05 30.16, 39.33 37.67 M38.57 0.17 C39.52 10.06, 39.49 20.46, 38.69 38.37 M41.1 39.08 C26.13 39.58, 14.28 37.12, -1.67 40.08 M38.94 40.18 C29.5 38.64, 19.77 38.53, 0.1 40.03 M0.27 38.54 C-0.9 29.2, -0.99 20.14, 1.24 -1.99 M-0.75 38.39 C-0.56 30.24, -0.25 18.96, -1 -0.28" stroke="#000000" stroke-width="1" fill="none"></path></g><g stroke-linecap="round" transform="translate(146.50894310199465 855.5521098120468) rotate(0 19.670867991568002 19.670867991568002)"><path d="M-0.61 -0.78 C9.54 0.71, 18.11 -1.09, 38.89 1.54 M-0.02 0.62 C12.52 0.67, 25.6 -0.41, 39.87 0.94 M39.07 1.09 C37.99 12.87, 38.52 28.84, 37.67 38.69 M39.51 -0.06 C39.14 14.05, 39.01 27.63, 38.37 39.58 M39.08 38.89 C30.23 40.14, 18.09 38.02, 0.74 38.52 M40.18 39.68 C24.12 39.98, 9.41 39.29, 0.69 38.78 M-0.8 38.22 C-0.85 28.51, -0.33 21.33, -1.99 -0.9 M-0.95 38.76 C1.04 27.5, -0.2 15.2, -0.28 0.34" stroke="#000000" stroke-width="1" fill="none"></path></g><g stroke-linecap="round" transform="translate(146.50894310199465 897.5101357119132) rotate(0 19.670867991568002 19.670867991568002)"><path d="M-0.78 -0.04 C12.78 -0.92, 23.07 -0.33, 40.88 0.48 M0.62 -0.23 C12.85 0.12, 23.63 0.54, 40.28 0.67 M40.43 -1.33 C37.58 10.84, 39.13 21.62, 38.69 40.53 M39.28 -0.46 C38.95 13.8, 38.38 27.8, 39.58 38.8 M38.89 39.92 C31.37 37.4, 20.82 40.03, -0.82 40.76 M39.68 38.71 C28.97 38.92, 17.11 40.36, -0.56 38.79 M-1.12 38.8 C-1.26 24.5, 1.18 7.71, -0.9 -0.12 M-0.58 40.28 C0.02 28.27, -0.7 17.52, 0.34 0.71" stroke="#000000" stroke-width="1" fill="none"></path></g><g stroke-linecap="round" transform="translate(146.50894310199465 939.4681616117799) rotate(0 19.670867991568002 19.670867991568002)"><path d="M-0.04 0.69 C10.57 -0.96, 22.77 1.69, 39.82 0.03 M-0.23 0.98 C15.01 -0.35, 30.33 0.69, 40.01 -0.04 M38.01 -1.56 C38.48 9.78, 37.62 18.92, 40.53 40.66 M38.88 -0.09 C38.82 8.1, 38.44 17.75, 38.8 38.48 M39.92 39.8 C22.2 37.58, 9.57 38.43, 1.42 39.02 M38.71 40.14 C28.38 39.58, 19.61 38.91, -0.55 40.11 M-0.55 38.14 C0.13 28.25, -1.83 13.79, -0.12 -0.52 M0.93 39.07 C0.07 29.49, 0.1 21.99, 0.71 -0.1" stroke="#000000" stroke-width="1" fill="none"></path></g><g stroke-linecap="round" transform="translate(10 102.77845816490569) rotate(0 70.54374463461045 124.12989477189883)"><path d="M0.5 -0.22 C28.59 -2.35, 60.99 -2.68, 141.23 0.29 M-0.71 0.11 C30.51 0.7, 59.92 0.45, 140.47 0.76 M142.02 -1.21 C142.25 86.03, 140.57 174.24, 141.67 249.29 M141.75 0.52 C141.37 71.11, 140.38 142.53, 140.52 247.99 M141.16 248.62 C103.68 247.48, 65.59 250.88, 0.43 248.62 M141.98 249.22 C89.54 247.52, 39.19 248.74, -0.23 248.9 M1.43 247.8 C-1.11 169.54, -2.62 89.39, 0.16 0.41 M0.02 248.27 C-2.08 197.71, -2.73 147.09, -0.07 -0.56" stroke="#000000" stroke-width="1" fill="none"></path></g><g stroke-linecap="round"><g transform="translate(18.139665230944047 143.47678431962674) rotate(0 61.41988234477526 0.05103641808875636)"><path d="M-0.56 0.68 C34.74 1.02, 68.59 0.44, 123.4 -0.11 M-0.4 -0.68 C47.72 1.14, 96.77 -0.3, 122.02 0.41" stroke="#000000" stroke-width="1" fill="none"></path></g></g><mask></mask><g stroke-opacity="0.2" fill-opacity="0.2" transform="translate(17.83935069023528 122.68474462707843) rotate(0 23.70398712158203 9.599999999999994)"><text x="0" y="0" font-family="Virgil, Segoe UI Emoji" font-size="16px" fill="#000000" text-anchor="start" style="white-space: pre;" direction="ltr" dominant-baseline="text-before-edge">Action</text></g><g transform="translate(56.6358895753001 319.4073115546935) rotate(0 22.823989868164062 9.599999999999994)"><text x="0" y="0" font-family="Virgil, Segoe UI Emoji" font-size="16px" fill="#000000" text-anchor="start" style="white-space: pre;" direction="ltr" dominant-baseline="text-before-edge">Total</text></g><g transform="translate(57.22790007334697 198.32453315809022) rotate(0 22.527984619140625 9.599999999999994)"><text x="0" y="0" font-family="Virgil, Segoe UI Emoji" font-size="16px" fill="#000000" text-anchor="start" style="white-space: pre;" direction="ltr" dominant-baseline="text-before-edge">Goals</text></g><g transform="translate(60.66790251475322 279.0463854224924) rotate(0 20.8079833984375 9.599999999999994)"><text x="0" y="0" font-family="Virgil, Segoe UI Emoji" font-size="16px" fill="#000000" text-anchor="start" style="white-space: pre;" direction="ltr" dominant-baseline="text-before-edge">Plans</text></g><g transform="translate(23.035898730573535 157.96360702588913) rotate(0 39.623985290527344 9.599999999999994)"><text x="0" y="0" font-family="Virgil, Segoe UI Emoji" font-size="16px" fill="#000000" text-anchor="start" style="white-space: pre;" direction="ltr" dominant-baseline="text-before-edge">Deviation°</text></g><g transform="translate(19.211924121198535 238.6854592902913) rotate(0 41.535972595214844 9.599999999999994)"><text x="0" y="0" font-family="Virgil, Segoe UI Emoji" font-size="16px" fill="#000000" text-anchor="start" style="white-space: pre;" direction="ltr" dominant-baseline="text-before-edge">Strategies</text></g><g stroke-linecap="round" transform="translate(113.10240555838709 154.32972304481672) rotate(0 14.24441415415231 14.24441415415231)"><path d="M-1.67 -0.88 C9.45 0.67, 21.86 -1.62, 28.6 -0.59 M-0.04 -0.98 C11.21 -0.51, 20.8 0.42, 29.17 0.54 M29.39 1.46 C29.05 10.58, 26.79 19.67, 30.46 29.25 M28.06 -0.24 C29.29 5.88, 28.12 12.93, 27.49 28.31 M29.11 28.75 C16.78 30.23, 6.05 30.31, 0.2 27.47 M27.65 29.31 C21.7 27.88, 14.64 29.12, 0.75 28.87 M1.9 27.93 C0.99 22.04, -0.26 15.94, 1.17 1.28 M0.86 29.12 C0.57 18.94, -0.61 9.7, -0.08 0.1" stroke="#000000" stroke-width="1" fill="none"></path></g><g stroke-linecap="round" transform="translate(113.10240555838709 194.77367689848103) rotate(0 14.24441415415231 14.24441415415231)"><path d="M-0.22 -1.13 C9.21 -2.16, 14.27 1.57, 26.89 0.84 M0.81 -0.19 C10.28 0.2, 18.35 -0.49, 28.53 0.92 M26.74 -0.21 C29.46 7.66, 29.48 10.6, 26.53 26.81 M28.32 -0.27 C28.23 11.84, 29.05 22.74, 27.52 29.03 M27.86 26.71 C16.85 28.41, 6.72 27.4, 1.53 27.72 M28.95 28.69 C17.61 28.26, 9.46 27.65, -0.67 28.14 M-1.21 26.82 C-0.16 18.37, -0.93 8.87, 1.45 0.08 M0.45 28.75 C0.88 21.6, 0.62 16.74, -0.91 0.24" stroke="#000000" stroke-width="1" fill="none"></path></g><g stroke-linecap="round" transform="translate(113.10240555838709 235.21763075214534) rotate(0 14.24441415415231 14.24441415415231)"><path d="M-1.13 1.9 C5.86 -0.32, 17.45 -1.57, 29.33 0.62 M-0.19 0.85 C9.02 -0.74, 17.26 -0.19, 29.4 -0.84 M28.28 0.74 C30.01 11.65, 26.8 19.81, 26.81 30.39 M28.22 -0.17 C29.18 8.38, 28.83 14.52, 29.03 29.34 M26.71 27.84 C17.98 28.6, 6.62 29.93, -0.76 29.48 M28.69 27.57 C22.16 29.5, 15.43 27.95, -0.35 29.21 M-1.67 28.33 C0.65 18.97, 1.75 12.73, 0.08 -1.53 M0.26 29.23 C-0.76 21.73, 0.74 13.09, 0.24 0.54" stroke="#000000" stroke-width="1" fill="none"></path></g><g stroke-linecap="round" transform="translate(113.10240555838709 275.66158460580965) rotate(0 14.24441415415231 14.24441415415231)"><path d="M1.9 -1.99 C9.94 1.9, 18.99 1, 29.11 0.26 M0.85 0.1 C7.08 -0.53, 15.21 0.97, 27.65 0.82 M29.23 1.5 C29 7.08, 26.28 15.92, 30.39 27.93 M28.31 0.59 C29.08 9.8, 27.47 19.67, 29.34 29.12 M27.84 28.33 C19.31 27.06, 11.26 27.47, 0.99 26.79 M27.57 28.28 C21.05 27.73, 11.18 28.2, 0.72 28.51 M-0.16 28.97 C-0.75 23.16, 1.62 14.74, -1.53 -0.91 M0.75 27.98 C0.36 18.42, -1.03 6.6, 0.54 0.47" stroke="#000000" stroke-width="1" fill="none"></path></g><g stroke-linecap="round" transform="translate(113.10240555838709 316.10553845947396) rotate(0 14.24441415415231 14.24441415415231)"><path d="M-1.99 -0.35 C9.98 -1.87, 17.32 0.35, 28.75 -0.68 M0.1 -0.51 C10.27 -0.2, 22.62 -1.08, 29.31 0.09 M29.99 0.76 C26.74 4.1, 26.78 14.01, 27.93 29.2 M29.08 0.64 C28.65 7.09, 28.95 16.96, 29.12 28.78 M28.33 28.69 C19.66 29.92, 12.42 29.39, -1.7 28.33 M28.28 29.37 C17.82 27.56, 8.44 28.95, 0.02 27.92 M0.48 27.57 C1.82 23.12, 0.32 13.32, -0.91 1.77 M-0.51 28.98 C0.92 17.75, 0.17 9.36, 0.47 0.66" stroke="#000000" stroke-width="1" fill="none"></path></g><g stroke-linecap="round" transform="translate(190.76839867055241 102.77845816490569) rotate(0 70.54374463461045 124.12989477189883)"><path d="M1 -1.55 C49.81 -0.82, 96.71 0.26, 139.15 -2 M-0.98 -0.21 C36.01 -1.6, 72.62 -1.33, 140.12 -0.6 M140.69 0.53 C141.55 79.87, 142.61 162.27, 141.8 248.51 M141.9 -0.24 C141.68 84.69, 140.39 167.98, 140.91 248.71 M142.69 248.56 C83.1 247.63, 27.51 246.57, -1.97 247.95 M141.11 248.74 C86.73 248.45, 33.99 247.75, 0.4 249.02 M1.11 248.58 C0.02 182.74, -2.7 117.26, 0.89 -0.89 M-0.39 248.96 C2.54 191.17, 2.06 132.84, 0.33 0.01" stroke="#000000" stroke-width="1" fill="none"></path></g><g stroke-linecap="round"><g transform="translate(198.90806390149555 143.47678431962674) rotate(0 59.97343467059022 -0.07057940671384699)"><path d="M-1.55 1.39 C43.35 -0.74, 88.32 -2.56, 120.1 -0.87 M-0.21 -0.21 C46.93 1.37, 94.77 0.22, 121.49 0.24" stroke="#000000" stroke-width="1" fill="none"></path></g></g><mask></mask><g stroke-opacity="0.2" fill-opacity="0.2" transform="translate(198.60774936078724 122.68474462707843) rotate(0 23.70398712158203 9.599999999999994)"><text x="0" y="0" font-family="Virgil, Segoe UI Emoji" font-size="16px" fill="#000000" text-anchor="start" style="white-space: pre;" direction="ltr" dominant-baseline="text-before-edge">Action</text></g><g transform="translate(237.4042882458525 319.4073115546935) rotate(0 22.823989868164062 9.599999999999994)"><text x="0" y="0" font-family="Virgil, Segoe UI Emoji" font-size="16px" fill="#000000" text-anchor="start" style="white-space: pre;" direction="ltr" dominant-baseline="text-before-edge">Total</text></g><g transform="translate(237.9962987438994 198.32453315809028) rotate(0 22.527984619140625 9.599999999999994)"><text x="0" y="0" font-family="Virgil, Segoe UI Emoji" font-size="16px" fill="#000000" text-anchor="start" style="white-space: pre;" direction="ltr" dominant-baseline="text-before-edge">Goals</text></g><g transform="translate(241.43630118530564 279.04638542249234) rotate(0 20.8079833984375 9.599999999999994)"><text x="0" y="0" font-family="Virgil, Segoe UI Emoji" font-size="16px" fill="#000000" text-anchor="start" style="white-space: pre;" direction="ltr" dominant-baseline="text-before-edge">Plans</text></g><g transform="translate(203.80429740112595 157.96360702588913) rotate(0 39.623985290527344 9.599999999999994)"><text x="0" y="0" font-family="Virgil, Segoe UI Emoji" font-size="16px" fill="#000000" text-anchor="start" style="white-space: pre;" direction="ltr" dominant-baseline="text-before-edge">Deviation°</text></g><g transform="translate(199.98032279175095 238.6854592902913) rotate(0 41.535972595214844 9.599999999999994)"><text x="0" y="0" font-family="Virgil, Segoe UI Emoji" font-size="16px" fill="#000000" text-anchor="start" style="white-space: pre;" direction="ltr" dominant-baseline="text-before-edge">Strategies</text></g><g stroke-linecap="round" transform="translate(293.87080422893905 154.32972304481666) rotate(0 14.24441415415231 14.24441415415231)"><path d="M-0.87 1.79 C10.69 -1.67, 18.24 -0.14, 27.21 0.37 M0.24 0.73 C7.56 -0.07, 15.32 -0.46, 28.19 0.02 M29.27 -0.01 C27.52 13.23, 28.04 23.95, 29.62 26.8 M29.47 -0.35 C27.6 7.75, 28.58 12.97, 28.76 27.83 M30.1 28.89 C19.59 28.49, 13.84 27.15, 1.93 29.14 M28.12 29.15 C19.1 29.38, 10.11 29.54, -0.19 27.66 M-1.35 26.55 C0.23 19.97, 1.55 14.73, 1.6 0.2 M0.62 28.46 C-0.81 19.82, -0.21 11.05, -0.09 -0.03" stroke="#000000" stroke-width="1" fill="none"></path></g><g stroke-linecap="round" transform="translate(293.87080422893905 194.77367689848109) rotate(0 14.24441415415231 14.24441415415231)"><path d="M1.79 1.36 C3.83 -0.29, 11.14 -1.16, 28.85 -0.74 M0.73 0.06 C5.53 0.25, 10.92 -0.37, 28.51 0.95 M28.48 -1.1 C30.51 9.21, 30 20.7, 26.8 27.37 M28.14 -0.83 C29.44 8.09, 27.71 16.15, 27.83 28.23 M28.89 27.39 C22.8 29.68, 15.72 30.65, 0.65 29.01 M29.15 28.39 C19.49 28.58, 9.96 28.2, -0.83 28.15 M-1.94 28.87 C-0.79 20.1, 1.54 9.9, 0.2 0.16 M-0.03 27.8 C0.1 18.69, 0.11 8.98, -0.03 0.16" stroke="#000000" stroke-width="1" fill="none"></path></g><g stroke-linecap="round" transform="translate(293.87080422893905 235.21763075214528) rotate(0 14.24441415415231 14.24441415415231)"><path d="M1.36 -1.95 C5.29 -0.68, 10.13 0.11, 27.75 -1.94 M0.06 -0.24 C7.15 -0.84, 13.36 -0.19, 29.44 0.44 M27.39 1.98 C28.03 10.45, 29.73 16.29, 27.37 28.06 M27.66 0.8 C28.92 9.18, 29.04 19.56, 28.23 27.5 M27.39 28.54 C21.35 27.26, 14.22 29.19, 0.52 29.28 M28.39 29.17 C17.96 29.51, 6.86 27.85, -0.34 29.03 M0.38 27.54 C1.89 22.88, 1.79 14.69, 0.16 0.82 M-0.69 28.59 C-0.27 20.01, -0.27 11.28, 0.16 0.71" stroke="#000000" stroke-width="1" fill="none"></path></g><g stroke-linecap="round" transform="translate(293.87080422893905 275.6615846058097) rotate(0 14.24441415415231 14.24441415415231)"><path d="M-1.95 -0.42 C6.89 -1.48, 14.99 -0.93, 26.54 -1.2 M-0.24 0.32 C8.59 -0.32, 18.46 0.93, 28.92 0.15 M30.47 -0.57 C29.95 10.8, 26.8 18.21, 28.06 29.59 M29.29 0.15 C27.46 11.6, 27.73 22.41, 27.5 28.33 M28.54 29.45 C16.35 30.26, 7.45 28.85, 0.79 30.01 M29.17 28.68 C21.84 28.27, 12.69 28.12, 0.54 27.94 M-0.95 30.19 C1.66 23.46, 0.47 15.39, 0.82 0.03 M0.11 28.4 C0.12 18.09, -0.02 8.04, 0.71 0.09" stroke="#000000" stroke-width="1" fill="none"></path></g><g stroke-linecap="round" transform="translate(293.87080422893905 316.1055384594739) rotate(0 14.24441415415231 14.24441415415231)"><path d="M-0.42 -0.42 C9.82 0.64, 21.46 -1.67, 27.29 0.47 M0.32 -0.63 C10.34 0.09, 22.22 0.5, 28.64 0.39 M27.92 1.47 C29.47 6.85, 27.21 16.65, 29.59 30.44 M28.64 -0.93 C28.52 6.9, 27.99 14.14, 28.33 29.3 M29.45 27.2 C21.3 29.14, 10.77 29.29, 1.53 27.74 M28.68 29.32 C17.87 27.85, 7.29 29.22, -0.54 27.81 M1.7 29.87 C1.55 22.91, 0.1 17.75, 0.03 1.24 M-0.09 28.6 C0.11 19.99, 0.36 12.27, 0.09 -0.87" stroke="#000000" stroke-width="1" fill="none"></path></g><g stroke-linecap="round" transform="translate(371.53679734110483 102.77845816490571) rotate(0 70.54374463461045 124.12989477189882)"><path d="M-0.84 -0.36 C52.01 0.54, 101.69 0.26, 140.61 -1.79 M0.9 0.12 C54.02 -0.97, 108.64 0.37, 140.39 -0.08 M141.09 -0.66 C137.87 78.72, 137.88 156.99, 141.08 248.01 M141.21 -0.39 C139.54 80.16, 139.19 161.08, 140.45 248.36 M140.6 247.99 C101.68 248.8, 64.71 249.02, -0.02 246.29 M140.43 248.71 C86.93 247.92, 33.8 248.7, 0.66 248.96 M-0.09 248.32 C2.78 196.58, 1.25 147.04, 1.23 -0.82 M-0.34 247.9 C0.17 181.39, -0.12 115.21, -0.02 -0.22" stroke="#000000" stroke-width="1" fill="none"></path></g><g stroke-linecap="round"><g transform="translate(379.67646257204797 143.47678431962674) rotate(0 60.823900422774614 0.10286336279040142)"><path d="M-0.36 1.1 C43.19 0.39, 86.81 0.04, 120.31 1.77 M0.12 -0.78 C32.67 -2.05, 67.3 -1.8, 122.01 0.19" stroke="#000000" stroke-width="1" fill="none"></path></g></g><mask></mask><g stroke-opacity="0.2" fill-opacity="0.2" transform="translate(379.37614803133965 122.68474462707843) rotate(0 23.70398712158203 9.599999999999994)"><text x="0" y="0" font-family="Virgil, Segoe UI Emoji" font-size="16px" fill="#000000" text-anchor="start" style="white-space: pre;" direction="ltr" dominant-baseline="text-before-edge">Action</text></g><g transform="translate(418.1726869164049 319.4073115546935) rotate(0 22.823989868164062 9.599999999999994)"><text x="0" y="0" font-family="Virgil, Segoe UI Emoji" font-size="16px" fill="#000000" text-anchor="start" style="white-space: pre;" direction="ltr" dominant-baseline="text-before-edge">Total</text></g><g transform="translate(418.7646974144518 198.32453315809016) rotate(0 22.527984619140625 9.599999999999994)"><text x="0" y="0" font-family="Virgil, Segoe UI Emoji" font-size="16px" fill="#000000" text-anchor="start" style="white-space: pre;" direction="ltr" dominant-baseline="text-before-edge">Goals</text></g><g transform="translate(422.20469985585805 279.04638542249245) rotate(0 20.8079833984375 9.599999999999994)"><text x="0" y="0" font-family="Virgil, Segoe UI Emoji" font-size="16px" fill="#000000" text-anchor="start" style="white-space: pre;" direction="ltr" dominant-baseline="text-before-edge">Plans</text></g><g transform="translate(384.57269607167837 157.96360702588913) rotate(0 39.623985290527344 9.599999999999994)"><text x="0" y="0" font-family="Virgil, Segoe UI Emoji" font-size="16px" fill="#000000" text-anchor="start" style="white-space: pre;" direction="ltr" dominant-baseline="text-before-edge">Deviation°</text></g><g transform="translate(380.74872146230337 238.6854592902913) rotate(0 41.535972595214844 9.599999999999994)"><text x="0" y="0" font-family="Virgil, Segoe UI Emoji" font-size="16px" fill="#000000" text-anchor="start" style="white-space: pre;" direction="ltr" dominant-baseline="text-before-edge">Strategies</text></g><g stroke-linecap="round" transform="translate(474.63920289949147 154.32972304481677) rotate(0 14.24441415415231 14.24441415415231)"><path d="M1.77 -0.55 C7.6 2.06, 14.46 -1.31, 27.24 -1.9 M0.19 -0.89 C10.51 0.03, 20.74 -0.84, 28.21 -0.85 M28.96 -1.14 C28.99 6.49, 27.53 11.42, 28.19 26.68 M28.25 0.61 C29.18 10.13, 28.13 20.55, 28.12 29.32 M30.06 29.15 C21.29 26.88, 13.8 26.67, -1.52 27.49 M27.51 27.55 C19.32 28.64, 11.33 29.23, -0.98 28.09 M-0.64 29.1 C-1.39 21.01, -1.08 17.11, -0.82 1.23 M0.54 27.67 C0.6 19.54, -0.05 11.83, 0.71 0.56" stroke="#000000" stroke-width="1" fill="none"></path></g><g stroke-linecap="round" transform="translate(474.63920289949147 194.77367689848097) rotate(0 14.24441415415231 14.24441415415231)"><path d="M-0.55 0.48 C9.68 -0.02, 14.18 -1.51, 26.58 1.42 M-0.89 -0.06 C6.57 -0.46, 12.27 -0.33, 27.64 -0.83 M27.35 0.5 C28.75 7.57, 27.49 16.77, 26.68 29.77 M29.1 0.91 C28.28 6.18, 28.33 12.26, 29.32 28.22 M29.15 29.09 C18.65 29.61, 9.93 27.2, -1 28.53 M27.55 27.92 C18.02 28.25, 8.19 27.23, -0.4 27.83 M0.61 27.31 C-0.68 16.93, 2.08 6.29, 1.23 0.04 M-0.82 29.08 C-0.27 19.96, 0.62 12.26, 0.56 0.04" stroke="#000000" stroke-width="1" fill="none"></path></g><g stroke-linecap="round" transform="translate(474.63920289949147 235.2176307521454) rotate(0 14.24441415415231 14.24441415415231)"><path d="M0.48 1.81 C6.24 -1.49, 10.75 -1.83, 29.91 -1.39 M-0.06 0 C7.9 -0.61, 16.33 -0.6, 27.66 0 M28.99 0.3 C27.59 7.15, 28.26 14.41, 29.77 26.92 M29.4 -0.25 C28.29 8.69, 28.05 18.6, 28.22 28.48 M29.09 27.17 C23.65 27.05, 15.5 27.58, 0.04 29.8 M27.92 28.44 C17.97 28.76, 6.4 27.82, -0.66 29.24 M-1.17 27.67 C-0.78 23.3, -0.73 15.47, 0.04 -0.05 M0.59 28.14 C-0.21 21.26, 0.56 13.5, 0.04 -0.99" stroke="#000000" stroke-width="1" fill="none"></path></g><g stroke-linecap="round" transform="translate(474.63920289949147 275.6615846058096) rotate(0 14.24441415415231 14.24441415415231)"><path d="M1.81 0.23 C9.5 -1.32, 20.23 1.35, 27.1 -0.17 M0 -0.4 C8.23 -0.26, 17.32 -0.81, 28.48 -0.15 M28.79 -0.96 C27.37 8.91, 26.52 19.71, 26.92 28.73 M28.24 -0.13 C28.46 7.51, 29.49 15.49, 28.48 27.5 M27.17 29.39 C16.17 27.06, 5.92 28.61, 1.31 29.9 M28.44 28.53 C23.28 27.35, 16.6 27.66, 0.75 27.99 M-0.82 27.62 C1.85 20.03, 1.14 13.26, -0.05 -0.54 M-0.35 28.43 C0.78 19.12, 0.8 8.37, -0.99 0.86" stroke="#000000" stroke-width="1" fill="none"></path></g><g stroke-linecap="round" transform="translate(474.63920289949147 316.105538459474) rotate(0 14.24441415415231 14.24441415415231)"><path d="M0.23 -1.56 C6.52 -2.16, 16.96 -1.65, 28.32 0.38 M-0.4 -0.86 C5.73 -0.85, 11.2 -0.01, 28.33 0.23 M27.53 -0.96 C28.26 5.12, 29.84 12.28, 28.73 28.02 M28.36 -0.2 C28.38 11.1, 28.48 20.54, 27.5 29.27 M29.39 26.96 C17.49 27.3, 9.55 29.61, 1.41 26.52 M28.53 29.02 C21.62 28.08, 16.06 29.23, -0.5 28.17 M-0.87 30.43 C-0.65 20.3, 0.21 9.6, -0.54 1.07 M-0.06 29.03 C0.54 22.85, -0.13 15.1, 0.86 -0.97" stroke="#000000" stroke-width="1" fill="none"></path></g><g stroke-linecap="round" transform="translate(552.3051960116572 102.77845816490571) rotate(0 70.54374463461045 124.12989477189882)"><path d="M-1.56 -1.25 C43.84 1.26, 90.1 -0.33, 141.47 -1.78 M-0.86 -0.28 C40.68 -0.26, 83.07 0.41, 141.32 -0.57 M140.3 -0.24 C139.91 81.74, 140.11 161.58, 140.7 249.25 M140.93 -0.3 C141.27 96.9, 140.58 193.43, 141.73 248.53 M139.55 246.74 C93.55 248.93, 49.33 250.3, -1.97 246.39 M141.62 247.28 C106.39 247.65, 73.23 247.82, -0.32 248.57 M1.59 247.59 C1.84 188.39, 0.79 128.01, 0.88 -1.35 M0.45 248.84 C1.16 159.22, -0.11 70.83, -0.8 0.54" stroke="#000000" stroke-width="1" fill="none"></path></g><g stroke-linecap="round"><g transform="translate(560.4448612426022 143.47678431962674) rotate(0 60.13610707106477 -0.5240197312199086)"><path d="M-1.25 -1.9 C49.07 -0.44, 95.13 1.33, 120.32 -0.11 M-0.28 -0.85 C35.85 1.05, 73.2 1.28, 121.53 0.25" stroke="#000000" stroke-width="1" fill="none"></path></g></g><mask></mask><g stroke-opacity="0.2" fill-opacity="0.2" transform="translate(560.144546701893 122.68474462707843) rotate(0 23.70398712158203 9.599999999999994)"><text x="0" y="0" font-family="Virgil, Segoe UI Emoji" font-size="16px" fill="#000000" text-anchor="start" style="white-space: pre;" direction="ltr" dominant-baseline="text-before-edge">Action</text></g><g transform="translate(598.9410855869573 319.4073115546935) rotate(0 22.823989868164062 9.599999999999994)"><text x="0" y="0" font-family="Virgil, Segoe UI Emoji" font-size="16px" fill="#000000" text-anchor="start" style="white-space: pre;" direction="ltr" dominant-baseline="text-before-edge">Total</text></g><g transform="translate(599.5330960850042 198.32453315809028) rotate(0 22.527984619140625 9.599999999999994)"><text x="0" y="0" font-family="Virgil, Segoe UI Emoji" font-size="16px" fill="#000000" text-anchor="start" style="white-space: pre;" direction="ltr" dominant-baseline="text-before-edge">Goals</text></g><g transform="translate(602.9730985264105 279.04638542249234) rotate(0 20.8079833984375 9.599999999999994)"><text x="0" y="0" font-family="Virgil, Segoe UI Emoji" font-size="16px" fill="#000000" text-anchor="start" style="white-space: pre;" direction="ltr" dominant-baseline="text-before-edge">Plans</text></g><g transform="translate(565.3410947422308 157.96360702588913) rotate(0 39.623985290527344 9.599999999999994)"><text x="0" y="0" font-family="Virgil, Segoe UI Emoji" font-size="16px" fill="#000000" text-anchor="start" style="white-space: pre;" direction="ltr" dominant-baseline="text-before-edge">Deviation°</text></g><g transform="translate(561.5171201328558 238.6854592902913) rotate(0 41.535972595214844 9.599999999999994)"><text x="0" y="0" font-family="Virgil, Segoe UI Emoji" font-size="16px" fill="#000000" text-anchor="start" style="white-space: pre;" direction="ltr" dominant-baseline="text-before-edge">Strategies</text></g><g stroke-linecap="round" transform="translate(655.4076015700448 154.32972304481666) rotate(0 14.24441415415231 14.24441415415231)"><path d="M-0.11 0.01 C7.5 -1.47, 16.05 -1.45, 26.83 -0.01 M0.25 0.15 C7.63 -0.32, 16.07 -0.74, 29.13 -0.78 M30.31 -0.49 C28.16 8.49, 27.68 19.43, 27.96 28.47 M28.79 -0.66 C29.16 4.97, 27.95 10.97, 28.51 29.14 M27.35 28.38 C18.01 29.29, 5.41 27.43, -1.33 29.99 M27.9 28.08 C20.93 29.55, 13.83 29.19, 0.02 28.46 M1.18 27.8 C-0.27 21.8, 1.27 14.06, 0.08 -1.98 M0.83 28.68 C1.27 17.75, -0.08 6.95, -0.22 -0.07" stroke="#000000" stroke-width="1" fill="none"></path></g><g stroke-linecap="round" transform="translate(655.4076015700448 194.77367689848109) rotate(0 14.24441415415231 14.24441415415231)"><path d="M0.01 -0.8 C7.37 -0.54, 16.47 -1.64, 28.48 -0.31 M0.15 -0.48 C8.73 -0.22, 17.52 0.57, 27.71 0.12 M28 -0.27 C28.27 7.14, 30.32 15.23, 28.47 26.52 M27.83 0.45 C27.82 10.02, 28.08 21.58, 29.14 29.19 M28.38 28.57 C23.81 26.36, 16.2 27, 1.5 27.49 M28.08 28.05 C21.82 27.91, 13.83 28.34, -0.03 28.22 M-0.69 28.37 C1.32 19.83, 1.36 8.41, -1.98 1.73 M0.19 29.48 C0.07 22.36, 0.28 16.73, -0.07 0.46" stroke="#000000" stroke-width="1" fill="none"></path></g><g stroke-linecap="round" transform="translate(655.4076015700448 235.21763075214528) rotate(0 14.24441415415231 14.24441415415231)"><path d="M-0.8 -1.72 C5.46 -1.7, 10.37 -0.01, 28.18 0.47 M-0.48 -0.48 C6.78 -0.95, 14.49 -0.83, 28.61 -0.23 M28.22 -0.39 C28.01 11.93, 28.22 20.53, 26.52 30.06 M28.94 -0.77 C27.82 8.98, 28.59 19.63, 29.19 27.51 M28.57 29.56 C20.64 27.68, 15.4 29.98, -1 27.85 M28.05 29.46 C18.66 28.99, 9.67 28.34, -0.27 29.03 M-0.11 29.58 C1.25 23.41, -0.09 14.11, 1.73 -1.95 M0.99 28.75 C-0.59 18.53, -0.46 7.58, 0.46 0.09" stroke="#000000" stroke-width="1" fill="none"></path></g><g stroke-linecap="round" transform="translate(655.4076015700448 275.6615846058097) rotate(0 14.24441415415231 14.24441415415231)"><path d="M-1.72 -0.56 C6.68 -1.54, 16.77 -0.19, 28.96 -1.14 M-0.48 -0.15 C8.36 0.78, 17.74 0.26, 28.25 0.61 M28.09 -0.74 C30.07 10.62, 28.4 20.32, 30.06 29.15 M27.72 -0.76 C27.8 9.41, 28.96 19.5, 27.51 27.55 M29.56 26.53 C20.77 27.17, 16.14 27.5, -0.64 29.1 M29.46 28.08 C22.23 28.39, 14.71 28.09, 0.54 27.67 M1.09 29.91 C1.22 18.34, -1.88 9.77, -1.95 1.32 M0.26 28.14 C0.41 17.35, -0.12 7.11, 0.09 0.09" stroke="#000000" stroke-width="1" fill="none"></path></g><g stroke-linecap="round" transform="translate(655.4076015700448 316.1055384594739) rotate(0 14.24441415415231 14.24441415415231)"><path d="M-0.56 -1.7 C6.9 0.24, 16.81 0.71, 27.35 0.5 M-0.15 -0.9 C9.62 -0.65, 18.08 -0.1, 29.1 0.91 M27.75 1.65 C27.92 7.82, 26.48 17.26, 29.15 29.09 M27.73 -0.5 C28.64 7.32, 29.32 12.34, 27.55 27.92 M26.53 27.69 C18.77 30.15, 10.7 28, 0.61 27.31 M28.08 29.1 C21.14 28.74, 13.47 29.3, -0.82 29.08 M1.42 29.61 C0.09 18.95, 1.74 11.41, 1.32 1.67 M-0.35 28.95 C-0.5 19.33, 0.18 10.39, 0.09 -0.62" stroke="#000000" stroke-width="1" fill="none"></path></g><g stroke-linecap="round" transform="translate(10.169659159934326 371.7266049044986) rotate(0 70.54374463461045 124.12989477189882)"><path d="M-0.37 -0.93 C39.03 -0.79, 75.97 -0.28, 140.55 -1.46 M-0.18 -0.53 C48.99 -0.12, 98.56 -1.17, 140.1 0.02 M141.56 1.36 C142.4 86.41, 143.9 176.55, 139.75 249.73 M141.08 -0.79 C138.46 96.16, 139.16 193.45, 141.81 248 M140.65 249.59 C96.7 248.98, 51.75 247.11, -1.63 250.2 M141.13 247.72 C107.75 247.79, 74.5 249.05, 0.03 247.81 M-0.23 248.68 C-0.98 160.07, -1.31 76.69, 0.86 0.2 M-0.31 247.45 C0.43 153.83, -0.21 58.97, -0.21 -0.3" stroke="#000000" stroke-width="1" fill="none"></path></g><g stroke-linecap="round"><g transform="translate(18.309324390879283 412.4249310592197) rotate(0 60.592009528302015 0.7914775185161034)"><path d="M-0.93 1.55 C30.03 1.24, 60.32 -0.31, 120.64 0.93 M-0.53 0.1 C39.08 1, 76.15 -0.77, 122.11 0.53" stroke="#000000" stroke-width="1" fill="none"></path></g></g><mask></mask><g stroke-opacity="0.2" fill-opacity="0.2" transform="translate(18.00900985017006 391.6328913666714) rotate(0 23.70398712158203 9.600000000000023)"><text x="0" y="0" font-family="Virgil, Segoe UI Emoji" font-size="16px" fill="#000000" text-anchor="start" style="white-space: pre;" direction="ltr" dominant-baseline="text-before-edge">Action</text></g><g transform="translate(56.805548735234424 588.3554582942863) rotate(0 22.823989868164062 9.600000000000023)"><text x="0" y="0" font-family="Virgil, Segoe UI Emoji" font-size="16px" fill="#000000" text-anchor="start" style="white-space: pre;" direction="ltr" dominant-baseline="text-before-edge">Total</text></g><g transform="translate(57.3975592332813 467.27267989768313) rotate(0 22.527984619140625 9.600000000000023)"><text x="0" y="0" font-family="Virgil, Segoe UI Emoji" font-size="16px" fill="#000000" text-anchor="start" style="white-space: pre;" direction="ltr" dominant-baseline="text-before-edge">Goals</text></g><g transform="translate(60.83756167468755 547.9945321620853) rotate(0 20.8079833984375 9.600000000000023)"><text x="0" y="0" font-family="Virgil, Segoe UI Emoji" font-size="16px" fill="#000000" text-anchor="start" style="white-space: pre;" direction="ltr" dominant-baseline="text-before-edge">Plans</text></g><g transform="translate(23.205557890507862 426.911753765482) rotate(0 39.623985290527344 9.600000000000023)"><text x="0" y="0" font-family="Virgil, Segoe UI Emoji" font-size="16px" fill="#000000" text-anchor="start" style="white-space: pre;" direction="ltr" dominant-baseline="text-before-edge">Deviation°</text></g><g transform="translate(19.381583281132862 507.6336060298843) rotate(0 41.535972595214844 9.600000000000023)"><text x="0" y="0" font-family="Virgil, Segoe UI Emoji" font-size="16px" fill="#000000" text-anchor="start" style="white-space: pre;" direction="ltr" dominant-baseline="text-before-edge">Strategies</text></g><g stroke-linecap="round" transform="translate(113.27206471832187 423.27786978440963) rotate(0 14.24441415415231 14.24441415415231)"><path d="M0.93 0.24 C11.14 -0.15, 18.16 0.41, 30.4 1.56 M0.53 0.8 C9.19 0.28, 17.38 -0.2, 27.76 0.72 M30.28 -1.99 C27.93 10.85, 26.32 20.3, 27.06 28.73 M28.73 -0.87 C29.2 8.2, 29.4 17.48, 28.52 29.48 M27.16 29.7 C22.74 28.85, 15.46 28.06, -1.26 27.24 M28.98 29.23 C19.11 28.22, 8.06 28.69, -0.99 28.62 M1.64 28.86 C-1.94 16.49, -2.12 8, 0.94 0.41 M-0.05 27.87 C0.28 18.98, 0.36 9.82, -0.48 0.58" stroke="#000000" stroke-width="1" fill="none"></path></g><g stroke-linecap="round" transform="translate(113.27206471832187 463.72182363807394) rotate(0 14.24441415415231 14.24441415415231)"><path d="M0.24 1.53 C7.42 -1.2, 15.76 1.78, 30.05 -0.19 M0.8 0.92 C6.01 0.68, 11.25 -0.88, 29.21 0.82 M26.5 -0.32 C28.72 4.29, 27.29 11.02, 28.73 28.4 M27.62 0.46 C28.18 11.71, 29.03 22.13, 29.48 27.59 M29.7 28.71 C22.34 27.22, 15.32 27.04, -1.25 29.75 M29.23 29.45 C19.71 28.88, 11.55 27.64, 0.13 29.43 M0.37 26.7 C-0.79 16.48, 1.95 9.34, 0.41 0.85 M-0.62 28.7 C0.35 20.95, 0.95 12.35, 0.58 0.06" stroke="#000000" stroke-width="1" fill="none"></path></g><g stroke-linecap="round" transform="translate(113.27206471832187 504.16577749173825) rotate(0 14.24441415415231 14.24441415415231)"><path d="M1.53 -0.36 C5.4 0.17, 14.86 1.52, 28.3 -1.98 M0.92 0.29 C9.43 -0.42, 16.48 0.49, 29.31 -0.82 M28.17 -0.03 C26.81 9.64, 27.32 22.43, 28.4 30.25 M28.95 -0.22 C29.22 8.26, 28.59 16.25, 27.59 27.67 M28.71 28.57 C16.09 27.95, 4.6 27.42, 1.26 28.55 M29.45 28.35 C21.48 29.03, 12.96 28.83, 0.94 29.01 M-1.79 27.73 C-2.2 21.58, 0.7 11.11, 0.85 -0.5 M0.21 28.74 C0.31 21.83, -0.47 14.07, 0.06 0.4" stroke="#000000" stroke-width="1" fill="none"></path></g><g stroke-linecap="round" transform="translate(113.27206471832187 544.6097313454026) rotate(0 14.24441415415231 14.24441415415231)"><path d="M-0.36 -1.07 C10.07 1.69, 21.3 -0.41, 26.51 0.04 M0.29 0.83 C9.86 -0.99, 20.82 0.56, 27.67 0.9 M28.46 -1.94 C26.75 9.68, 28.44 22.12, 30.25 27.84 M28.27 0.66 C28.88 9.25, 29.23 17.54, 27.67 29.46 M28.57 27.41 C21.12 27.26, 13.92 29.78, 0.06 27.59 M28.35 28.74 C18.88 27.77, 8.75 29.71, 0.52 28.61 M-0.76 26.52 C1.93 18.54, 0.36 7.58, -0.5 -0.73 M0.25 28.78 C1.02 19.61, 0.76 11.76, 0.4 0.18" stroke="#000000" stroke-width="1" fill="none"></path></g><g stroke-linecap="round" transform="translate(113.27206471832187 585.0536851990669) rotate(0 14.24441415415231 14.24441415415231)"><path d="M-1.07 0.2 C10.81 1.61, 17.6 -1.93, 28.53 1.06 M0.83 -0.2 C10.1 0.64, 22.48 -0.9, 29.38 0.9 M26.55 -1.46 C27.02 5.95, 28.35 13.18, 27.84 28.96 M29.15 0.64 C28.65 7.06, 27.72 11.32, 29.46 27.83 M27.41 27.78 C16.95 27.25, 9.19 28.56, -0.9 29.46 M28.74 28.82 C16.83 28.58, 8.09 28.97, 0.12 29.31 M-1.97 30.48 C1.19 19.82, 1.1 9.83, -0.73 -0.11 M0.29 29.34 C-0.54 22.29, 0 15.32, 0.18 -0.46" stroke="#000000" stroke-width="1" fill="none"></path></g><g stroke-linecap="round" transform="translate(190.93805783048674 371.7266049044986) rotate(0 70.54374463461045 124.12989477189882)"><path d="M0.2 1.91 C54.65 0.56, 104.19 0.79, 142.14 1.6 M-0.2 -0.73 C55.96 -0.35, 109.67 -0.28, 141.98 -1 M139.89 -1.17 C141.26 70.39, 142.5 140.4, 141.48 246.83 M141.61 0.03 C141.46 85.22, 139.97 172.71, 140.54 248.76 M140.38 247 C95.94 248.76, 53.35 246.6, 0.97 249.75 M141.42 247.27 C85.33 249.57, 29.84 248.74, 0.82 248.45 M1.63 249.03 C1.11 196.68, 0.36 143.11, -0.09 -1.01 M0.69 247.87 C-0.03 168.56, -0.18 88.91, -0.38 -0.45" stroke="#000000" stroke-width="1" fill="none"></path></g><g stroke-linecap="round"><g transform="translate(199.07772306142988 412.4249310592197) rotate(0 61.48428925009853 0.8125130596807821)"><path d="M1.91 1.56 C34.26 -2.11, 68.94 0.93, 123.7 1.83 M-0.73 0.72 C40.96 -0.58, 81.17 1.14, 121.1 -0.16" stroke="#000000" stroke-width="1" fill="none"></path></g></g><mask></mask><g stroke-opacity="0.2" fill-opacity="0.2" transform="translate(198.77740852072247 391.6328913666714) rotate(0 23.70398712158203 9.600000000000023)"><text x="0" y="0" font-family="Virgil, Segoe UI Emoji" font-size="16px" fill="#000000" text-anchor="start" style="white-space: pre;" direction="ltr" dominant-baseline="text-before-edge">Action</text></g><g transform="translate(237.57394740578684 588.3554582942863) rotate(0 22.823989868164062 9.600000000000023)"><text x="0" y="0" font-family="Virgil, Segoe UI Emoji" font-size="16px" fill="#000000" text-anchor="start" style="white-space: pre;" direction="ltr" dominant-baseline="text-before-edge">Total</text></g><g transform="translate(238.16595790383371 467.27267989768325) rotate(0 22.527984619140625 9.600000000000023)"><text x="0" y="0" font-family="Virgil, Segoe UI Emoji" font-size="16px" fill="#000000" text-anchor="start" style="white-space: pre;" direction="ltr" dominant-baseline="text-before-edge">Goals</text></g><g transform="translate(241.60596034523996 547.9945321620853) rotate(0 20.8079833984375 9.600000000000023)"><text x="0" y="0" font-family="Virgil, Segoe UI Emoji" font-size="16px" fill="#000000" text-anchor="start" style="white-space: pre;" direction="ltr" dominant-baseline="text-before-edge">Plans</text></g><g transform="translate(203.97395656106028 426.911753765482) rotate(0 39.623985290527344 9.600000000000023)"><text x="0" y="0" font-family="Virgil, Segoe UI Emoji" font-size="16px" fill="#000000" text-anchor="start" style="white-space: pre;" direction="ltr" dominant-baseline="text-before-edge">Deviation°</text></g><g transform="translate(200.14998195168528 507.6336060298843) rotate(0 41.535972595214844 9.600000000000023)"><text x="0" y="0" font-family="Virgil, Segoe UI Emoji" font-size="16px" fill="#000000" text-anchor="start" style="white-space: pre;" direction="ltr" dominant-baseline="text-before-edge">Strategies</text></g><g stroke-linecap="round" transform="translate(294.0404633888743 423.27786978440963) rotate(0 14.24441415415231 14.24441415415231)"><path d="M1.83 0.58 C10.26 -0.62, 15.75 1.21, 30.13 -1.63 M-0.16 -0.01 C10.13 -0.45, 21.48 0.4, 28.44 0.88 M29.41 -0.44 C29.88 8.9, 28.62 17.24, 26.68 26.86 M28.6 0.04 C27.76 10.96, 27.67 22.01, 29.12 28.52 M30.41 28.21 C21.73 29.36, 11.97 28.96, 1.89 29.54 M27.59 28.11 C18.61 29.54, 11.17 28.75, 0.42 28.24 M0.42 28.99 C0.6 22.68, -0.95 14.65, 0.13 0.81 M0.26 28.56 C0.76 19.48, -0.62 10.85, 0.01 0.78" stroke="#000000" stroke-width="1" fill="none"></path></g><g stroke-linecap="round" transform="translate(294.0404633888743 463.72182363807406) rotate(0 14.24441415415231 14.24441415415231)"><path d="M0.58 1.66 C9.66 -1.72, 21.54 1.38, 26.86 1.79 M-0.01 -0.97 C10.37 -0.67, 22.32 0, 29.37 -0.32 M28.05 1.33 C29.51 9.28, 30.23 16.63, 26.86 30.43 M28.53 -0.54 C28.31 6.03, 28.04 13.95, 28.52 28.04 M28.21 29 C19.21 26.78, 8.88 30.65, 1.05 28.73 M28.11 27.5 C18.6 28.7, 6.93 28.66, -0.25 28.12 M0.5 29.07 C1.87 19.13, 1.34 11.82, 0.81 0.36 M0.08 29.12 C0.2 20.51, 0.62 14.04, 0.78 0.83" stroke="#000000" stroke-width="1" fill="none"></path></g><g stroke-linecap="round" transform="translate(294.0404633888743 504.16577749173825) rotate(0 14.24441415415231 14.24441415415231)"><path d="M1.66 -0.39 C9.37 1.36, 23.3 -1.71, 30.28 1.79 M-0.97 -0.73 C5 0.12, 11.38 0.88, 28.17 0.24 M29.82 1.27 C28.68 8.06, 26.81 10.51, 30.43 27.16 M27.95 -0.35 C27.89 9.66, 29.15 20.59, 28.04 28.98 M29 29.15 C15.84 28.71, 9.04 29.5, 0.24 30.13 M27.5 29.48 C19.88 28.59, 10.75 28.13, -0.37 28.44 M0.58 30.18 C-1.02 22.87, 0.06 15.72, 0.36 -0.93 M0.63 28.54 C-0.83 21.96, -0.07 15.27, 0.83 0" stroke="#000000" stroke-width="1" fill="none"></path></g><g stroke-linecap="round" transform="translate(294.0404633888743 544.6097313454027) rotate(0 14.24441415415231 14.24441415415231)"><path d="M-0.39 -1.46 C12.59 1.4, 20.68 1.55, 30.28 -1.99 M-0.73 -0.71 C8.2 0.23, 17.05 -0.05, 28.73 -0.87 M29.76 0.06 C30.41 8.06, 26.8 21.67, 27.16 29.7 M28.13 -0.63 C27.88 9.49, 28.53 17.28, 28.98 29.23 M29.15 26.51 C17.46 30.45, 6.97 28.81, 1.64 28.86 M29.48 28.96 C22.7 28.63, 16.24 27.84, -0.05 27.87 M1.69 27.53 C1.1 19.46, 0.74 10.54, -0.93 -1.09 M0.05 27.74 C0.45 19.21, 0.76 10.75, 0 0.44" stroke="#000000" stroke-width="1" fill="none"></path></g><g stroke-linecap="round" transform="translate(294.0404633888743 585.0536851990669) rotate(0 14.24441415415231 14.24441415415231)"><path d="M-1.46 1.44 C11 -1.57, 20.52 1.85, 26.5 -0.32 M-0.71 0.12 C8.47 1.09, 16.7 0.44, 27.62 0.46 M28.55 1.99 C26.87 6.29, 30.62 14.52, 29.7 28.71 M27.86 -0.62 C28.96 8.7, 27.89 17.82, 29.23 29.45 M26.51 28.75 C22.23 29.63, 12.44 30.22, 0.37 26.7 M28.96 28.7 C21.44 28.52, 13.18 28.72, -0.62 28.7 M-0.96 29.66 C0.04 20.04, 0.27 9.05, -1.09 0.52 M-0.75 28.96 C-0.17 20.51, 0.65 10.96, 0.44 -0.02" stroke="#000000" stroke-width="1" fill="none"></path></g><g stroke-linecap="round" transform="translate(371.70645650103916 371.7266049044986) rotate(0 70.54374463461045 124.12989477189882)"><path d="M1.44 1.64 C52.41 2.82, 109.88 -0.96, 140.76 -0.03 M0.12 -0.04 C29.54 0.68, 57.56 0.14, 141.55 -0.22 M142.72 -1.48 C141.05 92.54, 141.3 182.89, 141.27 248.33 M140.58 0.52 C140.39 60.68, 140.76 122.71, 141.88 248.14 M141.34 250.15 C96.2 247.11, 50.85 247.24, -1.79 247.5 M141.29 248.68 C112.41 248.55, 84.18 248.3, 0.21 248.51 M0.96 248.36 C-1.06 166.83, -2.48 83.93, 0.42 0.12 M0.38 248.26 C0.54 158.85, -0.1 68.43, -0.02 -0.75" stroke="#000000" stroke-width="1" fill="none"></path></g><g stroke-linecap="round"><g transform="translate(379.8461217319823 412.4249310592197) rotate(0 61.01272652926332 -0.5292596034705639)"><path d="M1.64 -1.63 C36.03 0.92, 66.49 -1.2, 122.07 -1.94 M-0.04 0.88 C27.4 0.09, 54.58 0.32, 121.88 0.66" stroke="#000000" stroke-width="1" fill="none"></path></g></g><mask></mask><g stroke-opacity="0.2" fill-opacity="0.2" transform="translate(379.5458071912749 391.6328913666714) rotate(0 23.70398712158203 9.600000000000023)"><text x="0" y="0" font-family="Virgil, Segoe UI Emoji" font-size="16px" fill="#000000" text-anchor="start" style="white-space: pre;" direction="ltr" dominant-baseline="text-before-edge">Action</text></g><g transform="translate(418.34234607633925 588.3554582942863) rotate(0 22.823989868164062 9.600000000000023)"><text x="0" y="0" font-family="Virgil, Segoe UI Emoji" font-size="16px" fill="#000000" text-anchor="start" style="white-space: pre;" direction="ltr" dominant-baseline="text-before-edge">Total</text></g><g transform="translate(418.93435657438613 467.272679897683) rotate(0 22.527984619140625 9.600000000000023)"><text x="0" y="0" font-family="Virgil, Segoe UI Emoji" font-size="16px" fill="#000000" text-anchor="start" style="white-space: pre;" direction="ltr" dominant-baseline="text-before-edge">Goals</text></g><g transform="translate(422.3743590157924 547.9945321620853) rotate(0 20.8079833984375 9.600000000000023)"><text x="0" y="0" font-family="Virgil, Segoe UI Emoji" font-size="16px" fill="#000000" text-anchor="start" style="white-space: pre;" direction="ltr" dominant-baseline="text-before-edge">Plans</text></g><g transform="translate(384.7423552316127 426.911753765482) rotate(0 39.623985290527344 9.600000000000023)"><text x="0" y="0" font-family="Virgil, Segoe UI Emoji" font-size="16px" fill="#000000" text-anchor="start" style="white-space: pre;" direction="ltr" dominant-baseline="text-before-edge">Deviation°</text></g><g transform="translate(380.9183806222377 507.6336060298843) rotate(0 41.535972595214844 9.600000000000023)"><text x="0" y="0" font-family="Virgil, Segoe UI Emoji" font-size="16px" fill="#000000" text-anchor="start" style="white-space: pre;" direction="ltr" dominant-baseline="text-before-edge">Strategies</text></g><g stroke-linecap="round" transform="translate(474.8088620594267 423.27786978440963) rotate(0 14.24441415415231 14.24441415415231)"><path d="M-1.94 -1.46 C4.28 0.24, 11.33 1.76, 27.84 0.47 M0.66 0.64 C6.1 1.06, 11.23 -0.75, 29.46 -0.66 M27.41 -0.71 C27.26 9.03, 29.78 20.62, 27.59 29.46 M28.74 0.33 C27.77 10.8, 29.71 21.86, 28.61 29.31 M26.52 30.48 C20.34 28.79, 11.18 27.88, -0.73 28.38 M28.78 29.34 C21.22 29.14, 14.98 28.96, 0.18 28.03 M1.26 28.58 C-1.58 22.43, -0.06 16.05, 1.66 -0.01 M0.66 27.82 C-0.66 19.42, -0.13 9.58, -0.07 -0.9" stroke="#000000" stroke-width="1" fill="none"></path></g><g stroke-linecap="round" transform="translate(474.8088620594267 463.72182363807383) rotate(0 14.24441415415231 14.24441415415231)"><path d="M-1.46 -1.43 C8.32 0.19, 17.93 -0.37, 28.96 -1.74 M0.64 0.03 C10.86 -1.09, 18.91 0.78, 27.83 0.61 M27.78 -1.26 C27.25 10.12, 28.56 16.83, 29.46 29.98 M28.82 -0.99 C28.58 12.23, 28.97 22.69, 29.31 28.68 M30.48 29.43 C22.9 29.06, 15.99 27.48, -0.11 27.25 M29.34 28.01 C19.92 28.63, 10.59 28.75, -0.46 27.95 M0.09 26.99 C0.92 19.22, 1.54 11.58, -0.01 0.88 M-0.67 27.83 C0.99 19.87, 0.95 11.46, -0.9 0.34" stroke="#000000" stroke-width="1" fill="none"></path></g><g stroke-linecap="round" transform="translate(474.8088620594267 504.16577749173825) rotate(0 14.24441415415231 14.24441415415231)"><path d="M-1.43 0.24 C8.42 1.97, 16.38 0.68, 26.75 0.92 M0.03 0.99 C7.02 -1, 16.82 -0.84, 29.1 0.11 M27.23 -1.25 C29.59 8.73, 27.44 18.31, 29.98 30.41 M27.5 0.13 C29.51 8.67, 28.68 17.11, 28.68 27.59 M29.43 28.9 C21.87 28.27, 12.82 28.67, -1.23 28.91 M28.01 29.07 C19.3 29.13, 10.16 28.27, -0.54 28.75 M-1.5 29.43 C-0.17 21.29, 1.48 10.96, 0.88 -0.05 M-0.66 29.22 C-0.33 23.22, -0.26 15.68, 0.34 -0.83" stroke="#000000" stroke-width="1" fill="none"></path></g><g stroke-linecap="round" transform="translate(474.8088620594267 544.6097313454025) rotate(0 14.24441415415231 14.24441415415231)"><path d="M0.24 -0.09 C7.54 -0.44, 12.05 -1.54, 29.41 -0.44 M0.99 -0.9 C9.62 0.96, 20.21 0.6, 28.6 0.04 M27.24 1.26 C28.45 6.11, 29.36 15.5, 30.41 28.21 M28.62 0.94 C29.11 9.4, 29.4 18.74, 27.59 28.11 M28.9 29.34 C22.25 27.89, 16.9 27.39, 0.42 28.99 M29.07 28.55 C19.51 28.53, 9.27 27.81, 0.26 28.56 M0.94 28.5 C1.55 19.81, -0.02 8.69, -0.05 -1.82 M0.74 28.35 C0.88 17.98, -0.71 7.95, -0.83 0.21" stroke="#000000" stroke-width="1" fill="none"></path></g><g stroke-linecap="round" transform="translate(474.8088620594267 585.0536851990669) rotate(0 14.24441415415231 14.24441415415231)"><path d="M-0.09 1.76 C5.82 0.44, 11.2 0.89, 28.05 1.33 M-0.9 -0.81 C11.33 -0.95, 21.33 -0.17, 28.53 -0.54 M29.75 0.06 C27.41 8.51, 29.8 17, 28.21 29 M29.43 0.52 C28.33 10.3, 28.39 18.07, 28.11 27.5 M29.34 27.99 C16.38 28.44, 4.5 28.97, 0.5 29.07 M28.55 28.89 C17.71 28.19, 6.02 28.91, 0.08 29.12 M0.01 30.05 C1.88 19.8, 1.09 11.08, -1.82 1.33 M-0.14 29.18 C0.12 20.96, 0.53 14.4, 0.21 0.15" stroke="#000000" stroke-width="1" fill="none"></path></g><g stroke-linecap="round" transform="translate(552.4748551715916 371.7266049044986) rotate(0 70.54374463461045 124.12989477189882)"><path d="M1.76 -0.65 C32.74 -1.68, 65.46 -0.38, 142.41 1.27 M-0.81 0.97 C42.11 1.88, 85.66 1.32, 140.55 -0.35 M141.14 -0.74 C140.62 60.1, 141.4 117.53, 141.51 248.8 M141.52 0.1 C142.02 50.04, 140.62 99.45, 140.28 249.07 M140.59 247.53 C92.05 247.62, 43.65 249.36, 0.58 249.95 M141.49 248.44 C105.09 247.8, 70.27 248.42, 0.63 248.31 M1.28 249.62 C-0.96 193.16, -0.99 135.13, 1.09 -1.1 M0.56 248.2 C-2.23 190.51, -2.18 132.37, 0.12 0.2" stroke="#000000" stroke-width="1" fill="none"></path></g><g stroke-linecap="round"><g transform="translate(560.6145204025365 412.4249310592197) rotate(0 61.36195893841273 -0.09466483071446419)"><path d="M-0.65 0.47 C36.34 -0.15, 75.71 0.25, 123.37 0.06 M0.97 -0.66 C49.37 1.11, 97.57 0.45, 121.74 -0.63" stroke="#000000" stroke-width="1" fill="none"></path></g></g><mask></mask><g stroke-opacity="0.2" fill-opacity="0.2" transform="translate(560.3142058618273 391.6328913666714) rotate(0 23.70398712158203 9.600000000000023)"><text x="0" y="0" font-family="Virgil, Segoe UI Emoji" font-size="16px" fill="#000000" text-anchor="start" style="white-space: pre;" direction="ltr" dominant-baseline="text-before-edge">Action</text></g><g transform="translate(599.1107447468917 588.3554582942863) rotate(0 22.823989868164062 9.600000000000023)"><text x="0" y="0" font-family="Virgil, Segoe UI Emoji" font-size="16px" fill="#000000" text-anchor="start" style="white-space: pre;" direction="ltr" dominant-baseline="text-before-edge">Total</text></g><g transform="translate(599.7027552449385 467.27267989768325) rotate(0 22.527984619140625 9.600000000000023)"><text x="0" y="0" font-family="Virgil, Segoe UI Emoji" font-size="16px" fill="#000000" text-anchor="start" style="white-space: pre;" direction="ltr" dominant-baseline="text-before-edge">Goals</text></g><g transform="translate(603.1427576863448 547.9945321620853) rotate(0 20.8079833984375 9.600000000000023)"><text x="0" y="0" font-family="Virgil, Segoe UI Emoji" font-size="16px" fill="#000000" text-anchor="start" style="white-space: pre;" direction="ltr" dominant-baseline="text-before-edge">Plans</text></g><g transform="translate(565.5107539021651 426.911753765482) rotate(0 39.623985290527344 9.600000000000023)"><text x="0" y="0" font-family="Virgil, Segoe UI Emoji" font-size="16px" fill="#000000" text-anchor="start" style="white-space: pre;" direction="ltr" dominant-baseline="text-before-edge">Deviation°</text></g><g transform="translate(561.6867792927901 507.6336060298843) rotate(0 41.535972595214844 9.600000000000023)"><text x="0" y="0" font-family="Virgil, Segoe UI Emoji" font-size="16px" fill="#000000" text-anchor="start" style="white-space: pre;" direction="ltr" dominant-baseline="text-before-edge">Strategies</text></g><g stroke-linecap="round" transform="translate(655.5772607299791 423.27786978440963) rotate(0 14.24441415415231 14.24441415415231)"><path d="M0.06 1.99 C6.12 -1.81, 17.79 -1.51, 29.7 0.22 M-0.63 -0.62 C9.3 0.13, 16.88 0.59, 29.23 0.96 M26.51 0.26 C30.45 9.19, 28.81 17.93, 28.86 26.7 M28.96 0.21 C28.63 7.22, 27.84 14.89, 27.87 28.7 M27.53 29.66 C19.36 29.54, 10.34 27.8, -1.09 29.01 M27.74 28.96 C19.73 29.28, 11.8 28.5, 0.44 28.47 M-1.32 29.96 C-0.47 23.91, -0.32 14.78, 0.68 -1.65 M0.05 28.48 C0.41 18.42, -0.83 10.67, -0.77 -0.27" stroke="#000000" stroke-width="1" fill="none"></path></g><g stroke-linecap="round" transform="translate(655.5772607299791 463.72182363807406) rotate(0 14.24441415415231 14.24441415415231)"><path d="M1.99 -1.81 C8.81 1.93, 19.55 1.21, 28.71 0.08 M-0.62 0.63 C7.04 -0.27, 14.5 0.92, 29.45 -0.14 M28.75 1.89 C29.63 9.52, 30.22 18.93, 26.7 27.73 M28.7 0.42 C28.52 5.37, 28.72 10.86, 28.7 28.74 M29.66 28.61 C19.92 28.71, 8.81 27.27, 0.52 28.64 M28.96 28.5 C18.93 29.11, 7.81 28.71, -0.02 27.58 M1.47 28.21 C1.57 17.91, -1.61 8.29, -1.65 0.42 M-0.01 28.94 C-0.99 18.74, 0.4 9.8, -0.27 -0.81" stroke="#000000" stroke-width="1" fill="none"></path></g><g stroke-linecap="round" transform="translate(655.5772607299791 504.16577749173825) rotate(0 14.24441415415231 14.24441415415231)"><path d="M-1.81 -1.63 C12.3 -1.61, 21.94 -0.06, 28.57 -1.08 M0.63 0.03 C7.09 0.66, 15.82 1.14, 28.35 0.26 M30.38 1.05 C28.45 11.12, 28.58 17.17, 27.73 26.52 M28.91 -0.25 C28.26 11.32, 28 22.97, 28.74 28.78 M28.61 29.29 C17.88 27.73, 5.48 29.17, 0.15 29.75 M28.5 29.27 C20.64 28.62, 11.57 28.6, -0.91 29.15 M-0.28 29.87 C0.05 20.06, 0.87 13.57, 0.42 0.29 M0.45 27.57 C-0.8 19.72, -0.78 9.73, -0.81 0.23" stroke="#000000" stroke-width="1" fill="none"></path></g><g stroke-linecap="round" transform="translate(655.5772607299791 544.6097313454027) rotate(0 14.24441415415231 14.24441415415231)"><path d="M-1.63 1.94 C7.31 1.47, 17.5 0.34, 27.41 -0.71 M0.03 -0.45 C7.24 0.57, 14.48 -0.32, 28.74 0.33 M29.54 0.24 C30.16 6.1, 26.74 10.69, 26.52 30.48 M28.24 -0.37 C28.49 9.26, 28.76 20.01, 28.78 29.34 M29.29 28.85 C20.39 27.42, 14.65 28.66, 1.26 28.58 M29.27 29.32 C22.08 28.93, 15.66 27.58, 0.66 27.82 M1.38 28.35 C-2.01 22.51, -1.86 15.59, 0.29 0.49 M-0.92 27.7 C0.48 19.03, -0.27 10.31, 0.23 0.32" stroke="#000000" stroke-width="1" fill="none"></path></g><g stroke-linecap="round" transform="translate(655.5772607299791 585.0536851990669) rotate(0 14.24441415415231 14.24441415415231)"><path d="M1.94 -1.32 C12.59 0.45, 22.84 -0.85, 27.78 -1.26 M-0.45 0.49 C7.52 0.95, 13.4 0.25, 28.82 -0.99 M28.73 1.64 C29.13 7.12, 28 15.86, 30.48 29.43 M28.12 -0.05 C27.99 9.35, 28.86 18.56, 29.34 28.01 M28.85 27.56 C17.19 29.12, 8.22 29.86, 0.09 26.99 M29.32 28.49 C19.04 28.69, 7.81 29.38, -0.67 27.83 M-0.13 26.69 C0.72 16.19, 0.46 7.49, 0.49 0.1 M-0.79 28.96 C-0.9 19.7, -0.94 11.68, 0.32 0.45" stroke="#000000" stroke-width="1" fill="none"></path></g><g transform="translate(229.47039829191408 649.728068330715) rotate(0 94.15193939208984 9.600000000000023)"><text x="0" y="0" font-family="Virgil, Segoe UI Emoji" font-size="16px" fill="#000000" text-anchor="start" style="white-space: pre;" direction="ltr" dominant-baseline="text-before-edge">Next Increment Actions:</text></g><g stroke-linecap="round"><g transform="translate(233.84073175024832 716.3057249473246) rotate(0 212.82276386404328 -0.7394426855521488)"><path d="M-0.7 -0.5 C146.44 -0.33, 294.69 -0.53, 426.35 -0.21 M0.19 -0.13 C148.35 -1.45, 296.96 -2.04, 425.91 -0.13" stroke="#000000" stroke-width="1" fill="none"></path></g></g><mask></mask><g stroke-linecap="round"><g transform="translate(235.02337431692422 769.6138596162967) rotate(0 212.6414815978369 0.19850642636777138)"><path d="M-0.84 0.2 C160.27 1.37, 318.64 1.23, 426.12 -0.43 M0.02 0.45 C97.4 -0.85, 194.08 -0.79, 425.72 -0.03" stroke="#000000" stroke-width="1" fill="none"></path></g></g><mask></mask><g stroke-linecap="round"><g transform="translate(234.005916163057 825.2349260613213) rotate(0 213.1813375679876 0.697732841106756)"><path d="M0.12 0.73 C124.52 2.74, 249.77 1.59, 425.56 0.9 M-0.11 -0.46 C103.47 -0.07, 206.73 -0.34, 426.48 -0.27" stroke="#000000" stroke-width="1" fill="none"></path></g></g><mask></mask><g stroke-linecap="round"><g transform="translate(234.68418019848923 884.9257630211004) rotate(0 212.78566751040648 0.5204314429719261)"><path d="M0.44 -0.36 C91.09 -0.92, 179.44 -0.46, 425.97 0.25 M-0.4 0.32 C139.13 1.6, 277.8 2.51, 425.75 0.36" stroke="#000000" stroke-width="1" fill="none"></path></g></g><mask></mask></svg>