<svg version="1.1" xmlns="http://www.w3.org/2000/svg" viewBox="0 0 911.8784717740417 1173.6745907890322" width="911.8784717740417" height="1173.6745907890322">
  <!-- svg-source:excalidraw -->
  
  <defs>
    <style class="style-fonts">
      @font-face {
        font-family: "Virgil";
        src: url("https://excalidraw.com/Virgil.woff2");
      }
      @font-face {
        font-family: "Cascadia";
        src: url("https://excalidraw.com/Cascadia.woff2");
      }
    </style>
  </defs>
  <g transform="translate(10 10) rotate(0 38 12.5)"><text x="0" y="17" font-family="Virgil, Segoe UI Emoji" font-size="20px" fill="#000000" text-anchor="start" style="white-space: pre;" direction="ltr">Planning</text></g><g transform="translate(10 41.11106363932322) rotate(0 59.5 10)"><text x="0" y="15" font-family="Virgil, Segoe UI Emoji" font-size="16px" fill="#000000" text-anchor="start" style="white-space: pre;" direction="ltr">Goal Definition</text></g><g transform="translate(10 68.5) rotate(0 34 10)"><text x="0" y="15" font-family="Virgil, Segoe UI Emoji" font-size="16px" fill="#000000" text-anchor="start" style="white-space: pre;" direction="ltr">Context:</text></g><g stroke-linecap="round"><g transform="translate(86.4444580078125 89.33329264322947) rotate(0 393.9438671810552 0.871464124707245)"><path d="M0.13 0.54 C207.6 -0.02, 414.51 0.91, 787.96 0.64 M-0.07 0.22 C167.3 1.7, 335.09 2.17, 787.47 0.29" stroke="#000000" stroke-width="1" fill="none"></path></g></g><mask></mask><g stroke-linecap="round"><g transform="translate(18 143.8886051843465) rotate(0 428.42894427645956 -0.09779876153515943)"><path d="M0.54 0.03 C198.25 -1.2, 397.81 -0.16, 856.64 -0.7 M0.22 -0.16 C225.22 0.74, 451.1 0.5, 856.29 0.39" stroke="#000000" stroke-width="1" fill="none"></path></g></g><mask></mask><g stroke-linecap="round"><g transform="translate(20.325360653611824 192.22225709974964) rotate(0 428.1127213571221 -0.6120321619491733)"><path d="M0.03 -0.38 C246.38 -1.75, 494.44 -1.66, 855.3 -0.29 M-0.16 -0.2 C205.49 -1.61, 410.57 -1.59, 856.39 0.14" stroke="#000000" stroke-width="1" fill="none"></path></g></g><mask></mask><g transform="translate(10 233.12314486944933) rotate(0 21 10)"><text x="0" y="15" font-family="Virgil, Segoe UI Emoji" font-size="16px" fill="#000000" text-anchor="start" style="white-space: pre;" direction="ltr">Goal:</text></g><g stroke-linecap="round"><g transform="translate(58.88889567057231 254.84531283819933) rotate(0 409.9775484081823 0.520722827930058)"><path d="M-0.64 0.55 C301.78 2.18, 602.05 1.25, 820.27 -0.14 M0.17 0.27 C291.37 1.9, 583.29 1.74, 820.6 -0.38" stroke="#000000" stroke-width="1" fill="none"></path></g></g><mask></mask><g stroke-linecap="round"><g transform="translate(22.751732610382533 301.95643751267835) rotate(0 428.0693704234436 0.3499705378217186)"><path d="M0.55 0.4 C260.16 2.05, 518.75 2.26, 855.86 0.44 M0.27 -0.08 C222.27 -1.03, 444.09 -1.57, 855.62 -0.17" stroke="#000000" stroke-width="1" fill="none"></path></g></g><mask></mask><g stroke-linecap="round"><g transform="translate(25.077093263994357 354.73465239286725) rotate(0 428.17971004676076 -0.6321863503164877)"><path d="M0.4 0.64 C215.81 -2.65, 432.53 -2.49, 856.44 -0.33 M-0.08 0.29 C215.4 -2.21, 429.87 -2.72, 855.83 0.39" stroke="#000000" stroke-width="1" fill="none"></path></g></g><mask></mask><g transform="translate(10 400.83346655090145) rotate(0 63 10)"><text x="0" y="15" font-family="Virgil, Segoe UI Emoji" font-size="16px" fill="#000000" text-anchor="start" style="white-space: pre;" direction="ltr">Expected Value:</text></g><g stroke-linecap="round"><g transform="translate(138.888916015625 421.6667591941318) rotate(0 372.17293827858134 -0.810801420421285)"><path d="M-0.7 -0.29 C274.42 -2.51, 550.24 -2.7, 744.83 0.33 M0.39 0.14 C274.47 -2.56, 549.08 -1.79, 745.04 -0.16" stroke="#000000" stroke-width="1" fill="none"></path></g></g><mask></mask><g stroke-linecap="round"><g transform="translate(28.113640091722118 473.6667591941314) rotate(0 428.0190100379288 -0.1656951757186107)"><path d="M-0.29 -0.48 C299.45 3.43, 598.84 2.6, 856.33 0.55 M0.14 -0.16 C239.01 -3.5, 479.16 -3.5, 855.84 0.36" stroke="#000000" stroke-width="1" fill="none"></path></g></g><mask></mask><g transform="translate(19.421378776235542 511.2611892472896) rotate(0 97 10)"><text x="0" y="15" font-family="Virgil, Segoe UI Emoji" font-size="16px" fill="#000000" text-anchor="start" style="white-space: pre;" direction="ltr">High-level Implementation</text></g><g transform="translate(19.421378776235542 542.1500645728102) rotate(0 38.5 10)"><text x="0" y="15" font-family="Virgil, Segoe UI Emoji" font-size="16px" fill="#000000" text-anchor="start" style="white-space: pre;" direction="ltr">Mind Map:</text></g><g stroke-linecap="round" transform="translate(16.841537805225016 572.3418332991796) rotate(0 442.51846698440835 295.6663787449263)"><path d="M0.44 -0.33 C232.67 0.93, 466.67 0.44, 885.62 0.78 M-0.17 0.39 C296.43 3.17, 593.57 3.17, 885.14 -0.16 M884.53 -0.15 C884.11 136.75, 884.29 273.84, 884.32 591.84 M885.34 0.1 C885.55 123.06, 885.46 245.98, 885.31 591.58 M884.75 592.13 C542.84 594.25, 202.26 594.15, 0.04 591.9 M885.11 591.35 C706.55 587.69, 528.71 588.12, 0.3 591.47 M-0.25 591.67 C0.63 424.72, 0.72 259.62, 0.38 0.03 M-0.01 591.11 C0.78 359.22, 1.11 126.96, 0.37 0.24" stroke="#000000" stroke-width="1" fill="none"></path></g><g stroke-linecap="round"><g stroke-opacity="0.1" fill-opacity="0.1" transform="translate(37.22603966032966 628.8705720609532) rotate(0 420.4398979725148 0.4181759880862046)"><path d="M0.33 0.55 C298.5 2.23, 598.11 1.92, 840.76 -0.75 M-0.16 0.36 C215.49 1.62, 431.12 1.24, 841.04 -0.19" stroke="#000000" stroke-width="1" fill="none"></path></g></g><mask></mask><g stroke-linecap="round"><g stroke-opacity="0.1" fill-opacity="0.1" transform="translate(37.07641868626615 687.7765736859119) rotate(0 420.6224529335108 -0.07538318179376802)"><path d="M0.55 -0.16 C218.69 -0.62, 436.49 -1.7, 840.32 -0.35 M0.36 -0.15 C334.97 1.15, 669.46 1.27, 840.89 -0.25" stroke="#000000" stroke-width="1" fill="none"></path></g></g><mask></mask><g stroke-linecap="round"><g stroke-opacity="0.1" fill-opacity="0.1" transform="translate(37.52656741773626 750.173259296248) rotate(0 420.3282651088964 -0.8259019365909808)"><path d="M-0.16 0.59 C212.04 -2.02, 422.21 -3.06, 840.72 0.79 M-0.15 0.1 C214.33 -3.3, 428.94 -3.21, 840.82 -0.07" stroke="#000000" stroke-width="1" fill="none"></path></g></g><mask></mask><g stroke-linecap="round"><g stroke-opacity="0.1" fill-opacity="0.1" transform="translate(37.86871816290477 809.0792609212085) rotate(0 420.98059641307407 0.2202167226630536)"><path d="M0.59 0.78 C287.44 0.37, 573.56 0.34, 841.86 -0.36 M0.1 -0.16 C219.4 1.25, 439.16 1.04, 841 -0.35" stroke="#000000" stroke-width="1" fill="none"></path></g></g><mask></mask><g stroke-linecap="round"><g stroke-opacity="0.1" fill-opacity="0.1" transform="translate(37.442065957914565 864.9488957800395) rotate(0 420.2796866239812 -0.7867027427034827)"><path d="M0.78 0.28 C309.64 -3.21, 619.55 -1.68, 840.71 -0.31 M-0.16 -0.27 C327.92 -1.06, 655.66 -0.95, 840.72 -0.28" stroke="#000000" stroke-width="1" fill="none"></path></g></g><mask></mask><g stroke-linecap="round"><g stroke-opacity="0.1" fill-opacity="0.1" transform="translate(37.27583091890392 923.854897405) rotate(0 420.2604478666392 -0.9687559079977746)"><path d="M0.28 -0.31 C234.46 -3.61, 471.2 -3.62, 840.76 0.72 M-0.27 -0.04 C219.89 1.08, 440.08 0.98, 840.79 -0.26" stroke="#000000" stroke-width="1" fill="none"></path></g></g><mask></mask><g stroke-linecap="round"><g stroke-opacity="0.1" fill-opacity="0.1" transform="translate(37.34687351955017 986.2515830153361) rotate(0 420.7406538052317 0.31703556257525634)"><path d="M-0.31 -0.75 C313.54 -0.4, 627.42 -1.49, 841.79 -0.31 M-0.04 -0.19 C273.95 2.21, 548.05 2, 840.81 -0.39" stroke="#000000" stroke-width="1" fill="none"></path></g></g><mask></mask><g stroke-linecap="round"><g stroke-opacity="0.1" fill-opacity="0.1" transform="translate(37.561550802905 1045.1575846402966) rotate(0 420.0072540072557 0.4066774931220607)"><path d="M-0.75 -0.35 C334.73 0.94, 667.58 2.02, 840.77 0.21 M-0.19 -0.25 C218.94 -0.04, 437.75 0.05, 840.68 -0.36" stroke="#000000" stroke-width="1" fill="none"></path></g></g><mask></mask><g stroke-linecap="round"><g stroke-opacity="0.1" fill-opacity="0.1" transform="translate(37.10338976418552 1104.5606183714308) rotate(0 420.4656059069391 0.9500402558564929)"><path d="M-0.35 0.79 C281.51 2.85, 564.46 2.85, 841.28 -0.32 M-0.25 -0.07 C194.95 1.29, 390.34 1.18, 840.71 0.25" stroke="#000000" stroke-width="1" fill="none"></path></g></g><mask></mask><g stroke-linecap="round"><g stroke-opacity="0.1" fill-opacity="0.1" transform="translate(83.41073151060209 587.0294082042028) rotate(0 -0.4967834934387838 280.9935160567984)"><path d="M0.79 -0.36 C-2.42 147.72, -2.42 294.21, -0.32 562.17 M-0.07 -0.35 C-1.33 163.35, -1.45 326.88, 0.25 562.35" stroke="#000000" stroke-width="1" fill="none"></path></g></g><mask></mask><g stroke-linecap="round"><g stroke-opacity="0.1" fill-opacity="0.1" transform="translate(137.193160039561 586.1129113957477) rotate(0 -0.8684174549467798 281.23774450887004)"><path d="M-0.36 -0.31 C-0.26 115.7, -0.77 231.69, -0.54 562.64 M-0.35 -0.28 C-1.68 142.14, -1.78 285.32, -0.37 562.79" stroke="#000000" stroke-width="1" fill="none"></path></g></g><mask></mask><g stroke-linecap="round"><g stroke-opacity="0.1" fill-opacity="0.1" transform="translate(192.3431848477876 586.9999754067694) rotate(0 0.4486122148859977 281.09851640164857)"><path d="M-0.31 0.72 C1.9 144.48, 1.89 288, -0.07 562.34 M-0.28 -0.26 C-0.8 132.91, -0.16 266.16, 0.07 562.46" stroke="#000000" stroke-width="1" fill="none"></path></g></g><mask></mask><g stroke-linecap="round"><g stroke-opacity="0.1" fill-opacity="0.1" transform="translate(246.12561337674651 586.3556255560552) rotate(0 -0.5560289977725006 281.3093907691539)"><path d="M0.72 -0.31 C-0.8 223.72, -1.55 448.01, -0.37 562.21 M-0.26 -0.39 C-2.35 158.85, -2.36 317.27, -0.26 563.01" stroke="#000000" stroke-width="1" fill="none"></path></g></g><mask></mask><g stroke-linecap="round"><g stroke-opacity="0.1" fill-opacity="0.1" transform="translate(298.75201438080603 586.6682308547397) rotate(0 -0.3910783299174909 281.22598461806797)"><path d="M-0.31 0.21 C-1.19 142.96, -0.95 286.63, -0.51 562.57 M-0.39 -0.36 C-1.32 118.62, -1.5 237.71, 0.3 562.81" stroke="#000000" stroke-width="1" fill="none"></path></g></g><mask></mask><g stroke-linecap="round"><g stroke-opacity="0.1" fill-opacity="0.1" transform="translate(352.53444290976495 586.8722203608786) rotate(0 -0.09935823552552847 281.2425318704918)"><path d="M0.21 -0.32 C1.48 146.9, 1.65 293.44, -0.15 562.01 M-0.36 0.25 C-1.84 129.5, -1.73 259.16, 0.1 562.8" stroke="#000000" stroke-width="1" fill="none"></path></g></g><mask></mask><g stroke-linecap="round"><g stroke-opacity="0.1" fill-opacity="0.1" transform="translate(407.68446771799336 585.9469021074665) rotate(0 -0.6140274234268759 281.0800873031842)"><path d="M-0.32 -0.54 C-0.94 219.04, -1.37 438.69, -0.71 562.15 M0.25 -0.37 C-2.15 131.66, -1.92 263.93, 0.09 562.7" stroke="#000000" stroke-width="1" fill="none"></path></g></g><mask></mask><g stroke-linecap="round"><g stroke-opacity="0.1" fill-opacity="0.1" transform="translate(461.4668962469523 586.6793393250746) rotate(0 -0.7594657126252287 281.3183787869291)"><path d="M-0.54 -0.07 C0.21 146.74, 0.44 293.77, -0.56 562.19 M-0.37 0.07 C-2.27 113.69, -1.92 226.86, -0.01 562.71" stroke="#000000" stroke-width="1" fill="none"></path></g></g><mask></mask><g stroke-linecap="round"><g stroke-opacity="0.1" fill-opacity="0.1" transform="translate(519.4472215698106 586.5779703065937) rotate(0 0.005026931835004689 281.08659064080575)"><path d="M-0.07 -0.37 C-1.4 183.31, -1.6 366.35, -0.52 561.93 M0.07 -0.26 C1.72 118.63, 1.51 237.05, 0 562.55" stroke="#000000" stroke-width="1" fill="none"></path></g></g><mask></mask><g stroke-linecap="round"><g stroke-opacity="0.1" fill-opacity="0.1" transform="translate(573.2296500987695 586.6363618832265) rotate(0 -0.8730315326112077 281.2409891234711)"><path d="M-0.37 -0.51 C-1.67 145.82, -2.09 292.53, -0.79 562 M-0.26 0.3 C-1.97 204.56, -2.08 408.93, -0.17 562.99" stroke="#000000" stroke-width="1" fill="none"></path></g></g><mask></mask><g stroke-linecap="round"><g stroke-opacity="0.1" fill-opacity="0.1" transform="translate(628.3796749069979 586.3672306176459) rotate(0 -0.1809366674431203 281.53799613229944)"><path d="M-0.51 -0.15 C-0.92 130.11, -0.73 260.55, -0.71 563.22 M0.3 0.1 C0.49 117.1, 0.4 234.06, 0.27 562.97" stroke="#000000" stroke-width="1" fill="none"></path></g></g><mask></mask><g stroke-linecap="round"><g stroke-opacity="0.1" fill-opacity="0.1" transform="translate(682.1621034359569 586.5691379182235) rotate(0 -0.37308987231045876 281.1752615617588)"><path d="M-0.15 -0.71 C-1.61 163.09, -1.84 326.52, 0.51 561.98 M0.1 0.09 C-1.45 178.89, -1.6 358.06, 0.25 563.06" stroke="#000000" stroke-width="1" fill="none"></path></g></g><mask></mask><g stroke-linecap="round"><g stroke-opacity="0.1" fill-opacity="0.1" transform="translate(734.7885044400164 586.9594608184134) rotate(0 -0.1453175273082934 281.14889717809865)"><path d="M-0.71 -0.56 C-1.95 141.75, -2.14 285.58, -0.73 562.86 M0.09 -0.01 C1.68 132.77, 1.95 266.12, 0.34 562.71" stroke="#000000" stroke-width="1" fill="none"></path></g></g><mask></mask><g stroke-linecap="round"><g stroke-opacity="0.1" fill-opacity="0.1" transform="translate(788.5709329689753 586.4937343113315) rotate(0 -0.14577445793824495 281.2468369709329)"><path d="M-0.56 -0.52 C-1.2 132.55, 0.1 265.79, 0.14 562.2 M-0.01 0 C0.37 211.07, 0.79 421.94, 0 563.02" stroke="#000000" stroke-width="1" fill="none"></path></g></g><mask></mask><g stroke-linecap="round"><g stroke-opacity="0.1" fill-opacity="0.1" transform="translate(843.7209577772019 586.8091624852468) rotate(0 -0.7595385279654465 281.26159952394664)"><path d="M-0.52 -0.79 C-2.71 159.1, -2.73 317.34, -0.51 563.31 M0 -0.17 C0.77 182.43, 0.84 364.36, 0.3 562.57" stroke="#000000" stroke-width="1" fill="none"></path></g></g><mask></mask></svg>