<svg version="1.1" xmlns="http://www.w3.org/2000/svg" viewBox="0 0 916.4874240921106 967.6418424992794" width="916.4874240921106" height="967.6418424992794">
  <!-- svg-source:excalidraw -->
  
  <defs>
    <style class="style-fonts">
      @font-face {
        font-family: "Virgil";
        src: url("https://excalidraw.com/Virgil.woff2");
      }
      @font-face {
        font-family: "Cascadia";
        src: url("https://excalidraw.com/Cascadia.woff2");
      }
    </style>
  </defs>
  <g transform="translate(10 10) rotate(0 38 12.5)"><text x="0" y="17" font-family="Virgil, Segoe UI Emoji" font-size="20px" fill="#000000" text-anchor="start" style="white-space: pre;" direction="ltr">Planning</text></g><g transform="translate(10 41.11106363932413) rotate(0 78.5 10)"><text x="0" y="15" font-family="Virgil, Segoe UI Emoji" font-size="16px" fill="#000000" text-anchor="start" style="white-space: pre;" direction="ltr">Acceptance Criteria</text></g><g transform="translate(10 80.75114476907447) rotate(0 120 10)"><text x="0" y="15" font-family="Virgil, Segoe UI Emoji" font-size="16px" fill="#000000" text-anchor="start" style="white-space: pre;" direction="ltr">Goal Accomplishment Condition:</text></g><g stroke-linecap="round"><g transform="translate(248.2887257330185 101.58443741230485) rotate(0 312.98902021012873 -0.19847440466310218)"><path d="M-0.31 0.32 C222.02 0.47, 445.24 0.06, 626.29 -0.05 M0.16 -0.22 C249.19 -0.99, 498.52 -0.81, 625.96 -0.36" stroke="#000000" stroke-width="1" fill="none"></path></g></g><mask></mask><g stroke-linecap="round"><g transform="translate(18 149.52068813275991) rotate(0 427.8681335972623 0.14083136151907638)"><path d="M0.32 -0.62 C240.39 1.29, 480.16 1.92, 855.95 0.79 M-0.22 -0.24 C302.08 -1.69, 604.44 -1.1, 855.64 0.37" stroke="#000000" stroke-width="1" fill="none"></path></g></g><mask></mask><g stroke-linecap="round"><g transform="translate(20.325360653610915 197.36046520546006) rotate(0 427.5044647318225 -0.3607013621522128)"><path d="M-0.82 0.26 C122.79 -1.17, 246.47 -0.94, 425.98 0.56 M-0.31 -0.14 C141.95 1.3, 285.11 0.74, 425.44 -0.51 M425.05 -0.77 C513.64 -1.23, 603.08 -0.84, 855.8 -0.62 M424.94 -0.29 C531.88 -2.23, 639.1 -1.39, 855.83 -0.11" stroke="#000000" stroke-width="1" fill="none"></path></g></g><mask></mask><g transform="translate(10 255.75457019122678) rotate(0 68.5 10)"><text x="0" y="15" font-family="Virgil, Segoe UI Emoji" font-size="16px" fill="#000000" text-anchor="start" style="white-space: pre;" direction="ltr">Outcome Metrics:</text></g><g transform="translate(13.983698363701478 553.6194893571451) rotate(0 17.5 6.5)"><text x="0" y="9" font-family="Virgil, Segoe UI Emoji" font-size="11.222958448752214px" fill="#000000" text-anchor="start" style="white-space: pre;" direction="ltr">Unmet</text></g><g transform="translate(320.1192161122108 553.6194694323899) rotate(0 31.5 7.5)"><text x="0" y="11" font-family="Virgil, Segoe UI Emoji" font-size="11.702423622218625px" fill="#000000" text-anchor="start" style="white-space: pre;" direction="ltr">Acceptable</text></g><g transform="translate(620.4914183511482 553.6194694323899) rotate(0 29 7.5)"><text x="0" y="11" font-family="Virgil, Segoe UI Emoji" font-size="12.337375772161435px" fill="#000000" text-anchor="start" style="white-space: pre;" direction="ltr">Exceeded</text></g><g stroke-linecap="round" transform="translate(12.242633321005997 551.6477846466555) rotate(0 143.38732804411518 84.22923236080669)"><path d="M-0.09 1.49 C85.07 -1.04, 169.13 -2.39, 285.89 -0.41 M-0.67 0.7 C61.17 -2.06, 124.06 -0.93, 286.85 -0.56 M287.52 -0.38 C285.56 47.47, 285.26 98.61, 286.75 167.32 M287.57 -0.33 C285.17 38.4, 284.54 77.79, 285.96 168.16 M286.06 169.63 C192.98 170.05, 103.41 169.06, -0.93 168.82 M286.02 167.86 C225.81 166.5, 166.52 166.18, 0.53 169.2 M0.02 167.15 C0 133.14, -1.58 98.91, 1.99 0.95 M0.85 168.09 C0.06 126.48, 0.44 83.01, -0.73 0.77" stroke="#000000" stroke-width="1" fill="none"></path></g><g stroke-linecap="round"><g transform="translate(32.79494441200586 591.0763112404534) rotate(0 122.77645187982563 -0.0031241614437931275)"><path d="M1.63 0.87 C67.48 0.77, 132.91 -0.85, 244.78 -1.39 M0.77 -0.8 C76.82 2.08, 155.65 1.89, 244.61 -0.1" stroke="#000000" stroke-width="1" fill="none"></path></g></g><mask></mask><g stroke-linecap="round"><g transform="translate(32.71176947645017 631.3514821251342) rotate(0 122.16624849374494 -0.6573047074673468)"><path d="M0.87 0.58 C92.02 -2.89, 181.76 -2.44, 243.84 0.27 M-0.8 -0.77 C89.16 -1.43, 177.84 -2.5, 245.13 0" stroke="#000000" stroke-width="1" fill="none"></path></g></g><mask></mask><g stroke-linecap="round"><g transform="translate(33.56806009029333 675.8763990712655) rotate(0 122.3629227868363 0.03307895312036635)"><path d="M0.58 0.65 C71.25 -2.04, 143.85 -2.46, 245.5 1.03 M-0.77 0.28 C52.11 2.03, 102.7 1.85, 245.23 0.41" stroke="#000000" stroke-width="1" fill="none"></path></g></g><mask></mask><g stroke-linecap="round" transform="translate(318.3781909190293 551.6477846466555) rotate(0 143.38732804411518 84.22923236080669)"><path d="M0.6 -0.82 C113.43 -1.17, 227.36 -0.51, 287.72 -1.35 M0.25 0.42 C112.86 1.47, 225.48 2.04, 287.15 0.28 M285.26 1.62 C285.73 46.2, 284.37 93.01, 285.15 170.05 M285.94 0.06 C285.61 44.64, 286.65 89.72, 287.25 167.98 M288.22 168.04 C177.64 169.63, 69.02 167.9, -1.41 166.95 M286.95 168.19 C224.14 169.36, 159.76 169.35, -0.36 168.47 M0.04 169.25 C0.63 129.86, -2.34 89.81, 0.94 1.7 M0.83 167.61 C-1.49 124.94, -1.45 79.39, 0.51 0.19" stroke="#000000" stroke-width="1" fill="none"></path></g><g stroke-linecap="round"><g transform="translate(338.93050201002916 591.0763112404534) rotate(0 122.32150689663979 0.11847337874201003)"><path d="M-0.9 -0.97 C86.13 -2.18, 173.41 0.23, 243.76 1.54 M0.46 0.08 C49.24 -0.78, 99.72 -0.27, 245.54 -0.16" stroke="#000000" stroke-width="1" fill="none"></path></g></g><mask></mask><g stroke-linecap="round"><g transform="translate(338.84732707447256 631.3514821251342) rotate(0 122.89895137073574 -0.6282763478182005)"><path d="M-0.97 -0.45 C80.78 1.37, 165.37 -0.38, 246.77 -1.59 M0.08 -0.62 C50.43 -1.12, 101.46 -0.81, 245.07 -0.5" stroke="#000000" stroke-width="1" fill="none"></path></g></g><mask></mask><g stroke-linecap="round"><g transform="translate(339.7036176883157 675.8763990712655) rotate(0 122.05663325178523 -0.030098689065425788)"><path d="M-0.45 -1.39 C83.5 2.22, 164.98 2.73, 243.64 -1.55 M-0.62 -0.1 C81.79 0.21, 163.88 -0.35, 244.73 -0.42" stroke="#000000" stroke-width="1" fill="none"></path></g></g><mask></mask><g stroke-linecap="round" transform="translate(618.7503134589406 551.6477846466555) rotate(0 143.38732804411518 84.22923236080669)"><path d="M-1.27 0.25 C71.4 -0.76, 142.31 -0.87, 285.36 0.51 M-0.09 0 C102.31 1.9, 203.72 1.16, 286.39 -0.57 M285.39 -1.66 C285.13 65.78, 286.09 127.97, 285.84 166.78 M287 -0.14 C285.88 51.04, 286.18 102.1, 287.15 169.41 M285.41 167.09 C207.27 167.47, 129.36 167.47, 0.11 168.81 M286.09 169.18 C210.47 170.59, 134.4 171.2, -0.06 168.47 M-0.98 168.92 C-0.74 112.93, -2.42 54.9, 0.64 1.66 M-0.7 167.97 C1.74 132.33, 0.51 95.58, 0.61 0.1" stroke="#000000" stroke-width="1" fill="none"></path></g><g stroke-linecap="round"><g transform="translate(639.3026245499404 591.0763112404534) rotate(0 122.89184578070535 0.9716418448213062)"><path d="M0.27 1.03 C57.67 3.24, 116.69 0.15, 245.78 0.91 M0 0.41 C76.25 0.09, 151.39 -0.18, 244.6 0.67" stroke="#000000" stroke-width="1" fill="none"></path></g></g><mask></mask><g stroke-linecap="round"><g transform="translate(639.2194496143838 631.3514821251342) rotate(0 123.27735284151663 -0.613576179315487)"><path d="M1.03 -1.47 C68.48 -1.93, 132.33 0.22, 246.14 0.16 M0.41 0.31 C55.09 -0.5, 110.07 -0.63, 245.9 -0.01" stroke="#000000" stroke-width="1" fill="none"></path></g></g><mask></mask><g stroke-linecap="round"><g transform="translate(640.075740228227 675.8763990712655) rotate(0 121.95787130276778 0.15303984704019058)"><path d="M-1.47 1.54 C51.34 -2.81, 106.42 -0.35, 245.39 -1.23 M0.31 -0.16 C70.1 -1.43, 140.57 -0.34, 245.22 -0.47" stroke="#000000" stroke-width="1" fill="none"></path></g></g><mask></mask><g transform="translate(14.946152908642944 791.1550824881538) rotate(0 17.5 6.5)"><text x="0" y="9" font-family="Virgil, Segoe UI Emoji" font-size="11.222958448752214px" fill="#000000" text-anchor="start" style="white-space: pre;" direction="ltr">Unmet</text></g><g transform="translate(321.08167065715406 791.1550625633968) rotate(0 31.5 7.5)"><text x="0" y="11" font-family="Virgil, Segoe UI Emoji" font-size="11.702423622218625px" fill="#000000" text-anchor="start" style="white-space: pre;" direction="ltr">Acceptable</text></g><g transform="translate(621.4538728960897 791.1550625633968) rotate(0 29 7.5)"><text x="0" y="11" font-family="Virgil, Segoe UI Emoji" font-size="12.337375772161435px" fill="#000000" text-anchor="start" style="white-space: pre;" direction="ltr">Exceeded</text></g><g stroke-linecap="round" transform="translate(13.205087865947462 789.183377777666) rotate(0 143.38732804411518 84.22923236080669)"><path d="M0.51 0.84 C112.93 0.91, 225.38 2.04, 287.53 0.57 M-0.57 0.61 C80.57 0.68, 160.64 0.48, 286.16 0.6 M285.1 0.12 C284.8 44.34, 286.87 89.58, 287.72 167.51 M287.73 -0.28 C284.6 63.8, 284.32 126.21, 285.84 167.46 M287.12 167.93 C224.67 170.11, 159.07 170.08, -0.72 168.47 M286.79 168.76 C220.19 168.66, 151.74 168.47, 0.35 169.1 M1.66 166.77 C-2.22 125.71, -2.15 78.9, 1.02 0.39 M0.1 169.33 C0.01 129.65, 0.52 91.93, 0.43 0.14" stroke="#000000" stroke-width="1" fill="none"></path></g><g stroke-linecap="round"><g transform="translate(33.75739895694733 828.6119043714616) rotate(0 123.27700339941259 0.1650499670361114)"><path d="M0.91 0.16 C48.63 -0.88, 99.72 0.14, 245.85 -0.31 M0.67 -0.01 C58.22 0.96, 116.7 0.86, 245.89 -0.27" stroke="#000000" stroke-width="1" fill="none"></path></g></g><mask></mask><g stroke-linecap="round"><g transform="translate(33.67422402139164 868.8870752561402) rotate(0 122.4731354604109 -0.7865091518274312)"><path d="M0.16 -1.23 C50.33 -1.12, 101.87 -0.5, 244.92 -1 M-0.01 -0.47 C60.47 -2.32, 121.4 -0.98, 244.96 -0.17" stroke="#000000" stroke-width="1" fill="none"></path></g></g><mask></mask><g stroke-linecap="round"><g transform="translate(34.530514635234795 913.4119922022733) rotate(0 121.91366987335914 -0.37394170040624886)"><path d="M-1.23 -0.2 C81.79 0.63, 164.19 -0.51, 244.23 -0.84 M-0.47 -0.57 C54.29 -0.65, 110.6 -0.25, 245.06 -0.38" stroke="#000000" stroke-width="1" fill="none"></path></g></g><mask></mask><g stroke-linecap="round" transform="translate(319.34064546397076 789.183377777666) rotate(0 143.38732804411518 84.22923236080669)"><path d="M-0.18 0 C102.69 2.19, 203.58 0.7, 286 -1.15 M-0.52 -0.63 C108.66 1.83, 218.29 1.08, 286.42 -0.63 M287.22 -0.29 C286.35 50.56, 286.95 101.18, 287.53 170.37 M285.87 -0.91 C284.8 44.88, 284.94 90.76, 286.85 168.69 M285.4 169.91 C210.11 170.6, 133.9 171.81, -0.11 168.49 M286.41 168.63 C189.71 170.13, 91.65 169.83, 0.24 169.08 M-1.39 167.49 C2.25 132.52, -0.21 95.35, 1.21 0.2 M0.13 168.75 C1.06 103.45, -0.28 39.04, 0.17 0.48" stroke="#000000" stroke-width="1" fill="none"></path></g><g stroke-linecap="round"><g transform="translate(339.8929565549706 828.6119043714598) rotate(0 121.92806996838897 0.3338482339672737)"><path d="M0 0.82 C76.56 -0.07, 150.89 -0.6, 243.98 1.34 M-0.68 -0.67 C73.96 1.13, 146.43 1.02, 244.54 0.05" stroke="#000000" stroke-width="1" fill="none"></path></g></g><mask></mask><g stroke-linecap="round"><g transform="translate(339.809781619414 868.8870752561402) rotate(0 122.94867185807641 0.13051783057494504)"><path d="M0.82 0.62 C54.93 -1, 109.65 -1.25, 246.57 -0.02 M-0.67 0.66 C59.35 1.51, 118.86 0.99, 245.28 -0.67" stroke="#000000" stroke-width="1" fill="none"></path></g></g><mask></mask><g stroke-linecap="round"><g transform="translate(340.6660722332572 913.4119922022714) rotate(0 122.91515366953138 0.05335956080966753)"><path d="M0.62 -0.31 C69.6 -1.85, 139.94 0.33, 245.21 -0.94 M0.66 -0.27 C56.41 1.26, 112.47 1.69, 244.56 -0.24" stroke="#000000" stroke-width="1" fill="none"></path></g></g><mask></mask><g stroke-linecap="round" transform="translate(619.7127680038802 789.183377777666) rotate(0 143.38732804411518 84.22923236080669)"><path d="M-0.29 -0.92 C85.31 -1.96, 173.38 -0.83, 285.92 -1.05 M-0.25 -0.16 C61.92 -2.36, 124.59 -2.34, 286.55 0.17 M288.32 -1.84 C288.32 50.02, 287.02 94.98, 287.25 166.66 M285.98 -1 C285.28 35.47, 284.85 71.17, 287.76 167.55 M285.79 169.68 C173.05 168.51, 60.16 169.98, 0.72 167.72 M286.49 168.8 C194.4 170.93, 100.91 169.75, 0.58 167.93 M-1.44 168 C0.35 126.28, 0.87 82.97, -0.8 0.27 M-0.91 169.33 C-0.56 113.57, -0.82 57.77, 0.47 -0.5" stroke="#000000" stroke-width="1" fill="none"></path></g><g stroke-linecap="round"><g transform="translate(640.2650790948801 828.6119043714598) rotate(0 122.20621939206262 -0.4989794761736448)"><path d="M-1 -0.84 C84.53 1.72, 171.55 -0.55, 244.09 -1.37 M-0.17 -0.38 C52.99 0.72, 106.69 0.43, 245.41 -0.12" stroke="#000000" stroke-width="1" fill="none"></path></g></g><mask></mask><g stroke-linecap="round"><g transform="translate(640.1819041593235 868.8870752561402) rotate(0 122.1339105703762 -0.4577486388077432)"><path d="M-0.84 -1.25 C84.1 1.21, 164.6 0.08, 243.86 -1.34 M-0.38 -0.69 C93.13 -0.25, 185.92 0.6, 245.11 0.39" stroke="#000000" stroke-width="1" fill="none"></path></g></g><mask></mask><g stroke-linecap="round"><g transform="translate(641.0381947731667 913.4119922022714) rotate(0 122.1840319973362 0.47214726630477344)"><path d="M-1.25 1.34 C68.89 0.1, 136.67 -0.33, 243.89 1.31 M-0.69 0.05 C64.74 0.7, 131 0.82, 245.62 -0.39" stroke="#000000" stroke-width="1" fill="none"></path></g></g><mask></mask><g transform="translate(11.741065042695482 315.48164389184694) rotate(0 17.5 6.5)"><text x="0" y="9" font-family="Virgil, Segoe UI Emoji" font-size="11.222958448752214px" fill="#000000" text-anchor="start" style="white-space: pre;" direction="ltr">Unmet</text></g><g transform="translate(317.8765827912057 315.48162396709176) rotate(0 31.5 7.5)"><text x="0" y="11" font-family="Virgil, Segoe UI Emoji" font-size="11.702423622218625px" fill="#000000" text-anchor="start" style="white-space: pre;" direction="ltr">Acceptable</text></g><g transform="translate(618.2487850301422 315.48162396709176) rotate(0 29 7.5)"><text x="0" y="11" font-family="Virgil, Segoe UI Emoji" font-size="12.337375772161435px" fill="#000000" text-anchor="start" style="white-space: pre;" direction="ltr">Exceeded</text></g><g stroke-linecap="round" transform="translate(10 313.50993918135737) rotate(0 143.38732804411518 84.22923236080669)"><path d="M-1.05 -1.25 C108.05 2.43, 218.04 0.92, 286.07 -1.26 M0.17 -0.11 C88.05 0.28, 175.97 -0.06, 287.06 0.72 M284.97 -1.82 C283.87 43.89, 284.14 89.77, 286.93 168.92 M285.86 0.96 C287.47 44.62, 287.3 90.03, 286.7 168.48 M286.04 168.81 C190.06 170.78, 91.37 170.17, 0.48 169.71 M286.25 168.09 C225.33 170.27, 162.56 169.95, 0.46 168.53 M0.27 169.03 C1.49 103.59, -1.19 39.9, 0.34 0.97 M-0.5 169.1 C0.3 119.1, -0.41 70.08, 0.54 -0.55" stroke="#000000" stroke-width="1" fill="none"></path></g><g stroke-linecap="round"><g transform="translate(30.552311091000774 352.93846577515524) rotate(0 122.3253458967103 -0.4411746080886587)"><path d="M-1.37 -1.34 C74.61 0.85, 146.26 0.63, 243.85 0.1 M-0.12 0.39 C53.25 0.19, 106.53 -0.14, 246.02 -0.23" stroke="#000000" stroke-width="1" fill="none"></path></g></g><mask></mask><g stroke-linecap="round"><g transform="translate(30.469136155444176 393.2136366598361) rotate(0 121.99374091564101 -0.013658610149832384)"><path d="M-1.34 1.31 C59.07 1.34, 118.47 0.29, 245.33 -1.34 M0.39 -0.39 C66.97 -0.47, 132.97 1.08, 245 -0.51" stroke="#000000" stroke-width="1" fill="none"></path></g></g><mask></mask><g stroke-linecap="round"><g transform="translate(31.325426769287333 437.73855360596735) rotate(0 122.16438606350522 0.12784085970702108)"><path d="M1.31 -0.55 C56.24 0.87, 111.78 1.74, 243.89 -0.49 M-0.39 0.64 C78.26 -0.64, 158.82 -1.18, 244.72 0.2" stroke="#000000" stroke-width="1" fill="none"></path></g></g><mask></mask><g stroke-linecap="round" transform="translate(316.1355575980233 313.50993918135737) rotate(0 143.38732804411518 84.22923236080669)"><path d="M-0.5 -0.31 C61.57 -2.99, 124.63 -2.95, 286.33 0.34 M0.58 -0.7 C82.18 1.75, 163.58 0.56, 286.95 -0.68 M285.18 -1.99 C285.36 35.7, 284.5 71.87, 288.74 166.63 M286.12 0.81 C285.89 66.76, 286.36 134.47, 287.25 167.97 M286.21 169.14 C194.64 171.55, 100.27 169.19, 1.16 167.41 M286.23 168.29 C215.1 168.95, 143.16 168.6, -0.3 168.56 M-1.81 170.2 C-0.39 114.06, -0.92 57.83, 0.93 -0.99 M-0.32 167.98 C-0.12 106.52, -0.56 45.58, 0.26 0.59" stroke="#000000" stroke-width="1" fill="none"></path></g><g stroke-linecap="round"><g transform="translate(336.68786868902316 352.93846577515524) rotate(0 122.41794953988813 -0.47213604846842827)"><path d="M-0.34 -0.77 C52.3 0.77, 106.02 0.19, 245.6 -0.24 M-0.76 0.31 C85.93 -1.79, 169.77 -1.37, 244.49 -0.75" stroke="#000000" stroke-width="1" fill="none"></path></g></g><mask></mask><g stroke-linecap="round"><g transform="translate(336.60469375346656 393.2136366598361) rotate(0 122.11136446586681 -0.1607192368737742)"><path d="M-0.77 -1.38 C93.18 -0.92, 185.68 0.78, 244.99 0.78 M0.31 0.79 C61.68 1.36, 124.01 1.12, 244.48 -0.77" stroke="#000000" stroke-width="1" fill="none"></path></g></g><mask></mask><g stroke-linecap="round"><g transform="translate(337.4609843673097 437.73855360596735) rotate(0 122.31351686301093 -0.3477819283041299)"><path d="M-1.38 0.1 C64.07 0.46, 131.18 0.7, 246.01 -0.78 M0.79 -0.23 C92.02 -0.56, 184.31 -1.51, 244.46 -0.82" stroke="#000000" stroke-width="1" fill="none"></path></g></g><mask></mask><g stroke-linecap="round" transform="translate(616.5076801379337 313.50993918135737) rotate(0 143.38732804411518 84.22923236080669)"><path d="M0.09 -1.23 C79.68 2.15, 160.02 2.53, 286.06 1.17 M-0.21 -0.47 C59.77 -2.75, 118.5 -2.77, 286.02 -0.6 M286.07 1.4 C288.87 31.95, 288.83 66.58, 286.79 167.15 M287.17 1 C287.13 63.67, 286.88 128.79, 287.62 168.09 M285.5 167.35 C189.04 169.2, 88.24 171.02, 0.29 167.37 M287.43 168.18 C207 168.77, 128.05 169, 0.1 167.77 M-0.19 168.57 C0.65 102.29, 1 38.88, -0.82 -0.64 M0.1 168.35 C-0.64 126.59, -1.45 82.79, -0.56 -0.8" stroke="#000000" stroke-width="1" fill="none"></path></g><g stroke-linecap="round"><g transform="translate(637.0599912289335 352.93846577515524) rotate(0 122.58220958833942 -0.6625939644477512)"><path d="M-1.34 -0.49 C62.5 -0.35, 125.05 -0.9, 246.5 -1.52 M-0.51 0.2 C82.03 -0.19, 164.79 -0.26, 244.57 -0.82" stroke="#000000" stroke-width="1" fill="none"></path></g></g><mask></mask><g stroke-linecap="round"><g transform="translate(636.9768162933769 393.2136366598361) rotate(0 121.96115239785865 0.697411511712744)"><path d="M-0.49 0.37 C52.8 2.42, 105.29 2.92, 243.71 0.62 M0.2 -0.74 C96.24 0.48, 193.15 0.59, 244.41 0.06" stroke="#000000" stroke-width="1" fill="none"></path></g></g><mask></mask><g stroke-linecap="round"><g transform="translate(637.8331069072201 437.73855360596735) rotate(0 122.55323299175882 0.24385654205048013)"><path d="M0.37 -0.24 C75.76 -0.19, 151.25 -0.92, 245.85 1.57 M-0.74 -0.75 C66.02 -1.3, 132.92 -1.3, 245.29 0.19" stroke="#000000" stroke-width="1" fill="none"></path></g></g><mask></mask><g stroke-linecap="round"><g transform="translate(56.56793248891245 306.34804570375036) rotate(0 422.5356674281078 0.8708932746403661)"><path d="M-0.12 0.38 C184.39 -0.13, 368.81 -0.45, 845.43 -0.22 M-0.36 -0.37 C200.89 2.72, 402.18 3.07, 844.76 -0.14" stroke="#000000" stroke-width="1" fill="none"></path></g></g><mask></mask><g transform="translate(12.514863030604829 283.06584871116956) rotate(0 21 10)"><text x="0" y="15" font-family="Virgil, Segoe UI Emoji" font-size="16px" fill="#000000" text-anchor="start" style="white-space: pre;" direction="ltr">m.b.t.</text></g><g stroke-linecap="round"><g transform="translate(57.59348073484307 542.0608178146417) rotate(0 422.2757998830768 0.6223880685449785)"><path d="M-0.38 0.62 C271.43 -1.29, 545.1 -1.82, 844.18 0.19 M-0.4 -0.32 C176.95 3.18, 354.79 3, 844.95 0.39" stroke="#000000" stroke-width="1" fill="none"></path></g></g><mask></mask><g transform="translate(13.54041127653727 518.7786208220609) rotate(0 21 10)"><text x="0" y="15" font-family="Virgil, Segoe UI Emoji" font-size="16px" fill="#000000" text-anchor="start" style="white-space: pre;" direction="ltr">m.b.t.</text></g><g stroke-linecap="round"><g transform="translate(59.1333868585516 781.5213905295309) rotate(0 421.7841486957985 0.0749339808660352)"><path d="M-0.74 0.3 C294.02 -2.83, 586.01 -2.42, 843.95 -0.73 M-0.4 0.03 C174.87 2.55, 349.84 3.09, 844.31 0.38" stroke="#000000" stroke-width="1" fill="none"></path></g></g><mask></mask><g transform="translate(15.080317400244894 758.2391935369483) rotate(0 21 10)"><text x="0" y="15" font-family="Virgil, Segoe UI Emoji" font-size="16px" fill="#000000" text-anchor="start" style="white-space: pre;" direction="ltr">m.b.t.</text></g></svg>