<svg version="1.1" xmlns="http://www.w3.org/2000/svg" viewBox="0 0 901.6089173153196 1049.6229238827955" width="901.6089173153196" height="1049.6229238827955">
  <!-- svg-source:excalidraw -->
  
  <defs>
    <style class="style-fonts">
      @font-face {
        font-family: "Virgil";
        src: url("https://excalidraw.com/Virgil.woff2");
      }
      @font-face {
        font-family: "Cascadia";
        src: url("https://excalidraw.com/Cascadia.woff2");
      }
    </style>
  </defs>
  <g transform="translate(10 10) rotate(0 38 12.5)"><text x="0" y="17" font-family="Virgil, Segoe UI Emoji" font-size="20px" fill="#000000" text-anchor="start" style="white-space: pre;" direction="ltr">Planning</text></g><g transform="translate(10 42.70816641713009) rotate(0 97 10)"><text x="0" y="15" font-family="Virgil, Segoe UI Emoji" font-size="16px" fill="#000000" text-anchor="start" style="white-space: pre;" direction="ltr">High-level Implementation</text></g><g transform="translate(10 73.59704174265153) rotate(0 52.5 10)"><text x="0" y="15" font-family="Virgil, Segoe UI Emoji" font-size="16px" fill="#000000" text-anchor="start" style="white-space: pre;" direction="ltr">User Stories:</text></g><g transform="translate(10 115.85078156261534) rotate(0 20 10)"><text x="0" y="15" font-family="Virgil, Segoe UI Emoji" font-size="16px" fill="#000000" text-anchor="start" style="white-space: pre;" direction="ltr">As a</text></g><g stroke-linecap="round"><g transform="translate(61.431782128429404 136.68407420584572) rotate(0 187.26343837371311 -0.3761445772543084)"><path d="M0.75 -0.93 C141.1 -0.52, 282.76 -0.24, 374.34 -1.16 M0.19 0.41 C77.07 0.02, 153.58 0.71, 373.28 -0.55" stroke="#000000" stroke-width="1" fill="none"></path></g></g><mask></mask><g stroke-linecap="round"><g transform="translate(96.0700669189664 182.49283258848072) rotate(0 389.5657818907015 -0.6337432550449194)"><path d="M-0.61 -0.11 C262.44 -1.77, 524.97 -1.57, 779.34 -0.75 M0.27 0.03 C297.1 -1.27, 594.89 -1.3, 779.74 0.1" stroke="#000000" stroke-width="1" fill="none"></path></g></g><mask></mask><g stroke-linecap="round"><g transform="translate(24.884861023074336 227.83525365379046) rotate(0 427.29066286474773 0.011402447043792563)"><path d="M-0.11 0.09 C280.77 2.87, 561.59 1.84, 853.84 0.65 M0.03 -0.24 C241.73 -2.07, 483.74 -2.65, 854.69 -0.27" stroke="#000000" stroke-width="1" fill="none"></path></g></g><mask></mask><g transform="translate(10 164.0546603810103) rotate(0 41 10)"><text x="0" y="15" font-family="Virgil, Segoe UI Emoji" font-size="16px" fill="#000000" text-anchor="start" style="white-space: pre;" direction="ltr">I want to</text></g><g stroke-linecap="round"><g transform="translate(93.91352959933829 274.88748739780885) rotate(0 391.72619546076237 0.4503377798919246)"><path d="M0.15 0.27 C175.84 -1.1, 350.22 0.31, 783.76 0.24 M-0.31 0.22 C287.24 1.53, 575.27 1.62, 783.77 0.2" stroke="#000000" stroke-width="1" fill="none"></path></g></g><mask></mask><g stroke-linecap="round"><g transform="translate(25.540180544976465 320.2299084631172) rotate(0 427.5252340836109 0.6274676362361333)"><path d="M0.27 0.35 C244 -1.38, 490.16 -0.76, 854.83 0.53 M0.22 -0.35 C261.91 2.79, 524.27 2.57, 854.79 0.02" stroke="#000000" stroke-width="1" fill="none"></path></g></g><mask></mask><g transform="translate(10 256.44931519033844) rotate(0 40 10)"><text x="0" y="15" font-family="Virgil, Segoe UI Emoji" font-size="16px" fill="#000000" text-anchor="start" style="white-space: pre;" direction="ltr">- So that</text></g><g stroke-linecap="round"><g transform="translate(95.11903841741696 370.21766778735946) rotate(0 391.59277319071776 0.4277919365856633)"><path d="M-0.76 -0.75 C250.26 -1.51, 499.46 -0.84, 783.95 -0.48 M-0.36 0.1 C173.21 2.58, 347.16 2.72, 783.8 -0.38" stroke="#000000" stroke-width="1" fill="none"></path></g></g><mask></mask><g stroke-linecap="round"><g transform="translate(26.745689363055135 419.51909652203176) rotate(0 426.72760798722817 0.9761971705027008)"><path d="M-0.75 0.65 C284.63 3.49, 570.07 3.3, 854.11 -0.63 M0.1 -0.27 C302.55 3.28, 605.37 2.99, 854.21 -0.08" stroke="#000000" stroke-width="1" fill="none"></path></g></g><mask></mask><g transform="translate(11.20550881807685 351.77949557988904) rotate(0 40 10)"><text x="0" y="15" font-family="Virgil, Segoe UI Emoji" font-size="16px" fill="#000000" text-anchor="start" style="white-space: pre;" direction="ltr">- So that</text></g><g stroke-linecap="round"><g transform="translate(97.31911886525268 473.90797007484025) rotate(0 392.095078792255 -0.3421544566851935)"><path d="M-0.13 0.24 C161.18 -2.49, 320.8 -3.17, 784.32 -0.69 M-0.12 0.2 C164.52 2.03, 328.62 2.05, 784.02 -0.11" stroke="#000000" stroke-width="1" fill="none"></path></g></g><mask></mask><g stroke-linecap="round"><g transform="translate(28.94576981089085 519.9102307858484) rotate(0 427.34149109941285 -0.030511447257595137)"><path d="M0.24 0.53 C176.16 0.09, 351.57 1.01, 853.9 -0.72 M0.2 0.02 C277.75 0.67, 555.61 1.19, 854.48 -0.34" stroke="#000000" stroke-width="1" fill="none"></path></g></g><mask></mask><g transform="translate(13.405589265914386 455.46979786736983) rotate(0 40 10)"><text x="0" y="15" font-family="Virgil, Segoe UI Emoji" font-size="16px" fill="#000000" text-anchor="start" style="white-space: pre;" direction="ltr">- So that</text></g><g transform="translate(17.544320918488836 633.3365098228928) rotate(0 20 10)"><text x="0" y="15" font-family="Virgil, Segoe UI Emoji" font-size="16px" fill="#000000" text-anchor="start" style="white-space: pre;" direction="ltr">As a</text></g><g stroke-linecap="round"><g transform="translate(68.97610304691824 654.1698024661232) rotate(0 187.4267817090967 -0.24614440014875072)"><path d="M0.53 0.08 C104.93 -2.94, 207.76 -2.53, 374.88 0.58 M-0.02 -0.16 C135.54 2.31, 270.85 1.52, 374.21 0.55" stroke="#000000" stroke-width="1" fill="none"></path></g></g><mask></mask><g stroke-linecap="round"><g transform="translate(103.61438783745524 699.9785608487578) rotate(0 390.1907096200697 -0.12466523536591012)"><path d="M0.05 0.52 C306.73 -1.68, 614.16 -0.65, 780.48 0.5 M-0.1 0.07 C192.18 0.11, 383.63 0.39, 780.46 -0.12" stroke="#000000" stroke-width="1" fill="none"></path></g></g><mask></mask><g stroke-linecap="round"><g transform="translate(32.42918194156317 745.3209819140679) rotate(0 427.5770871976049 0.16725967831121125)"><path d="M0.52 -0.43 C341.48 -0.37, 684.32 0.17, 855.09 -0.43 M0.07 0.22 C182.59 0.58, 365.47 1.23, 854.47 0.25" stroke="#000000" stroke-width="1" fill="none"></path></g></g><mask></mask><g transform="translate(17.544320918488836 681.5403886412873) rotate(0 41 10)"><text x="0" y="15" font-family="Virgil, Segoe UI Emoji" font-size="16px" fill="#000000" text-anchor="start" style="white-space: pre;" direction="ltr">I want to</text></g><g stroke-linecap="round"><g transform="translate(101.45785051782713 792.3732156580859) rotate(0 391.84894430154895 0.038554343794885426)"><path d="M-0.33 -0.16 C240.71 2.07, 480.52 1.25, 783.2 -0.03 M-0.01 -0.29 C215.46 -1.4, 430.28 -1.51, 784.03 -0.2" stroke="#000000" stroke-width="1" fill="none"></path></g></g><mask></mask><g stroke-linecap="round"><g transform="translate(33.0845014634653 837.7156367233943) rotate(0 427.13234260507244 0.5047880473136956)"><path d="M-0.16 0.7 C312.73 1.91, 624.26 0.72, 854.56 -0.2 M-0.29 0.26 C270.84 0, 541.22 0.26, 854.39 0.19" stroke="#000000" stroke-width="1" fill="none"></path></g></g><mask></mask><g transform="translate(17.544320918488836 773.9350434506155) rotate(0 40 10)"><text x="0" y="15" font-family="Virgil, Segoe UI Emoji" font-size="16px" fill="#000000" text-anchor="start" style="white-space: pre;" direction="ltr">- So that</text></g><g stroke-linecap="round"><g transform="translate(102.6633593359058 887.7033960476369) rotate(0 392.1912853315655 -0.8945164411754831)"><path d="M0.38 0.5 C202.41 -3.45, 405.64 -2.96, 784.02 0.45 M0.36 -0.12 C232.67 -1.94, 464.64 -1.88, 783.62 0.1" stroke="#000000" stroke-width="1" fill="none"></path></g></g><mask></mask><g stroke-linecap="round"><g transform="translate(34.29001028154397 937.0048247823092) rotate(0 427.4577321568162 -1.0932871428026374)"><path d="M0.5 -0.43 C238.31 -1.67, 477.79 -1.5, 855.04 -0.03 M-0.12 0.25 C194.02 -3.27, 387.95 -3.34, 854.69 0.13" stroke="#000000" stroke-width="1" fill="none"></path></g></g><mask></mask><g transform="translate(18.749829736565687 869.2652238401665) rotate(0 40 10)"><text x="0" y="15" font-family="Virgil, Segoe UI Emoji" font-size="16px" fill="#000000" text-anchor="start" style="white-space: pre;" direction="ltr">- So that</text></g><g stroke-linecap="round"><g transform="translate(104.86343978374151 991.3936983351173) rotate(0 391.75940340870943 -0.0805621682002311)"><path d="M-0.69 -0.03 C272.4 1.82, 545.66 1.66, 783.31 0.53 M0.14 -0.2 C305.83 -2.21, 611.37 -1.8, 784.21 0.01" stroke="#000000" stroke-width="1" fill="none"></path></g></g><mask></mask><g stroke-linecap="round"><g transform="translate(36.49009072937969 1037.3959590461259) rotate(0 427.459819231707 0.7650553488283549)"><path d="M-0.03 -0.2 C309.76 3.4, 619.23 2.37, 855.12 0.72 M-0.2 0.19 C229.7 -1.07, 460.08 -0.85, 854.6 0.01" stroke="#000000" stroke-width="1" fill="none"></path></g></g><mask></mask><g transform="translate(20.949910184403223 972.9555261276469) rotate(0 40 10)"><text x="0" y="15" font-family="Virgil, Segoe UI Emoji" font-size="16px" fill="#000000" text-anchor="start" style="white-space: pre;" direction="ltr">- So that</text></g></svg>