<svg version="1.1" xmlns="http://www.w3.org/2000/svg" viewBox="0 0 905.0369339688166 1368.2132849416348" width="905.0369339688166" height="1368.2132849416348">
  <!-- svg-source:excalidraw -->
  
  <defs>
    <style class="style-fonts">
      @font-face {
        font-family: "Virgil";
        src: url("https://excalidraw.com/Virgil.woff2");
      }
      @font-face {
        font-family: "Cascadia";
        src: url("https://excalidraw.com/Cascadia.woff2");
      }
    </style>
  </defs>
  <g transform="translate(10 10) rotate(0 47.95996856689453 9.599999999999909)"><text x="0" y="0" font-family="Virgil, Segoe UI Emoji" font-size="16px" fill="#000000" text-anchor="start" style="white-space: pre;" direction="ltr" dominant-baseline="text-before-edge">Action Item:</text></g><g stroke-linecap="round"><g transform="translate(109.81776274710046 30.83329264323038) rotate(0 386.7278919555695 0.6263387312669693)"><path d="M-0.54 -0.08 C290.44 2.44, 580.74 1.66, 773.91 0.05 M0.09 -0.29 C284.35 0.73, 567.8 1.14, 773.99 -0.07" stroke="#000000" stroke-width="1" fill="none"></path></g></g><mask></mask><g transform="translate(12.579840971011436 40.02209205874533) rotate(0 65.98397064208984 9.599999999999909)"><text x="0" y="0" font-family="Virgil, Segoe UI Emoji" font-size="16px" fill="#000000" text-anchor="start" style="white-space: pre;" direction="ltr" dominant-baseline="text-before-edge">Technical Detail:</text></g><g stroke-linecap="round" transform="translate(10 70.21386078511568) rotate(0 442.5184669844083 295.66637874492653)"><path d="M-0.08 0.61 C212.97 0.2, 426.16 0.42, 885.57 0.78 M0.38 -0.19 C239.07 2.78, 478.13 2.49, 884.7 0.32 M885.59 0.55 C885.64 197.14, 885.64 393.33, 884.68 590.87 M885.36 -0.31 C883.05 125.35, 883.09 250.97, 884.92 591.13 M884.32 591.36 C566.32 594.72, 247.11 594.72, 0.71 590.66 M885.36 591.1 C580.26 591.05, 274.9 590.96, 0.29 591.47 M-0.2 592.12 C0.19 359.01, 0.16 127.87, -0.55 -0.36 M0.31 591.72 C1.29 363.56, 1.01 135.56, 0.04 -0.14" stroke="#000000" stroke-width="1" fill="none"></path></g><g stroke-linecap="round"><g stroke-opacity="0.1" fill-opacity="0.1" transform="translate(10.449597501009293 124.38300702571723) rotate(0 420.82877996599495 -1.1692579180867142)"><path d="M0.61 -0.3 C195.75 -0.04, 391.89 0.88, 841.85 -0.24 M-0.19 -0.14 C271.9 -3.5, 543.31 -3.53, 841.39 0.13" stroke="#000000" stroke-width="1" fill="none"></path></g></g><mask></mask><g stroke-linecap="round"><g stroke-opacity="0.1" fill-opacity="0.1" transform="translate(10.299976526945784 183.28900865067408) rotate(0 420.451488272084 -0.14792959161923136)"><path d="M-0.3 -0.17 C243.31 -2.5, 487.91 -1.78, 840.83 0.18 M-0.14 0.22 C191.19 1.53, 382.65 1.92, 841.2 0.09" stroke="#000000" stroke-width="1" fill="none"></path></g></g><mask></mask><g stroke-linecap="round"><g stroke-opacity="0.1" fill-opacity="0.1" transform="translate(10.750125258415892 245.68569426101385) rotate(0 420.54464475790235 0.1904272865249368)"><path d="M-0.17 -0.38 C243.74 1.8, 488.16 1.02, 841.26 -0.58 M0.22 -0.3 C332.26 0.88, 664.97 1.34, 841.16 -0.33" stroke="#000000" stroke-width="1" fill="none"></path></g></g><mask></mask><g stroke-linecap="round"><g stroke-opacity="0.1" fill-opacity="0.1" transform="translate(11.092276003583493 304.5916958859707) rotate(0 420.1768928147685 -0.09480957285086333)"><path d="M-0.38 0.05 C316.77 1.48, 632.23 0.89, 840.49 0.76 M-0.3 -0.07 C212.05 -1.49, 424.9 -1.72, 840.74 0.28" stroke="#000000" stroke-width="1" fill="none"></path></g></g><mask></mask><g stroke-linecap="round"><g stroke-opacity="0.1" fill-opacity="0.1" transform="translate(10.665623798593288 360.4613307448053) rotate(0 420.8824733678084 0.7259663079862548)"><path d="M0.05 0.53 C221.56 1.38, 441.75 1.04, 841.83 -0.38 M-0.07 -0.33 C222.36 2.68, 444.18 2.22, 841.35 0.27" stroke="#000000" stroke-width="1" fill="none"></path></g></g><mask></mask><g stroke-linecap="round"><g stroke-opacity="0.1" fill-opacity="0.1" transform="translate(10.499388759582644 419.36733236976215) rotate(0 420.50591053085594 0.24374254867416312)"><path d="M0.53 0.78 C234.53 -0.04, 468.96 0.54, 840.69 -0.29 M-0.33 0.32 C297.75 0.66, 594.9 0.85, 841.35 0.04" stroke="#000000" stroke-width="1" fill="none"></path></g></g><mask></mask><g stroke-linecap="round"><g stroke-opacity="0.1" fill-opacity="0.1" transform="translate(10.570431360229804 481.7640179800983) rotate(0 420.7146566131916 0.048356698322550073)"><path d="M0.78 -0.24 C212.1 -2.82, 424.59 -2.63, 840.78 0.43 M0.32 0.13 C188.58 2.47, 377.25 3.08, 841.11 0.19" stroke="#000000" stroke-width="1" fill="none"></path></g></g><mask></mask><g stroke-linecap="round"><g stroke-opacity="0.1" fill-opacity="0.1" transform="translate(10.785108643583726 540.6700196050588) rotate(0 420.63257063457934 -1.096195945031468)"><path d="M-0.24 0.18 C257.28 -2.5, 515.35 -3.55, 841.5 -0.61 M0.13 0.09 C237.68 -2.43, 476.31 -2.67, 841.26 0.03" stroke="#000000" stroke-width="1" fill="none"></path></g></g><mask></mask><g stroke-linecap="round"><g stroke-opacity="0.1" fill-opacity="0.1" transform="translate(10.326947604864245 600.0730533361966) rotate(0 420.59735275300415 0.011406990973227948)"><path d="M0.18 -0.58 C309.22 0.62, 616.63 1.43, 840.46 -0.14 M0.09 -0.33 C182.49 -0.83, 364.46 -0.91, 841.1 -0.09" stroke="#000000" stroke-width="1" fill="none"></path></g></g><mask></mask><g stroke-linecap="round"><g stroke-opacity="0.1" fill-opacity="0.1" transform="translate(56.63428935128081 82.54184316896863) rotate(0 -0.024965435968852034 281.4070260532203)"><path d="M-0.58 0.76 C-1.05 223.07, -0.24 446.12, -0.14 562.05 M-0.33 0.28 C1.01 214.1, 0.93 428.16, -0.09 562.54" stroke="#000000" stroke-width="1" fill="none"></path></g></g><mask></mask><g stroke-linecap="round"><g stroke-opacity="0.1" fill-opacity="0.1" transform="translate(110.41671788023973 81.6253463605135) rotate(0 0.04705375358457786 281.4889212977141)"><path d="M0.76 -0.38 C0.23 152.53, -0.09 304.06, -0.67 563.36 M0.28 0.27 C0.55 187.43, 0.54 374.38, -0.18 562.48" stroke="#000000" stroke-width="1" fill="none"></path></g></g><mask></mask><g stroke-linecap="round"><g stroke-opacity="0.1" fill-opacity="0.1" transform="translate(165.56674268846723 82.51241037153522) rotate(0 -0.36986975905733743 281.3441287513824)"><path d="M-0.38 -0.29 C-1.2 181.16, -1.76 362.88, 0.64 562.98 M0.27 0.04 C-1.69 181.58, -1.97 362.92, -0.23 562.36" stroke="#000000" stroke-width="1" fill="none"></path></g></g><mask></mask><g stroke-linecap="round"><g stroke-opacity="0.1" fill-opacity="0.1" transform="translate(219.34917121742615 81.86806052082102) rotate(0 0.39046239229344337 281.5430344348774)"><path d="M-0.29 0.43 C1.53 127.98, 1.47 256.87, 0.26 562.9 M0.04 0.19 C1.59 121.75, 1.38 243.46, -0.35 562.32" stroke="#000000" stroke-width="1" fill="none"></path></g></g><mask></mask><g stroke-linecap="round"><g stroke-opacity="0.1" fill-opacity="0.1" transform="translate(271.97557222148566 82.18066581950552) rotate(0 0.2383967655886181 281.1617706032471)"><path d="M0.43 -0.61 C-1.2 221.67, -0.43 444.94, 0.18 562.05 M0.19 0.03 C1.44 207.5, 1.31 415, -0.39 562.93" stroke="#000000" stroke-width="1" fill="none"></path></g></g><mask></mask><g stroke-linecap="round"><g stroke-opacity="0.1" fill-opacity="0.1" transform="translate(325.7580007504446 82.38465532564442) rotate(0 -0.38340677459757444 281.5654051672668)"><path d="M-0.61 -0.14 C-1.48 142.74, -0.55 284.37, -0.67 563.27 M0.03 -0.09 C0.02 207.02, -0.15 414.11, 0.22 563.04" stroke="#000000" stroke-width="1" fill="none"></path></g></g><mask></mask><g stroke-linecap="round"><g stroke-opacity="0.1" fill-opacity="0.1" transform="translate(380.9080255586721 81.4593370722323) rotate(0 0.5679918334882359 281.29699592553106)"><path d="M-0.14 -0.67 C1.86 148.82, 1.39 296.45, 0.55 563.26 M-0.09 -0.18 C0.84 173.48, 0.68 347.87, 0.33 562.41" stroke="#000000" stroke-width="1" fill="none"></path></g></g><mask></mask><g stroke-linecap="round"><g stroke-opacity="0.1" fill-opacity="0.1" transform="translate(434.690454087631 82.1917742898404) rotate(0 -0.4520438688712147 281.4144372165201)"><path d="M-0.67 0.64 C-1.45 199.3, -2.38 398.79, 0.55 562.79 M-0.18 -0.23 C-0.17 195.24, 0.4 391.59, -0.31 563.06" stroke="#000000" stroke-width="1" fill="none"></path></g></g><mask></mask><g stroke-linecap="round"><g stroke-opacity="0.1" fill-opacity="0.1" transform="translate(492.67077941049024 82.09040527135949) rotate(0 0.06474390188122925 281.37217725832033)"><path d="M0.64 0.26 C-0.2 125.44, 0.17 252.76, 0.07 563.1 M-0.23 -0.35 C-0.92 173.56, -0.2 346.37, 0.34 562.6" stroke="#000000" stroke-width="1" fill="none"></path></g></g><mask></mask><g stroke-linecap="round"><g stroke-opacity="0.1" fill-opacity="0.1" transform="translate(546.4532079394492 82.14879684799234) rotate(0 -0.5133008288249812 281.3508536636832)"><path d="M0.26 0.18 C-2.54 159.8, -1.33 318.56, 0.38 562.78 M-0.35 -0.39 C-0.78 155.95, -1.3 311.58, -0.12 563.1" stroke="#000000" stroke-width="1" fill="none"></path></g></g><mask></mask><g stroke-linecap="round"><g stroke-opacity="0.1" fill-opacity="0.1" transform="translate(601.6032327476767 81.87966558241169) rotate(0 0.4391934029403046 281.039297953434)"><path d="M0.18 -0.67 C2.36 122.45, 1.88 244.2, 0.06 562.53 M-0.39 0.22 C-0.97 143.67, -0.95 287.84, 0.38 562.75" stroke="#000000" stroke-width="1" fill="none"></path></g></g><mask></mask><g stroke-linecap="round"><g stroke-opacity="0.1" fill-opacity="0.1" transform="translate(655.3856612766356 82.08157288298753) rotate(0 -0.40731216776839574 281.46322798132906)"><path d="M-0.67 0.55 C1.28 214.14, 1.12 428.2, -0.19 562.36 M0.22 0.33 C-2.29 136.8, -2.09 273.29, 0.03 562.6" stroke="#000000" stroke-width="1" fill="none"></path></g></g><mask></mask><g stroke-linecap="round"><g stroke-opacity="0.1" fill-opacity="0.1" transform="translate(708.0120622806949 82.4718957831792) rotate(0 -0.40312972789058676 281.102053523809)"><path d="M0.55 0.55 C0.58 187.62, 0.57 374.28, -0.35 562.25 M0.33 -0.31 C-1.87 119.28, -1.83 238.82, -0.12 562.51" stroke="#000000" stroke-width="1" fill="none"></path></g></g><mask></mask><g stroke-linecap="round"><g stroke-opacity="0.1" fill-opacity="0.1" transform="translate(761.7944908096538 82.00616927609735) rotate(0 -0.28450750135573344 281.5131745344029)"><path d="M0.55 0.07 C-1.5 181.61, -2.07 362.75, -0.46 562.01 M-0.31 0.34 C1.1 113.84, 1.25 226.8, -0.2 562.96" stroke="#000000" stroke-width="1" fill="none"></path></g></g><mask></mask><g stroke-linecap="round"><g stroke-opacity="0.1" fill-opacity="0.1" transform="translate(816.9445156178813 82.32159745001263) rotate(0 0.4312745281855541 281.4229851372538)"><path d="M0.07 0.38 C1.62 121.66, 1.2 243.23, -0.7 561.93 M0.34 -0.12 C2.22 199.28, 1.73 398.3, 0.24 562.96" stroke="#000000" stroke-width="1" fill="none"></path></g></g><mask></mask><g transform="translate(10 706.6666666666661) rotate(0 47.95996856689453 9.599999999999909)"><text x="0" y="0" font-family="Virgil, Segoe UI Emoji" font-size="16px" fill="#000000" text-anchor="start" style="white-space: pre;" direction="ltr" dominant-baseline="text-before-edge">Action Item:</text></g><g stroke-linecap="round"><g transform="translate(109.81776274710046 727.4999593098964) rotate(0 387.25317347333595 0.6320350591213355)"><path d="M-0.3 0.22 C241.68 0.56, 483.19 -0.05, 774.8 -0.65 M-0.11 -0.26 C256.09 2.42, 512.01 2.75, 774.07 0" stroke="#000000" stroke-width="1" fill="none"></path></g></g><mask></mask><g transform="translate(12.579840971011436 736.6887587254114) rotate(0 65.98397064208984 9.599999999999909)"><text x="0" y="0" font-family="Virgil, Segoe UI Emoji" font-size="16px" fill="#000000" text-anchor="start" style="white-space: pre;" direction="ltr" dominant-baseline="text-before-edge">Technical Detail:</text></g><g stroke-linecap="round" transform="translate(10 766.8805274517817) rotate(0 442.5184669844083 295.66637874492653)"><path d="M0.34 0.67 C269.31 -0.92, 538.09 -1.63, 885.28 -0.28 M-0.05 -0.16 C191.6 2.51, 383.5 2.34, 885.11 -0.3 M884.6 -0.07 C884.21 160.52, 884.52 320.09, 884.85 591.17 M884.86 -0.08 C883.98 212.76, 883.96 426.43, 884.83 591.24 M885.2 591.67 C621.82 594.85, 357.51 595.27, 0.05 591.05 M884.98 591.67 C613.01 588.52, 340.7 588.92, 0.07 591.4 M-0.15 592.08 C-0.27 457.51, -0.27 323.86, 0.61 0.25 M0.03 590.97 C1.99 424.38, 2.06 257.82, -0.1 0.38" stroke="#000000" stroke-width="1" fill="none"></path></g><g stroke-linecap="round"><g stroke-opacity="0.1" fill-opacity="0.1" transform="translate(10.429225583747211 821.0496736923833) rotate(0 420.3186543084514 -0.1964724325298448)"><path d="M0.67 0.51 C221.27 -0.91, 441.76 -1.17, 840.8 -0.67 M-0.16 -0.27 C229.28 0.16, 458.22 0.46, 840.77 -0.12" stroke="#000000" stroke-width="1" fill="none"></path></g></g><mask></mask><g stroke-linecap="round"><g stroke-opacity="0.1" fill-opacity="0.1" transform="translate(10.279604609683702 879.9556753173401) rotate(0 420.3437237718906 -0.7858255540791106)"><path d="M0.51 0.07 C276.32 -3.48, 551.87 -3.11, 840.41 -0.22 M-0.27 0.17 C196.46 1.34, 393.45 1.04, 840.95 -0.05" stroke="#000000" stroke-width="1" fill="none"></path></g></g><mask></mask><g stroke-linecap="round"><g stroke-opacity="0.1" fill-opacity="0.1" transform="translate(10.72975334115381 942.3523609276799) rotate(0 420.546419630183 -0.08688922354849637)"><path d="M0.07 0.51 C287.21 -1.91, 575.44 -2.82, 840.85 -0.53 M0.17 -0.23 C242.68 2.32, 485.07 2.13, 841.03 0.28" stroke="#000000" stroke-width="1" fill="none"></path></g></g><mask></mask><g stroke-linecap="round"><g stroke-opacity="0.1" fill-opacity="0.1" transform="translate(11.07190408632141 1001.2583625526368) rotate(0 420.5618470052091 -0.6161781347609576)"><path d="M0.51 -0.65 C323.38 -0.56, 645.61 -0.5, 840.54 -0.09 M-0.23 0 C218.86 -1.73, 437.46 -1.47, 841.35 -0.22" stroke="#000000" stroke-width="1" fill="none"></path></g></g><mask></mask><g stroke-linecap="round"><g stroke-opacity="0.1" fill-opacity="0.1" transform="translate(10.645251881331205 1057.1279974114714) rotate(0 420.1675497157331 -0.2740447285946175)"><path d="M-0.65 0.25 C305.96 -2.8, 612.24 -2.66, 840.98 -0.32 M0 0.07 C195.83 1.81, 392.23 2.2, 840.85 -0.04" stroke="#000000" stroke-width="1" fill="none"></path></g></g><mask></mask><g stroke-linecap="round"><g stroke-opacity="0.1" fill-opacity="0.1" transform="translate(10.479016842320561 1116.0339990364282) rotate(0 420.5536644676532 0.641316992027896)"><path d="M0.25 -0.28 C258.72 2.49, 518.25 2.62, 840.75 -0.53 M0.07 -0.3 C287.87 -0.02, 576.26 -0.19, 841.03 -0.28" stroke="#000000" stroke-width="1" fill="none"></path></g></g><mask></mask><g stroke-linecap="round"><g stroke-opacity="0.1" fill-opacity="0.1" transform="translate(10.550059442967722 1178.4306846467643) rotate(0 420.2449397595433 -0.42542859324612436)"><path d="M-0.28 -0.67 C305.35 -1.57, 611.04 -1.36, 840.54 0.34 M-0.3 -0.12 C204.2 -0.33, 408.28 -0.65, 840.79 0.23" stroke="#000000" stroke-width="1" fill="none"></path></g></g><mask></mask><g stroke-linecap="round"><g stroke-opacity="0.1" fill-opacity="0.1" transform="translate(10.764736726321644 1237.3366862717248) rotate(0 420.372768112814 0.6254290115984986)"><path d="M-0.67 -0.22 C183.95 1.07, 368.65 0.62, 841.41 -0.46 M-0.12 -0.05 C251.95 2.33, 503.31 2.28, 841.31 -0.12" stroke="#000000" stroke-width="1" fill="none"></path></g></g><mask></mask><g stroke-linecap="round"><g stroke-opacity="0.1" fill-opacity="0.1" transform="translate(10.306575687602162 1296.7397200028627) rotate(0 420.3642344392668 0.7661395997265572)"><path d="M-0.22 -0.53 C278.14 2.48, 555.93 3.14, 840.61 -0.01 M-0.05 0.28 C267.33 0.95, 534.83 1.22, 840.95 -0.01" stroke="#000000" stroke-width="1" fill="none"></path></g></g><mask></mask><g stroke-linecap="round"><g stroke-opacity="0.1" fill-opacity="0.1" transform="translate(56.61391743401873 779.2085098356347) rotate(0 -0.6118407178252028 281.31936381515106)"><path d="M-0.53 -0.09 C-2.19 148.92, -1.53 298.45, -0.01 562.86 M0.28 -0.22 C-0.7 125.81, -0.43 252.05, -0.01 562.62" stroke="#000000" stroke-width="1" fill="none"></path></g></g><mask></mask><g stroke-linecap="round"><g stroke-opacity="0.1" fill-opacity="0.1" transform="translate(110.39634596297765 778.2920130271796) rotate(0 -0.3451190243504243 281.1572825582698)"><path d="M-0.09 -0.32 C-1.16 122.33, -1.08 243.97, 0.14 562.11 M-0.22 -0.04 C-0.54 152.54, -0.38 304.6, -0.09 562.63" stroke="#000000" stroke-width="1" fill="none"></path></g></g><mask></mask><g stroke-linecap="round"><g stroke-opacity="0.1" fill-opacity="0.1" transform="translate(165.54637077120515 779.1790770382013) rotate(0 0.06344903223373421 281.2105370348322)"><path d="M-0.32 -0.53 C-1.15 152.83, -1.5 306.72, -0.61 562.48 M-0.04 -0.28 C1.81 162.16, 1.57 324.48, -0.08 562.96" stroke="#000000" stroke-width="1" fill="none"></path></g></g><mask></mask><g stroke-linecap="round"><g stroke-opacity="0.1" fill-opacity="0.1" transform="translate(219.32879930016406 778.5347271874871) rotate(0 -0.39309165315830796 281.42801168281585)"><path d="M-0.53 0.34 C-0.72 131.59, -0.11 262.58, -0.23 562.62 M-0.28 0.23 C-1.36 208.24, -1.34 416.42, 0.24 562.58" stroke="#000000" stroke-width="1" fill="none"></path></g></g><mask></mask><g stroke-linecap="round"><g stroke-opacity="0.1" fill-opacity="0.1" transform="translate(271.9552003042236 778.8473324861716) rotate(0 -0.2848128177676017 281.40886887423676)"><path d="M0.34 -0.46 C-0.9 162.51, -1.5 324.5, -0.09 563.27 M0.23 -0.12 C-0.22 137.7, -0.29 275.83, -0.14 562.42" stroke="#000000" stroke-width="1" fill="none"></path></g></g><mask></mask><g stroke-linecap="round"><g stroke-opacity="0.1" fill-opacity="0.1" transform="translate(325.7376288331825 779.0513219923105) rotate(0 -0.3062285318898148 281.2662601597608)"><path d="M-0.46 -0.01 C-1.36 145.77, -1.74 292.67, 0.56 562.27 M-0.12 -0.01 C-1.66 163.51, -1.33 327.05, -0.3 562.54" stroke="#000000" stroke-width="1" fill="none"></path></g></g><mask></mask><g stroke-linecap="round"><g stroke-opacity="0.1" fill-opacity="0.1" transform="translate(380.88765364141 778.1260037388984) rotate(0 0.22260292195528564 281.2729343539104)"><path d="M-0.01 0.14 C0.35 130.99, 0.86 263.01, -0.44 562.64 M-0.01 -0.09 C1.24 129.89, 1.18 259.01, -0.18 562.63" stroke="#000000" stroke-width="1" fill="none"></path></g></g><mask></mask><g stroke-linecap="round"><g stroke-opacity="0.1" fill-opacity="0.1" transform="translate(434.6700821703689 778.8584409565065) rotate(0 -0.3509141652299377 280.9335516305641)"><path d="M0.14 -0.61 C-1.52 192.58, -0.73 384.91, -0.07 562.16 M-0.09 -0.08 C-0.45 201.66, -0.99 403.42, -0.08 562.47" stroke="#000000" stroke-width="1" fill="none"></path></g></g><mask></mask><g stroke-linecap="round"><g stroke-opacity="0.1" fill-opacity="0.1" transform="translate(492.65040749322816 778.7570719380255) rotate(0 -0.34416516739872804 281.4742840182039)"><path d="M-0.61 -0.23 C-0.11 137.21, -0.46 273.23, -0.56 563.18 M-0.08 0.24 C-0.18 151.25, -0.21 303, -0.24 562.42" stroke="#000000" stroke-width="1" fill="none"></path></g></g><mask></mask><g stroke-linecap="round"><g stroke-opacity="0.1" fill-opacity="0.1" transform="translate(546.4328360221871 778.8154635146584) rotate(0 -0.017657909684885453 281.1649805994707)"><path d="M-0.23 -0.09 C0.97 167.94, 0.33 336.2, 0.47 562.47 M0.24 -0.14 C-0.83 167.69, -0.61 335.49, -0.29 562.46" stroke="#000000" stroke-width="1" fill="none"></path></g></g><mask></mask><g stroke-linecap="round"><g stroke-opacity="0.1" fill-opacity="0.1" transform="translate(601.5828608304146 778.5463322490778) rotate(0 -0.8964004231021363 281.3808195531369)"><path d="M-0.09 0.56 C-2.15 178.93, -2.27 358.48, -0.25 562.7 M-0.14 -0.3 C-0.63 155.47, -0.69 310.82, -0.25 563.06" stroke="#000000" stroke-width="1" fill="none"></path></g></g><mask></mask><g stroke-linecap="round"><g stroke-opacity="0.1" fill-opacity="0.1" transform="translate(655.3652893593735 778.7482395496536) rotate(0 0.2979107988338683 281.0424067255112)"><path d="M0.56 -0.44 C-0.73 125.53, -0.19 251.92, -0.01 562.53 M-0.3 -0.18 C1.27 157.2, 1.07 314.63, 0.34 562.5" stroke="#000000" stroke-width="1" fill="none"></path></g></g><mask></mask><g stroke-linecap="round"><g stroke-opacity="0.1" fill-opacity="0.1" transform="translate(707.9916903634328 779.1385624498453) rotate(0 -0.4967781412593695 281.2699055254461)"><path d="M-0.44 -0.07 C-0.82 152.77, -0.51 304.6, -0.19 562.55 M-0.18 -0.08 C-1.02 202.44, -1.03 405.81, -0.21 562.62" stroke="#000000" stroke-width="1" fill="none"></path></g></g><mask></mask><g stroke-linecap="round"><g stroke-opacity="0.1" fill-opacity="0.1" transform="translate(761.7741188923917 778.6728359427634) rotate(0 0.035750182810829756 281.3199110981077)"><path d="M-0.07 -0.56 C2.05 162.04, 1.56 324.39, -0.16 563.2 M-0.08 -0.24 C-1.95 149.03, -1.32 298.35, -0.09 562.71" stroke="#000000" stroke-width="1" fill="none"></path></g></g><mask></mask><g stroke-linecap="round"><g stroke-opacity="0.1" fill-opacity="0.1" transform="translate(816.9241437006192 778.9882641166787) rotate(0 -0.3304643776660896 281.28858706355095)"><path d="M-0.56 0.47 C-1.49 208.23, -1.43 416.33, 0.48 562.44 M-0.24 -0.29 C-1.24 127.59, -1.19 254.4, -0.01 562.87" stroke="#000000" stroke-width="1" fill="none"></path></g></g><mask></mask></svg>