<svg version="1.1" xmlns="http://www.w3.org/2000/svg" viewBox="0 0 911.5651837140357 1014.4323350935656" width="911.5651837140357" height="1014.4323350935656">
  <!-- svg-source:excalidraw -->
  
  <defs>
    <style class="style-fonts">
      @font-face {
        font-family: "Virgil";
        src: url("https://excalidraw.com/Virgil.woff2");
      }
      @font-face {
        font-family: "Cascadia";
        src: url("https://excalidraw.com/Cascadia.woff2");
      }
    </style>
  </defs>
  <g transform="translate(10 10) rotate(0 58 12.5)"><text x="0" y="17" font-family="Virgil, Segoe UI Emoji" font-size="20px" fill="#000000" text-anchor="start" style="white-space: pre;" direction="ltr">Preparation</text></g><g transform="translate(10 41.11106363932231) rotate(0 80 10)"><text x="0" y="15" font-family="Virgil, Segoe UI Emoji" font-size="16px" fill="#000000" text-anchor="start" style="white-space: pre;" direction="ltr">Sequence of Actions</text></g><g stroke-linecap="round"><g transform="translate(50.28054362004195 104.54972799973257) rotate(0 405.283257659423 0.5286492073960289)"><path d="M-0.42 -0.12 C280.21 2.93, 558.46 3.35, 810.98 0.47 M0.02 0.15 C306.83 -1.59, 614.17 -1.92, 810.3 -0.33" stroke="#000000" stroke-width="1" fill="none"></path></g></g><mask></mask><g stroke-linecap="round" transform="translate(10 74.82078962009837) rotate(0 13.84643026689696 13.426828666096753)"><path d="M-0.29 1.49 C8.1 -1.77, 16.83 2.01, 28.86 1.58 M0.38 -0.63 C9.9 -0.02, 18.52 0.14, 26.86 0.41 M29.5 -2 C27.92 4.98, 27.18 14.17, 27.35 28.22 M27.1 0 C27.45 8.64, 26.78 19.17, 28.37 27.69 M26.64 24.99 C16.8 27.32, 6.72 24.98, -1.8 26.57 M28.61 26.28 C18.36 27.51, 10.96 26.54, 0.22 26.28 M-0.27 26.92 C-1.07 18.26, -1.58 7.37, 0.87 0.54 M0.74 26.85 C-0.44 15.68, -0.63 6.76, 0.34 0.45" stroke="#000000" stroke-width="1" fill="none"></path></g><g stroke-linecap="round"><g transform="translate(50.2805436200415 160.33061298689063) rotate(0 405.3091382206332 -0.15682004760355994)"><path d="M0.6 0.17 C173.11 1.06, 348.5 0.94, 810.87 0.33 M-0.25 0.18 C287.35 -1.39, 574.77 -1.57, 810.4 -0.21" stroke="#000000" stroke-width="1" fill="none"></path></g></g><mask></mask><g stroke-linecap="round" transform="translate(10 130.60167460725643) rotate(0 13.84643026689696 13.426828666096753)"><path d="M0.41 -1.91 C8.31 1.65, 14.89 1.37, 28.51 1.09 M0.46 0 C8.08 0.33, 16.07 0.59, 27.16 0.46 M27.79 -1.65 C27.29 8.44, 27.59 16.45, 28.83 27.21 M27.4 -0.94 C26.57 10.19, 28.21 21.21, 28.62 26.11 M27.69 27.35 C20.52 24.75, 9.96 26.31, 0.32 25.31 M27.12 27.78 C22.8 26.64, 16.57 26.12, 0.94 26.47 M-1.17 28.83 C-1.65 21.01, 0.91 12.37, 1.64 -1.48 M-0.64 25.94 C-1.03 16.84, 0.14 6.42, 0.93 -0.52" stroke="#000000" stroke-width="1" fill="none"></path></g><g stroke-linecap="round"><g transform="translate(50.2805436200415 220.9344408803554) rotate(0 404.95600808476183 -0.38265889067042735)"><path d="M-0.76 0.58 C231.93 -0.2, 463 -0.34, 810.68 0.04 M0 -0.15 C274.1 -1.82, 548.24 -1.69, 810.42 -0.08" stroke="#000000" stroke-width="1" fill="none"></path></g></g><mask></mask><g stroke-linecap="round" transform="translate(10 191.2055025007212) rotate(0 13.84643026689696 13.426828666096753)"><path d="M1.45 1.86 C11.55 1.84, 21.58 1.36, 27.8 0.76 M-0.37 0.16 C5.72 0.41, 12.58 0.46, 27.5 0.9 M27.05 0.9 C27.36 6.75, 28.84 11.11, 29.28 25.66 M26.73 0.01 C28.29 8.89, 28.54 15.35, 27.57 26.33 M28.49 25.01 C20.17 26.63, 16.56 25.38, -1.9 28.68 M28.47 26.8 C21.2 26.54, 15.22 26.73, -0.2 26.72 M-1.69 28.52 C1.03 19.25, 1.8 9.08, 1.78 1.49 M-0.83 27.29 C0.52 19.25, 1.1 10.22, -0.46 0.52" stroke="#000000" stroke-width="1" fill="none"></path></g><g transform="translate(16.528249745219 310.6628595506663) rotate(0 91 10)"><text x="0" y="15" font-family="Virgil, Segoe UI Emoji" font-size="16px" fill="#000000" text-anchor="start" style="white-space: pre;" direction="ltr">Implementation Details</text></g><g transform="translate(16.528249745219 350.98094038165436) rotate(0 49 10)"><text x="0" y="15" font-family="Virgil, Segoe UI Emoji" font-size="16px" fill="#000000" text-anchor="start" style="white-space: pre;" direction="ltr">Action Item:</text></g><g stroke-linecap="round"><g transform="translate(116.346012492319 371.81423302488474) rotate(0 387.1754345061705 -0.08059991465688654)"><path d="M0.44 0.04 C277.83 -1.78, 555.41 -1.27, 774 0.13 M0.18 -0.08 C167.86 1.24, 335.02 1.31, 774.17 0.18" stroke="#000000" stroke-width="1" fill="none"></path></g></g><mask></mask><g transform="translate(19.108090716230436 382.9078088773422) rotate(0 67 10)"><text x="0" y="15" font-family="Virgil, Segoe UI Emoji" font-size="16px" fill="#000000" text-anchor="start" style="white-space: pre;" direction="ltr">Technical Detail:</text></g><g stroke-linecap="round" transform="translate(16.528249745219 413.09957760371253) rotate(0 442.51846698440835 295.66637874492653)"><path d="M0.31 -0.51 C302.2 -0.19, 603.38 -0.06, 884.37 0.33 M0.36 -0.4 C218.72 0.35, 437.26 0.86, 884.97 0.27 M884.56 0 C885.23 210.2, 884.69 421.92, 885.58 592.01 M884.83 -0.37 C883.28 232.5, 883.44 464.44, 884.68 591.28 M885.77 590.87 C604.75 588.7, 326.01 587.92, 0.17 590.88 M884.98 591.35 C536.17 591.01, 187.43 590.95, 0.17 591.44 M0.6 591.33 C1.24 364.59, 1.09 139.65, 0.28 0.36 M0.21 590.96 C0.88 358.57, 1.21 125.96, 0.34 0.25" stroke="#000000" stroke-width="1" fill="none"></path></g><g stroke-linecap="round"><g stroke-opacity="0.1" fill-opacity="0.1" transform="translate(35.465126445666556 467.2687238443141) rotate(0 420.44765179434984 -0.9776508083323279)"><path d="M-0.51 0.37 C298.29 -1.58, 596.71 -1.96, 841.4 -0.42 M-0.4 0.02 C290.48 -3.16, 581.81 -3.1, 841.35 0.23" stroke="#000000" stroke-width="1" fill="none"></path></g></g><mask></mask><g stroke-linecap="round"><g stroke-opacity="0.1" fill-opacity="0.1" transform="translate(35.315505471603046 526.1747254692727) rotate(0 420.6594953359869 1.1637351886165561)"><path d="M0.37 0 C256.44 2.26, 512.81 2.46, 840.65 0.37 M0.02 -0.33 C236.03 3.54, 472.25 3.63, 841.3 0.07" stroke="#000000" stroke-width="1" fill="none"></path></g></g><mask></mask><g stroke-linecap="round"><g stroke-opacity="0.1" fill-opacity="0.1" transform="translate(35.765654203073154 588.5714110796107) rotate(0 420.55379187649305 -0.6529846790272131)"><path d="M0 -0.3 C284.59 -2.21, 569.27 -1.96, 841.44 -0.15 M-0.33 -0.13 C328.39 -0.24, 656.7 0.06, 841.14 0.32" stroke="#000000" stroke-width="1" fill="none"></path></g></g><mask></mask><g stroke-linecap="round"><g stroke-opacity="0.1" fill-opacity="0.1" transform="translate(36.10780494824121 647.4774127045694) rotate(0 420.545266773535 0.987525403550535)"><path d="M-0.3 0.13 C198.38 0.34, 397.68 0.38, 840.92 0.72 M-0.13 0.18 C168.35 3.05, 337.06 2.85, 841.39 -0.24" stroke="#000000" stroke-width="1" fill="none"></path></g></g><mask></mask><g stroke-linecap="round"><g stroke-opacity="0.1" fill-opacity="0.1" transform="translate(35.681152743251005 703.3470475634022) rotate(0 420.9600110797044 0.10293849264098753)"><path d="M0.13 -0.67 C291.08 0.83, 581.87 1.1, 841.79 -0.8 M0.18 -0.07 C256.8 1.3, 513.13 1.39, 840.83 0" stroke="#000000" stroke-width="1" fill="none"></path></g></g><mask></mask><g stroke-linecap="round"><g stroke-opacity="0.1" fill-opacity="0.1" transform="translate(35.51491770424036 762.2530491883608) rotate(0 420.2007071457636 -0.42999996462003764)"><path d="M-0.67 0.33 C251.66 -0.16, 504.01 0.19, 840.27 0.04 M-0.07 0.27 C183.04 -1.44, 365.95 -1.75, 841.07 -0.12" stroke="#000000" stroke-width="1" fill="none"></path></g></g><mask></mask><g stroke-linecap="round"><g stroke-opacity="0.1" fill-opacity="0.1" transform="translate(35.58596030488707 824.649734798697) rotate(0 420.69286344832 0.48516623141904347)"><path d="M0.33 -0.42 C221.3 2.66, 442.6 2.02, 841.11 -0.66 M0.27 0.23 C225.46 0.9, 450.55 0.58, 840.95 -0.38" stroke="#000000" stroke-width="1" fill="none"></path></g></g><mask></mask><g stroke-linecap="round"><g stroke-opacity="0.1" fill-opacity="0.1" transform="translate(35.80063758824099 883.5557364236574) rotate(0 420.1357299230825 -0.7676870024588425)"><path d="M-0.42 0.37 C265.43 -0.67, 530.37 -1.35, 840.41 -0.26 M0.23 0.07 C290.42 -2.54, 580.2 -2.42, 840.69 -0.39" stroke="#000000" stroke-width="1" fill="none"></path></g></g><mask></mask><g stroke-linecap="round"><g stroke-opacity="0.1" fill-opacity="0.1" transform="translate(35.34247654952196 942.9587701547935) rotate(0 420.4439884561878 -0.3546091251246253)"><path d="M0.37 -0.15 C182.67 0.98, 363.93 1.12, 840.82 0.36 M0.07 0.32 C237.58 -1.91, 475.53 -2.29, 840.69 0" stroke="#000000" stroke-width="1" fill="none"></path></g></g><mask></mask><g stroke-linecap="round"><g stroke-opacity="0.1" fill-opacity="0.1" transform="translate(81.64981829593808 425.4275599875655) rotate(0 -0.27240260479379685 281.37280562892556)"><path d="M-0.15 0.72 C-1.99 192.07, -1.85 383.8, 0.36 562.58 M0.32 -0.24 C1.28 207.2, 0.9 414.25, 0 562.98" stroke="#000000" stroke-width="1" fill="none"></path></g></g><mask></mask><g stroke-linecap="round"><g stroke-opacity="0.1" fill-opacity="0.1" transform="translate(135.432246824897 424.51106317911035) rotate(0 0.3125802688247177 281.2318282198162)"><path d="M0.72 -0.8 C1.07 138.39, 0.77 278.46, -0.14 563.26 M-0.24 0 C0.29 200.37, 0.02 401.49, 0.27 563.05" stroke="#000000" stroke-width="1" fill="none"></path></g></g><mask></mask><g stroke-linecap="round"><g stroke-opacity="0.1" fill-opacity="0.1" transform="translate(190.5822716331245 425.3981271901321) rotate(0 0.20298605640539336 281.52520595062515)"><path d="M-0.8 0.04 C-1.09 194.31, -0.07 389, 0.55 563.17 M0 -0.12 C1.41 178.57, 1.79 358.19, 0.34 563.09" stroke="#000000" stroke-width="1" fill="none"></path></g></g><mask></mask><g stroke-linecap="round"><g stroke-opacity="0.1" fill-opacity="0.1" transform="translate(244.3647001620834 424.75377733941787) rotate(0 0.19434066361736768 281.0987450432035)"><path d="M0.04 -0.66 C1.77 158.36, 1.89 316.55, 0.45 562.86 M-0.12 -0.38 C-1.73 213.42, -1.07 427.17, 0.37 562.42" stroke="#000000" stroke-width="1" fill="none"></path></g></g><mask></mask><g stroke-linecap="round"><g stroke-opacity="0.1" fill-opacity="0.1" transform="translate(296.9911011661429 425.06638263810237) rotate(0 -0.6473830922637944 281.4816907988861)"><path d="M-0.66 -0.26 C-1.89 219.45, -1.7 439.63, 0.14 563.35 M-0.38 -0.39 C0 135.54, 0.33 270.91, -0.3 562.67" stroke="#000000" stroke-width="1" fill="none"></path></g></g><mask></mask><g stroke-linecap="round"><g stroke-opacity="0.1" fill-opacity="0.1" transform="translate(350.77352969510184 425.27037214424126) rotate(0 0.12425764001204698 281.2540879935027)"><path d="M-0.26 0.36 C-0.03 113.22, 0.57 225.5, 0.63 562.24 M-0.39 0 C-0.39 168.98, -0.29 337, -0.05 562.5" stroke="#000000" stroke-width="1" fill="none"></path></g></g><mask></mask><g stroke-linecap="round"><g stroke-opacity="0.1" fill-opacity="0.1" transform="translate(405.92355450332934 424.34505389082915) rotate(0 -0.6305557301783438 281.2870478924365)"><path d="M0.36 -0.14 C-1.31 172.08, -1.72 343.89, -0.48 562.71 M0 0.27 C-1.79 152.6, -2.42 304.41, -0.21 562.34" stroke="#000000" stroke-width="1" fill="none"></path></g></g><mask></mask><g stroke-linecap="round"><g stroke-opacity="0.1" fill-opacity="0.1" transform="translate(459.70598303228826 425.07749110843724) rotate(0 -0.6369818410496464 281.52477405965374)"><path d="M-0.14 0.55 C-0.27 122.46, -0.09 244.15, 0 562.48 M0.27 0.34 C-1.79 115.43, -2.22 231.24, -0.37 562.71" stroke="#000000" stroke-width="1" fill="none"></path></g></g><mask></mask><g stroke-linecap="round"><g stroke-opacity="0.1" fill-opacity="0.1" transform="translate(517.6863083551475 424.97612208995633) rotate(0 0.2784362128440989 281.5928003169597)"><path d="M0.55 0.45 C1.16 151.43, 0.53 301.59, -0.24 561.96 M0.34 0.37 C-0.27 114.6, -0.19 228.92, 0 562.81" stroke="#000000" stroke-width="1" fill="none"></path></g></g><mask></mask><g stroke-linecap="round"><g stroke-opacity="0.1" fill-opacity="0.1" transform="translate(571.4687368841064 425.0345136665892) rotate(0 0.14984554700572517 281.2882667511699)"><path d="M0.45 0.14 C0.25 193.61, -0.39 387.94, -0.75 561.94 M0.37 -0.3 C1.47 169.16, 1.14 338.75, 0.1 562.87" stroke="#000000" stroke-width="1" fill="none"></path></g></g><mask></mask><g stroke-linecap="round"><g stroke-opacity="0.1" fill-opacity="0.1" transform="translate(626.6187616923339 424.76538240100854) rotate(0 0.28172070966741103 281.3367673682051)"><path d="M0.14 0.63 C1.06 159.11, 1.3 317.47, -0.77 562.72 M-0.3 -0.05 C1.68 206.38, 1.89 413.61, 0.16 562.35" stroke="#000000" stroke-width="1" fill="none"></path></g></g><mask></mask><g stroke-linecap="round"><g stroke-opacity="0.1" fill-opacity="0.1" transform="translate(680.4011902212928 424.9672897015844) rotate(0 0.5237286583288778 281.38842924349)"><path d="M0.63 -0.48 C1.27 207.08, 0.52 413.86, 0.01 563.25 M-0.05 -0.21 C1.72 216.11, 2.19 432.37, -0.37 562.35" stroke="#000000" stroke-width="1" fill="none"></path></g></g><mask></mask><g stroke-linecap="round"><g stroke-opacity="0.1" fill-opacity="0.1" transform="translate(733.0275912253524 425.35761260177605) rotate(0 -0.3635187659120902 281.50702708829203)"><path d="M-0.48 0 C0.17 199.99, -0.36 401.5, 0.54 563.39 M-0.21 -0.37 C-1.67 221.25, -1.51 441.94, -0.36 562.66" stroke="#000000" stroke-width="1" fill="none"></path></g></g><mask></mask><g stroke-linecap="round"><g stroke-opacity="0.1" fill-opacity="0.1" transform="translate(786.8100197543113 424.8918860946942) rotate(0 0.4263586446065233 281.61134963743416)"><path d="M0 -0.24 C1.03 178.19, 1.79 358.46, 0.67 563.46 M-0.37 0 C-0.18 127.15, -0.64 253.62, -0.06 562.78" stroke="#000000" stroke-width="1" fill="none"></path></g></g><mask></mask><g stroke-linecap="round"><g stroke-opacity="0.1" fill-opacity="0.1" transform="translate(841.9600445625388 425.2073142686095) rotate(0 -0.2086646901111635 280.8254802571614)"><path d="M-0.24 -0.75 C-2.11 213.42, -0.8 427.5, 0.74 562.12 M0 0.1 C-1.02 161.58, -1.54 323.84, 0.06 562.41" stroke="#000000" stroke-width="1" fill="none"></path></g></g><mask></mask><g stroke-linecap="round"><g transform="translate(50.34349257775398 281.8188116234669) rotate(0 405.3355312096802 0.2244556368937083)"><path d="M0.57 0.47 C164.31 -2.2, 329.86 -0.69, 810 -0.44 M0.36 -0.1 C196.51 2.16, 393.48 2.03, 810.31 -0.16" stroke="#000000" stroke-width="1" fill="none"></path></g></g><mask></mask><g stroke-linecap="round" transform="translate(10.062948957712479 252.0898732438327) rotate(0 13.84643026689696 13.426828666096753)"><path d="M1.17 -0.62 C6.62 1.65, 18.88 -0.8, 26.59 -1.14 M-0.24 -0.6 C7.97 -0.31, 14.74 -0.08, 27.29 -0.84 M28.34 -0.6 C28.19 7.98, 26.14 19.02, 26.37 27.29 M28.62 -0.8 C27.53 5.24, 27.64 11.55, 26.73 27.42 M28.6 27.27 C21.94 25.26, 13.91 28.58, 0.6 25.19 M26.79 27.63 C16.41 26.96, 6.42 27, 0.99 26.5 M-0.86 25.57 C-1.35 19.02, -1.21 14.14, -0.8 -0.27 M0.71 27.85 C-0.36 21.79, 0.62 15.78, -1 0.79" stroke="#000000" stroke-width="1" fill="none"></path></g></svg>