<svg version="1.1" xmlns="http://www.w3.org/2000/svg" viewBox="0 0 905.0369339688167 1043.733207074346" width="905.0369339688167" height="1043.733207074346">
  <!-- svg-source:excalidraw -->
  
  <defs>
    <style class="style-fonts">
      @font-face {
        font-family: "Virgil";
        src: url("https://excalidraw.com/Virgil.woff2");
      }
      @font-face {
        font-family: "Cascadia";
        src: url("https://excalidraw.com/Cascadia.woff2");
      }
    </style>
  </defs>
  <g transform="translate(10 39.42972638235369) rotate(0 91 10)"><text x="0" y="15" font-family="Virgil, Segoe UI Emoji" font-size="16px" fill="#000000" text-anchor="start" style="white-space: pre;" direction="ltr">Implementation Details</text></g><g transform="translate(10 81.65258365028421) rotate(0 49 10)"><text x="0" y="15" font-family="Virgil, Segoe UI Emoji" font-size="16px" fill="#000000" text-anchor="start" style="white-space: pre;" direction="ltr">Action Item:</text></g><g stroke-linecap="round"><g transform="translate(109.81776274710046 102.4858762935146) rotate(0 386.9374206884281 0.5798298784961844)"><path d="M-0.65 -0.49 C164.37 2.49, 328.65 2.13, 774.53 -0.13 M-0.24 -0.15 C177.77 0.14, 356.28 0.51, 773.97 -0.33" stroke="#000000" stroke-width="1" fill="none"></path></g></g><mask></mask><g transform="translate(12.579840971011436 111.67467570902954) rotate(0 67 10)"><text x="0" y="15" font-family="Virgil, Segoe UI Emoji" font-size="16px" fill="#000000" text-anchor="start" style="white-space: pre;" direction="ltr">Technical Detail:</text></g><g stroke-linecap="round" transform="translate(10 141.8664444353999) rotate(0 442.51846698440835 295.66637874492653)"><path d="M0.18 -0.29 C186.34 1.54, 372.34 2.05, 884.48 -0.34 M-0.34 -0.15 C257.41 1.58, 514.36 1.02, 884.66 0.01 M884.68 0.52 C885.95 209.47, 885.28 418.76, 884.78 590.75 M884.65 -0.25 C885.35 122.98, 884.88 246.73, 884.78 590.95 M885.48 590.55 C595.15 593.54, 305.09 592.79, 0.78 591.17 M884.98 591.62 C632.27 594.7, 379.08 594.57, 0.03 591.32 M-0.42 591.33 C1.72 438.34, 1.59 284.84, -0.55 -0.64 M-0.37 591.16 C-1.62 437.93, -1.55 284.97, 0.04 -0.26" stroke="#000000" stroke-width="1" fill="none"></path></g><g stroke-linecap="round"><g stroke-opacity="0.1" fill-opacity="0.1" transform="translate(28.93687670044801 196.03559067600145) rotate(0 420.3954026061874 0.585312073975274)"><path d="M-0.29 0.29 C182.82 -0.54, 366.8 -1.33, 840.73 -0.07 M-0.15 0.07 C202.96 2.52, 405.14 2.46, 841.08 0.21" stroke="#000000" stroke-width="1" fill="none"></path></g></g><mask></mask><g stroke-linecap="round"><g stroke-opacity="0.1" fill-opacity="0.1" transform="translate(28.7872557263845 254.9415923009583) rotate(0 420.67883427756095 0.10361923836399001)"><path d="M0.29 -0.65 C200.59 1.1, 400.15 0.89, 841 -0.47 M0.07 0.23 C219.91 0.9, 440.09 1.25, 841.29 0.14" stroke="#000000" stroke-width="1" fill="none"></path></g></g><mask></mask><g stroke-linecap="round"><g stroke-opacity="0.1" fill-opacity="0.1" transform="translate(29.23740445785461 317.33827791129806) rotate(0 420.2799229997974 -0.4582359011847075)"><path d="M-0.65 0.23 C271.55 -1.76, 543.03 -1.28, 840.6 -0.31 M0.23 -0.32 C181.03 -0.97, 362.74 -0.38, 841.21 -0.36" stroke="#000000" stroke-width="1" fill="none"></path></g></g><mask></mask><g stroke-linecap="round"><g stroke-opacity="0.1" fill-opacity="0.1" transform="translate(29.57955520302221 376.2442795362549) rotate(0 420.22220637424107 0.1042877350910203)"><path d="M0.23 -0.13 C220.88 2.38, 442.81 2.25, 840.77 -0.67 M-0.32 -0.33 C221.04 -1.89, 443.04 -1.76, 840.71 -0.18" stroke="#000000" stroke-width="1" fill="none"></path></g></g><mask></mask><g stroke-linecap="round"><g stroke-opacity="0.1" fill-opacity="0.1" transform="translate(29.152902998032005 432.1139143950895) rotate(0 420.2789867589083 0.48793961014780507)"><path d="M-0.13 -0.56 C282.1 -1.06, 564.42 -1.29, 840.4 -0.29 M-0.33 -0.38 C267.25 2.93, 534.62 2.35, 840.89 0.26" stroke="#000000" stroke-width="1" fill="none"></path></g></g><mask></mask><g stroke-linecap="round"><g stroke-opacity="0.1" fill-opacity="0.1" transform="translate(28.98666795902136 491.01991602004637) rotate(0 420.38559143169044 0.8794288059170867)"><path d="M-0.56 -0.34 C184.13 0.09, 368.1 -0.12, 840.78 0.14 M-0.38 0.01 C300.03 2.95, 599.27 2.63, 841.33 0.05" stroke="#000000" stroke-width="1" fill="none"></path></g></g><mask></mask><g stroke-linecap="round"><g stroke-opacity="0.1" fill-opacity="0.1" transform="translate(29.05771055966852 553.4166016303825) rotate(0 420.4348784474489 1.1569682839540292)"><path d="M-0.34 -0.07 C276.44 2.05, 553.15 2.06, 841.21 0.45 M0.01 0.21 C184.67 2.8, 368.9 3.43, 841.13 0.16" stroke="#000000" stroke-width="1" fill="none"></path></g></g><mask></mask><g stroke-linecap="round"><g stroke-opacity="0.1" fill-opacity="0.1" transform="translate(29.272387843022443 612.322603255343) rotate(0 420.7249584717509 0.056117276657460025)"><path d="M-0.07 -0.47 C238.04 0.77, 476.4 1.59, 841.52 -0.64 M0.21 0.14 C181.63 -0.28, 364.25 -0.05, 841.24 -0.28" stroke="#000000" stroke-width="1" fill="none"></path></g></g><mask></mask><g stroke-linecap="round"><g stroke-opacity="0.1" fill-opacity="0.1" transform="translate(28.81422680430296 671.7256369864808) rotate(0 420.1597189981323 -0.4900659027603069)"><path d="M-0.47 -0.31 C192.79 0.02, 387.07 0.76, 840.43 -0.67 M0.14 -0.36 C172.97 -1.55, 346.36 -1.64, 840.79 0.24" stroke="#000000" stroke-width="1" fill="none"></path></g></g><mask></mask><g stroke-linecap="round"><g stroke-opacity="0.1" fill-opacity="0.1" transform="translate(75.12156855071953 154.19442681925284) rotate(0 0.1940676194393518 280.95509602297125)"><path d="M-0.31 -0.67 C-0.5 144.75, 0.24 288.57, -0.67 561.96 M-0.36 -0.18 C1.47 170.63, 1.37 340.86, 0.24 562.59" stroke="#000000" stroke-width="1" fill="none"></path></g></g><mask></mask><g stroke-linecap="round"><g stroke-opacity="0.1" fill-opacity="0.1" transform="translate(128.90399707967845 153.27793001079772) rotate(0 -0.4724401390225239 281.22268067114055)"><path d="M-0.67 -0.29 C-1.19 164.07, -1.97 326.57, -0.75 562.74 M-0.18 0.26 C0.82 199.18, 0.48 398.28, -0.13 562.42" stroke="#000000" stroke-width="1" fill="none"></path></g></g><mask></mask><g stroke-linecap="round"><g stroke-opacity="0.1" fill-opacity="0.1" transform="translate(184.05402188790595 154.16499402181944) rotate(0 -0.5697673699863799 281.59938576687136)"><path d="M-0.29 0.14 C-0.41 134.99, -1.53 270.53, 0.03 563.14 M0.26 0.05 C-1.89 187.63, -1.81 375.7, -0.29 562.35" stroke="#000000" stroke-width="1" fill="none"></path></g></g><mask></mask><g stroke-linecap="round"><g stroke-opacity="0.1" fill-opacity="0.1" transform="translate(237.83645041686486 153.52064417110523) rotate(0 -0.7240357680013858 281.57451943662045)"><path d="M0.14 0.45 C-2.54 146.68, -2.65 294.72, 0.43 562.99 M0.05 0.16 C-1.29 117.73, -1.14 234.69, -0.37 562.74" stroke="#000000" stroke-width="1" fill="none"></path></g></g><mask></mask><g stroke-linecap="round"><g stroke-opacity="0.1" fill-opacity="0.1" transform="translate(290.4628514209244 153.83324946978973) rotate(0 0.1666779429348253 280.8782500075181)"><path d="M0.45 -0.64 C-1.5 120.59, -0.8 243.11, 0.27 561.98 M0.16 -0.28 C1.7 143.42, 1.17 286.74, 0.03 562.4" stroke="#000000" stroke-width="1" fill="none"></path></g></g><mask></mask><g stroke-linecap="round"><g stroke-opacity="0.1" fill-opacity="0.1" transform="translate(344.2452799498833 154.03723897592863) rotate(0 -0.3353990099233499 280.84314838163573)"><path d="M-0.64 -0.67 C-0.35 148.16, 0.83 296.54, -0.73 562.36 M-0.28 0.24 C0.18 204.96, -0.06 410.54, -0.31 562.33" stroke="#000000" stroke-width="1" fill="none"></path></g></g><mask></mask><g stroke-linecap="round"><g stroke-opacity="0.1" fill-opacity="0.1" transform="translate(399.3953047581108 153.11192072251652) rotate(0 0.13729505612525372 281.2396967228501)"><path d="M-0.67 -0.75 C1.3 179.23, 1.54 356.86, -0.36 563.23 M0.24 -0.13 C0.63 176.18, 0.95 352.79, -0.38 562.46" stroke="#000000" stroke-width="1" fill="none"></path></g></g><mask></mask><g stroke-linecap="round"><g stroke-opacity="0.1" fill-opacity="0.1" transform="translate(453.1777332870697 153.8443579401246) rotate(0 -0.4923777080424827 281.2833830207587)"><path d="M-0.75 0.03 C-1.38 200.86, -2.54 400.82, 0.52 562.82 M-0.13 -0.29 C-1.95 191.79, -1.89 383.14, -0.25 562.86" stroke="#000000" stroke-width="1" fill="none"></path></g></g><mask></mask><g stroke-linecap="round"><g stroke-opacity="0.1" fill-opacity="0.1" transform="translate(511.15805860992896 153.7429889216437) rotate(0 -0.28757891704287886 281.3373799310998)"><path d="M0.03 0.43 C-1.61 122.73, -2.24 247.45, 0.11 563.04 M-0.29 -0.37 C1.38 128.98, 0.96 258.34, 0.14 562.38" stroke="#000000" stroke-width="1" fill="none"></path></g></g><mask></mask><g stroke-linecap="round"><g stroke-opacity="0.1" fill-opacity="0.1" transform="translate(564.9404871388879 153.80138049827656) rotate(0 -0.5837352591084937 281.2078147381544)"><path d="M0.43 0.27 C-2.85 121.4, -1.6 243.64, 0.33 562.15 M-0.37 0.03 C-1.04 202.13, -0.98 405.18, -0.34 562.39" stroke="#000000" stroke-width="1" fill="none"></path></g></g><mask></mask><g stroke-linecap="round"><g stroke-opacity="0.1" fill-opacity="0.1" transform="translate(620.0905119471154 153.5322492326959) rotate(0 -0.5441596882783699 281.23193271718947)"><path d="M0.27 -0.73 C-0.29 116.37, 0.18 232.02, -0.56 563.19 M0.03 -0.31 C-2.03 150.38, -1.5 300.93, -0.33 562.81" stroke="#000000" stroke-width="1" fill="none"></path></g></g><mask></mask><g stroke-linecap="round"><g stroke-opacity="0.1" fill-opacity="0.1" transform="translate(673.8729404760743 153.73415653327174) rotate(0 -0.2871517506628294 281.03722349107284)"><path d="M-0.73 -0.36 C1.73 170.68, 1.53 340.58, 0.48 562.46 M-0.31 -0.38 C-2.31 127.91, -2.4 255.21, 0.1 562.46" stroke="#000000" stroke-width="1" fill="none"></path></g></g><mask></mask><g stroke-linecap="round"><g stroke-opacity="0.1" fill-opacity="0.1" transform="translate(726.4993414801336 154.12447943346342) rotate(0 -0.02078870988066228 281.0393043614922)"><path d="M-0.36 0.52 C0.87 199.35, 0.2 398.52, -0.26 562.13 M-0.38 -0.25 C0.31 117.01, -0.16 234.79, -0.26 562.33" stroke="#000000" stroke-width="1" fill="none"></path></g></g><mask></mask><g stroke-linecap="round"><g stroke-opacity="0.1" fill-opacity="0.1" transform="translate(780.2817700090925 153.65875292638157) rotate(0 -0.4876484457861894 281.4679038217291)"><path d="M0.52 0.11 C-1.73 187.35, -1.57 375.57, -0.58 561.98 M-0.25 0.14 C-2.1 172.58, -1.66 345.57, -0.38 562.83" stroke="#000000" stroke-width="1" fill="none"></path></g></g><mask></mask><g stroke-linecap="round"><g stroke-opacity="0.1" fill-opacity="0.1" transform="translate(835.43179481732 153.97418110029685) rotate(0 -0.8334435606570274 281.2781273819505)"><path d="M0.11 0.33 C-1.57 117.97, -1.27 234.4, -0.73 562.77 M0.14 -0.34 C-2.49 124.86, -2.42 249.15, 0.11 562.89" stroke="#000000" stroke-width="1" fill="none"></path></g></g><mask></mask><g transform="translate(13.75785439752417 759.4359988738106) rotate(0 35 10)"><text x="0" y="15" font-family="Virgil, Segoe UI Emoji" font-size="16px" fill="#000000" text-anchor="start" style="white-space: pre;" direction="ltr">Summary:</text></g><g stroke-linecap="round"><g transform="translate(87.11972412088744 781.1581668425606) rotate(0 397.9762141929716 0.38082984936772846)"><path d="M-0.56 0.48 C290.19 -1.88, 580.16 -1.24, 795.65 -0.77 M-0.33 0.1 C188.38 2.3, 377.38 2.86, 796.51 0.22" stroke="#000000" stroke-width="1" fill="none"></path></g></g><mask></mask><g stroke-linecap="round"><g transform="translate(26.509587007906703 831.0907835383396) rotate(0 428.15837411619725 0.8247039306033912)"><path d="M0.48 -0.26 C267.98 1.67, 537.2 1.78, 855.23 -0.5 M0.1 -0.26 C287.27 2.92, 575.49 3.04, 856.22 -0.39" stroke="#000000" stroke-width="1" fill="none"></path></g></g><mask></mask><g stroke-linecap="round"><g transform="translate(28.834947661517617 880.7180280230805) rotate(0 427.67522899378093 -0.7767498920529761)"><path d="M-0.26 -0.58 C290.98 -1.99, 582.79 -2.82, 855.5 0.29 M-0.26 -0.38 C184.88 -0.66, 369.78 -0.62, 855.61 0.14" stroke="#000000" stroke-width="1" fill="none"></path></g></g><mask></mask><g transform="translate(15.430664872924353 911.2710676593997) rotate(0 79 10)"><text x="0" y="15" font-family="Virgil, Segoe UI Emoji" font-size="16px" fill="#000000" text-anchor="start" style="white-space: pre;" direction="ltr">Required Resources:</text></g><g stroke-linecap="round"><g transform="translate(177.75012015734137 932.9932356281497) rotate(0 353.32653164146006 0.7801350697154703)"><path d="M-0.73 0.06 C253.93 1.29, 508.62 2.35, 706.65 -0.66 M0.11 0.18 C229.68 2.93, 458.5 2.85, 707.38 0.2" stroke="#000000" stroke-width="1" fill="none"></path></g></g><mask></mask><g stroke-linecap="round"><g transform="translate(28.182397483306886 985.2895400218385) rotate(0 428.12904495429245 0.5057996062869279)"><path d="M0.06 -0.63 C228.37 2.63, 458.57 2.46, 855.34 0.2 M0.18 0.24 C202.45 -1.35, 404.59 -0.89, 856.2 -0.32" stroke="#000000" stroke-width="1" fill="none"></path></g></g><mask></mask><g stroke-linecap="round"><g transform="translate(30.5077581369178 1033.3409566404089) rotate(0 427.7844204612077 -0.27541936790612453)"><path d="M-0.63 -0.77 C193.85 0.04, 388.05 -0.91, 856.2 -0.51 M0.24 0.22 C174.38 -1.39, 349.6 -1.33, 855.68 0.39" stroke="#000000" stroke-width="1" fill="none"></path></g></g><mask></mask><g transform="translate(10 10) rotate(0 58 12.5)"><text x="0" y="17" font-family="Virgil, Segoe UI Emoji" font-size="20px" fill="#000000" text-anchor="start" style="white-space: pre;" direction="ltr">Preparation</text></g></svg>