<svg version="1.1" xmlns="http://www.w3.org/2000/svg" viewBox="0 0 676 1011.3479200117291" width="676" height="1011.3479200117291">
  <!-- svg-source:excalidraw -->
  
  <defs>
    <style class="style-fonts">
      @font-face {
        font-family: "Virgil";
        src: url("https://excalidraw.com/Virgil.woff2");
      }
      @font-face {
        font-family: "Cascadia";
        src: url("https://excalidraw.com/Cascadia.woff2");
      }
    </style>
  </defs>
  <g transform="translate(10 10) rotate(0 35.879966735839844 12)"><text x="0" y="0" font-family="Virgil, Segoe UI Emoji" font-size="20px" fill="#000000" text-anchor="start" style="white-space: pre;" direction="ltr" dominant-baseline="text-before-edge">Reflect</text></g><g transform="translate(10 41.83332824707031) rotate(0 31.447982788085938 9.599999999999994)"><text x="0" y="0" font-family="Virgil, Segoe UI Emoji" font-size="16px" fill="#000000" text-anchor="start" style="white-space: pre;" direction="ltr" dominant-baseline="text-before-edge">RoI Log</text></g><g transform="translate(11.226676940917969 210.2) rotate(0 80.62393951416016 9.599999999999994)"><text x="0" y="0" font-family="Virgil, Segoe UI Emoji" font-size="16px" fill="#000000" text-anchor="start" style="white-space: pre;" direction="ltr" dominant-baseline="text-before-edge">Investments (Input):</text></g><g transform="translate(432.4080810546875 243.53334350585936) rotate(0 19.55998992919922 9.599999999999994)"><text x="0" y="0" font-family="Virgil, Segoe UI Emoji" font-size="16px" fill="#000000" text-anchor="start" style="white-space: pre;" direction="ltr" dominant-baseline="text-before-edge">Time:</text></g><g stroke-linecap="round"><g transform="translate(477.89318084716797 264.0135200062483) rotate(0 90.49587390106171 0.6101628364995122)"><path d="M1.18 1.9 C56.95 0.32, 114.24 1.61, 180.5 1.28 M0.49 0.43 C51.83 1.54, 102.03 1.84, 179.99 -0.68" stroke="#000000" stroke-width="1" fill="none"></path></g></g><mask></mask><g transform="translate(10 286.3999542236328) rotate(0 29.111968994140625 9.599999999999994)"><text x="0" y="0" font-family="Virgil, Segoe UI Emoji" font-size="16px" fill="#000000" text-anchor="start" style="white-space: pre;" direction="ltr" dominant-baseline="text-before-edge">Assets:</text></g><g stroke-linecap="round"><g transform="translate(72.55992889404297 304.9025706468801) rotate(0 163.21338160355765 -0.45212631571686757)"><path d="M-0.58 -0.59 C107.34 1.58, 216.38 0.08, 326.31 -1.33 M0.42 0.59 C118.01 -1.84, 235.95 -2.39, 327.01 0.29" stroke="#000000" stroke-width="1" fill="none"></path></g></g><mask></mask><g stroke-linecap="round"><g transform="translate(11.226615905761719 339.4313043129637) rotate(0 193.44416618779383 -0.07035146204046328)"><path d="M-0.25 -0.83 C95.61 0.44, 193.54 1.62, 387.13 0.69 M-0.05 0.07 C119.16 -1.63, 237.97 -1.66, 386.34 0.51" stroke="#000000" stroke-width="1" fill="none"></path></g></g><mask></mask><g stroke-linecap="round"><g transform="translate(11.479217618468681 377.69049004892224) rotate(0 193.1323593544522 -0.1383459666473641)"><path d="M-0.98 -0.62 C89.41 0.68, 178.67 0.37, 387.25 -0.46 M0.04 -0.16 C153.77 -0.44, 307.27 -0.35, 386.74 0.35" stroke="#000000" stroke-width="1" fill="none"></path></g></g><mask></mask><g transform="translate(434.89332580566406 285.06664123535154) rotate(0 20.999977111816406 9.599999999999994)"><text x="0" y="0" font-family="Virgil, Segoe UI Emoji" font-size="16px" fill="#000000" text-anchor="start" style="white-space: pre;" direction="ltr" dominant-baseline="text-before-edge">Skills:</text></g><g stroke-linecap="round"><g transform="translate(479.22655487060547 306.2216952151635) rotate(0 90.46260118763894 -0.8900444815125184)"><path d="M0.32 -0.91 C69.35 -3.19, 136.59 -2.74, 181.3 -0.43 M-0.37 0.63 C39.25 -1.48, 77.14 -0.86, 181.03 -0.74" stroke="#000000" stroke-width="1" fill="none"></path></g></g><mask></mask><g stroke-linecap="round"><g transform="translate(437.8931808471681 341.92700412991064) rotate(0 112.07015234843482 0.5992038356863532)"><path d="M-1.3 -0.77 C69.95 2.82, 137.67 2.51, 224.23 0.44 M-0.26 -0.04 C49.12 -0.94, 96.78 -0.95, 225.44 -0.35" stroke="#000000" stroke-width="1" fill="none"></path></g></g><mask></mask><g stroke-linecap="round"><g transform="translate(440.55986785888683 377.5195333717286) rotate(0 111.01941537436937 -0.3149306998249699)"><path d="M-0.78 0.75 C58.89 0.72, 116.02 0.9, 222.82 -1.44 M-0.04 0.39 C85.75 -0.1, 171.08 1.24, 222.01 0.66" stroke="#000000" stroke-width="1" fill="none"></path></g></g><mask></mask><g transform="translate(10.235395217314363 242.8108612693057) rotate(0 30.079971313476562 9.599999999999994)"><text x="0" y="0" font-family="Virgil, Segoe UI Emoji" font-size="16px" fill="#000000" text-anchor="start" style="white-space: pre;" direction="ltr" dominant-baseline="text-before-edge">Capital:</text></g><g stroke-linecap="round"><g transform="translate(69.179503705662 263.2910377696946) rotate(0 165.86166771873735 0.44478320265238835)"><path d="M1.2 1.24 C78.09 1.65, 154.19 2.71, 331 -0.82 M0.19 -0.23 C86.25 -0.51, 171.85 0.1, 331.53 -0.41" stroke="#000000" stroke-width="1" fill="none"></path></g></g><mask></mask><g transform="translate(12.307787629105746 402.7638881423562) rotate(0 66.11995697021484 9.600000000000023)"><text x="0" y="0" font-family="Virgil, Segoe UI Emoji" font-size="16px" fill="#000000" text-anchor="start" style="white-space: pre;" direction="ltr" dominant-baseline="text-before-edge">Returns (Usage):</text></g><g stroke-linecap="round" transform="translate(10 428.6667022705078) rotate(0 328 180.66665649414062)"><path d="M0.5 -0.46 C243.21 -2.59, 488.1 -2.45, 655.65 -0.48 M-0.13 0.18 C176.54 -1.27, 352.74 -1.84, 655.98 0.39 M656.97 0.8 C655.58 126.4, 657.12 252.33, 656.78 360.96 M656.02 -0.09 C657.05 114.8, 656.64 230.31, 655.98 361.42 M656.6 361.16 C423.54 363.36, 192.25 363.21, 0.68 361.4 M656.39 361.68 C420.9 360.54, 185.56 360.65, -0.11 361.68 M1.07 361.38 C1.81 283.44, -0.57 203.08, -1.1 -0.45 M0.05 361.28 C-2.15 223.65, -2.4 85.2, 0.13 0.05" stroke="#000000" stroke-width="1" fill="none"></path></g><g stroke-linecap="round"><g transform="translate(11.943645763211066 460.6667022705079) rotate(0 325.2183412361889 -0.35190895743193096)"><path d="M0.76 0.69 C257.83 -2.1, 514.19 -1.94, 650.79 0.33 M-0.35 0.32 C239.65 -0.34, 479.93 -0.78, 650.48 -0.05" stroke="#000000" stroke-width="1" fill="none"></path></g></g><mask></mask><g transform="translate(18 434.00001525878906) rotate(0 20.47199249267578 9.600000000000023)"><text x="0" y="0" font-family="Virgil, Segoe UI Emoji" font-size="16px" fill="#000000" text-anchor="start" style="white-space: pre;" direction="ltr" dominant-baseline="text-before-edge">Date</text></g><g transform="translate(104.6666259765625 434.00001525878906) rotate(0 14.431991577148438 9.600000000000023)"><text x="0" y="0" font-family="Virgil, Segoe UI Emoji" font-size="16px" fill="#000000" text-anchor="start" style="white-space: pre;" direction="ltr" dominant-baseline="text-before-edge">Use</text></g><g stroke-linecap="round"><g transform="translate(95.333251953125 432.6667022705078) rotate(0 0.14318021953295101 174.73868740674163)"><path d="M0.47 -1.09 C0.79 82.09, 1.5 164.87, 0.29 350.06 M-0.58 -0.59 C-0.87 111.58, -0.5 222.47, -0.21 350.57" stroke="#000000" stroke-width="1" fill="none"></path></g></g><mask></mask><g stroke-linecap="round"><g transform="translate(542.5234457570297 431.92795382860993) rotate(0 -0.46917298304867927 174.9546324958739)"><path d="M0.01 -0.56 C-0.76 131.88, -0.12 262.06, 0.57 349.43 M0.27 0.26 C-1.66 90.02, -2.15 179.48, -0.54 350.47" stroke="#000000" stroke-width="1" fill="none"></path></g></g><mask></mask><g transform="translate(550.2346343994141 436.4000152587889) rotate(0 33.99998474121094 9.600000000000023)"><text x="0" y="0" font-family="Virgil, Segoe UI Emoji" font-size="16px" fill="#000000" text-anchor="start" style="white-space: pre;" direction="ltr" dominant-baseline="text-before-edge">Duration</text></g><g stroke-linecap="round"><g transform="translate(13.772421512194114 497.06777592285937) rotate(0 323.389565487206 -0.6096886073260634)"><path d="M-0.1 0.4 C167.15 -2.52, 333.13 -1.91, 646.88 -0.07 M0.02 -0.03 C186.06 -2.03, 371.45 -2.2, 646.85 -0.2" stroke="#000000" stroke-width="1" fill="none"></path></g></g><mask></mask><g stroke-linecap="round"><g transform="translate(14.142836379818732 533.1506100160631) rotate(0 323.0191506195814 -0.6651141730588392)"><path d="M-0.76 -0.32 C171.09 -0.78, 341.59 -0.81, 646.43 0.26 M0.19 0.15 C175.32 -2.45, 350.21 -1.84, 646.8 0.06" stroke="#000000" stroke-width="1" fill="none"></path></g></g><mask></mask><g stroke-linecap="round"><g transform="translate(13.595227777771697 568.6023532885869) rotate(0 323.5667592216284 0.24373839592584545)"><path d="M0.7 0.27 C206.4 1.58, 413.2 2.42, 647.44 0.27 M-0.31 0.3 C168.76 -1.23, 337.9 -1.62, 646.63 -0.29" stroke="#000000" stroke-width="1" fill="none"></path></g></g><mask></mask><g stroke-linecap="round"><g transform="translate(13.800723976828294 641.8438910816535) rotate(0 323.36126302257185 -0.029189609105287673)"><path d="M0.33 -0.73 C162.05 2.17, 324.13 2.39, 646.45 -0.01 M-0.21 0.21 C213 -2.27, 426.75 -2.21, 646.93 -0.26" stroke="#000000" stroke-width="1" fill="none"></path></g></g><mask></mask><g stroke-linecap="round"><g transform="translate(14.201545867510276 604.8491999852731) rotate(0 322.9604411318898 0.3224278902417268)"><path d="M-0.73 0.37 C188.11 -0.29, 376.18 -1.28, 646.66 0.24 M0.21 -0.19 C136.42 1.74, 273.21 1.64, 646.41 -0.26" stroke="#000000" stroke-width="1" fill="none"></path></g></g><mask></mask><g stroke-linecap="round"><g transform="translate(13.80573085900403 678.8357532849051) rotate(0 323.356256140396 0.3374174099328684)"><path d="M0.37 0.26 C147.16 2.86, 292.56 2.36, 646.9 -0.71 M-0.19 -0.31 C243.33 -1.63, 486.2 -1.64, 646.41 0.04" stroke="#000000" stroke-width="1" fill="none"></path></g></g><mask></mask><g stroke-linecap="round"><g transform="translate(13.965376308001623 715.5864696126625) rotate(0 323.19661069139846 0.13973021798699392)"><path d="M0.26 0.77 C221.02 -1.41, 441.05 -0.95, 645.96 0.61 M-0.31 0.37 C159.51 1.51, 319.26 0.98, 646.71 -0.28" stroke="#000000" stroke-width="1" fill="none"></path></g></g><mask></mask><g stroke-linecap="round"><g transform="translate(13.342840651236543 751.6651294318476) rotate(0 323.8191463481635 0.21290177790376674)"><path d="M0.77 0.49 C134.42 -0.86, 269.51 -1.55, 647.27 -0.42 M0.37 -0.25 C228.75 1.77, 456.71 2.07, 646.39 0" stroke="#000000" stroke-width="1" fill="none"></path></g></g><mask></mask><g transform="translate(12.572898542787925 807.7333282470703) rotate(0 82.40794372558594 9.600000000000023)"><text x="0" y="0" font-family="Virgil, Segoe UI Emoji" font-size="16px" fill="#000000" text-anchor="start" style="white-space: pre;" direction="ltr" dominant-baseline="text-before-edge">Trickle Down Assets:</text></g><g stroke-linecap="round"><g transform="translate(10.449593119323254 855.666732788086) rotate(0 324.98720671683543 0.691048713839109)"><path d="M-0.45 0.09 C245.38 2.12, 489.15 1.9, 650.42 0.77 M-0.02 -0.24 C194.1 -0.09, 388.37 0.04, 650.36 -0.16" stroke="#000000" stroke-width="1" fill="none"></path></g></g><mask></mask><g stroke-linecap="round"><g transform="translate(12.115427777916125 892.0678064404375) rotate(0 323.3213720582426 0.6900135139619579)"><path d="M-0.24 0.77 C158.81 2.78, 317.67 2.07, 646.19 -0.41 M-0.31 -0.16 C194.57 -0.86, 388.26 -0.56, 646.95 0.16" stroke="#000000" stroke-width="1" fill="none"></path></g></g><mask></mask><g stroke-linecap="round"><g transform="translate(12.104120745509704 928.150640533641) rotate(0 323.3326790906489 0.7930180303583256)"><path d="M0.77 -0.01 C181.32 0.81, 361.28 0.3, 646.26 0 M-0.16 0.37 C155.6 1.86, 311.51 2.27, 646.83 0.03" stroke="#000000" stroke-width="1" fill="none"></path></g></g><mask></mask><g stroke-linecap="round"><g transform="translate(12.094003755971698 963.6023838061648) rotate(0 323.34279608018693 -0.5669199179982343)"><path d="M-0.01 0.66 C141.14 -2.54, 281.75 -2.9, 646.67 -0.47 M0.37 -0.02 C214.92 1.34, 430.37 1.22, 646.7 -0.34" stroke="#000000" stroke-width="1" fill="none"></path></g></g><mask></mask><g stroke-linecap="round"><g transform="translate(12.03683329336343 999.8492305028514) rotate(0 323.39996654279526 -0.8700184227766385)"><path d="M0.03 -0.04 C255.89 -2.54, 512.74 -2.61, 646.93 -0.61 M-0.13 0.28 C167.9 0.27, 335.27 -0.24, 646.47 0.27" stroke="#000000" stroke-width="1" fill="none"></path></g></g><mask></mask><g stroke-linecap="round"><g stroke-opacity="0.5" fill-opacity="0.5" transform="translate(100.1620895312077 832.6665802001953) rotate(0 0.4490875209693854 84.35231794044381)"><path d="M1.86 0.02 C-0.11 39.35, 0.06 74.76, 1.08 168.68 M0.96 0.53 C-1.39 33.31, -1.45 66.81, 0.04 167.04" stroke="#000000" stroke-width="1" fill="none"></path></g></g><mask></mask><g stroke-opacity="0.2" fill-opacity="0.2" transform="translate(15.810191786196128 833.0666412353514) rotate(0 36.02397918701172 9.599999999999966)"><text x="0" y="0" font-family="Virgil, Segoe UI Emoji" font-size="16px" fill="#000000" text-anchor="start" style="white-space: pre;" direction="ltr" dominant-baseline="text-before-edge">reference</text></g><g transform="translate(10.237509550676577 69.55426675523898) rotate(0 67.01594543457031 9.599999999999994)"><text x="0" y="0" font-family="Virgil, Segoe UI Emoji" font-size="16px" fill="#000000" text-anchor="start" style="white-space: pre;" direction="ltr" dominant-baseline="text-before-edge">Assets (Output):</text></g><g transform="translate(427.34423715077423 102.65424386705536) rotate(0 20.999977111816406 9.599999999999994)"><text x="0" y="0" font-family="Virgil, Segoe UI Emoji" font-size="16px" fill="#000000" text-anchor="start" style="white-space: pre;" direction="ltr" dominant-baseline="text-before-edge">Skills:</text></g><g stroke-linecap="round"><g transform="translate(471.6513482364237 121.15686029030269) rotate(0 93.64347050644608 0.09205521270632744)"><path d="M-0.96 1.84 C44.54 0.99, 86.23 2.01, 187.23 -1.65 M0.68 0.59 C74.22 1.59, 147.86 0.46, 188.24 0.81" stroke="#000000" stroke-width="1" fill="none"></path></g></g><mask></mask><g stroke-linecap="round"><g transform="translate(428.57085305653595 155.68559395638624) rotate(0 115.63512362093354 0.23974777284135484)"><path d="M1.56 1.13 C58.27 0.77, 116.87 -0.01, 228.68 1.58 M0.5 0.14 C88.07 -1.54, 174.44 -1.42, 230.77 -0.1" stroke="#000000" stroke-width="1" fill="none"></path></g></g><mask></mask><g stroke-linecap="round"><g transform="translate(428.82345476924297 193.9447796923448) rotate(0 115.7806058781403 0.09113999210978818)"><path d="M1.13 0.55 C64.51 -0.38, 128.4 -3.2, 231.42 1.35 M0.14 0.75 C60.09 -1.36, 120.52 -0.46, 229.73 0.19" stroke="#000000" stroke-width="1" fill="none"></path></g></g><mask></mask><g transform="translate(12.237501921282274 138.65421334947723) rotate(0 34.655967712402344 9.599999999999994)"><text x="0" y="0" font-family="Virgil, Segoe UI Emoji" font-size="16px" fill="#000000" text-anchor="start" style="white-space: pre;" direction="ltr" dominant-baseline="text-before-edge">Artifact:</text></g><g stroke-linecap="round"><g transform="translate(86.65590667724632 155.80929784686725) rotate(0 154.10791381717843 0.030264559812479774)"><path d="M-0.14 1.2 C119.9 -1.9, 242.74 0.43, 307.46 0.98 M-0.18 -0.18 C110.41 -1.37, 220.87 -1.8, 308.39 0.64" stroke="#000000" stroke-width="1" fill="none"></path></g></g><mask></mask><g stroke-linecap="round"><g transform="translate(15.23741799794243 192.84795026747383) rotate(0 192.04098283469386 0.01899970162196496)"><path d="M0.99 -0.66 C139.55 1.33, 282 -0.23, 384.23 0.7 M-0.15 -0.06 C121.99 0.49, 243.16 0.89, 383.95 -0.5" stroke="#000000" stroke-width="1" fill="none"></path></g></g><mask></mask><g stroke-linecap="round"><g transform="translate(95.9892807006836 120.44047950929178) rotate(0 148.0235973487931 -0.17646617829672095)"><path d="M-0.82 -1.22 C99.67 -0.64, 196.03 -0.81, 296.87 0.25 M-0.07 0.6 C114.82 0.7, 230.23 1.21, 295.38 0.5" stroke="#000000" stroke-width="1" fill="none"></path></g></g><mask></mask><g transform="translate(10 100.06656494140623) rotate(0 39.94397735595703 9.599999999999994)"><text x="0" y="0" font-family="Virgil, Segoe UI Emoji" font-size="16px" fill="#000000" text-anchor="start" style="white-space: pre;" direction="ltr" dominant-baseline="text-before-edge">Reference:</text></g></svg>