<svg version="1.1" xmlns="http://www.w3.org/2000/svg" viewBox="0 0 676.1156313013141 1022.0315509803247" width="676.1156313013141" height="1022.0315509803247">
  <!-- svg-source:excalidraw -->
  
  <defs>
    <style class="style-fonts">
      @font-face {
        font-family: "Virgil";
        src: url("https://excalidraw.com/Virgil.woff2");
      }
      @font-face {
        font-family: "Cascadia";
        src: url("https://excalidraw.com/Cascadia.woff2");
      }
    </style>
  </defs>
  <g transform="translate(10 10) rotate(0 35.87996673583996 12)"><text x="0" y="0" font-family="Virgil, Segoe UI Emoji" font-size="20px" fill="#000000" text-anchor="start" style="white-space: pre;" direction="ltr" dominant-baseline="text-before-edge">Reflect</text></g><g transform="translate(10 41.83332824707031) rotate(0 59.07195281982433 9.599999999999994)"><text x="0" y="0" font-family="Virgil, Segoe UI Emoji" font-size="16px" fill="#000000" text-anchor="start" style="white-space: pre;" direction="ltr" dominant-baseline="text-before-edge">Asset Register</text></g><g stroke-linecap="round" transform="translate(10 71.72396616043494) rotate(0 328.0000000000001 311.8808712415972)"><path d="M-0.79 0.43 C172.78 0.06, 345.85 0.56, 655.24 0.44 M-0.34 -0.33 C163.31 -0.87, 326.91 -0.77, 655.77 0.07 M655.88 0.31 C657.82 204.63, 657.68 409.75, 656.18 623.32 M655.97 0.17 C656.75 231.31, 656.17 463.17, 656.31 623.7 M655.91 623.46 C478.99 623.31, 303.02 622.97, 0.57 623.82 M656.24 623.91 C416.8 622.65, 177.19 622.56, 0.2 623.57 M-0.29 624.23 C0.55 403.67, 0.5 183.79, 0.43 -0.67 M0.01 624.02 C-0.08 375.79, 0.26 128.49, -0.25 0.19" stroke="#000000" stroke-width="1" fill="none"></path></g><g stroke-linecap="round"><g transform="translate(11.943645763210725 103.72396616043517) rotate(0 325.388088871166 0.6080532675710657)"><path d="M0.43 -0.51 C224.94 1.84, 451.04 1.8, 651.1 -0.41 M-0.33 0.04 C208.48 2.57, 417.14 1.98, 650.73 0.11" stroke="#000000" stroke-width="1" fill="none"></path></g></g><mask></mask><g transform="translate(18.000000000000227 78.25727914871612) rotate(0 38.00798034667969 9.599999999999994)"><text x="0" y="0" font-family="Virgil, Segoe UI Emoji" font-size="16px" fill="#000000" text-anchor="start" style="white-space: pre;" direction="ltr" dominant-baseline="text-before-edge">Reference</text></g><g transform="translate(113.92880584108912 78.25727914871612) rotate(0 22.83197784423828 9.599999999999994)"><text x="0" y="0" font-family="Virgil, Segoe UI Emoji" font-size="16px" fill="#000000" text-anchor="start" style="white-space: pre;" direction="ltr" dominant-baseline="text-before-edge">Asset</text></g><g stroke-linecap="round"><g transform="translate(103.56631642488742 75.72396616043494) rotate(0 -0.6825225347768082 306.83355851618444)"><path d="M-0.73 -0.15 C-2.34 217.89, -1.98 435.07, 0.24 613.2 M0.36 0.02 C-0.01 134.14, 0.33 268.52, -0.11 613.82" stroke="#000000" stroke-width="1" fill="none"></path></g></g><mask></mask><g stroke-linecap="round"><g transform="translate(455.0472711854693 74.98521771853694) rotate(0 -0.7012717448976673 307.5221269037438)"><path d="M-0.15 -0.76 C-1.6 144.82, -1.87 290.7, -0.68 615 M0.02 -0.23 C-0.39 190.33, -0.09 380.33, -0.06 615.81" stroke="#000000" stroke-width="1" fill="none"></path></g></g><mask></mask><g transform="translate(462.75855404762 78.25727914871612) rotate(0 43.27197265625 9.599999999999994)"><text x="0" y="0" font-family="Virgil, Segoe UI Emoji" font-size="16px" fill="#000000" text-anchor="start" style="white-space: pre;" direction="ltr" dominant-baseline="text-before-edge">Use Values</text></g><g stroke-linecap="round"><g transform="translate(12.961214210125718 140.1250398127866) rotate(0 323.4017594944686 0.6126981044306774)"><path d="M0.44 -0.41 C135.42 2.71, 269.84 1.81, 646.74 -0.15 M0.07 0.11 C252.27 1.41, 503.75 1.67, 646.44 0.06" stroke="#000000" stroke-width="1" fill="none"></path></g></g><mask></mask><g stroke-linecap="round"><g transform="translate(13.202850959482703 177.85281332962512) rotate(0 323.1601227451115 -0.2473904257589652)"><path d="M-0.41 0.16 C181.88 -2.09, 362.61 -1.34, 646.52 0.72 M0.11 0.36 C197.85 -0.48, 396.09 -0.65, 646.73 -0.3" stroke="#000000" stroke-width="1" fill="none"></path></g></g><mask></mask><g stroke-linecap="round"><g transform="translate(12.589360199528755 213.88718591638332) rotate(0 323.77361350506544 0.14870236890718047)"><path d="M0.16 0.24 C131.65 0.67, 264.73 1.17, 647.38 0.05 M0.36 -0.11 C156.03 -0.56, 311.96 -0.66, 646.37 0.37" stroke="#000000" stroke-width="1" fill="none"></path></g></g><mask></mask><g stroke-linecap="round"><g transform="translate(12.900655448842144 287.81096605399046) rotate(0 323.4623182557523 -0.9361574503830923)"><path d="M0.24 -0.68 C228.58 -0.46, 458.32 0.19, 646.72 -0.47 M-0.11 -0.06 C204.68 -2.58, 409.1 -2.65, 647.04 0.09" stroke="#000000" stroke-width="1" fill="none"></path></g></g><mask></mask><g stroke-linecap="round"><g transform="translate(13.3250769511194 250.2759582873981) rotate(0 323.037896753475 -0.04096032773915681)"><path d="M-0.68 -0.65 C161.02 -0.94, 322.62 -0.74, 646.2 0.13 M-0.06 0.16 C211.79 0.78, 423.74 1.09, 646.76 -0.22" stroke="#000000" stroke-width="1" fill="none"></path></g></g><mask></mask><g stroke-linecap="round"><g transform="translate(13.290965695339082 323.01004044397575) rotate(0 323.072008009255 0.7862238402710204)"><path d="M-0.65 0.07 C207.13 2.91, 414.6 1.73, 646.8 0.22 M0.16 -0.23 C252.99 0.11, 506.22 0.49, 646.45 0.28" stroke="#000000" stroke-width="1" fill="none"></path></g></g><mask></mask><g stroke-linecap="round"><g transform="translate(13.001336031067467 360.39876964131173) rotate(0 323.36163767352684 0.5196280006838379)"><path d="M0.07 -0.15 C214.39 2.16, 426.89 2.24, 646.89 0.73 M-0.23 0.06 C175.79 -0.65, 352.26 -1.24, 646.95 0.06" stroke="#000000" stroke-width="1" fill="none"></path></g></g><mask></mask><g stroke-linecap="round"><g transform="translate(12.739609808880004 397.32319517998866) rotate(0 323.6233638957143 0.48478351954804566)"><path d="M-0.15 0.72 C139.11 -0.7, 278.24 -0.01, 647.4 -0.22 M0.06 -0.3 C184.29 1.56, 367.62 1.76, 646.73 0.32" stroke="#000000" stroke-width="1" fill="none"></path></g></g><mask></mask><g stroke-linecap="round"><g transform="translate(12.97077222022699 435.28730016683704) rotate(0 323.3922014843672 -0.06975865672006876)"><path d="M-0.05 0.21 C255.16 -3.05, 509.16 -2, 647.08 0.72 M-0.3 -0.31 C227.54 2.15, 455.69 2.49, 646.48 -0.23" stroke="#000000" stroke-width="1" fill="none"></path></g></g><mask></mask><g stroke-linecap="round"><g transform="translate(12.823066148939688 472.00989475382386) rotate(0 323.5399075556546 0.6420392739157137)"><path d="M0.21 0.4 C145.27 -0.2, 292.38 0.58, 647.39 0.42 M-0.31 -0.16 C137.55 2.2, 275.55 1.74, 646.44 -0.11" stroke="#000000" stroke-width="1" fill="none"></path></g></g><mask></mask><g stroke-linecap="round"><g transform="translate(12.903299035164764 509.1293539126786) rotate(0 323.45967466942955 0.3631379015421885)"><path d="M0.4 -0.79 C250.21 -0.43, 501.55 0.03, 647.08 -0.7 M-0.16 -0.09 C138.28 2.25, 275.83 1.77, 646.56 0.12" stroke="#000000" stroke-width="1" fill="none"></path></g></g><mask></mask><g stroke-linecap="round"><g transform="translate(13.363679990950004 583.7827079618767) rotate(0 322.9992937136442 -0.051159008468232514)"><path d="M-0.79 -0.36 C190.27 -0.89, 380.74 -0.89, 645.97 -0.69 M-0.09 0.27 C146.04 0.87, 291.34 0.95, 646.79 -0.13" stroke="#000000" stroke-width="1" fill="none"></path></g></g><mask></mask><g stroke-linecap="round"><g transform="translate(13.274066723915439 546.1232475965157) rotate(0 323.08890698067853 0.6845858821296247)"><path d="M-0.36 0.26 C211.62 3.27, 422.83 1.85, 645.97 -0.6 M0.27 0.25 C143.8 0.38, 287.87 0.72, 646.54 0.29" stroke="#000000" stroke-width="1" fill="none"></path></g></g><mask></mask><g stroke-linecap="round"><g transform="translate(12.755830347943174 620.7845830669798) rotate(0 323.60714335665114 -0.2487520812443904)"><path d="M0.26 0.42 C227.3 1.58, 452.46 0.47, 646.07 -0.62 M0.25 -0.19 C167.21 -1.89, 335.01 -1.9, 646.96 0.32" stroke="#000000" stroke-width="1" fill="none"></path></g></g><mask></mask><g stroke-linecap="round"><g transform="translate(12.963949136841165 657.6737937299142) rotate(0 323.39902456775303 -0.18569210065987818)"><path d="M0.42 0.72 C130.66 -1.54, 259.8 -1.44, 646.05 -0.33 M-0.19 -0.23 C178.78 -1.52, 357.66 -1.34, 646.99 0.15" stroke="#000000" stroke-width="1" fill="none"></path></g></g><mask></mask><g stroke-linecap="round" transform="translate(10.115631301314124 708.3365036076448) rotate(0 328 151.84752368633997)"><path d="M0.16 -0.18 C245.57 -1.72, 490.52 -2.92, 655.45 0.16 M0.37 0.27 C181.76 0.92, 363.7 0.96, 656.21 -0.28 M656.71 -0.21 C655 115.92, 657.2 231.15, 654.74 303.3 M656.37 0.06 C654.18 99.25, 654.39 199.07, 655.55 304.14 M656.61 302.99 C476.46 302.35, 295.86 302.69, -0.24 303.04 M655.88 304.06 C519.96 303.23, 384.14 302.96, 0.13 303.9 M1.09 302.58 C-1.73 235.13, -3.13 167.54, -0.13 1.44 M-0.56 303.17 C1.28 196.35, 1.58 87.62, 0.29 0.34" stroke="#000000" stroke-width="1" fill="none"></path></g><g stroke-linecap="round"><g transform="translate(12.059277064525077 740.336503607645) rotate(0 325.32681794613586 -0.47833276734161245)"><path d="M-0.18 0.59 C180.87 0.05, 360 -1.08, 650.83 -0.18 M0.27 0.09 C247.87 -2.06, 495.92 -2.21, 650.38 0.32" stroke="#000000" stroke-width="1" fill="none"></path></g></g><mask></mask><g transform="translate(15.015816500838582 714.6672519318306) rotate(0 14.719985961914062 9.600000000000023)"><text x="0" y="0" font-family="Virgil, Segoe UI Emoji" font-size="16px" fill="#000000" text-anchor="start" style="white-space: pre;" direction="ltr" dominant-baseline="text-before-edge">Skill</text></g><g stroke-linecap="round"><g transform="translate(341.2439310712582 711.0352893635309) rotate(0 0.3587355175729954 149.14873793045405)"><path d="M-1.23 -1.02 C1.77 111.3, 2.66 222.67, 1.37 299.32 M-0.22 0.39 C-1.39 97.02, -0.92 193.16, 0.36 298.2" stroke="#000000" stroke-width="1" fill="none"></path></g></g><mask></mask><g stroke-linecap="round"><g transform="translate(13.888052813508466 776.7375772599964) rotate(0 323.2850273501127 0.2097932935870972)"><path d="M0.16 -0.18 C240.88 1.46, 481.21 2.34, 646.85 -0.32 M-0.28 0.32 C253.18 -1.22, 506.62 -1.44, 646.44 0.08" stroke="#000000" stroke-width="1" fill="none"></path></g></g><mask></mask><g stroke-linecap="round"><g transform="translate(14.258467681132743 812.8204113531999) rotate(0 323.27894725091767 0.6857681895280052)"><path d="M-0.18 0.65 C139.72 0.22, 280.65 -0.34, 646.35 0.73 M0.32 -0.03 C174.4 2.02, 348.41 1.6, 646.74 0.37" stroke="#000000" stroke-width="1" fill="none"></path></g></g><mask></mask><g stroke-linecap="round"><g transform="translate(13.710859079086504 848.2721546257237) rotate(0 323.6850513469427 -0.5269581272507935)"><path d="M0.65 -0.33 C150.02 1.15, 298.74 0.28, 647.4 -0.24 M-0.03 0.17 C228.83 -2.15, 457.04 -2.01, 647.04 -0.04" stroke="#000000" stroke-width="1" fill="none"></path></g></g><mask></mask><g stroke-linecap="round"><g transform="translate(13.916355278142646 921.5136924187905) rotate(0 323.1499855328351 -0.1693962068085284)"><path d="M-0.33 0.75 C207.72 -1.91, 414.02 -1.37, 646.42 0.43 M0.17 0.2 C148.26 -0.04, 296.72 0.56, 646.63 -0.35" stroke="#000000" stroke-width="1" fill="none"></path></g></g><mask></mask><g stroke-linecap="round"><g transform="translate(14.317177168824628 884.5190013224101) rotate(0 323.6452205311506 -0.08424422716700519)"><path d="M0.75 0.55 C179.27 0.75, 358.89 0.82, 647.1 -0.57 M0.2 -0.06 C246.01 -1.02, 492.86 -1.13, 646.32 -0.11" stroke="#000000" stroke-width="1" fill="none"></path></g></g><mask></mask><g stroke-linecap="round"><g transform="translate(13.921362160318267 958.5055546220422) rotate(0 323.2498827956615 -0.3119165279972549)"><path d="M0.55 0.19 C246.18 -1.68, 492.75 -1.98, 646.1 0.65 M-0.06 -0.23 C189.38 -0.89, 378.57 -1.61, 646.56 0.11" stroke="#000000" stroke-width="1" fill="none"></path></g></g><mask></mask><g stroke-linecap="round"><g transform="translate(234.77643194475672 710.3502854438623) rotate(0 -0.776725021420134 149.83374185012252)"><path d="M-1.42 0.65 C-1.94 98.73, -1.76 196.72, 0.03 299.53 M-0.38 0.14 C-2.67 117.67, -1.88 234.95, 0.21 298.6" stroke="#000000" stroke-width="1" fill="none"></path></g></g><mask></mask><g stroke-linecap="round"><g transform="translate(564.1978617136249 710.982944560352) rotate(0 0.8538386585944409 149.2010827336327)"><path d="M1.1 1.33 C2.4 106.38, 2.14 211.01, 1.21 297.54 M0.17 -0.54 C-0.72 67.71, -0.16 136.99, 0.65 298.94" stroke="#000000" stroke-width="1" fill="none"></path></g></g><mask></mask><g transform="translate(342.68078647552306 714.7993305155062) rotate(0 14.719985961914062 9.600000000000023)"><text x="0" y="0" font-family="Virgil, Segoe UI Emoji" font-size="16px" fill="#000000" text-anchor="start" style="white-space: pre;" direction="ltr" dominant-baseline="text-before-edge">Skill</text></g><g transform="translate(239.32334115184563 714.5499945103161) rotate(0 38.927978515625 9.600000000000023)"><text x="0" y="0" font-family="Virgil, Segoe UI Emoji" font-size="16px" fill="#000000" text-anchor="start" style="white-space: pre;" direction="ltr" dominant-baseline="text-before-edge">Use Value</text></g><g transform="translate(574.2020050566914 714.051322499937) rotate(0 38.927978515625 9.600000000000023)"><text x="0" y="0" font-family="Virgil, Segoe UI Emoji" font-size="16px" fill="#000000" text-anchor="start" style="white-space: pre;" direction="ltr" dominant-baseline="text-before-edge">Use Value</text></g><g stroke-linecap="round"><g transform="translate(331.8575023806559 710.6483530813241) rotate(0 -0.2739658633918225 149.2773697421465)"><path d="M-1.47 1.13 C-0.15 80.48, -0.03 160.59, 0.66 297.91 M-0.19 -0.03 C0.96 88.75, 1.59 176.56, -0.17 298.59" stroke="#000000" stroke-width="1" fill="none"></path></g></g><mask></mask></svg>