<svg version="1.1" xmlns="http://www.w3.org/2000/svg" viewBox="0 0 700.0031897771632 1245.2349293187622" width="700.0031897771632" height="1245.2349293187622">
  <!-- svg-source:excalidraw -->
  
  <defs>
    <style class="style-fonts">
      @font-face {
        font-family: "Virgil";
        src: url("https://excalidraw.com/Virgil.woff2");
      }
      @font-face {
        font-family: "Cascadia";
        src: url("https://excalidraw.com/Cascadia.woff2");
      }
    </style>
  </defs>
  <g transform="translate(11.597209284421297 85.08242374237398) rotate(0 44.28797149658203 9.599999999999909)"><text x="0" y="0" font-family="Virgil, Segoe UI Emoji" font-size="16px" fill="#000000" text-anchor="start" style="white-space: pre;" direction="ltr">Deliverable:</text></g><g stroke-linecap="round"><g transform="translate(11.914354133572488 150.47290940184757) rotate(0 336.4995032621548 0.4454886378223364)"><path d="M-0.69 0.54 C208.93 -1.91, 418.36 -1.45, 673.34 -0.33 M-0.29 0 C222.21 2.97, 444.02 2.71, 673.68 0" stroke="#000000" stroke-width="1" fill="none"></path></g></g><mask></mask><g transform="translate(11.597209284421297 10) rotate(0 33.64997100830078 12)"><text x="0" y="0" font-family="Virgil, Segoe UI Emoji" font-size="20px" fill="#000000" text-anchor="start" style="white-space: pre;" direction="ltr">Review:</text></g><g transform="translate(11.597209284421297 50.233284378051394) rotate(0 76.35195922851562 9.599999999999909)"><text x="0" y="0" font-family="Virgil, Segoe UI Emoji" font-size="16px" fill="#000000" text-anchor="start" style="white-space: pre;" direction="ltr">Outcome Validation:</text></g><g transform="translate(12.56230042178413 210.9685311070898) rotate(0 37.60797119140625 9.599999999999909)"><text x="0" y="0" font-family="Virgil, Segoe UI Emoji" font-size="16px" fill="#000000" text-anchor="start" style="white-space: pre;" direction="ltr">Expected:</text></g><g transform="translate(12.021167747324398 287.70477730982475) rotate(0 27.7039794921875 9.599999999999909)"><text x="0" y="0" font-family="Virgil, Segoe UI Emoji" font-size="16px" fill="#000000" text-anchor="start" style="white-space: pre;" direction="ltr">Actual:</text></g><g stroke-linecap="round"><g transform="translate(89.04151064668804 228.13641216947963) rotate(0 300.0142792471031 -0.48089004568578275)"><path d="M0 -0.33 C188.17 -1.07, 375.08 -2.27, 600.02 0.3 M0.35 0 C230.42 -0.04, 460.27 -0.23, 599.74 0.1" stroke="#000000" stroke-width="1" fill="none"></path></g></g><mask></mask><g stroke-linecap="round"><g transform="translate(18.314374947109172 265.1315865953593) rotate(0 335.68063453138825 -0.5619121245315455)"><path d="M-0.33 0.24 C189.36 -0.8, 376.91 -0.02, 671.69 0.67 M0 0.4 C186.57 -2.14, 372.58 -2.64, 671.49 -0.19" stroke="#000000" stroke-width="1" fill="none"></path></g></g><mask></mask><g stroke-linecap="round"><g transform="translate(68.41275374089128 304.3034129316952) rotate(0 276.8154961549019 0.22621546458321973)"><path d="M0.24 0.62 C204.08 0.33, 409.72 1.21, 553.39 -0.18 M0.4 0.37 C175.62 0.17, 350.52 0.09, 552.54 0.19" stroke="#000000" stroke-width="1" fill="none"></path></g></g><mask></mask><g stroke-linecap="round"><g transform="translate(19.002461692725774 341.9995387023737) rotate(0 300.4393109124758 -0.8533193074229075)"><path d="M0.62 -0.78 C179.89 -0.72, 361.23 -0.05, 600.14 0.14 M0.37 0.22 C232.96 -2.67, 465.65 -2.58, 600.51 0.14" stroke="#000000" stroke-width="1" fill="none"></path></g></g><mask></mask><g stroke-linecap="round" transform="translate(626.5451329085536 305.0958929132639) rotate(0 30.2328301082282 18.689385885086494)"><path d="M-1.96 -1.43 C15.66 0.28, 33 -0.92, 60.81 1.76 M0.54 0.46 C17.46 -0.31, 35.88 -0.1, 60.82 0.97 M60.03 -0.98 C60.51 15.94, 60.81 27.47, 58.55 36.27 M60.21 0.57 C60.36 11.09, 59.74 21.35, 60.4 37.59 M58.76 39.27 C46.24 35.37, 35.09 35.56, 1.37 37.27 M59.98 38.16 C44.24 38.49, 28.23 37.73, 0.64 38.22 M-1.6 35.89 C-0.71 22.71, 1.8 7.56, 0.35 -0.21 M-0.61 37.62 C0.07 25.5, 0.22 14.18, 0.22 0.24" stroke="#000000" stroke-width="1" fill="none"></path></g><g transform="translate(12.661276910645938 177.23874035091376) rotate(0 67.82395935058594 9.599999999999909)"><text x="0" y="0" font-family="Virgil, Segoe UI Emoji" font-size="16px" fill="#000000" text-anchor="start" style="white-space: pre;" direction="ltr">Validation Metric:</text></g><g stroke-linecap="round"><g transform="translate(153.28531658038628 194.40662141330358) rotate(0 268.3880349167582 0.5755362889938169)"><path d="M0.3 0.67 C108.1 0.14, 217.26 0.01, 536.67 0.75 M0.1 -0.19 C189.96 1.69, 379.94 1.89, 535.75 0.14" stroke="#000000" stroke-width="1" fill="none"></path></g></g><mask></mask><g transform="translate(12.56230042178413 403.1063534810801) rotate(0 37.60797119140625 9.599999999999909)"><text x="0" y="0" font-family="Virgil, Segoe UI Emoji" font-size="16px" fill="#000000" text-anchor="start" style="white-space: pre;" direction="ltr">Expected:</text></g><g transform="translate(12.021167747324398 479.842599683815) rotate(0 27.7039794921875 9.599999999999909)"><text x="0" y="0" font-family="Virgil, Segoe UI Emoji" font-size="16px" fill="#000000" text-anchor="start" style="white-space: pre;" direction="ltr">Actual:</text></g><g stroke-linecap="round"><g transform="translate(89.04151064668804 420.2742345434699) rotate(0 300.50518592878234 -0.5325891480479186)"><path d="M0.4 0.73 C217.97 -2.72, 437.01 -2.18, 600.82 -0.31 M0.19 -0.2 C190.39 -0.15, 381.37 -0.36, 600.18 0" stroke="#000000" stroke-width="1" fill="none"></path></g></g><mask></mask><g stroke-linecap="round"><g transform="translate(18.314374947109172 457.26940896934957) rotate(0 335.59341590889767 -0.4360950731743287)"><path d="M0.73 -0.64 C257.48 -1.57, 516.09 -0.56, 671.08 0.14 M-0.2 -0.24 C194.42 -1.18, 388.53 -1.12, 671.39 0.09" stroke="#000000" stroke-width="1" fill="none"></path></g></g><mask></mask><g stroke-linecap="round"><g transform="translate(68.41275374089128 496.44123530568595) rotate(0 276.11285147297144 -0.45365596369447303)"><path d="M-0.64 -0.6 C214.52 -2.07, 430.26 -2.32, 552.87 -0.08 M-0.24 0.1 C171.63 1.01, 343.23 1.12, 552.81 0.09" stroke="#000000" stroke-width="1" fill="none"></path></g></g><mask></mask><g stroke-linecap="round"><g transform="translate(19.002461692725774 534.1373610763644) rotate(0 299.90731386268953 0.7469969989776928)"><path d="M-0.6 -0.21 C210.37 2.72, 420.55 2.07, 600.23 0.08 M0.1 0.1 C208.5 1.62, 417.23 1.54, 600.41 -0.29" stroke="#000000" stroke-width="1" fill="none"></path></g></g><mask></mask><g stroke-linecap="round" transform="translate(626.5451329085536 497.23371528725465) rotate(0 30.2328301082282 18.689385885086494)"><path d="M-0.52 -0.15 C25.62 -0.32, 47.61 0.24, 60.67 0.95 M0.25 -0.28 C15.48 -0.14, 30.37 0.09, 59.74 -0.17 M58.5 0.81 C61.79 9.76, 62.23 20.6, 62.16 36.67 M60.94 -0.3 C60.94 6.51, 60.02 14.52, 59.49 38 M61.03 38.39 C45.52 38.18, 30.88 37.8, -1.03 38.52 M61.18 36.58 C47.3 37.69, 33.09 37.57, 0.83 36.48 M0.18 38 C-0.43 23.67, -2.02 9.68, -0.71 0.25 M0.5 37.38 C-0.08 26.57, -0.22 18.1, -0.64 -0.68" stroke="#000000" stroke-width="1" fill="none"></path></g><g transform="translate(12.661276910646848 369.3765627249045) rotate(0 67.82395935058594 9.599999999999909)"><text x="0" y="0" font-family="Virgil, Segoe UI Emoji" font-size="16px" fill="#000000" text-anchor="start" style="white-space: pre;" direction="ltr">Validation Metric:</text></g><g stroke-linecap="round"><g transform="translate(153.28531658038628 386.54444378729477) rotate(0 267.9441441484687 -0.7432229887961057)"><path d="M-0.31 0.14 C146.62 -2.05, 293.8 -2.54, 535.39 0.2 M0 0.09 C174.02 -1.15, 347.77 -1.02, 536.2 -0.09" stroke="#000000" stroke-width="1" fill="none"></path></g></g><mask></mask><g transform="translate(11.58371017096124 593.1654051764617) rotate(0 74.36795806884766 9.599999999999909)"><text x="0" y="0" font-family="Virgil, Segoe UI Emoji" font-size="16px" fill="#000000" text-anchor="start" style="white-space: pre;" direction="ltr">Expected Outcome:</text></g><g transform="translate(11.042577496501508 709.1583138250012) rotate(0 64.4639663696289 9.599999999999909)"><text x="0" y="0" font-family="Virgil, Segoe UI Emoji" font-size="16px" fill="#000000" text-anchor="start" style="white-space: pre;" direction="ltr">Actual Outcome:</text></g><g stroke-linecap="round"><g transform="translate(205.08304799813232 610.3332862388515) rotate(0 241.29736257420223 -0.12856377892649107)"><path d="M-0.43 -0.52 C140.01 -0.77, 279.35 -0.64, 483.01 0.19 M-0.18 0.34 C156.2 -0.07, 312.76 0.57, 483.03 0.31" stroke="#000000" stroke-width="1" fill="none"></path></g></g><mask></mask><g stroke-linecap="round"><g transform="translate(17.33578469628719 647.3284606647312) rotate(0 335.5978307226769 0.44974136615519456)"><path d="M-0.48 0.2 C208.56 1.13, 417.04 1.36, 671.56 0.19 M0.32 -0.09 C152.46 1.29, 305.91 1.15, 671.68 0.26" stroke="#000000" stroke-width="1" fill="none"></path></g></g><mask></mask><g stroke-linecap="round"><g transform="translate(143.75009512377164 725.7569494468721) rotate(0 271.08963080275885 0.003028703361451335)"><path d="M0.2 0.2 C188.12 1.63, 376.7 1.49, 542.19 -0.58 M-0.09 -0.39 C153.54 -1.53, 306.78 -1.44, 542.27 0.34" stroke="#000000" stroke-width="1" fill="none"></path></g></g><mask></mask><g stroke-linecap="round"><g transform="translate(18.023871441903793 810.8318014820438) rotate(0 333.71937879061215 0.03794497268131636)"><path d="M0.2 -0.23 C166.77 -0.65, 333.08 -0.47, 666.91 -0.14 M-0.39 0.16 C172.37 0.61, 344.62 0.85, 667.83 -0.14" stroke="#000000" stroke-width="1" fill="none"></path></g></g><mask></mask><g transform="translate(11.042577496501508 563.6577383763306) rotate(0 61.775962829589844 9.599999999999909)"><text x="0" y="0" font-family="Virgil, Segoe UI Emoji" font-size="16px" fill="#000000" text-anchor="start" style="white-space: pre;" direction="ltr">Goal Validation:</text></g><g stroke-linecap="round"><g transform="translate(18.436966123610546 684.8256153515681) rotate(0 335.62765610610177 -0.07623412878297131)"><path d="M0.32 0.01 C218.08 0.95, 435.23 0.62, 671.05 0.64 M0.21 0.02 C186.98 -0.82, 373.72 -1.23, 670.99 -0.32" stroke="#000000" stroke-width="1" fill="none"></path></g></g><mask></mask><g stroke-linecap="round"><g transform="translate(19.66693610013317 767.2374638597789) rotate(0 332.707699022028 -0.42334139288686856)"><path d="M0.01 0.17 C215.94 -1.64, 431.37 -1.4, 665.41 -0.18 M0.02 0.29 C134.44 -1.03, 268.22 -1.76, 664.45 0.25" stroke="#000000" stroke-width="1" fill="none"></path></g></g><mask></mask><g transform="translate(11.291452561777078 841.3077264373678) rotate(0 63.679969787597656 9.599999999999909)"><text x="0" y="0" font-family="Virgil, Segoe UI Emoji" font-size="16px" fill="#000000" text-anchor="start" style="white-space: pre;" direction="ltr">Outcome Review:</text></g><g stroke-linecap="round"><g transform="translate(143.75009512377164 857.9063620592383) rotate(0 271.31453605099523 -0.4434764655450181)"><path d="M0.19 -0.58 C184.21 -0.81, 369.32 -0.65, 541.47 0.32 M0.26 0.34 C190.35 -1.99, 380.66 -1.34, 542.44 -0.12" stroke="#000000" stroke-width="1" fill="none"></path></g></g><mask></mask><g stroke-linecap="round"><g transform="translate(19.91581116540965 899.3868764721451) rotate(0 332.2577754128306 -0.4767523395103126)"><path d="M-0.58 -0.14 C199.53 0.01, 399.56 -1.41, 665.09 0.41 M0.34 -0.14 C202.88 -2.07, 406.8 -1.56, 664.65 0.31" stroke="#000000" stroke-width="1" fill="none"></path></g></g><mask></mask><g stroke-linecap="round"><g transform="translate(18.770251736918908 988.4924887616708) rotate(0 333.8807057460572 -0.13166769203144213)"><path d="M-0.14 -0.34 C215.47 1.76, 428.88 2.25, 667.9 0.05 M-0.14 -0.4 C248.97 -2.01, 498.77 -2.38, 667.8 -0.39" stroke="#000000" stroke-width="1" fill="none"></path></g></g><mask></mask><g stroke-linecap="round"><g transform="translate(20.413316395148286 944.8981511394059) rotate(0 332.20885156370264 0.266389118736015)"><path d="M-0.34 0.64 C214.93 -0.33, 430.54 0.86, 664.82 0.59 M-0.4 -0.32 C243.45 1.13, 486.28 1.26, 664.38 -0.06" stroke="#000000" stroke-width="1" fill="none"></path></g></g><mask></mask><g transform="translate(10.780601799027863 1129.2441591447578) rotate(0 53.77595520019531 9.599999999999909)"><text x="0" y="0" font-family="Virgil, Segoe UI Emoji" font-size="16px" fill="#000000" text-anchor="start" style="white-space: pre;" direction="ltr">Improvements:</text></g><g stroke-linecap="round"><g transform="translate(122.88221929463816 1145.8427947666282) rotate(0 281.4804011515398 0.17301637008563375)"><path d="M-0.18 -0.79 C159.53 -1.39, 318.46 -1.21, 563.14 0.68 M0.25 0.19 C148.69 2.11, 297.24 1.74, 562.44 -0.39" stroke="#000000" stroke-width="1" fill="none"></path></g></g><mask></mask><g stroke-linecap="round"><g transform="translate(19.404960402660436 1187.323309179535) rotate(0 332.33139067623324 -0.39452804489314985)"><path d="M-0.79 0.32 C171.87 0.63, 343.51 1.11, 665.45 -0.28 M0.19 -0.12 C133.29 -2.05, 265.9 -1.83, 664.38 0.25" stroke="#000000" stroke-width="1" fill="none"></path></g></g><mask></mask><g stroke-linecap="round"><g transform="translate(19.90246563239907 1232.8345838467953) rotate(0 332.4484803385617 0.6436926506225973)"><path d="M0.32 0.41 C252.57 3.2, 505.57 3.29, 664.49 -0.8 M-0.12 0.31 C145.9 -1.31, 292.41 -1.64, 665.02 -0.2" stroke="#000000" stroke-width="1" fill="none"></path></g></g><mask></mask><g transform="translate(10 1009.5631287882889) rotate(0 45.51997375488281 9.599999999999909)"><text x="0" y="0" font-family="Virgil, Segoe UI Emoji" font-size="16px" fill="#000000" text-anchor="start" style="white-space: pre;" direction="ltr">Acceptance:</text></g><g stroke-linecap="round"><g transform="translate(101.89828214874342 1026.1617644101589) rotate(0 291.0533439358878 -0.513685790762338)"><path d="M0.05 0.59 C118.16 -0.52, 234.99 -2, 582.17 0.5 M-0.39 -0.06 C202.05 -2.2, 404.7 -2.02, 582.49 -0.21" stroke="#000000" stroke-width="1" fill="none"></path></g></g><mask></mask><g stroke-linecap="round"><g transform="translate(18.624358603632572 1067.6422788230657) rotate(0 332.60526279747046 0.7677788369389873)"><path d="M0.59 0.53 C226.94 -0.44, 451.74 -0.79, 665.27 0.38 M-0.06 -0.17 C178.87 2.82, 358.32 2.25, 664.56 0.11" stroke="#000000" stroke-width="1" fill="none"></path></g></g><mask></mask><g stroke-linecap="round"><g transform="translate(19.1218638333703 1106.4868664786072) rotate(0 332.48630076624 -0.4248760665575446)"><path d="M0.53 0.68 C233.25 -2.75, 466.43 -1.45, 665.15 -0.24 M-0.17 -0.39 C251.4 0.2, 501.99 0.19, 664.88 0.2" stroke="#000000" stroke-width="1" fill="none"></path></g></g><mask></mask><g stroke-opacity="0.3" fill-opacity="0.3" transform="translate(629.353487996666 305.1346431819911) rotate(0 16.839027404785156 7.2000000000000455)"><text x="0" y="0" font-family="Virgil, Segoe UI Emoji" font-size="12.689426987415366px" fill="#000000" text-anchor="start" style="white-space: pre;" direction="ltr">Pass:</text></g><g stroke-opacity="0.3" fill-opacity="0.3" transform="translate(630.2960661151924 498.6773597743013) rotate(0 16.839027404785156 7.2000000000000455)"><text x="0" y="0" font-family="Virgil, Segoe UI Emoji" font-size="12.689426987415366px" fill="#000000" text-anchor="start" style="white-space: pre;" direction="ltr">Pass:</text></g></svg>