<svg version="1.1" xmlns="http://www.w3.org/2000/svg" viewBox="0 0 697.472966695711 1016.9152059973685" width="697.472966695711" height="1016.9152059973685">
  <!-- svg-source:excalidraw -->
  
  <defs>
    <style class="style-fonts">
      @font-face {
        font-family: "Virgil";
        src: url("https://excalidraw.com/Virgil.woff2");
      }
      @font-face {
        font-family: "Cascadia";
        src: url("https://excalidraw.com/Cascadia.woff2");
      }
    </style>
  </defs>
  <g stroke-linecap="round"><g transform="translate(16.071610659725593 478.6933062099479) rotate(0 335.4444484027813 -0.00808347115412289)"><path d="M0.67 -0.18 C153.43 -0.31, 306.59 -0.22, 671.08 0.43 M-0.19 0.19 C231.93 -0.3, 463.93 -0.82, 670.47 -0.09" stroke="#000000" stroke-width="1" fill="none"></path></g></g><mask></mask><g stroke-linecap="round"><g transform="translate(17.19785424249585 515.6884806358275) rotate(0 335.0468862463349 -0.10413765509770201)"><path d="M-0.18 0.14 C201.65 -2.23, 402.68 -1.49, 670.28 0.37 M0.19 0.14 C153.13 1.62, 305.35 1.41, 669.76 -0.2" stroke="#000000" stroke-width="1" fill="none"></path></g></g><mask></mask><g stroke-linecap="round"><g transform="translate(16.071584881661693 552.6873699356779) rotate(0 335.31513419482053 0.03417365868926936)"><path d="M0.14 0.7 C226.35 1.4, 453.43 1.04, 670.49 -0.58 M0.14 0.39 C218.57 -1.39, 436.58 -1.34, 669.93 0.03" stroke="#000000" stroke-width="1" fill="none"></path></g></g><mask></mask><g transform="translate(10 427.795634391382) rotate(0 88.23994445800781 9.599999999999909)"><text x="0" y="0" font-family="Virgil, Segoe UI Emoji" font-size="16px" fill="#000000" text-anchor="start" style="white-space: pre;" direction="ltr">Implementation Review:</text></g><g stroke-linecap="round"><g transform="translate(188.7937978001073 444.9635154537723) rotate(0 249.00651240458774 -0.34749475873127267)"><path d="M0 0.8 C138.79 -1.33, 276.43 -2.34, 497.92 -0.38 M0.35 -0.13 C172.78 -2.05, 345.09 -1.93, 498.01 0.09" stroke="#000000" stroke-width="1" fill="none"></path></g></g><mask></mask><g transform="translate(10 43.04903999790304) rotate(0 100.91193389892578 9.599999999999909)"><text x="0" y="0" font-family="Virgil, Segoe UI Emoji" font-size="16px" fill="#000000" text-anchor="start" style="white-space: pre;" direction="ltr">Implementation Validation:</text></g><g stroke-linecap="round" transform="translate(10 95.94104882688953) rotate(0 334.90012758018133 154.1603964661565)"><path d="M0.75 0.43 C260.08 -3.24, 519.64 -3.04, 670.18 0.29 M0.14 -0.09 C266.05 0.9, 532.78 0.96, 669.51 -0.38 M670.19 -0.36 C670.05 75.32, 670.45 149.85, 671.04 308.23 M669.28 -0.61 C668.78 98.71, 667.54 198.52, 669.3 308.81 M670.04 307.94 C473.08 307.41, 275.86 307.85, 0.14 308.84 M670.16 308 C412.04 309.57, 154.84 310.07, -0.16 308.39 M-0.73 307.45 C0.12 219.44, -0.64 130.42, 0.01 0.31 M-0.3 308.9 C1.45 207.85, 1.89 109.16, 0.04 0.53" stroke="#000000" stroke-width="1" fill="none"></path></g><g transform="translate(10 74.0481080731347) rotate(0 93.49593353271484 9.599999999999909)"><text x="0" y="0" font-family="Virgil, Segoe UI Emoji" font-size="16px" fill="#000000" text-anchor="start" style="white-space: pre;" direction="ltr">Implementation Process:</text></g><g stroke-linecap="round"><g stroke-opacity="0.2" fill-opacity="0.2" transform="translate(51.224259562877705 107.38781296946354) rotate(0 0.9086341814822845 142.97611934581232)"><path d="M0.69 -1.09 C2.41 113.38, 2.73 228.74, 1.48 287.04 M-0.37 0.06 C1.3 76.69, 0.2 152.29, -0.42 285.53" stroke="#000000" stroke-width="1" fill="none"></path></g></g><mask></mask><g stroke-linecap="round"><g stroke-opacity="0.2" fill-opacity="0.2" transform="translate(92.60798851635809 106.91069351981423) rotate(0 0.149389921690954 143.01407030115752)"><path d="M-1.09 0.39 C0.45 113.12, 1.71 226.29, 1.31 285.24 M0.06 0.56 C-0.29 94.99, -1.19 190.65, -0.2 285.64" stroke="#000000" stroke-width="1" fill="none"></path></g></g><mask></mask><g stroke-linecap="round"><g stroke-opacity="0.2" fill-opacity="0.2" transform="translate(134.79923989282452 107.11296743965613) rotate(0 0.22238723564146312 142.7633238889241)"><path d="M0.39 -0.72 C1.7 101.73, 2.47 203.69, -0.49 286.25 M0.56 0.18 C-1.61 78.8, -1.48 158.85, -0.09 285.93" stroke="#000000" stroke-width="1" fill="none"></path></g></g><mask></mask><g stroke-linecap="round"><g stroke-opacity="0.2" fill-opacity="0.2" transform="translate(176.66136387963616 107.28389906355596) rotate(0 -0.13247547047649277 142.49427366640793)"><path d="M-0.72 0.71 C-1.01 100.28, -0.24 197.11, 0.52 285.4 M0.18 -0.55 C-0.55 71.3, -0.02 143.36, 0.21 285.54" stroke="#000000" stroke-width="1" fill="none"></path></g></g><mask></mask><g stroke-linecap="round"><g stroke-opacity="0.2" fill-opacity="0.2" transform="translate(218.44380991043363 107.96807600828697) rotate(0 0.3064336908162204 142.71817656527605)"><path d="M0.71 0.54 C2.03 66.47, 0.07 130.82, -0.33 284.99 M-0.55 -0.73 C1.18 87.89, 1.51 176.37, -0.19 286.16" stroke="#000000" stroke-width="1" fill="none"></path></g></g><mask></mask><g stroke-linecap="round"><g stroke-opacity="0.2" fill-opacity="0.2" transform="translate(261.2661684110599 108.13923116436627) rotate(0 -0.09932583314434851 142.71709309690073)"><path d="M0.54 1.48 C0.28 92.56, -0.51 185.76, -0.74 285.85 M-0.73 -0.42 C0.31 106.79, 0.71 213.57, 0.43 285.68" stroke="#000000" stroke-width="1" fill="none"></path></g></g><mask></mask><g stroke-linecap="round"><g stroke-opacity="0.2" fill-opacity="0.2" transform="translate(302.9221069166615 107.26984606110182) rotate(0 0.0682835130037347 143.3263937898846)"><path d="M1.48 1.31 C0.53 72.62, 0.69 143.45, 0.13 286.85 M-0.42 -0.2 C-1.65 92.61, -1.76 185.24, -0.05 286.37" stroke="#000000" stroke-width="1" fill="none"></path></g></g><mask></mask><g stroke-linecap="round"><g stroke-opacity="0.2" fill-opacity="0.2" transform="translate(345.30302416611266 107.29309646712272) rotate(0 0.013898173154075266 142.7972855107971)"><path d="M1.31 -0.49 C1.3 98.78, 0.03 198.35, 1.12 286.08 M-0.2 -0.09 C-1.87 64.85, -1.64 130.04, 0.64 285.21" stroke="#000000" stroke-width="1" fill="none"></path></g></g><mask></mask><g stroke-linecap="round"><g stroke-opacity="0.2" fill-opacity="0.2" transform="translate(386.81470980731865 107.17130410282152) rotate(0 0.22947612893926816 143.29375016194058)"><path d="M-0.49 0.52 C1.78 95.22, 2.23 193.05, 0.35 284.63 M-0.09 0.21 C-1.39 58.78, -1.25 117.33, -0.52 286.38" stroke="#000000" stroke-width="1" fill="none"></path></g></g><mask></mask><g stroke-linecap="round"><g stroke-opacity="0.2" fill-opacity="0.2" transform="translate(428.9121661169993 107.40126237563027) rotate(0 0.19193333038083438 142.6762206767471)"><path d="M0.52 -0.33 C1.14 113.7, 3 227.51, -1.1 284.28 M0.21 -0.19 C-0.13 69.84, 0.08 139.26, 0.65 285.68" stroke="#000000" stroke-width="1" fill="none"></path></g></g><mask></mask><g stroke-linecap="round"><g stroke-opacity="0.2" fill-opacity="0.2" transform="translate(470.03815566458434 107.68620031273576) rotate(0 -0.7491530567151585 142.57270763750194)"><path d="M-0.33 -0.74 C-0.57 111.63, -0.34 219.93, -1.45 284.89 M-0.19 0.43 C-0.3 78.93, -0.77 157.23, -0.05 285.89" stroke="#000000" stroke-width="1" fill="none"></path></g></g><mask></mask><g stroke-linecap="round"><g stroke-opacity="0.2" fill-opacity="0.2" transform="translate(513.3492299562367 106.91975376831897) rotate(0 0.08292530325820735 142.64357746445194)"><path d="M-0.74 0.13 C1.86 76.86, -0.35 151.57, -0.84 285.33 M0.43 -0.05 C1.23 81.87, 1.24 164.71, 0.16 285.15" stroke="#000000" stroke-width="1" fill="none"></path></g></g><mask></mask><g stroke-linecap="round"><g stroke-opacity="0.2" fill-opacity="0.2" transform="translate(554.8204474340428 106.9582188154186) rotate(0 -0.4375220181163968 143.09716838025815)"><path d="M0.13 1.12 C-0.11 94.44, -1.92 190.23, -0.39 285.55 M-0.05 0.64 C-1.06 94.14, -0.6 187.13, -0.58 285.43" stroke="#000000" stroke-width="1" fill="none"></path></g></g><mask></mask><g stroke-linecap="round"><g stroke-opacity="0.2" fill-opacity="0.2" transform="translate(597.2787015640624 107.14726577720057) rotate(0 -0.040832517091075715 142.81244500097614)"><path d="M1.12 0.35 C-2.16 78.07, -1.9 158.65, -0.18 286.14 M0.64 -0.52 C1.89 78.43, 1.4 156.37, -0.3 285.18" stroke="#000000" stroke-width="1" fill="none"></path></g></g><mask></mask><g stroke-linecap="round"><g stroke-opacity="0.2" fill-opacity="0.2" transform="translate(639.612770816816 106.4801883547857) rotate(0 -0.08617268833995695 142.1244106767565)"><path d="M0.35 -1.1 C-1.27 70.88, -0.21 143.27, 0.41 285.34 M-0.52 0.65 C-0.18 102.24, -0.72 203.85, -0.55 285.08" stroke="#000000" stroke-width="1" fill="none"></path></g></g><mask></mask><g stroke-linecap="round"><g stroke-opacity="0.2" fill-opacity="0.2" transform="translate(17.9180121539448 141.12599681423626) rotate(0 322.5485787524433 0.187307898487461)"><path d="M-0.58 -0.77 C198.67 -0.81, 398.13 -0.39, 645.68 0.46 M0.35 -0.03 C189.81 1.45, 379.29 1.47, 645.54 0.38" stroke="#000000" stroke-width="1" fill="none"></path></g></g><mask></mask><g stroke-linecap="round"><g stroke-opacity="0.2" fill-opacity="0.2" transform="translate(19.293485944364875 179.377362786488) rotate(0 322.78517438159906 -0.3196433199270814)"><path d="M-0.77 -0.44 C241.39 1.78, 483.41 1.67, 646.34 -0.05 M-0.03 0.08 C248.31 -2.39, 496.94 -2.57, 646.26 -0.14" stroke="#000000" stroke-width="1" fill="none"></path></g></g><mask></mask><g stroke-linecap="round"><g stroke-opacity="0.2" fill-opacity="0.2" transform="translate(20.608537767651796 218.37158074515582) rotate(0 322.69278935329635 0.9394302286084439)"><path d="M-0.44 -0.21 C208.79 2.69, 417.56 2.93, 645.83 0.68 M0.08 -0.31 C149.66 -0.13, 299.31 0.54, 645.73 -0.31" stroke="#000000" stroke-width="1" fill="none"></path></g></g><mask></mask><g stroke-linecap="round"><g stroke-opacity="0.2" fill-opacity="0.2" transform="translate(21.453367989610342 256.16288291497403) rotate(0 323.1258570869045 0.15457481124963124)"><path d="M-0.21 -0.09 C147.25 1.23, 294.52 1.38, 646.56 -0.54 M-0.31 -0.16 C249.21 -0.88, 499.39 -0.69, 645.57 0.33" stroke="#000000" stroke-width="1" fill="none"></path></g></g><mask></mask><g stroke-linecap="round"><g stroke-opacity="0.2" fill-opacity="0.2" transform="translate(20.43617832727432 293.97679546444533) rotate(0 323.02388422214995 0.578041402109875)"><path d="M-0.09 0.22 C131.68 1.13, 263.71 1.35, 645.33 0.69 M-0.16 -0.29 C189.37 2.36, 379.27 1.67, 646.21 -0.28" stroke="#000000" stroke-width="1" fill="none"></path></g></g><mask></mask><g stroke-linecap="round"><g stroke-opacity="0.2" fill-opacity="0.2" transform="translate(18.537608520803587 334.14203514485735) rotate(0 323.1387873430331 0.2690840615105117)"><path d="M0.22 -0.2 C158.44 0.25, 316.64 -0.24, 646.57 -0.05 M-0.29 -0.34 C207.7 0.88, 414.32 1.36, 645.6 0.27" stroke="#000000" stroke-width="1" fill="none"></path></g></g><mask></mask><g stroke-linecap="round"><g stroke-opacity="0.2" fill-opacity="0.2" transform="translate(17.466461708894713 372.8135222348333) rotate(0 322.90581048452873 0.6097755949372186)"><path d="M-0.2 0.46 C176.92 -0.02, 353.39 -0.01, 645.83 0.17 M-0.34 0.38 C144.13 1.57, 288.87 1.61, 646.15 -0.02" stroke="#000000" stroke-width="1" fill="none"></path></g></g><mask></mask><g stroke-linecap="round"><g transform="translate(16.071610659726502 626.0982620486279) rotate(0 335.43956992353924 0.6466499672249029)"><path d="M0.46 -0.05 C193.95 0.14, 387.23 0.63, 670.5 -0.61 M0.38 -0.14 C174.1 2.61, 348.55 2.56, 670.31 -0.1" stroke="#000000" stroke-width="1" fill="none"></path></g></g><mask></mask><g stroke-linecap="round"><g transform="translate(17.19785424249676 663.0934364745076) rotate(0 334.7965807445905 -0.6998495849386472)"><path d="M-0.05 0.68 C218.62 -0.84, 438.28 -1.37, 669.23 -0.32 M-0.14 -0.31 C152.44 -2.81, 304.49 -2.56, 669.74 -0.18" stroke="#000000" stroke-width="1" fill="none"></path></g></g><mask></mask><g transform="translate(10 573.8716417482774) rotate(0 92.58392333984375 9.599999999999909)"><text x="0" y="0" font-family="Virgil, Segoe UI Emoji" font-size="16px" fill="#000000" text-anchor="start" style="white-space: pre;" direction="ltr">Proposed Improvements:</text></g><g stroke-linecap="round"><g transform="translate(196.17513449330272 592.3684712924523) rotate(0 244.9440448138564 -0.19660902672603697)"><path d="M-0.57 0.72 C175.12 -1.56, 349.71 -2.06, 489.72 -0.71 M0.34 -0.29 C193.83 1.57, 386.98 1.41, 490.45 -0.2" stroke="#000000" stroke-width="1" fill="none"></path></g></g><mask></mask><g stroke-linecap="round" transform="translate(10 698.5944130650555) rotate(0 334.90012758018133 154.1603964661565)"><path d="M0.69 -0.05 C196.92 1.21, 393.19 1.24, 669.12 0.76 M-0.28 0.27 C176.73 -2.3, 353.33 -2.08, 669.61 0.31 M670.04 0.93 C673.07 104, 672.59 206.76, 668.65 307.25 M669.52 0.13 C669.56 84.48, 669.98 168.46, 669.36 308.5 M669.81 308.5 C452.6 308.81, 234.89 309.05, 0.64 308.15 M669.82 308.61 C534.87 310.03, 399.27 309.3, -0.32 308.57 M-1.39 308.11 C0.05 199.94, 1.56 93.63, -1.15 -0.74 M0.4 308.53 C-0.85 206.73, -0.71 105.35, -0.03 -0.27" stroke="#000000" stroke-width="1" fill="none"></path></g><g transform="translate(10 676.7014723113002) rotate(0 70.52793884277344 9.599999999999909)"><text x="0" y="0" font-family="Virgil, Segoe UI Emoji" font-size="16px" fill="#000000" text-anchor="start" style="white-space: pre;" direction="ltr">Improved Process:</text></g><g stroke-linecap="round"><g stroke-opacity="0.2" fill-opacity="0.2" transform="translate(51.224259562877705 710.0411772076295) rotate(0 -0.2962677509913192 142.63530785859598)"><path d="M0.32 -1.16 C1.26 65.18, 0.58 133.99, -0.55 284.54 M-0.04 -0.2 C-1.83 109.39, -1.86 218.91, 0.25 286.43" stroke="#000000" stroke-width="1" fill="none"></path></g></g><mask></mask><g stroke-linecap="round"><g stroke-opacity="0.2" fill-opacity="0.2" transform="translate(92.60798851635809 709.5640577579802) rotate(0 0.16940562166200834 143.18391104656303)"><path d="M-1.16 -0.6 C-1.24 109.09, 1.3 220.21, -1.19 286.97 M-0.2 -0.33 C1.71 65.63, 2.07 132.24, 0.7 286.4" stroke="#000000" stroke-width="1" fill="none"></path></g></g><mask></mask><g stroke-linecap="round"><g stroke-opacity="0.2" fill-opacity="0.2" transform="translate(134.7992398928236 709.7663316778221) rotate(0 0.29869418364319245 142.37610516748964)"><path d="M-0.6 -1.1 C-0.84 85.36, -0.09 166.66, 1.24 284.68 M-0.33 0.23 C-0.48 105.83, 0.14 211.19, 0.67 285.86" stroke="#000000" stroke-width="1" fill="none"></path></g></g><mask></mask><g stroke-linecap="round"><g stroke-opacity="0.2" fill-opacity="0.2" transform="translate(176.66136387963616 709.9372633017215) rotate(0 -0.7306331686929752 142.7369534721065)"><path d="M-1.1 -1.29 C-0.22 91.17, -2.84 184.67, -1.05 286.76 M0.23 -0.36 C0.02 84.44, 0.14 169.04, 0.13 286.22" stroke="#000000" stroke-width="1" fill="none"></path></g></g><mask></mask><g stroke-linecap="round"><g stroke-opacity="0.2" fill-opacity="0.2" transform="translate(218.44380991043363 710.621440246453) rotate(0 -0.13002090412123835 143.4779863870956)"><path d="M-1.29 1.43 C-1.41 62.64, 0.38 126.6, 1.03 285.65 M-0.36 0.59 C-0.7 78.97, -0.28 156.66, 0.49 286.37" stroke="#000000" stroke-width="1" fill="none"></path></g></g><mask></mask><g stroke-linecap="round"><g stroke-opacity="0.2" fill-opacity="0.2" transform="translate(261.26616841105897 710.7925954025318) rotate(0 -0.2213415449562035 142.9257037062066)"><path d="M1.43 -0.55 C-2.76 75.58, -2.62 149.72, -0.08 285.33 M0.59 0.25 C1.36 73.84, 0.79 146.84, 0.64 286.4" stroke="#000000" stroke-width="1" fill="none"></path></g></g><mask></mask><g stroke-linecap="round"><g stroke-opacity="0.2" fill-opacity="0.2" transform="translate(302.9221069166606 709.9232102992673) rotate(0 0.012201086159166152 142.46283458272978)"><path d="M-0.55 -1.19 C-0.6 63.84, -0.81 129.69, -0.4 285.06 M0.25 0.7 C-0.37 94.52, -0.56 189.43, 0.67 286.11" stroke="#000000" stroke-width="1" fill="none"></path></g></g><mask></mask><g stroke-linecap="round"><g stroke-opacity="0.2" fill-opacity="0.2" transform="translate(345.30302416611175 709.9464607052887) rotate(0 0.25049634525294096 143.54227625911426)"><path d="M-1.19 1.24 C1 62.43, 1.97 122.4, -0.66 286.19 M0.7 0.67 C1.81 72.44, 2.32 144.57, 0.38 286.42" stroke="#000000" stroke-width="1" fill="none"></path></g></g><mask></mask><g stroke-linecap="round"><g stroke-opacity="0.2" fill-opacity="0.2" transform="translate(386.81470980731774 709.824668340987) rotate(0 0.4790207388412 142.03779888318286)"><path d="M1.24 -1.05 C0.25 112.7, -1.18 224.9, 0.46 285 M0.67 0.13 C1.2 108.58, 1.39 216.26, 0.69 285.12" stroke="#000000" stroke-width="1" fill="none"></path></g></g><mask></mask><g stroke-linecap="round"><g stroke-opacity="0.2" fill-opacity="0.2" transform="translate(428.9121661169984 710.0546266137958) rotate(0 0.035642683515334284 143.69649808309737)"><path d="M-1.05 1.03 C-1.77 75, -2.36 151.26, -0.73 286.91 M0.13 0.49 C2.65 95.87, 2.39 191.09, -0.61 285.16" stroke="#000000" stroke-width="1" fill="none"></path></g></g><mask></mask><g stroke-linecap="round"><g stroke-opacity="0.2" fill-opacity="0.2" transform="translate(470.0381556645834 710.3395645509013) rotate(0 0.6936168131242084 143.07468906691952)"><path d="M1.03 -0.08 C1.38 62.69, 2.23 125.98, 1.18 286.23 M0.49 0.64 C2.58 112.62, 2.6 223.87, -0.57 285.53" stroke="#000000" stroke-width="1" fill="none"></path></g></g><mask></mask><g stroke-linecap="round"><g stroke-opacity="0.2" fill-opacity="0.2" transform="translate(513.3492299562358 709.5731180064845) rotate(0 -0.4740648229701492 143.36926237067883)"><path d="M-0.08 -0.4 C-2.16 109.62, -2.22 219.5, 0.5 287.13 M0.64 0.67 C0.75 111.66, -0.24 221.38, -0.2 285.67" stroke="#000000" stroke-width="1" fill="none"></path></g></g><mask></mask><g stroke-linecap="round"><g stroke-opacity="0.2" fill-opacity="0.2" transform="translate(554.8204474340428 709.6115830535841) rotate(0 0.8089185501796692 143.20094217678593)"><path d="M-0.4 -0.66 C1.94 65.26, 2.66 132.49, 1.41 287.07 M0.67 0.38 C2.08 89.94, 0.83 180.9, -0.06 286.48" stroke="#000000" stroke-width="1" fill="none"></path></g></g><mask></mask><g stroke-linecap="round"><g stroke-opacity="0.2" fill-opacity="0.2" transform="translate(597.2787015640615 709.8006300153666) rotate(0 0.32787815012807187 143.22211068808997)"><path d="M-0.66 0.46 C-0.85 106.42, 0.39 211.89, 1.34 285.98 M0.38 0.69 C1.22 103.54, 1.63 208.15, 0.75 285.43" stroke="#000000" stroke-width="1" fill="none"></path></g></g><mask></mask><g stroke-linecap="round"><g stroke-opacity="0.2" fill-opacity="0.2" transform="translate(639.612770816816 709.1335525929512) rotate(0 0.4831735970487898 142.98646588115867)"><path d="M0.46 -0.73 C0.61 84.69, 0.84 169.71, 0.26 286.7 M0.69 -0.61 C1.35 109.63, 1.86 220.41, -0.29 285.86" stroke="#000000" stroke-width="1" fill="none"></path></g></g><mask></mask><g stroke-linecap="round"><g stroke-opacity="0.2" fill-opacity="0.2" transform="translate(17.9180121539448 743.7793610524018) rotate(0 323.004040683672 -0.5977528079010881)"><path d="M-0.39 0.62 C177.18 -0.04, 354.53 -0.65, 646.39 0.68 M-0.32 -0.3 C250.81 -2.37, 502.24 -2.5, 645.95 -0.04" stroke="#000000" stroke-width="1" fill="none"></path></g></g><mask></mask><g stroke-linecap="round"><g stroke-opacity="0.2" fill-opacity="0.2" transform="translate(19.293485944364875 782.030727024654) rotate(0 323.12766051483914 0.8091294435441796)"><path d="M0.62 0.27 C166.15 1.95, 330.95 1.76, 646.55 0.71 M-0.3 -0.1 C226.37 2.47, 452.65 2.14, 645.84 0.04" stroke="#000000" stroke-width="1" fill="none"></path></g></g><mask></mask><g stroke-linecap="round"><g stroke-opacity="0.2" fill-opacity="0.2" transform="translate(20.608537767651796 821.0249449833213) rotate(0 323.24092698922004 0.16745218510777704)"><path d="M0.27 0.74 C214.09 -1.87, 427.27 -1.33, 646.59 0.4 M-0.1 -0.03 C252.78 1.77, 504.83 1.89, 645.92 0.19" stroke="#000000" stroke-width="1" fill="none"></path></g></g><mask></mask><g stroke-linecap="round"><g stroke-opacity="0.2" fill-opacity="0.2" transform="translate(21.453367989610342 858.81624715314) rotate(0 323.12691183877746 0.2617629187182047)"><path d="M0.74 0.71 C162.78 -0.34, 325.96 -0.15, 646.28 0.73 M-0.03 0.4 C141.79 0.75, 283.85 0.72, 646.07 -0.2" stroke="#000000" stroke-width="1" fill="none"></path></g></g><mask></mask><g stroke-linecap="round"><g stroke-opacity="0.2" fill-opacity="0.2" transform="translate(20.43617832727432 896.6301597026113) rotate(0 323.50158481826656 -0.6697042000866986)"><path d="M0.71 0.14 C244.51 -1.72, 488.7 -1.99, 646.6 -0.64 M0.4 -0.16 C145.62 0.15, 291.14 0.38, 645.68 -0.24" stroke="#000000" stroke-width="1" fill="none"></path></g></g><mask></mask><g stroke-linecap="round"><g stroke-opacity="0.2" fill-opacity="0.2" transform="translate(18.537608520802678 936.7953993830229) rotate(0 322.7406493286194 -0.7273914526356293)"><path d="M0.14 0.51 C215.87 -1.58, 430.79 -1.56, 645.24 -0.6 M-0.16 0.07 C176.78 -2.53, 353.84 -2.78, 645.64 0.1" stroke="#000000" stroke-width="1" fill="none"></path></g></g><mask></mask><g stroke-linecap="round"><g stroke-opacity="0.2" fill-opacity="0.2" transform="translate(17.466461708894713 975.4668864729992) rotate(0 323.02395697557927 0.10163500927842506)"><path d="M0.51 0.68 C254.42 -0.03, 508.14 -1.08, 645.28 -0.21 M0.07 -0.04 C189.08 1.19, 377.88 0.76, 645.98 0.1" stroke="#000000" stroke-width="1" fill="none"></path></g></g><mask></mask><g transform="translate(10 10) rotate(0 33.64997100830078 12)"><text x="0" y="0" font-family="Virgil, Segoe UI Emoji" font-size="20px" fill="#000000" text-anchor="start" style="white-space: pre;" direction="ltr">Review:</text></g></svg>