<svg version="1.1" xmlns="http://www.w3.org/2000/svg" viewBox="0 0 1295.6918500257545 741.5640912474045" width="1295.6918500257545" height="741.5640912474045">
  <!-- svg-source:excalidraw -->
  
  <defs>
    <style class="style-fonts">
      @font-face {
        font-family: "Virgil";
        src: url("https://excalidraw.com/Virgil.woff2");
      }
      @font-face {
        font-family: "Cascadia";
        src: url("https://excalidraw.com/Cascadia.woff2");
      }
    </style>
  </defs>
  <g stroke-linecap="round"><g transform="translate(977.1845191352265 454.00605732480915) rotate(0 0.9266797729569589 28.02046142998688)"><path d="M0.74 -0.29 C0.83 9.17, -0.09 48.17, 0.01 57.52 M-0.33 -1.48 C0.17 7.59, 2 46.24, 2.18 55.97" stroke="#000000" stroke-width="1" fill="none"></path></g></g><mask></mask><g stroke-linecap="round"><g transform="translate(588.8499280276199 298.4621411071224) rotate(0 1.1353350349597804 105.56944693943763)"><path d="M-0.29 -1.03 C0.01 34.21, 2.36 176.77, 2.56 212.17 M1.76 1.05 C1.92 35.84, 2.5 174.98, 2.17 210.21" stroke="#000000" stroke-width="1" fill="none"></path></g></g><mask></mask><g stroke-linecap="round"><g transform="translate(719.3484971427572 325.5603682606055) rotate(0 1.125094074507615 90.98394974217126)"><path d="M-1.03 1.08 C-0.6 31.15, 2.7 150.03, 3.28 180.15 M0.63 0.6 C0.86 30.85, 2.36 151.48, 2.49 181.37" stroke="#000000" stroke-width="1" fill="none"></path></g></g><mask></mask><g stroke-linecap="round"><g transform="translate(452.74021032446217 399.1911972987672) rotate(0 0.6061690371343502 54.171137632606474)"><path d="M1.08 0.31 C1.02 18.43, -0.58 89.76, -0.59 107.64 M0.18 -0.57 C0.56 17.79, 1.71 90.71, 1.81 108.91" stroke="#000000" stroke-width="1" fill="none"></path></g></g><mask></mask><g transform="translate(558.4853355861392 509.9479618983124) rotate(0 55.499999999999886 70)"><text x="0" y="15" font-family="Virgil, Segoe UI Emoji" font-size="16px" fill="#000000" text-anchor="start" style="white-space: pre;" direction="ltr">Sprint:</text><text x="0" y="35" font-family="Virgil, Segoe UI Emoji" font-size="16px" fill="#000000" text-anchor="start" style="white-space: pre;" direction="ltr">Produce</text><text x="0" y="55" font-family="Virgil, Segoe UI Emoji" font-size="16px" fill="#000000" text-anchor="start" style="white-space: pre;" direction="ltr">Experiment</text><text x="0" y="75" font-family="Virgil, Segoe UI Emoji" font-size="16px" fill="#000000" text-anchor="start" style="white-space: pre;" direction="ltr">Invest Effort</text><text x="0" y="95" font-family="Virgil, Segoe UI Emoji" font-size="16px" fill="#000000" text-anchor="start" style="white-space: pre;" direction="ltr"></text><text x="0" y="115" font-family="Virgil, Segoe UI Emoji" font-size="16px" fill="#000000" text-anchor="start" style="white-space: pre;" direction="ltr">Increment:</text><text x="0" y="135" font-family="Virgil, Segoe UI Emoji" font-size="16px" fill="#000000" text-anchor="start" style="white-space: pre;" direction="ltr">Sprint</text></g><g transform="translate(421.70768765887715 509.9490911758827) rotate(0 47 70)"><text x="0" y="15" font-family="Virgil, Segoe UI Emoji" font-size="16px" fill="#000000" text-anchor="start" style="white-space: pre;" direction="ltr">Sprint:</text><text x="0" y="35" font-family="Virgil, Segoe UI Emoji" font-size="16px" fill="#000000" text-anchor="start" style="white-space: pre;" direction="ltr">Prepare</text><text x="0" y="55" font-family="Virgil, Segoe UI Emoji" font-size="16px" fill="#000000" text-anchor="start" style="white-space: pre;" direction="ltr">Hypothesize</text><text x="0" y="75" font-family="Virgil, Segoe UI Emoji" font-size="16px" fill="#000000" text-anchor="start" style="white-space: pre;" direction="ltr">Reduce Risk</text><text x="0" y="95" font-family="Virgil, Segoe UI Emoji" font-size="16px" fill="#000000" text-anchor="start" style="white-space: pre;" direction="ltr"></text><text x="0" y="115" font-family="Virgil, Segoe UI Emoji" font-size="16px" fill="#000000" text-anchor="start" style="white-space: pre;" direction="ltr">Increment:</text><text x="0" y="135" font-family="Virgil, Segoe UI Emoji" font-size="16px" fill="#000000" text-anchor="start" style="white-space: pre;" direction="ltr">Backlog</text></g><g transform="translate(285.66065546890354 510.464533607064) rotate(0 57 110)"><text x="0" y="15" font-family="Virgil, Segoe UI Emoji" font-size="16px" fill="#000000" text-anchor="start" style="white-space: pre;" direction="ltr">Sprint:</text><text x="0" y="35" font-family="Virgil, Segoe UI Emoji" font-size="16px" fill="#000000" text-anchor="start" style="white-space: pre;" direction="ltr">Plan</text><text x="0" y="55" font-family="Virgil, Segoe UI Emoji" font-size="16px" fill="#000000" text-anchor="start" style="white-space: pre;" direction="ltr">Research</text><text x="0" y="75" font-family="Virgil, Segoe UI Emoji" font-size="16px" fill="#000000" text-anchor="start" style="white-space: pre;" direction="ltr">Identify Risk</text><text x="0" y="95" font-family="Virgil, Segoe UI Emoji" font-size="16px" fill="#000000" text-anchor="start" style="white-space: pre;" direction="ltr"></text><text x="0" y="115" font-family="Virgil, Segoe UI Emoji" font-size="16px" fill="#000000" text-anchor="start" style="white-space: pre;" direction="ltr">Increment:</text><text x="0" y="135" font-family="Virgil, Segoe UI Emoji" font-size="16px" fill="#000000" text-anchor="start" style="white-space: pre;" direction="ltr">Planning:</text><text x="0" y="155" font-family="Virgil, Segoe UI Emoji" font-size="16px" fill="#000000" text-anchor="start" style="white-space: pre;" direction="ltr">- Next Month </text><text x="0" y="175" font-family="Virgil, Segoe UI Emoji" font-size="16px" fill="#000000" text-anchor="start" style="white-space: pre;" direction="ltr">- 3 Month</text><text x="0" y="195" font-family="Virgil, Segoe UI Emoji" font-size="16px" fill="#000000" text-anchor="start" style="white-space: pre;" direction="ltr">- 6 Month</text><text x="0" y="215" font-family="Virgil, Segoe UI Emoji" font-size="16px" fill="#000000" text-anchor="start" style="white-space: pre;" direction="ltr">- 1 Year</text></g><g stroke-linecap="round"><g transform="translate(318.01497013202334 453.0030460193642) rotate(0 0.6001622315861823 28.271590658360083)"><path d="M1.01 -0.53 C1.31 8.82, 1.16 46.24, 1.18 55.6 M0.09 1.8 C0.24 11.39, -0.02 47.89, 0 57.08" stroke="#000000" stroke-width="1" fill="none"></path></g></g><mask></mask><g transform="translate(691.9249746621379 509.6516227049109) rotate(0 41.5 70)"><text x="0" y="15" font-family="Virgil, Segoe UI Emoji" font-size="16px" fill="#000000" text-anchor="start" style="white-space: pre;" direction="ltr">Sprint:</text><text x="0" y="35" font-family="Virgil, Segoe UI Emoji" font-size="16px" fill="#000000" text-anchor="start" style="white-space: pre;" direction="ltr">Review</text><text x="0" y="55" font-family="Virgil, Segoe UI Emoji" font-size="16px" fill="#000000" text-anchor="start" style="white-space: pre;" direction="ltr">Analyse</text><text x="0" y="75" font-family="Virgil, Segoe UI Emoji" font-size="16px" fill="#000000" text-anchor="start" style="white-space: pre;" direction="ltr">Crystallise</text><text x="0" y="95" font-family="Virgil, Segoe UI Emoji" font-size="16px" fill="#000000" text-anchor="start" style="white-space: pre;" direction="ltr"></text><text x="0" y="115" font-family="Virgil, Segoe UI Emoji" font-size="16px" fill="#000000" text-anchor="start" style="white-space: pre;" direction="ltr">Increment:</text><text x="0" y="135" font-family="Virgil, Segoe UI Emoji" font-size="16px" fill="#000000" text-anchor="start" style="white-space: pre;" direction="ltr">Demo</text></g><g transform="translate(945.9252146647411 512.0983257044962) rotate(0 40 70)"><text x="0" y="15" font-family="Virgil, Segoe UI Emoji" font-size="16px" fill="#000000" text-anchor="start" style="white-space: pre;" direction="ltr">Sprint:</text><text x="0" y="35" font-family="Virgil, Segoe UI Emoji" font-size="16px" fill="#000000" text-anchor="start" style="white-space: pre;" direction="ltr">Adjust</text><text x="0" y="55" font-family="Virgil, Segoe UI Emoji" font-size="16px" fill="#000000" text-anchor="start" style="white-space: pre;" direction="ltr">Observe</text><text x="0" y="75" font-family="Virgil, Segoe UI Emoji" font-size="16px" fill="#000000" text-anchor="start" style="white-space: pre;" direction="ltr">Re-Invest</text><text x="0" y="95" font-family="Virgil, Segoe UI Emoji" font-size="16px" fill="#000000" text-anchor="start" style="white-space: pre;" direction="ltr"></text><text x="0" y="115" font-family="Virgil, Segoe UI Emoji" font-size="16px" fill="#000000" text-anchor="start" style="white-space: pre;" direction="ltr">Increment:</text><text x="0" y="135" font-family="Virgil, Segoe UI Emoji" font-size="16px" fill="#000000" text-anchor="start" style="white-space: pre;" direction="ltr">Workshop</text></g><g stroke-linecap="round"><g transform="translate(851.2295818159016 423.4718228677174) rotate(0 -0.10491831977492438 42.64122960708016)"><path d="M-0.11 -0.44 C0.21 13.95, 0.96 71.45, 1.42 85.88 M-1.63 -1.72 C-1.42 12.84, -0.25 72.19, 0.44 87" stroke="#000000" stroke-width="1" fill="none"></path></g></g><mask></mask><g transform="translate(820.5488777862554 511.56409124740446) rotate(0 57.5 110)"><text x="0" y="15" font-family="Virgil, Segoe UI Emoji" font-size="16px" fill="#000000" text-anchor="start" style="white-space: pre;" direction="ltr">Sprint:</text><text x="0" y="35" font-family="Virgil, Segoe UI Emoji" font-size="16px" fill="#000000" text-anchor="start" style="white-space: pre;" direction="ltr">Reflect</text><text x="0" y="55" font-family="Virgil, Segoe UI Emoji" font-size="16px" fill="#000000" text-anchor="start" style="white-space: pre;" direction="ltr">Conclude</text><text x="0" y="75" font-family="Virgil, Segoe UI Emoji" font-size="16px" fill="#000000" text-anchor="start" style="white-space: pre;" direction="ltr">Eval Return</text><text x="0" y="95" font-family="Virgil, Segoe UI Emoji" font-size="16px" fill="#000000" text-anchor="start" style="white-space: pre;" direction="ltr"></text><text x="0" y="115" font-family="Virgil, Segoe UI Emoji" font-size="16px" fill="#000000" text-anchor="start" style="white-space: pre;" direction="ltr">Increment:</text><text x="0" y="135" font-family="Virgil, Segoe UI Emoji" font-size="16px" fill="#000000" text-anchor="start" style="white-space: pre;" direction="ltr">Retro:</text><text x="0" y="155" font-family="Virgil, Segoe UI Emoji" font-size="16px" fill="#000000" text-anchor="start" style="white-space: pre;" direction="ltr">- Last Month </text><text x="0" y="175" font-family="Virgil, Segoe UI Emoji" font-size="16px" fill="#000000" text-anchor="start" style="white-space: pre;" direction="ltr">- 3 Month</text><text x="0" y="195" font-family="Virgil, Segoe UI Emoji" font-size="16px" fill="#000000" text-anchor="start" style="white-space: pre;" direction="ltr">- 6 Month</text><text x="0" y="215" font-family="Virgil, Segoe UI Emoji" font-size="16px" fill="#000000" text-anchor="start" style="white-space: pre;" direction="ltr">- 1 Year</text></g><g stroke-linecap="round"><g transform="translate(40.4949303519918 459.7618865984681) rotate(0 621.8234606451437 -82.72692780966929)"><path d="M-0.06 -0.79 C46.65 -1.6, 211.28 4.36, 280.14 -5.3 C349 -14.96, 368.15 -32.25, 413.11 -58.75 C458.06 -85.24, 505.21 -152.02, 549.86 -164.25 C594.51 -176.48, 637.45 -153.07, 681.02 -132.15 C724.59 -111.23, 769.03 -59.81, 811.29 -38.74 C853.56 -17.68, 862.3 -11.61, 934.62 -5.74 C1006.93 0.13, 1193.74 -4.05, 1245.2 -3.5 M-1.55 1.41 C45.12 0.8, 210.76 5.86, 279.82 -4.04 C348.88 -13.95, 367.8 -31.52, 412.79 -58.03 C457.79 -84.53, 505.25 -150.81, 549.81 -163.06 C594.37 -175.31, 636.33 -152.09, 680.14 -131.54 C723.95 -110.99, 770.22 -60.5, 812.69 -39.76 C855.16 -19.01, 862.97 -13.58, 934.95 -7.08 C1006.93 -0.57, 1192.94 -1.26, 1244.58 -0.72" stroke="#000000" stroke-width="1" fill="none"></path></g><g transform="translate(40.4949303519918 459.7618865984681) rotate(0 621.8234606451437 -82.72692780966929)"><path d="M1215.02 11.39 C1223.71 7.91, 1230.89 2.58, 1244.86 1.16 M1215.85 9.41 C1226.45 5.14, 1234.39 2.62, 1244.24 -0.21" stroke="#000000" stroke-width="1" fill="none"></path></g><g transform="translate(40.4949303519918 459.7618865984681) rotate(0 621.8234606451437 -82.72692780966929)"><path d="M1215.12 -9.13 C1223.7 -6.65, 1230.86 -6.01, 1244.86 1.16 M1215.95 -11.11 C1226.51 -8.5, 1234.42 -4.16, 1244.24 -0.21" stroke="#000000" stroke-width="1" fill="none"></path></g></g><mask></mask><g stroke-linecap="round"><g transform="translate(1002.3471557489781 453.93391504093177) rotate(0 -5.634764793953764 -218.2963223377693)"><path d="M-1.16 -0.86 C-2.91 -73.59, -8.46 -363.52, -10.11 -435.74" stroke="#000000" stroke-width="1.5" fill="none" stroke-dasharray="8 9"></path></g></g><mask></mask><g stroke-linecap="round"><g transform="translate(296.1570249335937 456.49825088995647) rotate(0 -1.6745863633341287 -220.71759117077573)"><path d="M-1.14 -0.69 C-1.55 -74.15, -1.74 -367.32, -2.21 -440.74" stroke="#000000" stroke-width="1.5" fill="none" stroke-dasharray="8 9"></path></g></g><mask></mask><g mask="url(#mask-Iq9dHhMi5Vp52gy3vlpx7)" stroke-linecap="round"><g transform="translate(295.32804185725195 206.84057547697546) rotate(0 350.73514172369937 0.42347851456696617)"><path d="M-0.1 -0.68 C116.77 -0.48, 583.81 1, 700.87 1.28 M-1.61 1.57 C115.65 1.39, 585.85 -0.84, 703.08 -0.72" stroke="#000000" stroke-width="4" fill="none"></path></g><g transform="translate(295.32804185725195 206.84057547697546) rotate(0 350.73514172369937 0.42347851456696617)"><path d="M673.77 8.01 C682.99 7.56, 690.2 5.93, 702.9 -1.44 M674.52 10.33 C683.77 5.66, 694.38 1.92, 703.06 -1.68" stroke="#000000" stroke-width="4" fill="none"></path></g><g transform="translate(295.32804185725195 206.84057547697546) rotate(0 350.73514172369937 0.42347851456696617)"><path d="M673.72 -12.51 C682.96 -7.37, 690.18 -3.39, 702.9 -1.44 M674.48 -10.19 C683.85 -7.75, 694.47 -4.37, 703.06 -1.68" stroke="#000000" stroke-width="4" fill="none"></path></g></g><mask id="mask-Iq9dHhMi5Vp52gy3vlpx7"><rect x="0" y="0" fill="#fff" width="1097.1560570012227" height="307.87879047399167"></rect><rect x="606.7420494292378" y="194.85968297548357" fill="#000" width="79" height="25" opacity="1"></rect></mask><g transform="translate(606.7420494292373 194.85968297548345) rotate(0 39.32113415171375 12.40437101605886)"><text x="39.5" y="16" font-family="Virgil, Segoe UI Emoji" font-size="20px" fill="#000000" text-anchor="middle" style="white-space: pre;" direction="ltr">Timebox</text></g><g mask="url(#mask-RRLg-Tiv0ioVb5MChVrD-)" stroke-linecap="round"><g transform="translate(1061.1846342685128 454.1933202734725) rotate(0 0.57830893223354 -82.888967095196)"><path d="M0.97 0.38 C0.88 -27.39, -0.38 -138.47, -0.63 -166.16 M0.03 -0.47 C0.33 -28.07, 2.01 -136.73, 1.76 -164.64" stroke="#000000" stroke-width="4" fill="none"></path></g><g transform="translate(1061.1846342685128 454.1933202734725) rotate(0 0.57830893223354 -82.888967095196)"><path d="M12.51 -137.45 C8.7 -145.51, 6.34 -152.11, 0.24 -163.07 M12.53 -136.11 C9.39 -144.98, 6.04 -153.45, 1.63 -165.19" stroke="#000000" stroke-width="4" fill="none"></path></g><g transform="translate(1061.1846342685128 454.1933202734725) rotate(0 0.57830893223354 -82.888967095196)"><path d="M-8.01 -137.55 C-5.73 -145.75, -2.01 -152.32, 0.24 -163.07 M-7.99 -136.21 C-4.64 -145.08, -1.49 -153.52, 1.63 -165.19" stroke="#000000" stroke-width="4" fill="none"></path></g></g><mask id="mask-RRLg-Tiv0ioVb5MChVrD-"><rect x="0" y="0" fill="#fff" width="1161.1847055565356" height="720.306389086319"></rect><rect x="1005.184669912524" y="358.6367858670492" fill="#000" width="112" height="25" opacity="1"></rect></mask><g transform="translate(1005.184669912524 358.6367858670494) rotate(0 56.578273288222135 12.66756731122723)"><text x="56" y="16" font-family="Virgil, Segoe UI Emoji" font-size="20px" fill="#000000" text-anchor="middle" style="white-space: pre;" direction="ltr">Measurable</text></g><g mask="url(#mask-3AUvBtFUYupZPTHBqBOfF)" stroke-linecap="round"><g transform="translate(238.7457047226526 135.03670803179602) rotate(0 -1.105524773040429 75.94473207713276)"><path d="M0.06 -0.21 C-0.41 25.07, -1.24 126.72, -1.94 152.02 M-1.36 -1.36 C-1.97 24.03, -2.2 127.62, -2.27 153.25" stroke="#000000" stroke-width="4" fill="none"></path></g><g transform="translate(238.7457047226526 135.03670803179602) rotate(0 -1.105524773040429 75.94473207713276)"><path d="M-12.8 126.99 C-9.53 133.91, -6.37 148.02, -1.85 152.62 M-12.37 124.28 C-10.5 131.41, -7.25 137.32, -2.55 152.42" stroke="#000000" stroke-width="4" fill="none"></path></g><g transform="translate(238.7457047226526 135.03670803179602) rotate(0 -1.105524773040429 75.94473207713276)"><path d="M7.72 127.04 C3.28 133.96, -1.28 148.04, -1.85 152.62 M8.15 124.34 C5.46 131.37, 4.16 137.28, -2.55 152.42" stroke="#000000" stroke-width="4" fill="none"></path></g></g><mask id="mask-3AUvBtFUYupZPTHBqBOfF"><rect x="0" y="0" fill="#fff" width="341.860254663005" height="387.6531838661616"></rect><rect x="186.6884297524764" y="198.84494594897876" fill="#000" width="101" height="25" opacity="1"></rect></mask><g transform="translate(186.6884297524764 198.84494594897888) rotate(0 50.951750197135766 12.136494159950018)"><text x="50.5" y="16" font-family="Virgil, Segoe UI Emoji" font-size="20px" fill="#000000" text-anchor="middle" style="white-space: pre;" direction="ltr">Achievable</text></g><g stroke-linecap="round"><g transform="translate(9.42492343038316 289.89715740874715) rotate(0 626.0250132042833 0.8951348308389697)"><path d="M0.58 1.12 C209.26 1.34, 1043.14 0.68, 1251.47 0.63" stroke="#000000" stroke-width="1.5" fill="none" stroke-dasharray="8 9"></path></g></g><mask></mask><g stroke-linecap="round" transform="translate(344.1236952262075 43.22756472634205) rotate(0 60.73511395330422 58.13960022343787)"><path d="M78.56 2.28 C87.46 3.99, 98.11 10.06, 104.66 16.6 C111.22 23.14, 115.32 32.74, 117.9 41.54 C120.48 50.33, 121.77 60.57, 120.14 69.37 C118.51 78.17, 113.95 87.49, 108.12 94.34 C102.29 101.19, 93.82 106.97, 85.16 110.46 C76.5 113.94, 65.35 115.82, 56.16 115.24 C46.97 114.66, 38.09 111.62, 30.03 106.97 C21.97 102.33, 12.67 94.95, 7.81 87.36 C2.94 79.77, 1.25 70.17, 0.83 61.44 C0.41 52.71, 1.52 42.98, 5.28 34.95 C9.03 26.93, 16.03 19.05, 23.35 13.31 C30.67 7.57, 38.28 1.72, 49.17 0.52 C60.06 -0.69, 80.84 4.2, 88.7 6.08 C96.56 7.95, 97.03 10.96, 96.33 11.77 M82.69 3.31 C91.48 5.52, 99.68 12.57, 106 19.32 C112.32 26.07, 118.36 34.98, 120.6 43.82 C122.84 52.66, 121.8 63.77, 119.42 72.36 C117.04 80.95, 112.61 88.92, 106.32 95.34 C100.04 101.76, 90.36 107.34, 81.7 110.89 C73.03 114.43, 63.66 117.28, 54.33 116.6 C45 115.93, 33.59 111.72, 25.74 106.84 C17.88 101.97, 11.34 95.3, 7.2 87.37 C3.07 79.44, 1.2 68.44, 0.92 59.27 C0.63 50.1, 1.45 40.37, 5.49 32.34 C9.53 24.31, 17.29 16.18, 25.15 11.08 C33.01 5.99, 43.03 2.82, 52.64 1.75 C62.24 0.68, 78.07 4.15, 82.76 4.64 C87.45 5.13, 81.35 4.07, 80.78 4.69" stroke="#000000" stroke-width="1" fill="none"></path></g><g transform="translate(349.8588091795116 88.86716494977986) rotate(0 55 12.5)"><text x="55" y="16" font-family="Virgil, Segoe UI Emoji" font-size="20px" fill="#000000" text-anchor="middle" style="white-space: pre;" direction="ltr">Investment</text></g><g stroke-linecap="round" transform="translate(755.0402504425876 10) rotate(0 92.5 90)"><path d="M93.03 -0.19 C103.96 -1.74, 116.89 1.78, 127.91 6.37 C138.93 10.96, 150.75 18.94, 159.13 27.34 C167.51 35.74, 173.9 46.13, 178.18 56.78 C182.46 67.44, 185 79.91, 184.8 91.27 C184.61 102.64, 181.67 114.39, 177.04 124.99 C172.4 135.58, 165.45 146.72, 157.01 154.85 C148.58 162.97, 137.32 169.62, 126.42 173.72 C115.52 177.81, 103.26 179.45, 91.64 179.44 C80.01 179.42, 67.62 178.17, 56.67 173.65 C45.72 169.12, 34.2 160.6, 25.94 152.31 C17.68 144.02, 11.44 134.41, 7.12 123.93 C2.8 113.45, -0.09 101.1, 0.03 89.44 C0.15 77.77, 3.09 64.46, 7.84 53.92 C12.58 43.38, 20.04 34.12, 28.51 26.18 C36.97 18.25, 46.93 10.74, 58.61 6.31 C70.28 1.88, 91 0.2, 98.56 -0.41 C106.11 -1.01, 104.16 0.98, 103.94 2.68 M114.21 3.73 C125.36 5.23, 138.36 11.07, 147.78 17.73 C157.19 24.39, 164.43 33.71, 170.71 43.7 C176.99 53.68, 183.31 66.13, 185.45 77.63 C187.58 89.13, 186.53 101.89, 183.5 112.67 C180.48 123.46, 174.77 133.33, 167.3 142.35 C159.84 151.37, 149.06 160.87, 138.72 166.8 C128.37 172.74, 116.53 176.17, 105.24 177.95 C93.95 179.74, 82.46 180.23, 70.98 177.51 C59.5 174.8, 46.04 168.67, 36.36 161.67 C26.69 154.67, 18.65 145.28, 12.94 135.51 C7.24 125.75, 4.09 114.13, 2.14 103.08 C0.2 92.04, -1.5 80.54, 1.28 69.25 C4.07 57.95, 11.55 44.74, 18.86 35.34 C26.17 25.93, 34.94 18.55, 45.14 12.81 C55.35 7.07, 68.7 2.44, 80.11 0.9 C91.53 -0.64, 107.86 3.16, 113.62 3.57 C119.38 3.97, 114.92 1.79, 114.67 3.34" stroke="#000000" stroke-width="1" fill="none"></path></g><g transform="translate(792.0402504425876 75) rotate(0 55.5 25)"><text x="55.5" y="16" font-family="Virgil, Segoe UI Emoji" font-size="20px" fill="#000000" text-anchor="middle" style="white-space: pre;" direction="ltr">Return</text><text x="55.5" y="41" font-family="Virgil, Segoe UI Emoji" font-size="20px" fill="#000000" text-anchor="middle" style="white-space: pre;" direction="ltr">(Over time)</text></g><g mask="url(#mask-b1ZMfo8T3My8tkT18b4kI)" stroke-linecap="round"><g transform="translate(466.74070164283626 101.95398050069059) rotate(0 141.57075458117697 -1.2768887349501483)"><path d="M-0.15 0.19 C47.4 -0.23, 237.39 -2.32, 284.84 -2.74 M-1.69 -0.76 C45.7 -1, 235.48 -1.5, 283.59 -1.56" stroke="#000000" stroke-width="1" fill="none"></path></g><g transform="translate(466.74070164283626 101.95398050069059) rotate(0 141.57075458117697 -1.2768887349501483)"><path d="M255.73 7.81 C261.56 4.69, 269.52 3.35, 283.61 -1.52 M256.17 9.6 C263.15 5.46, 271.02 3.59, 283.03 -1.05" stroke="#000000" stroke-width="1" fill="none"></path></g><g transform="translate(466.74070164283626 101.95398050069059) rotate(0 141.57075458117697 -1.2768887349501483)"><path d="M255.69 -12.71 C261.48 -10.55, 269.46 -6.6, 283.61 -1.52 M256.13 -10.92 C262.98 -9.16, 270.87 -5.12, 283.03 -1.05" stroke="#000000" stroke-width="1" fill="none"></path></g></g><mask id="mask-b1ZMfo8T3My8tkT18b4kI"><rect x="0" y="0" fill="#fff" width="852.1458904274807" height="204.01625294079338"></rect><rect x="524.4432960351587" y="88.4228442806392" fill="#000" width="170" height="25" opacity="1"></rect></mask><g transform="translate(524.4432960351583 88.4228442806392) rotate(0 83.86816018885474 12.254247485101246)"><text x="85" y="16" font-family="Virgil, Segoe UI Emoji" font-size="20px" fill="#000000" text-anchor="middle" style="white-space: pre;" direction="ltr">leads to greater</text></g><g mask="url(#mask-XQ_VeYvz6z1LxFqync_4F)" stroke-linecap="round"><g transform="translate(294.9877408003456 234.35310655918693) rotate(0 350.83973347162225 1.155265603710916)"><path d="M-0.7 1.14 C116.36 1.15, 585.31 0.35, 702.38 0.53 M1.14 0.69 C118.08 0.82, 585.1 1.84, 701.71 1.8" stroke="#000000" stroke-width="1" fill="none"></path></g><g transform="translate(294.9877408003456 234.35310655918693) rotate(0 350.83973347162225 1.155265603710916)"><path d="M699.57 -5.27 C701.21 -5.86, 703.41 -5.78, 704.95 -5.31 C706.49 -4.85, 707.91 -4, 708.82 -2.48 C709.74 -0.96, 710.81 2.06, 710.43 3.82 C710.04 5.58, 708.06 7, 706.51 8.09 C704.95 9.18, 702.76 10.45, 701.09 10.36 C699.41 10.26, 697.7 8.89, 696.46 7.53 C695.23 6.17, 693.91 4.03, 693.66 2.18 C693.42 0.34, 693.97 -2.04, 694.98 -3.55 C696 -5.07, 698.81 -6.38, 699.76 -6.92 C700.71 -7.45, 700.48 -7.05, 700.68 -6.77 M699.31 -6.72 C700.95 -7.05, 704.14 -5.57, 705.75 -4.69 C707.36 -3.81, 708.44 -3, 708.97 -1.44 C709.5 0.11, 709.32 2.82, 708.93 4.63 C708.53 6.43, 707.81 8.56, 706.59 9.39 C705.37 10.23, 703.51 10.13, 701.61 9.66 C699.72 9.19, 696.72 7.79, 695.22 6.59 C693.72 5.4, 692.41 4.13, 692.62 2.5 C692.82 0.86, 695.08 -1.69, 696.46 -3.23 C697.84 -4.78, 700.48 -6.5, 700.9 -6.78 C701.32 -7.06, 699.28 -5.29, 698.99 -4.91" stroke="none" stroke-width="0" fill="#000000"></path></g></g><mask id="mask-XQ_VeYvz6z1LxFqync_4F"><rect x="0" y="0" fill="#fff" width="1096.8157559443164" height="335.39132155620314"></rect><rect x="587.9017483723314" y="224.87221405769503" fill="#000" width="116" height="20" opacity="1"></rect></mask><g transform="translate(587.901748372331 224.87221405769515) rotate(0 57.92572589963663 10.63615810520281)"><text x="58" y="15" font-family="Virgil, Segoe UI Emoji" font-size="16px" fill="#000000" text-anchor="middle" style="white-space: pre;" direction="ltr">Sprint (1 Week)</text></g><g mask="url(#mask-nfuzb5eGKvUTmsT3KOJJa)" stroke-linecap="round"><g transform="translate(296.545146465229 263.9419607033973) rotate(0 350.20787459961923 0.0011883839314350553)"><path d="M0.02 -0.5 C116.83 -0.56, 584.87 0.35, 701.84 0.54 M-1.42 -1.81 C115.13 -1.78, 583.81 1.22, 700.9 1.81" stroke="#000000" stroke-width="1" fill="none"></path></g><g transform="translate(296.545146465229 263.9419607033973) rotate(0 350.20787459961923 0.0011883839314350553)"><path d="M700.95 -6.43 C702.74 -6.8, 704.57 -6.33, 706.01 -5.27 C707.44 -4.22, 709.04 -1.92, 709.55 -0.08 C710.05 1.76, 709.96 4.28, 709.05 5.75 C708.14 7.23, 705.97 8.22, 704.11 8.77 C702.25 9.32, 699.59 9.26, 697.89 9.03 C696.18 8.8, 694.82 8.57, 693.89 7.37 C692.95 6.18, 692.17 3.85, 692.29 1.87 C692.41 -0.12, 693 -3.08, 694.61 -4.53 C696.21 -5.98, 700.58 -6.59, 701.93 -6.84 C703.28 -7.09, 702.8 -6.14, 702.71 -6.03 M701.24 -6.38 C703.35 -6.25, 705.88 -5.23, 707.22 -4.06 C708.56 -2.9, 709.29 -0.83, 709.29 0.59 C709.29 2, 708.03 3.1, 707.21 4.42 C706.39 5.74, 705.71 7.6, 704.39 8.51 C703.06 9.41, 701 9.99, 699.26 9.83 C697.52 9.68, 694.89 9.28, 693.93 7.55 C692.96 5.83, 693.03 1.44, 693.46 -0.53 C693.89 -2.51, 695.16 -3.21, 696.51 -4.3 C697.86 -5.4, 701.03 -6.99, 701.56 -7.09 C702.1 -7.2, 699.8 -5.06, 699.71 -4.95" stroke="none" stroke-width="0" fill="#000000"></path></g></g><mask id="mask-nfuzb5eGKvUTmsT3KOJJa"><rect x="0" y="0" fill="#fff" width="1098.3731616091998" height="364.9801757004135"></rect><rect x="535.9591540372139" y="254.4610682019054" fill="#000" width="223" height="20" opacity="1"></rect></mask><g transform="translate(535.9591540372139 254.46106820190528) rotate(0 110.79386702763406 9.48208088542333)"><text x="111.5" y="15" font-family="Virgil, Segoe UI Emoji" font-size="16px" fill="#000000" text-anchor="middle" style="white-space: pre;" direction="ltr">Increment (4 Sprints/Weeks)</text></g><g mask="url(#mask-1iEOnljmGknYLbxjQOhpS)" stroke-linecap="round"><g transform="translate(129.75970558191398 138.0767288187708) rotate(0 0.4438135450828895 75.34606627708172)"><path d="M0.77 -0.39 C0.79 24.74, -0.63 125.38, -0.72 150.71 M-0.28 -1.64 C0.2 23.71, 1.64 127.1, 1.61 152.33" stroke="#000000" stroke-width="1" fill="none"></path></g><g transform="translate(129.75970558191398 138.0767288187708) rotate(0 0.4438135450828895 75.34606627708172)"><path d="M2.72 145.39 C4.28 145.78, 6.69 146.15, 7.86 147.42 C9.04 148.68, 9.88 151.1, 9.78 152.96 C9.68 154.81, 8.5 157.45, 7.28 158.54 C6.06 159.63, 4.23 159.47, 2.47 159.49 C0.7 159.5, -1.88 159.47, -3.33 158.64 C-4.78 157.81, -6.03 156.18, -6.22 154.52 C-6.41 152.86, -5.37 150.37, -4.5 148.69 C-3.62 147.01, -2.56 144.92, -0.96 144.42 C0.63 143.92, 3.98 145.47, 5.08 145.68 C6.18 145.88, 5.79 145.6, 5.63 145.66 M3.62 144.87 C5.15 144.8, 6.13 144.45, 7.19 145.75 C8.25 147.04, 9.64 150.67, 9.97 152.64 C10.29 154.61, 10.25 156.39, 9.13 157.57 C8.02 158.75, 5.21 159.63, 3.29 159.72 C1.36 159.82, -0.74 158.76, -2.42 158.14 C-4.09 157.51, -6.3 157.5, -6.77 155.96 C-7.25 154.43, -5.82 150.58, -5.26 148.92 C-4.7 147.26, -4.88 146.68, -3.4 146 C-1.93 145.32, 2.66 145.15, 3.57 144.84 C4.47 144.53, 2.39 144.07, 2.03 144.14" stroke="none" stroke-width="0" fill="#000000"></path></g></g><mask id="mask-1iEOnljmGknYLbxjQOhpS"><rect x="0" y="0" fill="#fff" width="229.75970558191398" height="388.61673901509255"></rect><rect x="85.75970558191398" y="193.3467339169316" fill="#000" width="88" height="40" opacity="1"></rect></mask><g transform="translate(85.75970558191398 193.34673391693173) rotate(0 44.44381354508289 20.076061178920895)"><text x="44" y="15" font-family="Virgil, Segoe UI Emoji" font-size="16px" fill="#000000" text-anchor="middle" style="white-space: pre;" direction="ltr">Minimize</text><text x="44" y="35" font-family="Virgil, Segoe UI Emoji" font-size="16px" fill="#000000" text-anchor="middle" style="white-space: pre;" direction="ltr">Investment</text></g><g mask="url(#mask-FZaEztS3H3ytFKF0oJBhE)" stroke-linecap="round"><g transform="translate(1161.1926958200363 455.15555726092805) rotate(0 -2.1285215975435676 -81.85645662334775)"><path d="M0.29 -0.23 C-0.43 -27.19, -3.25 -134.48, -4.15 -161.57 M-1.01 -1.39 C-1.82 -28.75, -3.75 -136.75, -4.55 -163.49" stroke="#000000" stroke-width="1" fill="none"></path></g><g transform="translate(1161.1926958200363 455.15555726092805) rotate(0 -2.1285215975435676 -81.85645662334775)"><path d="M-8.48 -171.66 C-6.85 -172.43, -3.4 -172.28, -1.69 -171.55 C0.02 -170.82, 0.94 -168.88, 1.78 -167.27 C2.62 -165.67, 3.37 -163.64, 3.35 -161.93 C3.32 -160.22, 3 -158.07, 1.62 -157.04 C0.25 -156.01, -2.96 -155.9, -4.91 -155.74 C-6.85 -155.58, -8.76 -155.23, -10.04 -156.09 C-11.31 -156.96, -12.39 -159.19, -12.56 -160.95 C-12.74 -162.7, -11.92 -165.01, -11.07 -166.63 C-10.22 -168.25, -8.25 -169.81, -7.44 -170.65 C-6.62 -171.5, -6.26 -171.72, -6.18 -171.68 M-4.86 -171.07 C-3.2 -171.44, -1.24 -172.21, -0.14 -171.37 C0.96 -170.53, 1.21 -167.91, 1.75 -166.03 C2.29 -164.16, 3.66 -161.5, 3.12 -160.12 C2.59 -158.75, -0.14 -158.72, -1.46 -157.77 C-2.79 -156.82, -3.49 -154.15, -4.84 -154.42 C-6.19 -154.69, -8.42 -157.6, -9.55 -159.37 C-10.68 -161.13, -11.36 -163.58, -11.63 -164.99 C-11.9 -166.41, -12.4 -166.65, -11.2 -167.85 C-9.99 -169.06, -5.11 -171.77, -4.39 -172.24 C-3.68 -172.71, -6.75 -170.9, -6.89 -170.68" stroke="none" stroke-width="0" fill="#000000"></path></g></g><mask id="mask-FZaEztS3H3ytFKF0oJBhE"><rect x="0" y="0" fill="#fff" width="1266.3836995170943" height="717.1158611364066"></rect><rect x="1124.5971939715077" y="354.1754053231889" fill="#000" width="68" height="40" opacity="1"></rect></mask><g transform="translate(1124.5971939715073 354.1754053231889) rotate(0 34.466980250985216 19.12369531439151)"><text x="34" y="15" font-family="Virgil, Segoe UI Emoji" font-size="16px" fill="#000000" text-anchor="middle" style="white-space: pre;" direction="ltr">Maximize</text><text x="34" y="35" font-family="Virgil, Segoe UI Emoji" font-size="16px" fill="#000000" text-anchor="middle" style="white-space: pre;" direction="ltr">Return</text></g><g mask="url(#mask-4gGB28g5tJnWxeeEB5VTX)" stroke-linecap="round"><g transform="translate(47.0653371718538 137.8991309939812) rotate(0 -0.07554369202352973 75.95879257716103)"><path d="M0.33 0.68 C0.08 25.82, -1.27 125.5, -1.13 150.44 M-0.96 -0.01 C-0.89 25.36, 0.65 126.66, 0.99 151.93" stroke="#000000" stroke-width="1" fill="none"></path></g><g transform="translate(47.0653371718538 137.8991309939812) rotate(0 -0.07554369202352973 75.95879257716103)"><path d="M-2.19 144.85 C-0.78 143.92, 0.18 143.53, 1.88 144.04 C3.59 144.56, 6.92 146.7, 8.03 147.94 C9.15 149.18, 8.59 149.94, 8.57 151.47 C8.55 152.99, 8.87 155.82, 7.92 157.07 C6.98 158.32, 4.86 158.61, 2.91 158.97 C0.95 159.33, -2.18 160.15, -3.79 159.24 C-5.4 158.32, -6.2 155.08, -6.74 153.45 C-7.29 151.83, -7.89 150.88, -7.07 149.48 C-6.25 148.08, -3.06 145.9, -1.8 145.05 C-0.54 144.2, 0.35 144.41, 0.49 144.38 M-0.42 145.08 C1.21 144.19, 2.15 143.18, 3.39 143.8 C4.62 144.42, 5.94 147.24, 6.99 148.8 C8.04 150.36, 9.69 151.65, 9.66 153.15 C9.64 154.66, 8.3 156.56, 6.82 157.81 C5.35 159.06, 2.64 160.71, 0.83 160.63 C-0.97 160.55, -2.7 158.47, -4 157.32 C-5.3 156.18, -6.88 155.4, -6.98 153.77 C-7.07 152.13, -5.5 149.03, -4.57 147.5 C-3.64 145.98, -1.83 145.26, -1.41 144.63 C-0.98 144, -1.86 143.41, -2 143.7" stroke="none" stroke-width="0" fill="#000000"></path></g></g><mask id="mask-4gGB28g5tJnWxeeEB5VTX"><rect x="0" y="0" fill="#fff" width="147.0653371718538" height="388.43914119030296"></rect><rect x="17.5653371718538" y="193.16913609214203" fill="#000" width="59" height="40" opacity="1"></rect></mask><g transform="translate(17.5653371718538 193.1691360921419) rotate(0 29.42445630797647 20.68878747900021)"><text x="29.5" y="15" font-family="Virgil, Segoe UI Emoji" font-size="16px" fill="#000000" text-anchor="middle" style="white-space: pre;" direction="ltr">Under</text><text x="29.5" y="35" font-family="Virgil, Segoe UI Emoji" font-size="16px" fill="#000000" text-anchor="middle" style="white-space: pre;" direction="ltr">Promise</text></g><g mask="url(#mask-B6ncT0tFABQNse8YsdaqF)" stroke-linecap="round"><g transform="translate(1232.6456800777166 456.17337327139364) rotate(0 -2.362841679272151 -80.95112174028088)"><path d="M-0.29 -0.85 C-1.24 -27.77, -4.72 -134.64, -5.42 -161.4 M1.76 1.33 C0.6 -25.97, -5.39 -135.76, -6.49 -163.23" stroke="#000000" stroke-width="1" fill="none"></path></g><g transform="translate(1232.6456800777166 456.17337327139364) rotate(0 -2.362841679272151 -80.95112174028088)"><path d="M-4.43 -171.46 C-3.06 -170.98, -1.78 -169.16, -0.76 -167.7 C0.26 -166.25, 1.68 -164.54, 1.66 -162.73 C1.65 -160.92, 0.33 -158.01, -0.84 -156.86 C-2.01 -155.72, -3.67 -155.88, -5.36 -155.84 C-7.04 -155.81, -9.54 -155.98, -10.95 -156.67 C-12.35 -157.36, -13.2 -158.21, -13.77 -159.98 C-14.34 -161.76, -14.93 -165.49, -14.36 -167.32 C-13.79 -169.16, -12.15 -170.56, -10.37 -171 C-8.58 -171.44, -4.88 -170.26, -3.65 -169.97 C-2.42 -169.69, -2.79 -169.21, -3 -169.3 M-6.92 -171.91 C-4.84 -172.32, -2.2 -171.22, -0.64 -170.11 C0.91 -169, 1.91 -166.72, 2.41 -165.25 C2.91 -163.77, 3.01 -162.69, 2.35 -161.25 C1.69 -159.81, 0.4 -157.61, -1.57 -156.63 C-3.54 -155.64, -7.39 -155.27, -9.48 -155.35 C-11.57 -155.42, -13.13 -155.78, -14.12 -157.08 C-15.11 -158.38, -15.96 -161.28, -15.45 -163.16 C-14.94 -165.03, -12.49 -167.02, -11.08 -168.33 C-9.67 -169.64, -7.87 -170.79, -7 -171.03 C-6.13 -171.27, -5.85 -169.63, -5.85 -169.76" stroke="none" stroke-width="0" fill="#000000"></path></g></g><mask id="mask-B6ncT0tFABQNse8YsdaqF"><rect x="0" y="0" fill="#fff" width="1337.8366837747747" height="718.1336771468722"></rect><rect x="1202.550178229188" y="355.1932213336545" fill="#000" width="55" height="40" opacity="1"></rect></mask><g transform="translate(1202.5501782291876 355.1932213336545) rotate(0 27.732660169256633 20.029030197458383)"><text x="27.5" y="15" font-family="Virgil, Segoe UI Emoji" font-size="16px" fill="#000000" text-anchor="middle" style="white-space: pre;" direction="ltr">Over</text><text x="27.5" y="35" font-family="Virgil, Segoe UI Emoji" font-size="16px" fill="#000000" text-anchor="middle" style="white-space: pre;" direction="ltr">Deliver</text></g></svg>